G04*
G04 #@! TF.GenerationSoftware,Altium Limited,Altium Designer,24.6.1 (21)*
G04*
G04 Layer_Physical_Order=2*
G04 Layer_Color=16711680*
%FSLAX25Y25*%
%MOIN*%
G70*
G04*
G04 #@! TF.SameCoordinates,EDD53237-EAC9-4869-82B0-0CFB14AF029E*
G04*
G04*
G04 #@! TF.FilePolarity,Positive*
G04*
G01*
G75*
%ADD10C,0.01000*%
%ADD55C,0.01800*%
%ADD56C,0.01300*%
%ADD59C,0.06000*%
%ADD60R,0.05906X0.05906*%
%ADD61C,0.05906*%
%ADD62O,0.03937X0.07087*%
%ADD63O,0.03937X0.08268*%
%ADD64R,0.06693X0.06200*%
%ADD65C,0.06693*%
%ADD66C,0.07087*%
%ADD67R,0.06000X0.06000*%
%ADD68C,0.05000*%
%ADD69C,0.12992*%
G36*
X402500Y100000D02*
X100000D01*
Y500000D01*
X119500D01*
X120121Y498500D01*
X117890Y496269D01*
X117027Y496500D01*
X115973D01*
X114956Y496227D01*
X114044Y495701D01*
X113299Y494956D01*
X112773Y494044D01*
X112500Y493026D01*
Y491973D01*
X112773Y490956D01*
X113299Y490044D01*
X114044Y489299D01*
X114956Y488772D01*
X115973Y488500D01*
X117027D01*
X118044Y488772D01*
X118956Y489299D01*
X119701Y490044D01*
X120228Y490956D01*
X120500Y491973D01*
Y493026D01*
X120269Y493890D01*
X121884Y495505D01*
X123084Y494584D01*
X122773Y494044D01*
X122500Y493026D01*
Y491973D01*
X122773Y490956D01*
X123299Y490044D01*
X124044Y489299D01*
X124956Y488772D01*
X125973Y488500D01*
X127027D01*
X128044Y488772D01*
X128956Y489299D01*
X129701Y490044D01*
X130227Y490956D01*
X130500Y491973D01*
Y493026D01*
X130227Y494044D01*
X129701Y494956D01*
X129339Y495318D01*
X129881Y496818D01*
X133120D01*
X133661Y495318D01*
X133299Y494956D01*
X132773Y494044D01*
X132500Y493026D01*
Y491973D01*
X132773Y490956D01*
X133299Y490044D01*
X134044Y489299D01*
X134956Y488772D01*
X135974Y488500D01*
X137027D01*
X138044Y488772D01*
X138956Y489299D01*
X139701Y490044D01*
X140227Y490956D01*
X140500Y491973D01*
Y493026D01*
X140227Y494044D01*
X139701Y494956D01*
X139339Y495318D01*
X139881Y496818D01*
X143120D01*
X143661Y495318D01*
X143299Y494956D01*
X142773Y494044D01*
X142500Y493026D01*
Y491973D01*
X142773Y490956D01*
X143299Y490044D01*
X144044Y489299D01*
X144956Y488772D01*
X145974Y488500D01*
X147027D01*
X148044Y488772D01*
X148956Y489299D01*
X149701Y490044D01*
X150227Y490956D01*
X150500Y491973D01*
Y493026D01*
X150227Y494044D01*
X149701Y494956D01*
X149339Y495318D01*
X149881Y496818D01*
X176709D01*
X177331Y495318D01*
X177323Y495310D01*
X176503Y494082D01*
X175938Y492718D01*
X175649Y491270D01*
Y489793D01*
X175938Y488345D01*
X176503Y486981D01*
X177200Y485937D01*
X177016Y485252D01*
X176517Y484437D01*
X150500D01*
Y486500D01*
X147000D01*
Y482500D01*
Y478500D01*
X150500D01*
Y480563D01*
X198500D01*
X199241Y480710D01*
X199870Y481130D01*
X207112Y488372D01*
X207928Y488154D01*
X208000D01*
Y492000D01*
X204153D01*
Y491928D01*
X204372Y491112D01*
X197698Y484437D01*
X189774D01*
X189275Y485252D01*
X189091Y485937D01*
X189788Y486981D01*
X190354Y488345D01*
X190642Y489793D01*
Y491270D01*
X190354Y492718D01*
X189788Y494082D01*
X188968Y495310D01*
X188960Y495318D01*
X189582Y496818D01*
X204550D01*
X205171Y495318D01*
X205022Y495169D01*
X204450Y494178D01*
X204153Y493072D01*
Y493000D01*
X208500D01*
Y492500D01*
X209000D01*
Y488154D01*
X209072D01*
X209888Y488372D01*
X219630Y478630D01*
X220259Y478210D01*
X221000Y478063D01*
X362843D01*
X363584Y478210D01*
X364212Y478630D01*
X367737Y482155D01*
X368316Y482000D01*
X368343D01*
Y485500D01*
X364843D01*
Y485473D01*
X364858Y485415D01*
X364443Y485063D01*
X363798Y485247D01*
X363000Y485807D01*
Y486527D01*
X362727Y487544D01*
X362201Y488456D01*
X361456Y489201D01*
X360544Y489727D01*
X359527Y490000D01*
X358473D01*
X357456Y489727D01*
X356544Y489201D01*
X355799Y488456D01*
X355273Y487544D01*
X355000Y486527D01*
Y485473D01*
X355273Y484456D01*
X355799Y483544D01*
X355906Y483437D01*
X355285Y481937D01*
X352873D01*
X352252Y483437D01*
X352358Y483544D01*
X352885Y484456D01*
X353157Y485473D01*
Y486527D01*
X352885Y487544D01*
X352358Y488456D01*
X351613Y489201D01*
X350701Y489727D01*
X349684Y490000D01*
X348631D01*
X347614Y489727D01*
X346701Y489201D01*
X345957Y488456D01*
X345430Y487544D01*
X345157Y486527D01*
Y485473D01*
X345430Y484456D01*
X345957Y483544D01*
X346063Y483437D01*
X345442Y481937D01*
X266461D01*
X266041Y483323D01*
X267405Y483888D01*
X268633Y484709D01*
X269677Y485753D01*
X270497Y486981D01*
X271062Y488345D01*
X271351Y489793D01*
Y491270D01*
X271062Y492718D01*
X270497Y494082D01*
X269677Y495310D01*
X269669Y495318D01*
X270290Y496818D01*
X365488D01*
X371475Y490831D01*
X370553Y489631D01*
X370387Y489727D01*
X369369Y490000D01*
X369343D01*
Y486500D01*
X372843D01*
Y486527D01*
X372570Y487544D01*
X372474Y487711D01*
X373674Y488632D01*
X374916Y487390D01*
X374685Y486527D01*
Y485473D01*
X374958Y484456D01*
X375484Y483544D01*
X376229Y482799D01*
X377141Y482273D01*
X378158Y482000D01*
X379212D01*
X380229Y482273D01*
X381141Y482799D01*
X381886Y483544D01*
X382412Y484456D01*
X382685Y485473D01*
Y486527D01*
X382412Y487544D01*
X381886Y488456D01*
X381141Y489201D01*
X380229Y489727D01*
X379212Y490000D01*
X378158D01*
X377295Y489769D01*
X368564Y498500D01*
X369185Y500000D01*
X402500D01*
Y100000D01*
D02*
G37*
G36*
X258040Y495318D02*
X258032Y495310D01*
X257211Y494082D01*
X256646Y492718D01*
X256358Y491270D01*
Y489793D01*
X256646Y488345D01*
X257211Y486981D01*
X258032Y485753D01*
X259076Y484709D01*
X260304Y483888D01*
X261668Y483323D01*
X261248Y481937D01*
X221802D01*
X216850Y486889D01*
X217627Y488234D01*
X217928Y488154D01*
X219072D01*
X220178Y488450D01*
X221169Y489022D01*
X221978Y489831D01*
X222550Y490822D01*
X222724Y491469D01*
X224276D01*
X224450Y490822D01*
X225022Y489831D01*
X225831Y489022D01*
X226822Y488450D01*
X227928Y488154D01*
X229072D01*
X230178Y488450D01*
X231169Y489022D01*
X231978Y489831D01*
X232550Y490822D01*
X232723Y491469D01*
X234277D01*
X234450Y490822D01*
X235022Y489831D01*
X235831Y489022D01*
X236822Y488450D01*
X237928Y488154D01*
X239072D01*
X240178Y488450D01*
X241169Y489022D01*
X241978Y489831D01*
X242550Y490822D01*
X242846Y491928D01*
Y493072D01*
X242550Y494178D01*
X241978Y495169D01*
X241829Y495318D01*
X242450Y496818D01*
X257418D01*
X258040Y495318D01*
D02*
G37*
%LPC*%
G36*
X368343Y490000D02*
X368316D01*
X367299Y489727D01*
X366387Y489201D01*
X365642Y488456D01*
X365115Y487544D01*
X364843Y486527D01*
Y486500D01*
X368343D01*
Y490000D01*
D02*
G37*
G36*
X146000Y486500D02*
X142500D01*
Y483000D01*
X146000D01*
Y486500D01*
D02*
G37*
G36*
X372843Y485500D02*
X369343D01*
Y482000D01*
X369369D01*
X370387Y482273D01*
X371299Y482799D01*
X372043Y483544D01*
X372570Y484456D01*
X372843Y485473D01*
Y485500D01*
D02*
G37*
G36*
X146000Y482000D02*
X142500D01*
Y478500D01*
X146000D01*
Y482000D01*
D02*
G37*
G36*
X137027Y486500D02*
X135974D01*
X134956Y486227D01*
X134044Y485701D01*
X133299Y484956D01*
X132773Y484044D01*
X132500Y483027D01*
Y481973D01*
X132773Y480956D01*
X133299Y480044D01*
X134044Y479299D01*
X134956Y478773D01*
X135974Y478500D01*
X137027D01*
X138044Y478773D01*
X138956Y479299D01*
X139701Y480044D01*
X140227Y480956D01*
X140500Y481973D01*
Y483027D01*
X140227Y484044D01*
X139701Y484956D01*
X138956Y485701D01*
X138044Y486227D01*
X137027Y486500D01*
D02*
G37*
G36*
X127027D02*
X125973D01*
X124956Y486227D01*
X124044Y485701D01*
X123299Y484956D01*
X122773Y484044D01*
X122500Y483027D01*
Y481973D01*
X122773Y480956D01*
X123299Y480044D01*
X124044Y479299D01*
X124956Y478773D01*
X125973Y478500D01*
X127027D01*
X128044Y478773D01*
X128956Y479299D01*
X129701Y480044D01*
X130227Y480956D01*
X130500Y481973D01*
Y483027D01*
X130227Y484044D01*
X129701Y484956D01*
X128956Y485701D01*
X128044Y486227D01*
X127027Y486500D01*
D02*
G37*
G36*
X117027Y486500D02*
X115973D01*
X114956Y486227D01*
X114044Y485701D01*
X113299Y484956D01*
X112773Y484044D01*
X112500Y483026D01*
Y481973D01*
X112773Y480956D01*
X113299Y480044D01*
X114044Y479299D01*
X114956Y478772D01*
X115973Y478500D01*
X117027D01*
X118044Y478772D01*
X118956Y479299D01*
X119701Y480044D01*
X120228Y480956D01*
X120500Y481973D01*
Y483026D01*
X120228Y484044D01*
X119701Y484956D01*
X118956Y485701D01*
X118044Y486227D01*
X117027Y486500D01*
D02*
G37*
G36*
X264593Y407477D02*
X263116D01*
X261668Y407188D01*
X260304Y406623D01*
X259076Y405803D01*
X258032Y404759D01*
X257211Y403531D01*
X256646Y402167D01*
X256358Y400719D01*
Y399242D01*
X256646Y397794D01*
X257211Y396430D01*
X258032Y395202D01*
X259076Y394158D01*
X260304Y393337D01*
X261668Y392772D01*
X263116Y392484D01*
X264593D01*
X266041Y392772D01*
X267405Y393337D01*
X268633Y394158D01*
X269677Y395202D01*
X270497Y396430D01*
X271062Y397794D01*
X271351Y399242D01*
Y400719D01*
X271062Y402167D01*
X270497Y403531D01*
X269677Y404759D01*
X268633Y405803D01*
X267405Y406623D01*
X266041Y407188D01*
X264593Y407477D01*
D02*
G37*
G36*
X183884D02*
X182407D01*
X180959Y407188D01*
X179595Y406623D01*
X178367Y405803D01*
X177323Y404759D01*
X176503Y403531D01*
X175938Y402167D01*
X175649Y400719D01*
Y399242D01*
X175938Y397794D01*
X176503Y396430D01*
X177323Y395202D01*
X178367Y394158D01*
X179595Y393337D01*
X180959Y392772D01*
X182407Y392484D01*
X183884D01*
X185332Y392772D01*
X186696Y393337D01*
X187924Y394158D01*
X188968Y395202D01*
X189788Y396430D01*
X190354Y397794D01*
X190642Y399242D01*
Y400719D01*
X190354Y402167D01*
X189788Y403531D01*
X188968Y404759D01*
X187924Y405803D01*
X186696Y406623D01*
X185332Y407188D01*
X183884Y407477D01*
D02*
G37*
G36*
X214953Y362953D02*
X207047D01*
Y355047D01*
X214953D01*
Y362953D01*
D02*
G37*
G36*
X270500Y352953D02*
X270480D01*
X269474Y352683D01*
X268573Y352163D01*
X267837Y351427D01*
X267317Y350526D01*
X267047Y349520D01*
Y349500D01*
X270500D01*
Y352953D01*
D02*
G37*
G36*
X388354Y347978D02*
X388352Y347977D01*
X388350Y347978D01*
X387713Y347973D01*
X387663Y347951D01*
X387608Y347961D01*
X386362Y347704D01*
X386317Y347673D01*
X386262Y347672D01*
X385089Y347178D01*
X385051Y347138D01*
X384997Y347127D01*
X383943Y346415D01*
X383912Y346369D01*
X383861Y346347D01*
X382965Y345444D01*
X382945Y345392D01*
X382899Y345362D01*
X382195Y344301D01*
X382185Y344247D01*
X382146Y344208D01*
X381662Y343032D01*
X381662Y342976D01*
X381631Y342931D01*
X381384Y341682D01*
X381395Y341628D01*
X381374Y341577D01*
Y340305D01*
X381395Y340254D01*
X381384Y340200D01*
X381631Y338952D01*
X381662Y338906D01*
X381662Y338851D01*
X382146Y337674D01*
X382185Y337635D01*
X382195Y337581D01*
X382899Y336521D01*
X382945Y336490D01*
X382965Y336439D01*
X383861Y335535D01*
X383912Y335514D01*
X383943Y335468D01*
X384997Y334755D01*
X385051Y334744D01*
X385089Y334705D01*
X386262Y334210D01*
X386317Y334210D01*
X386362Y334179D01*
X387609Y333921D01*
X387663Y333931D01*
X387713Y333910D01*
X388350Y333904D01*
X388354Y333906D01*
X388359Y333904D01*
X388995Y333910D01*
X389046Y333931D01*
X389100Y333921D01*
X390346Y334179D01*
X390392Y334210D01*
X390447Y334210D01*
X391619Y334705D01*
X391658Y334744D01*
X391712Y334755D01*
X392766Y335468D01*
X392796Y335514D01*
X392847Y335535D01*
X393743Y336439D01*
X393764Y336490D01*
X393810Y336521D01*
X394513Y337581D01*
X394524Y337635D01*
X394563Y337674D01*
X395047Y338851D01*
X395047Y338906D01*
X395077Y338952D01*
X395324Y340200D01*
X395314Y340254D01*
X395335Y340305D01*
Y341577D01*
X395314Y341628D01*
X395324Y341682D01*
X395077Y342931D01*
X395047Y342976D01*
X395047Y343032D01*
X394563Y344208D01*
X394524Y344247D01*
X394513Y344301D01*
X393810Y345362D01*
X393764Y345392D01*
X393743Y345444D01*
X392847Y346347D01*
X392796Y346369D01*
X392766Y346415D01*
X391712Y347127D01*
X391658Y347138D01*
X391619Y347178D01*
X390447Y347672D01*
X390392Y347673D01*
X390346Y347704D01*
X389100Y347961D01*
X389046Y347951D01*
X388995Y347973D01*
X388359Y347978D01*
X388357Y347977D01*
X388354Y347978D01*
D02*
G37*
G36*
X271520Y362953D02*
X270480D01*
X269474Y362683D01*
X268573Y362163D01*
X267837Y361427D01*
X267317Y360526D01*
X267047Y359520D01*
Y358480D01*
X267317Y357474D01*
X267837Y356573D01*
X268573Y355837D01*
X269474Y355317D01*
X270480Y355047D01*
X271520D01*
X272526Y355317D01*
X273427Y355837D01*
X274163Y356573D01*
X274593Y357318D01*
X362503D01*
X366318Y353503D01*
Y347855D01*
X364818Y347070D01*
X364544Y347227D01*
X363527Y347500D01*
X363500D01*
Y343500D01*
X362500D01*
Y347500D01*
X362474D01*
X361895Y347345D01*
X358470Y350770D01*
X357841Y351190D01*
X357100Y351337D01*
X304370D01*
X303629Y351190D01*
X303251Y350937D01*
X274446D01*
X274163Y351427D01*
X273427Y352163D01*
X272526Y352683D01*
X271520Y352953D01*
X271500D01*
Y349000D01*
Y345047D01*
X271520D01*
X272526Y345317D01*
X273427Y345837D01*
X274163Y346573D01*
X274446Y347063D01*
X300962D01*
X301588Y345563D01*
X301469Y345444D01*
X301449Y345392D01*
X301403Y345362D01*
X300699Y344301D01*
X300689Y344247D01*
X300650Y344208D01*
X300166Y343032D01*
X300166Y342976D01*
X300135Y342931D01*
X299888Y341682D01*
X299899Y341628D01*
X299878Y341577D01*
Y340305D01*
X299899Y340254D01*
X299888Y340200D01*
X300135Y338952D01*
X300166Y338906D01*
X300166Y338851D01*
X300650Y337674D01*
X300689Y337635D01*
X300699Y337581D01*
X301403Y336521D01*
X301449Y336490D01*
X301469Y336439D01*
X302365Y335535D01*
X302416Y335514D01*
X302447Y335468D01*
X303501Y334755D01*
X303555Y334744D01*
X303593Y334705D01*
X304766Y334210D01*
X304821Y334210D01*
X304866Y334179D01*
X306113Y333921D01*
X306167Y333931D01*
X306217Y333910D01*
X306854Y333904D01*
X306858Y333906D01*
X306863Y333904D01*
X307499Y333910D01*
X307550Y333931D01*
X307604Y333921D01*
X308850Y334179D01*
X308896Y334210D01*
X308951Y334210D01*
X310123Y334705D01*
X310162Y334744D01*
X310216Y334755D01*
X311270Y335468D01*
X311300Y335514D01*
X311351Y335535D01*
X312247Y336439D01*
X312268Y336490D01*
X312314Y336521D01*
X313017Y337581D01*
X313028Y337635D01*
X313067Y337674D01*
X313551Y338851D01*
X313551Y338906D01*
X313581Y338952D01*
X313828Y340200D01*
X313818Y340254D01*
X313839Y340305D01*
Y341577D01*
X313818Y341628D01*
X313828Y341682D01*
X313581Y342931D01*
X313551Y342976D01*
X313551Y343032D01*
X313067Y344208D01*
X313028Y344247D01*
X313017Y344301D01*
X312314Y345362D01*
X312268Y345392D01*
X312247Y345444D01*
X311733Y345963D01*
X312275Y347463D01*
X324840D01*
X325414Y346077D01*
X275874Y296537D01*
X274674Y297458D01*
X274683Y297474D01*
X274953Y298480D01*
Y299520D01*
X274683Y300526D01*
X274163Y301427D01*
X273427Y302163D01*
X272526Y302683D01*
X271520Y302953D01*
X270480D01*
X269474Y302683D01*
X268573Y302163D01*
X267837Y301427D01*
X267317Y300526D01*
X267047Y299520D01*
Y298480D01*
X267317Y297474D01*
X267573Y297029D01*
X267033Y295787D01*
X266769Y295529D01*
X265000D01*
X264415Y295413D01*
X263919Y295081D01*
X216209Y247372D01*
X214864Y248148D01*
X214953Y248480D01*
Y249520D01*
X214683Y250526D01*
X214163Y251427D01*
X213427Y252163D01*
X212526Y252683D01*
X211520Y252953D01*
X210480D01*
X209474Y252683D01*
X208573Y252163D01*
X207837Y251427D01*
X207317Y250526D01*
X207047Y249520D01*
Y248480D01*
X207317Y247474D01*
X207837Y246573D01*
X208573Y245837D01*
X209474Y245317D01*
X210480Y245047D01*
X211520D01*
X212555Y243891D01*
X211520Y242953D01*
X210480D01*
X209474Y242683D01*
X208573Y242163D01*
X207837Y241427D01*
X207317Y240526D01*
X207047Y239520D01*
Y238480D01*
X207268Y237656D01*
X206297Y236529D01*
X187159D01*
X186801Y237149D01*
X186149Y237801D01*
X185351Y238262D01*
X184461Y238500D01*
X183539D01*
X182649Y238262D01*
X181851Y237801D01*
X181199Y237149D01*
X180738Y236351D01*
X180500Y235461D01*
Y234539D01*
X180738Y233649D01*
X181199Y232851D01*
X181851Y232199D01*
X182649Y231738D01*
X183539Y231500D01*
X184461D01*
X185351Y231738D01*
X186149Y232199D01*
X186801Y232851D01*
X187159Y233471D01*
X207000D01*
X207585Y233587D01*
X208081Y233919D01*
X209478Y235315D01*
X210480Y235047D01*
X211520D01*
X212355Y234000D01*
X212226Y233839D01*
X211093Y232953D01*
X210480D01*
X209474Y232683D01*
X208573Y232163D01*
X207837Y231427D01*
X207317Y230526D01*
X207047Y229520D01*
Y228480D01*
X207317Y227474D01*
X207837Y226573D01*
X208573Y225837D01*
X209474Y225317D01*
X210480Y225047D01*
X211520D01*
X212502Y224087D01*
X211788Y223262D01*
X211277Y222953D01*
X210480D01*
X209474Y222683D01*
X208573Y222163D01*
X207837Y221427D01*
X207317Y220526D01*
X207047Y219520D01*
Y218480D01*
X207317Y217474D01*
X207837Y216573D01*
X208573Y215837D01*
X209474Y215317D01*
X210480Y215047D01*
X211520D01*
X212526Y215317D01*
X213427Y215837D01*
X214163Y216573D01*
X214683Y217474D01*
X214953Y218480D01*
Y219520D01*
X214685Y220522D01*
X216081Y221919D01*
X216413Y222415D01*
X216529Y223000D01*
Y243367D01*
X265634Y292471D01*
X266769D01*
X267033Y292213D01*
X267573Y290971D01*
X267317Y290526D01*
X267047Y289520D01*
Y288480D01*
X267317Y287474D01*
X267837Y286573D01*
X268573Y285837D01*
X269474Y285317D01*
X270480Y285047D01*
X271520D01*
X272526Y285317D01*
X273427Y285837D01*
X274163Y286573D01*
X274683Y287474D01*
X274953Y288480D01*
Y289520D01*
X274683Y290526D01*
X274427Y290971D01*
X274968Y292213D01*
X275231Y292471D01*
X275500D01*
X276085Y292587D01*
X276581Y292919D01*
X327500Y343837D01*
X329000Y343216D01*
Y342973D01*
X329273Y341956D01*
X329800Y341044D01*
X330544Y340299D01*
X331456Y339773D01*
X332474Y339500D01*
X333527D01*
X334390Y339731D01*
X336110Y338010D01*
X336656Y337646D01*
X337300Y337518D01*
X337300Y337518D01*
X365400D01*
X366044Y337646D01*
X366590Y338010D01*
X369190Y340610D01*
X369190Y340610D01*
X369554Y341156D01*
X369682Y341800D01*
X369682Y341800D01*
Y354200D01*
X369682Y354200D01*
X369554Y354844D01*
X369190Y355390D01*
X369190Y355390D01*
X364390Y360190D01*
X363844Y360554D01*
X363200Y360682D01*
X274593D01*
X274163Y361427D01*
X273427Y362163D01*
X272526Y362683D01*
X271520Y362953D01*
D02*
G37*
G36*
X211520Y352953D02*
X210480D01*
X209474Y352683D01*
X208573Y352163D01*
X207837Y351427D01*
X207317Y350526D01*
X207047Y349520D01*
Y348480D01*
X207317Y347474D01*
X207338Y347437D01*
X206472Y345937D01*
X170000D01*
X169259Y345790D01*
X168630Y345370D01*
X140130Y316870D01*
X139710Y316241D01*
X139563Y315500D01*
Y311400D01*
X138831Y310978D01*
X138022Y310169D01*
X137450Y309178D01*
X137346Y308792D01*
X135846Y308990D01*
Y311600D01*
X127154D01*
Y303400D01*
X135846D01*
Y306010D01*
X137346Y306208D01*
X137450Y305822D01*
X138022Y304831D01*
X138831Y304022D01*
X139822Y303450D01*
X140928Y303153D01*
X141000D01*
Y307500D01*
X141500D01*
Y308000D01*
X145846D01*
Y308072D01*
X145550Y309178D01*
X144978Y310169D01*
X144169Y310978D01*
X143437Y311400D01*
Y314698D01*
X160465Y331726D01*
X161164Y331692D01*
X162211Y331350D01*
X162499Y330851D01*
X163151Y330199D01*
X163949Y329738D01*
X164839Y329500D01*
X165761D01*
X166651Y329738D01*
X167449Y330199D01*
X168101Y330851D01*
X168458Y331471D01*
X206130D01*
X206437Y331226D01*
X207168Y329971D01*
X207047Y329520D01*
Y328480D01*
X207317Y327474D01*
X207837Y326573D01*
X208573Y325837D01*
X209474Y325317D01*
X210480Y325047D01*
X211520D01*
X212526Y325317D01*
X213427Y325837D01*
X214163Y326573D01*
X214683Y327474D01*
X214953Y328480D01*
Y329520D01*
X214832Y329971D01*
X215563Y331226D01*
X215870Y331471D01*
X266130D01*
X266437Y331226D01*
X267168Y329971D01*
X267047Y329520D01*
Y328480D01*
X267316Y327478D01*
X225366Y285529D01*
X215231D01*
X214967Y285787D01*
X214426Y287029D01*
X214683Y287474D01*
X214953Y288480D01*
Y289520D01*
X214685Y290522D01*
X216081Y291919D01*
X216413Y292415D01*
X216529Y293000D01*
Y300800D01*
X216413Y301385D01*
X216081Y301881D01*
X213881Y304081D01*
X213652Y304235D01*
X213467Y305412D01*
X213508Y305918D01*
X214163Y306573D01*
X214683Y307474D01*
X214953Y308480D01*
Y309520D01*
X214683Y310526D01*
X214163Y311427D01*
X213427Y312163D01*
X212526Y312683D01*
X211520Y312953D01*
X210480D01*
X209474Y312683D01*
X208573Y312163D01*
X207837Y311427D01*
X207317Y310526D01*
X207047Y309520D01*
Y308480D01*
X207317Y307474D01*
X207837Y306573D01*
X208381Y306029D01*
X208237Y305240D01*
X207838Y304529D01*
X196634D01*
X176715Y324448D01*
X176900Y325139D01*
Y326061D01*
X176662Y326951D01*
X176201Y327749D01*
X175549Y328401D01*
X174751Y328861D01*
X173861Y329100D01*
X172939D01*
X172049Y328861D01*
X171251Y328401D01*
X170599Y327749D01*
X170139Y326951D01*
X169900Y326061D01*
Y325139D01*
X170139Y324249D01*
X170599Y323451D01*
X171251Y322799D01*
X172049Y322339D01*
X172939Y322100D01*
X173861D01*
X174552Y322285D01*
X194808Y302029D01*
X194759Y301561D01*
X194298Y300529D01*
X179158D01*
X178801Y301149D01*
X178149Y301801D01*
X177351Y302261D01*
X176461Y302500D01*
X175539D01*
X174649Y302261D01*
X173851Y301801D01*
X173199Y301149D01*
X172739Y300351D01*
X172500Y299461D01*
Y298539D01*
X172739Y297649D01*
X173199Y296851D01*
X173851Y296199D01*
X174649Y295739D01*
X175539Y295500D01*
X176461D01*
X177351Y295739D01*
X178149Y296199D01*
X178801Y296851D01*
X179158Y297471D01*
X207319D01*
X207837Y296573D01*
X208573Y295837D01*
X209474Y295317D01*
X210480Y295047D01*
X211520D01*
X212502Y294087D01*
X211788Y293262D01*
X211277Y292953D01*
X210480D01*
X209474Y292683D01*
X208573Y292163D01*
X207837Y291427D01*
X207317Y290526D01*
X207047Y289520D01*
Y288480D01*
X207317Y287474D01*
X207574Y287029D01*
X207032Y285787D01*
X206769Y285529D01*
X187959D01*
X187601Y286149D01*
X186949Y286801D01*
X186151Y287262D01*
X185261Y287500D01*
X184339D01*
X183449Y287262D01*
X182651Y286801D01*
X181999Y286149D01*
X181538Y285351D01*
X181300Y284461D01*
Y283539D01*
X181538Y282649D01*
X181896Y282029D01*
X181688Y281336D01*
X181200Y280529D01*
X171324D01*
X169741Y282113D01*
X169762Y282149D01*
X170000Y283039D01*
Y283961D01*
X169762Y284851D01*
X169301Y285649D01*
X168649Y286301D01*
X167851Y286761D01*
X166961Y287000D01*
X166039D01*
X165149Y286761D01*
X164351Y286301D01*
X163699Y285649D01*
X163239Y284851D01*
X163000Y283961D01*
Y283039D01*
X163239Y282149D01*
X163699Y281351D01*
X164351Y280699D01*
X165149Y280239D01*
X166039Y280000D01*
X166961D01*
X167408Y280120D01*
X169609Y277919D01*
X170106Y277587D01*
X170691Y277471D01*
X207319D01*
X207837Y276573D01*
X208573Y275837D01*
X209474Y275317D01*
X210480Y275047D01*
X211520D01*
X212526Y275317D01*
X213427Y275837D01*
X214163Y276573D01*
X214683Y277474D01*
X214953Y278480D01*
Y279520D01*
X214683Y280526D01*
X214426Y280971D01*
X214967Y282213D01*
X215231Y282471D01*
X226000D01*
X226585Y282587D01*
X227081Y282919D01*
X269478Y325315D01*
X270480Y325047D01*
X271520D01*
X272502Y324087D01*
X271788Y323262D01*
X271277Y322953D01*
X270480D01*
X269474Y322683D01*
X268573Y322163D01*
X267837Y321427D01*
X267317Y320526D01*
X267047Y319520D01*
Y318480D01*
X267317Y317474D01*
X267837Y316573D01*
X268573Y315837D01*
X269474Y315317D01*
X270480Y315047D01*
X271520D01*
X272526Y315317D01*
X273427Y315837D01*
X274163Y316573D01*
X274683Y317474D01*
X274953Y318480D01*
Y319520D01*
X274685Y320522D01*
X276081Y321919D01*
X276413Y322415D01*
X276529Y323000D01*
Y331200D01*
X276413Y331785D01*
X276081Y332281D01*
X274281Y334081D01*
X273867Y334359D01*
X273623Y335179D01*
X273574Y335984D01*
X274163Y336573D01*
X274683Y337474D01*
X274953Y338480D01*
Y339520D01*
X274683Y340526D01*
X274163Y341427D01*
X273427Y342163D01*
X272526Y342683D01*
X271520Y342953D01*
X270480D01*
X269474Y342683D01*
X268719Y343979D01*
X269933Y345194D01*
X270480Y345047D01*
X270500D01*
Y348500D01*
X267047D01*
Y348480D01*
X267194Y347933D01*
X265198Y345937D01*
X215528D01*
X214662Y347437D01*
X214683Y347474D01*
X214953Y348480D01*
Y349520D01*
X214683Y350526D01*
X214163Y351427D01*
X213427Y352163D01*
X212526Y352683D01*
X211520Y352953D01*
D02*
G37*
G36*
X133527Y347100D02*
X133500D01*
Y343600D01*
X137000D01*
Y343627D01*
X136727Y344644D01*
X136201Y345556D01*
X135456Y346301D01*
X134544Y346827D01*
X133527Y347100D01*
D02*
G37*
G36*
X132500D02*
X132473D01*
X131456Y346827D01*
X130544Y346301D01*
X129799Y345556D01*
X129273Y344644D01*
X129000Y343627D01*
Y343600D01*
X132500D01*
Y347100D01*
D02*
G37*
G36*
X137000Y342600D02*
X133500D01*
Y339100D01*
X133527D01*
X134544Y339373D01*
X135456Y339899D01*
X136201Y340644D01*
X136727Y341556D01*
X137000Y342573D01*
Y342600D01*
D02*
G37*
G36*
X132500D02*
X129000D01*
Y342573D01*
X129273Y341556D01*
X129799Y340644D01*
X130544Y339899D01*
X131456Y339373D01*
X132473Y339100D01*
X132500D01*
Y342600D01*
D02*
G37*
G36*
X211520Y322953D02*
X210480D01*
X209474Y322683D01*
X208573Y322163D01*
X207837Y321427D01*
X207317Y320526D01*
X207047Y319520D01*
Y318480D01*
X207317Y317474D01*
X207837Y316573D01*
X208573Y315837D01*
X209474Y315317D01*
X210480Y315047D01*
X211520D01*
X212526Y315317D01*
X213427Y315837D01*
X214163Y316573D01*
X214683Y317474D01*
X214953Y318480D01*
Y319520D01*
X214683Y320526D01*
X214163Y321427D01*
X213427Y322163D01*
X212526Y322683D01*
X211520Y322953D01*
D02*
G37*
G36*
X271520Y312953D02*
X270480D01*
X269474Y312683D01*
X268573Y312163D01*
X267837Y311427D01*
X267317Y310526D01*
X267047Y309520D01*
Y308480D01*
X267317Y307474D01*
X267837Y306573D01*
X268573Y305837D01*
X269474Y305317D01*
X270480Y305047D01*
X271520D01*
X272526Y305317D01*
X273427Y305837D01*
X274163Y306573D01*
X274683Y307474D01*
X274953Y308480D01*
Y309520D01*
X274683Y310526D01*
X274163Y311427D01*
X273427Y312163D01*
X272526Y312683D01*
X271520Y312953D01*
D02*
G37*
G36*
X145846Y307000D02*
X142000D01*
Y303153D01*
X142072D01*
X143178Y303450D01*
X144169Y304022D01*
X144978Y304831D01*
X145550Y305822D01*
X145846Y306928D01*
Y307000D01*
D02*
G37*
G36*
X271520Y282953D02*
X270480D01*
X269474Y282683D01*
X268573Y282163D01*
X267837Y281427D01*
X267317Y280526D01*
X267047Y279520D01*
Y278480D01*
X267317Y277474D01*
X267837Y276573D01*
X268573Y275837D01*
X269474Y275317D01*
X270480Y275047D01*
X271520D01*
X272526Y275317D01*
X273427Y275837D01*
X274163Y276573D01*
X274683Y277474D01*
X274953Y278480D01*
Y279520D01*
X274683Y280526D01*
X274163Y281427D01*
X273427Y282163D01*
X272526Y282683D01*
X271520Y282953D01*
D02*
G37*
G36*
Y272953D02*
X270480D01*
X269474Y272683D01*
X268573Y272163D01*
X267837Y271427D01*
X267317Y270526D01*
X267047Y269520D01*
Y268480D01*
X267317Y267474D01*
X267837Y266573D01*
X268573Y265837D01*
X269474Y265317D01*
X270480Y265047D01*
X271520D01*
X272526Y265317D01*
X273427Y265837D01*
X274163Y266573D01*
X274683Y267474D01*
X274953Y268480D01*
Y269520D01*
X274683Y270526D01*
X274163Y271427D01*
X273427Y272163D01*
X272526Y272683D01*
X271520Y272953D01*
D02*
G37*
G36*
X211520D02*
X210480D01*
X209474Y272683D01*
X208573Y272163D01*
X207837Y271427D01*
X207317Y270526D01*
X207047Y269520D01*
Y268480D01*
X207317Y267474D01*
X207837Y266573D01*
X208573Y265837D01*
X209474Y265317D01*
X210480Y265047D01*
X211520D01*
X212526Y265317D01*
X213427Y265837D01*
X214163Y266573D01*
X214683Y267474D01*
X214953Y268480D01*
Y269520D01*
X214683Y270526D01*
X214163Y271427D01*
X213427Y272163D01*
X212526Y272683D01*
X211520Y272953D01*
D02*
G37*
G36*
X136599Y270043D02*
X135403D01*
X134247Y269734D01*
X133211Y269135D01*
X132365Y268290D01*
X131767Y267254D01*
X131457Y266098D01*
Y264902D01*
X131767Y263746D01*
X132365Y262710D01*
X133211Y261864D01*
X134247Y261266D01*
X135403Y260957D01*
X136599D01*
X137754Y261266D01*
X138791Y261864D01*
X139636Y262710D01*
X140234Y263746D01*
X140544Y264902D01*
Y266098D01*
X140234Y267254D01*
X139636Y268290D01*
X138791Y269135D01*
X137754Y269734D01*
X136599Y270043D01*
D02*
G37*
G36*
X116914D02*
X115718D01*
X114562Y269734D01*
X113526Y269135D01*
X112680Y268290D01*
X112082Y267254D01*
X111773Y266098D01*
Y264902D01*
X112082Y263746D01*
X112680Y262710D01*
X113526Y261864D01*
X114562Y261266D01*
X115718Y260957D01*
X116914D01*
X118070Y261266D01*
X119105Y261864D01*
X119951Y262710D01*
X120549Y263746D01*
X120859Y264902D01*
Y266098D01*
X120549Y267254D01*
X119951Y268290D01*
X119105Y269135D01*
X118070Y269734D01*
X116914Y270043D01*
D02*
G37*
G36*
X271520Y262953D02*
X270480D01*
X269474Y262683D01*
X268573Y262163D01*
X267837Y261427D01*
X267317Y260526D01*
X267047Y259520D01*
Y258480D01*
X267317Y257474D01*
X267837Y256573D01*
X268573Y255837D01*
X269474Y255317D01*
X270480Y255047D01*
X271520D01*
X272526Y255317D01*
X273427Y255837D01*
X274163Y256573D01*
X274683Y257474D01*
X274953Y258480D01*
Y259520D01*
X274683Y260526D01*
X274163Y261427D01*
X273427Y262163D01*
X272526Y262683D01*
X271520Y262953D01*
D02*
G37*
G36*
X211520D02*
X210480D01*
X209474Y262683D01*
X208573Y262163D01*
X207837Y261427D01*
X207317Y260526D01*
X207047Y259520D01*
Y258480D01*
X207317Y257474D01*
X207837Y256573D01*
X208573Y255837D01*
X209474Y255317D01*
X210480Y255047D01*
X211520D01*
X212526Y255317D01*
X213427Y255837D01*
X214163Y256573D01*
X214683Y257474D01*
X214953Y258480D01*
Y259520D01*
X214683Y260526D01*
X214163Y261427D01*
X213427Y262163D01*
X212526Y262683D01*
X211520Y262953D01*
D02*
G37*
G36*
X271520Y252953D02*
X270480D01*
X269474Y252683D01*
X268573Y252163D01*
X267837Y251427D01*
X267317Y250526D01*
X267047Y249520D01*
Y248480D01*
X267317Y247474D01*
X267837Y246573D01*
X268573Y245837D01*
X269474Y245317D01*
X270480Y245047D01*
X271520D01*
X272526Y245317D01*
X273427Y245837D01*
X274163Y246573D01*
X274683Y247474D01*
X274953Y248480D01*
Y249520D01*
X274683Y250526D01*
X274163Y251427D01*
X273427Y252163D01*
X272526Y252683D01*
X271520Y252953D01*
D02*
G37*
G36*
Y242953D02*
X270480D01*
X269474Y242683D01*
X268573Y242163D01*
X267837Y241427D01*
X267317Y240526D01*
X267047Y239520D01*
Y238480D01*
X267317Y237474D01*
X267747Y236729D01*
X267565Y236103D01*
X267059Y235229D01*
X235700D01*
X235115Y235113D01*
X234619Y234781D01*
X212522Y212684D01*
X211520Y212953D01*
X210480D01*
X209474Y212683D01*
X208573Y212163D01*
X207837Y211427D01*
X207317Y210526D01*
X207047Y209520D01*
Y208480D01*
X207317Y207474D01*
X207837Y206573D01*
X208573Y205837D01*
X209474Y205317D01*
X210480Y205047D01*
X211520D01*
X212526Y205317D01*
X213427Y205837D01*
X214163Y206573D01*
X214683Y207474D01*
X214953Y208480D01*
Y209520D01*
X214685Y210522D01*
X236333Y232171D01*
X266534D01*
X267400Y230671D01*
X267317Y230526D01*
X267047Y229520D01*
Y228480D01*
X267317Y227474D01*
X267837Y226573D01*
X268573Y225837D01*
X269474Y225317D01*
X270480Y225047D01*
X271520D01*
X272526Y225317D01*
X273427Y225837D01*
X274163Y226573D01*
X274681Y227471D01*
X321866D01*
X337422Y211915D01*
X336848Y210529D01*
X311419D01*
X310959Y212029D01*
X311270Y212240D01*
X311300Y212286D01*
X311351Y212307D01*
X312247Y213211D01*
X312268Y213262D01*
X312314Y213293D01*
X313017Y214353D01*
X313028Y214407D01*
X313067Y214446D01*
X313551Y215623D01*
X313551Y215678D01*
X313581Y215724D01*
X313828Y216972D01*
X313818Y217026D01*
X313839Y217077D01*
Y218349D01*
X313818Y218400D01*
X313828Y218454D01*
X313581Y219703D01*
X313551Y219748D01*
X313551Y219804D01*
X313067Y220980D01*
X313028Y221019D01*
X313017Y221073D01*
X312314Y222134D01*
X312268Y222165D01*
X312247Y222216D01*
X311351Y223119D01*
X311300Y223141D01*
X311270Y223187D01*
X310216Y223899D01*
X310162Y223910D01*
X310123Y223950D01*
X308951Y224444D01*
X308896Y224445D01*
X308850Y224476D01*
X307604Y224733D01*
X307550Y224723D01*
X307499Y224745D01*
X306863Y224750D01*
X306861Y224749D01*
X306858Y224750D01*
X306856Y224749D01*
X306854Y224750D01*
X306217Y224745D01*
X306167Y224723D01*
X306112Y224733D01*
X304866Y224476D01*
X304821Y224445D01*
X304766Y224444D01*
X303593Y223950D01*
X303555Y223910D01*
X303501Y223899D01*
X302447Y223187D01*
X302416Y223141D01*
X302365Y223119D01*
X301469Y222216D01*
X301449Y222165D01*
X301403Y222134D01*
X300699Y221073D01*
X300689Y221019D01*
X300650Y220980D01*
X300166Y219804D01*
X300166Y219748D01*
X300135Y219703D01*
X299888Y218454D01*
X299899Y218400D01*
X299878Y218349D01*
Y217077D01*
X299899Y217026D01*
X299888Y216972D01*
X300135Y215724D01*
X300166Y215678D01*
X300166Y215623D01*
X300650Y214446D01*
X300689Y214407D01*
X300699Y214353D01*
X301403Y213293D01*
X301449Y213262D01*
X301469Y213211D01*
X302365Y212307D01*
X302416Y212286D01*
X302447Y212240D01*
X302758Y212029D01*
X302298Y210529D01*
X274681D01*
X274163Y211427D01*
X273427Y212163D01*
X272526Y212683D01*
X271520Y212953D01*
X270480D01*
X269474Y212683D01*
X268573Y212163D01*
X267837Y211427D01*
X267317Y210526D01*
X267047Y209520D01*
Y208480D01*
X267317Y207474D01*
X267837Y206573D01*
X268573Y205837D01*
X269474Y205317D01*
X270480Y205047D01*
X271520D01*
X272526Y205317D01*
X273427Y205837D01*
X274163Y206573D01*
X274681Y207471D01*
X347867D01*
X372316Y183022D01*
X372047Y182020D01*
Y180980D01*
X372317Y179974D01*
X372837Y179073D01*
X373573Y178337D01*
X374474Y177817D01*
X375480Y177547D01*
X376520D01*
X376971Y177668D01*
X378226Y176937D01*
X378471Y176630D01*
Y117000D01*
X378587Y116415D01*
X378919Y115919D01*
X380526Y114311D01*
X380450Y114178D01*
X380153Y113072D01*
Y111928D01*
X380450Y110822D01*
X381022Y109831D01*
X381831Y109022D01*
X382822Y108450D01*
X383928Y108153D01*
X385072D01*
X386178Y108450D01*
X387169Y109022D01*
X387978Y109831D01*
X388550Y110822D01*
X388653Y111208D01*
X390154Y111010D01*
Y108400D01*
X398847D01*
Y116600D01*
X390154D01*
Y113990D01*
X388653Y113792D01*
X388550Y114178D01*
X387978Y115169D01*
X387169Y115978D01*
X386178Y116550D01*
X385072Y116847D01*
X383928D01*
X382822Y116550D01*
X382689Y116473D01*
X381529Y117633D01*
Y176262D01*
X382047Y177547D01*
X383029Y177547D01*
X385500D01*
Y181500D01*
Y185453D01*
X382933D01*
X382638Y185463D01*
X381574Y186003D01*
X381097Y186559D01*
X381081Y186581D01*
X357646Y210017D01*
X357632Y210115D01*
X358082Y211702D01*
X358903Y212047D01*
X358942Y212086D01*
X358996Y212097D01*
X360310Y212982D01*
X360340Y213028D01*
X360391Y213049D01*
X361508Y214173D01*
X361528Y214224D01*
X361574Y214254D01*
X362451Y215573D01*
X362462Y215627D01*
X362501Y215667D01*
X363105Y217130D01*
X363105Y217186D01*
X363135Y217232D01*
X363443Y218785D01*
X363432Y218839D01*
X363453Y218890D01*
Y220474D01*
X363432Y220525D01*
X363443Y220579D01*
X363135Y222132D01*
X363105Y222178D01*
X363105Y222234D01*
X362501Y223698D01*
X362462Y223737D01*
X362451Y223791D01*
X361574Y225110D01*
X361528Y225141D01*
X361508Y225191D01*
X360391Y226315D01*
X360340Y226336D01*
X360310Y226382D01*
X358996Y227267D01*
X358942Y227278D01*
X358903Y227317D01*
X357443Y227930D01*
X357388Y227930D01*
X357342Y227961D01*
X355790Y228278D01*
X355736Y228268D01*
X355685Y228289D01*
X354894Y228294D01*
X354892Y228293D01*
X354890Y228294D01*
X354889Y228293D01*
X354887Y228294D01*
X354095Y228289D01*
X354044Y228268D01*
X353990Y228278D01*
X352439Y227961D01*
X352393Y227930D01*
X352338Y227930D01*
X350877Y227317D01*
X350838Y227278D01*
X350784Y227267D01*
X349471Y226382D01*
X349441Y226336D01*
X349390Y226315D01*
X348273Y225191D01*
X348252Y225140D01*
X348206Y225110D01*
X347329Y223791D01*
X347319Y223737D01*
X347280Y223698D01*
X346676Y222234D01*
X346676Y222178D01*
X346645Y222132D01*
X346338Y220579D01*
X346349Y220525D01*
X346327Y220474D01*
Y218890D01*
X346349Y218839D01*
X346338Y218785D01*
X346645Y217232D01*
X346676Y217186D01*
X346676Y217130D01*
X347280Y215667D01*
X347319Y215627D01*
X347329Y215573D01*
X348206Y214254D01*
X348252Y214224D01*
X348273Y214173D01*
X348813Y213629D01*
X348189Y212129D01*
X341533D01*
X323581Y230081D01*
X323085Y230413D01*
X322500Y230529D01*
X276250D01*
X276169Y230671D01*
X277035Y232171D01*
X349841D01*
X350199Y231551D01*
X350851Y230899D01*
X351649Y230438D01*
X352539Y230200D01*
X353461D01*
X354351Y230438D01*
X355149Y230899D01*
X355801Y231551D01*
X356261Y232349D01*
X356500Y233239D01*
Y234161D01*
X356261Y235051D01*
X355801Y235849D01*
X355149Y236501D01*
X354351Y236962D01*
X353461Y237200D01*
X352539D01*
X351649Y236962D01*
X350851Y236501D01*
X350199Y235849D01*
X349841Y235229D01*
X274941D01*
X274435Y236103D01*
X274253Y236729D01*
X274683Y237474D01*
X274953Y238480D01*
Y239520D01*
X274683Y240526D01*
X274163Y241427D01*
X273427Y242163D01*
X272526Y242683D01*
X271520Y242953D01*
D02*
G37*
G36*
X388354Y224750D02*
X388352Y224749D01*
X388350Y224750D01*
X387713Y224745D01*
X387663Y224723D01*
X387608Y224733D01*
X386362Y224476D01*
X386317Y224445D01*
X386262Y224444D01*
X385089Y223950D01*
X385051Y223910D01*
X384997Y223899D01*
X383943Y223187D01*
X383912Y223141D01*
X383861Y223119D01*
X382965Y222216D01*
X382945Y222165D01*
X382899Y222134D01*
X382195Y221073D01*
X382185Y221019D01*
X382146Y220980D01*
X381662Y219804D01*
X381662Y219748D01*
X381631Y219703D01*
X381384Y218454D01*
X381395Y218400D01*
X381374Y218349D01*
Y217077D01*
X381395Y217026D01*
X381384Y216972D01*
X381631Y215724D01*
X381662Y215678D01*
X381662Y215623D01*
X382146Y214446D01*
X382185Y214407D01*
X382195Y214353D01*
X382899Y213293D01*
X382945Y213262D01*
X382965Y213211D01*
X383861Y212307D01*
X383912Y212286D01*
X383943Y212240D01*
X384997Y211527D01*
X385051Y211516D01*
X385089Y211477D01*
X386262Y210982D01*
X386317Y210982D01*
X386362Y210951D01*
X387609Y210693D01*
X387663Y210703D01*
X387713Y210682D01*
X388350Y210676D01*
X388354Y210678D01*
X388359Y210676D01*
X388995Y210682D01*
X389046Y210703D01*
X389100Y210693D01*
X390346Y210951D01*
X390392Y210982D01*
X390447Y210982D01*
X391619Y211477D01*
X391658Y211516D01*
X391712Y211527D01*
X392766Y212240D01*
X392796Y212286D01*
X392847Y212307D01*
X393743Y213211D01*
X393764Y213262D01*
X393810Y213293D01*
X394513Y214353D01*
X394524Y214407D01*
X394563Y214446D01*
X395047Y215623D01*
X395047Y215678D01*
X395077Y215724D01*
X395324Y216972D01*
X395314Y217026D01*
X395335Y217077D01*
Y218349D01*
X395314Y218400D01*
X395324Y218454D01*
X395077Y219703D01*
X395047Y219748D01*
X395047Y219804D01*
X394563Y220980D01*
X394524Y221019D01*
X394513Y221073D01*
X393810Y222134D01*
X393764Y222165D01*
X393743Y222216D01*
X392847Y223119D01*
X392796Y223141D01*
X392766Y223187D01*
X391712Y223899D01*
X391658Y223910D01*
X391619Y223950D01*
X390447Y224444D01*
X390392Y224445D01*
X390346Y224476D01*
X389100Y224733D01*
X389046Y224723D01*
X388995Y224745D01*
X388359Y224750D01*
X388357Y224749D01*
X388354Y224750D01*
D02*
G37*
G36*
X271520Y222953D02*
X270480D01*
X269474Y222683D01*
X268573Y222163D01*
X267837Y221427D01*
X267317Y220526D01*
X267047Y219520D01*
Y218480D01*
X267317Y217474D01*
X267837Y216573D01*
X268573Y215837D01*
X269474Y215317D01*
X270480Y215047D01*
X271520D01*
X272526Y215317D01*
X273427Y215837D01*
X274163Y216573D01*
X274683Y217474D01*
X274953Y218480D01*
Y219520D01*
X274683Y220526D01*
X274163Y221427D01*
X273427Y222163D01*
X272526Y222683D01*
X271520Y222953D01*
D02*
G37*
G36*
X138441Y208543D02*
X137244D01*
X136089Y208234D01*
X135053Y207635D01*
X134207Y206790D01*
X133609Y205754D01*
X133299Y204598D01*
Y203402D01*
X133609Y202246D01*
X134207Y201210D01*
X135053Y200364D01*
X136089Y199766D01*
X137244Y199457D01*
X138441D01*
X139596Y199766D01*
X140632Y200364D01*
X141478Y201210D01*
X142076Y202246D01*
X142386Y203402D01*
Y204598D01*
X142076Y205754D01*
X141478Y206790D01*
X140632Y207635D01*
X139596Y208234D01*
X138441Y208543D01*
D02*
G37*
G36*
X118756D02*
X117559D01*
X116404Y208234D01*
X115368Y207635D01*
X114522Y206790D01*
X113924Y205754D01*
X113614Y204598D01*
Y203402D01*
X113924Y202246D01*
X114522Y201210D01*
X115368Y200364D01*
X116404Y199766D01*
X117559Y199457D01*
X118756D01*
X119911Y199766D01*
X120947Y200364D01*
X121793Y201210D01*
X122391Y202246D01*
X122701Y203402D01*
Y204598D01*
X122391Y205754D01*
X121793Y206790D01*
X120947Y207635D01*
X119911Y208234D01*
X118756Y208543D01*
D02*
G37*
G36*
X271520Y202953D02*
X270480D01*
X269474Y202683D01*
X268573Y202163D01*
X267837Y201427D01*
X267317Y200526D01*
X267047Y199520D01*
Y198480D01*
X267317Y197474D01*
X267837Y196573D01*
X268573Y195837D01*
X269474Y195317D01*
X270480Y195047D01*
X271520D01*
X272526Y195317D01*
X273427Y195837D01*
X274163Y196573D01*
X274683Y197474D01*
X274953Y198480D01*
Y199520D01*
X274683Y200526D01*
X274163Y201427D01*
X273427Y202163D01*
X272526Y202683D01*
X271520Y202953D01*
D02*
G37*
G36*
X211520D02*
X210480D01*
X209474Y202683D01*
X208573Y202163D01*
X207837Y201427D01*
X207317Y200526D01*
X207047Y199520D01*
Y198480D01*
X207317Y197474D01*
X207837Y196573D01*
X208573Y195837D01*
X209474Y195317D01*
X210480Y195047D01*
X211520D01*
X212526Y195317D01*
X213427Y195837D01*
X214163Y196573D01*
X214683Y197474D01*
X214953Y198480D01*
Y199520D01*
X214683Y200526D01*
X214163Y201427D01*
X213427Y202163D01*
X212526Y202683D01*
X211520Y202953D01*
D02*
G37*
G36*
X341261Y199200D02*
X340339D01*
X339449Y198961D01*
X338651Y198501D01*
X337999Y197849D01*
X337642Y197229D01*
X317000D01*
X316415Y197113D01*
X315919Y196781D01*
X304567Y185429D01*
X275141D01*
X274791Y185839D01*
X274369Y186929D01*
X274683Y187474D01*
X274953Y188480D01*
Y189520D01*
X274683Y190526D01*
X274163Y191427D01*
X273427Y192163D01*
X272526Y192683D01*
X271520Y192953D01*
X270480D01*
X269474Y192683D01*
X268573Y192163D01*
X267837Y191427D01*
X267317Y190526D01*
X267047Y189520D01*
Y188480D01*
X267317Y187474D01*
X267631Y186929D01*
X267209Y185839D01*
X266859Y185429D01*
X259000D01*
X258415Y185313D01*
X257919Y184981D01*
X208752Y135815D01*
X208061Y136000D01*
X207139D01*
X206249Y135761D01*
X205451Y135301D01*
X204799Y134649D01*
X204339Y133851D01*
X204100Y132961D01*
Y132039D01*
X204339Y131149D01*
X204799Y130351D01*
X205451Y129699D01*
X206249Y129238D01*
X207139Y129000D01*
X208061D01*
X208951Y129238D01*
X209749Y129699D01*
X210401Y130351D01*
X210861Y131149D01*
X211100Y132039D01*
Y132961D01*
X210915Y133652D01*
X259633Y182371D01*
X266728D01*
X266834Y182280D01*
X267516Y180871D01*
X267317Y180526D01*
X267047Y179520D01*
Y178480D01*
X267317Y177474D01*
X267837Y176573D01*
X268573Y175837D01*
X269474Y175317D01*
X270480Y175047D01*
X271520D01*
X272526Y175317D01*
X273427Y175837D01*
X274163Y176573D01*
X274683Y177474D01*
X274953Y178480D01*
Y179520D01*
X274683Y180526D01*
X274484Y180871D01*
X275166Y182280D01*
X275272Y182371D01*
X305200D01*
X305785Y182487D01*
X306281Y182819D01*
X317634Y194171D01*
X332813D01*
X333421Y192671D01*
X333199Y192449D01*
X332738Y191651D01*
X332500Y190761D01*
Y189839D01*
X332685Y189148D01*
X280266Y136729D01*
X261275D01*
X260923Y137081D01*
X260426Y137413D01*
X259841Y137529D01*
X241658D01*
X241301Y138149D01*
X240649Y138801D01*
X239851Y139261D01*
X238961Y139500D01*
X238039D01*
X237149Y139261D01*
X236351Y138801D01*
X235699Y138149D01*
X235239Y137351D01*
X235000Y136461D01*
Y135539D01*
X235239Y134649D01*
X235699Y133851D01*
X236351Y133199D01*
X237149Y132738D01*
X238039Y132500D01*
X238961D01*
X239851Y132738D01*
X240649Y133199D01*
X241301Y133851D01*
X241658Y134471D01*
X259208D01*
X259560Y134119D01*
X260056Y133787D01*
X260641Y133671D01*
X280900D01*
X281485Y133787D01*
X281981Y134119D01*
X334848Y186985D01*
X335539Y186800D01*
X336461D01*
X337351Y187039D01*
X338149Y187499D01*
X338801Y188151D01*
X339262Y188949D01*
X339500Y189839D01*
Y190761D01*
X339468Y190881D01*
X339920Y191566D01*
X340587Y192200D01*
X340587Y192200D01*
X341261D01*
X342151Y192438D01*
X342949Y192899D01*
X343601Y193551D01*
X344061Y194349D01*
X344300Y195239D01*
Y196161D01*
X344061Y197051D01*
X343601Y197849D01*
X342949Y198501D01*
X342151Y198961D01*
X341261Y199200D01*
D02*
G37*
G36*
X211520Y192953D02*
X210480D01*
X209474Y192683D01*
X208573Y192163D01*
X207837Y191427D01*
X207317Y190526D01*
X207047Y189520D01*
Y188480D01*
X207317Y187474D01*
X207837Y186573D01*
X208573Y185837D01*
X209474Y185317D01*
X210480Y185047D01*
X211520D01*
X212526Y185317D01*
X213427Y185837D01*
X214163Y186573D01*
X214683Y187474D01*
X214953Y188480D01*
Y189520D01*
X214683Y190526D01*
X214163Y191427D01*
X213427Y192163D01*
X212526Y192683D01*
X211520Y192953D01*
D02*
G37*
G36*
X386500Y185453D02*
Y182000D01*
X389953D01*
Y185453D01*
X386500D01*
D02*
G37*
G36*
X211520Y182953D02*
X211500D01*
Y179500D01*
X214953D01*
Y179520D01*
X214683Y180526D01*
X214163Y181427D01*
X213427Y182163D01*
X212526Y182683D01*
X211520Y182953D01*
D02*
G37*
G36*
X210500D02*
X210480D01*
X209474Y182683D01*
X208573Y182163D01*
X207837Y181427D01*
X207317Y180526D01*
X207047Y179520D01*
Y179500D01*
X210500D01*
Y182953D01*
D02*
G37*
G36*
X389953Y181000D02*
X386500D01*
Y177547D01*
X389953D01*
Y181000D01*
D02*
G37*
G36*
X366520Y185453D02*
X365480D01*
X364474Y185183D01*
X363573Y184663D01*
X362837Y183927D01*
X362317Y183026D01*
X362047Y182020D01*
Y180980D01*
X362270Y180149D01*
X348603Y166482D01*
X330596D01*
X330596Y166482D01*
X329952Y166354D01*
X329406Y165990D01*
X329406Y165990D01*
X328897Y165480D01*
X328835Y165516D01*
X327945Y165755D01*
X327023D01*
X326133Y165516D01*
X325335Y165056D01*
X324683Y164404D01*
X324223Y163606D01*
X323984Y162716D01*
Y161794D01*
X324223Y160904D01*
X324683Y160106D01*
X325335Y159454D01*
X326133Y158993D01*
X327023Y158755D01*
X327945D01*
X328835Y158993D01*
X329633Y159454D01*
X330285Y160106D01*
X330746Y160904D01*
X330984Y161794D01*
Y162716D01*
X332429Y163118D01*
X349300D01*
X349944Y163246D01*
X350490Y163610D01*
X364649Y177770D01*
X365480Y177547D01*
X366520D01*
X367526Y177817D01*
X368427Y178337D01*
X369163Y179073D01*
X369683Y179974D01*
X369953Y180980D01*
Y182020D01*
X369683Y183026D01*
X369163Y183927D01*
X368427Y184663D01*
X367526Y185183D01*
X366520Y185453D01*
D02*
G37*
G36*
X214953Y178500D02*
X211500D01*
Y175047D01*
X211520D01*
X212526Y175317D01*
X213427Y175837D01*
X214163Y176573D01*
X214683Y177474D01*
X214953Y178480D01*
Y178500D01*
D02*
G37*
G36*
X210500D02*
X207047D01*
Y178480D01*
X207317Y177474D01*
X207837Y176573D01*
X208573Y175837D01*
X209474Y175317D01*
X210480Y175047D01*
X210500D01*
Y178500D01*
D02*
G37*
G36*
X211520Y172953D02*
X211500D01*
Y169500D01*
X214953D01*
Y169520D01*
X214683Y170526D01*
X214163Y171427D01*
X213427Y172163D01*
X212526Y172683D01*
X211520Y172953D01*
D02*
G37*
G36*
X210500D02*
X210480D01*
X209474Y172683D01*
X208573Y172163D01*
X207837Y171427D01*
X207317Y170526D01*
X207047Y169520D01*
Y169500D01*
X210500D01*
Y172953D01*
D02*
G37*
G36*
X271520D02*
X270480D01*
X269474Y172683D01*
X268573Y172163D01*
X267837Y171427D01*
X267317Y170526D01*
X267047Y169520D01*
Y168480D01*
X267317Y167474D01*
X267837Y166573D01*
X268573Y165837D01*
X269474Y165317D01*
X270480Y165047D01*
X271520D01*
X272526Y165317D01*
X273427Y165837D01*
X274163Y166573D01*
X274683Y167474D01*
X274953Y168480D01*
Y169520D01*
X274683Y170526D01*
X274163Y171427D01*
X273427Y172163D01*
X272526Y172683D01*
X271520Y172953D01*
D02*
G37*
G36*
X214953Y168500D02*
X211500D01*
Y165047D01*
X211520D01*
X212526Y165317D01*
X213427Y165837D01*
X214163Y166573D01*
X214683Y167474D01*
X214953Y168480D01*
Y168500D01*
D02*
G37*
G36*
X210500D02*
X207047D01*
Y168480D01*
X207317Y167474D01*
X207837Y166573D01*
X208573Y165837D01*
X209474Y165317D01*
X210480Y165047D01*
X210500D01*
Y168500D01*
D02*
G37*
G36*
X256008Y132710D02*
X255733Y132674D01*
X255011Y132374D01*
X254391Y131898D01*
X253915Y131278D01*
X253710Y130783D01*
X225290D01*
X225085Y131278D01*
X224609Y131898D01*
X223989Y132374D01*
X223267Y132674D01*
X222992Y132710D01*
Y127616D01*
Y122522D01*
X223267Y122558D01*
X223989Y122858D01*
X224609Y123334D01*
X225085Y123954D01*
X225154Y124121D01*
X225728Y124348D01*
X226669Y124396D01*
X226806Y124366D01*
X227027Y124149D01*
X227126Y124109D01*
X227202Y124034D01*
X227667Y123845D01*
X227773Y123845D01*
X227871Y123804D01*
X228374Y123804D01*
X228472Y123845D01*
X228578Y123845D01*
X229044Y124035D01*
X229119Y124109D01*
X229218Y124149D01*
X229576Y124501D01*
X229618Y124599D01*
X229694Y124673D01*
X229893Y125134D01*
X229895Y125241D01*
X229938Y125338D01*
X229943Y125589D01*
X229970Y125645D01*
X230794Y126663D01*
X231163Y126909D01*
X247837D01*
X248206Y126663D01*
X249030Y125644D01*
X249058Y125589D01*
X249063Y125338D01*
X249106Y125240D01*
X249107Y125134D01*
X249306Y124673D01*
X249383Y124599D01*
X249424Y124501D01*
X249783Y124149D01*
X249882Y124109D01*
X249957Y124034D01*
X250423Y123845D01*
X250529Y123845D01*
X250627Y123804D01*
X251130Y123804D01*
X251228Y123845D01*
X251334Y123845D01*
X251800Y124035D01*
X251875Y124109D01*
X251974Y124149D01*
X252195Y124366D01*
X252331Y124396D01*
X253274Y124347D01*
X253846Y124121D01*
X253915Y123954D01*
X254391Y123334D01*
X255011Y122858D01*
X255733Y122558D01*
X256008Y122522D01*
Y127616D01*
Y132710D01*
D02*
G37*
G36*
X257008D02*
Y128116D01*
X259502D01*
Y129781D01*
X259400Y130556D01*
X259101Y131278D01*
X258625Y131898D01*
X258005Y132374D01*
X257283Y132674D01*
X257008Y132710D01*
D02*
G37*
G36*
X221992D02*
X221717Y132674D01*
X220995Y132374D01*
X220375Y131898D01*
X219899Y131278D01*
X219600Y130556D01*
X219498Y129781D01*
Y128116D01*
X221992D01*
Y132710D01*
D02*
G37*
G36*
Y127116D02*
X219498D01*
Y125451D01*
X219600Y124676D01*
X219744Y124327D01*
X218649Y123301D01*
X217851Y123761D01*
X216961Y124000D01*
X216039D01*
X215149Y123761D01*
X214351Y123301D01*
X213699Y122649D01*
X213239Y121851D01*
X213000Y120961D01*
Y120039D01*
X213239Y119149D01*
X213699Y118351D01*
X214351Y117699D01*
X214721Y117486D01*
Y113281D01*
X214649Y113261D01*
X213851Y112801D01*
X213199Y112149D01*
X212738Y111351D01*
X212500Y110461D01*
Y109539D01*
X212738Y108649D01*
X213199Y107851D01*
X213851Y107199D01*
X214649Y106738D01*
X215539Y106500D01*
X216461D01*
X217351Y106738D01*
X218149Y107199D01*
X218498Y107549D01*
X218731Y107638D01*
X219696Y107655D01*
X220339Y107514D01*
X220375Y107467D01*
X220995Y106991D01*
X221717Y106692D01*
X221992Y106656D01*
Y111159D01*
Y115662D01*
X221717Y115626D01*
X220995Y115327D01*
X220375Y114851D01*
X219899Y114231D01*
X218214Y113932D01*
X217936Y114090D01*
X217779Y114355D01*
Y117219D01*
X217851Y117238D01*
X218649Y117699D01*
X219301Y118351D01*
X219761Y119149D01*
X220000Y120039D01*
Y120961D01*
X219761Y121851D01*
X219697Y121963D01*
X220847Y122971D01*
X220995Y122858D01*
X221717Y122558D01*
X221992Y122522D01*
Y127116D01*
D02*
G37*
G36*
X259502D02*
X257008D01*
Y122522D01*
X257283Y122558D01*
X258005Y122858D01*
X258625Y123334D01*
X259101Y123954D01*
X259400Y124676D01*
X259502Y125451D01*
Y127116D01*
D02*
G37*
G36*
X200461Y126500D02*
X199539D01*
X198649Y126261D01*
X197851Y125801D01*
X197199Y125149D01*
X196739Y124351D01*
X196500Y123461D01*
Y122539D01*
X196580Y122242D01*
X191922Y117585D01*
X189838D01*
X189801Y117649D01*
X189149Y118301D01*
X188351Y118762D01*
X187461Y119000D01*
X186539D01*
X185649Y118762D01*
X184851Y118301D01*
X184199Y117649D01*
X183739Y116851D01*
X183500Y115961D01*
Y115039D01*
X183739Y114149D01*
X184199Y113351D01*
X184851Y112699D01*
X185649Y112239D01*
X186539Y112000D01*
X187461D01*
X188351Y112239D01*
X189149Y112699D01*
X189801Y113351D01*
X190261Y114149D01*
X190363Y114526D01*
X192555D01*
X193141Y114643D01*
X193637Y114974D01*
X198492Y119829D01*
X198649Y119738D01*
X199539Y119500D01*
X200461D01*
X201351Y119738D01*
X202149Y120199D01*
X202801Y120851D01*
X203261Y121649D01*
X203500Y122539D01*
Y123461D01*
X203261Y124351D01*
X202801Y125149D01*
X202149Y125801D01*
X201351Y126261D01*
X200461Y126500D01*
D02*
G37*
G36*
X257008Y115662D02*
Y111659D01*
X259502D01*
Y112734D01*
X259400Y113509D01*
X259101Y114231D01*
X258625Y114851D01*
X258005Y115327D01*
X257283Y115626D01*
X257008Y115662D01*
D02*
G37*
G36*
X256008D02*
X255733Y115626D01*
X255011Y115327D01*
X254391Y114851D01*
X253915Y114231D01*
X253616Y113509D01*
X253514Y112734D01*
Y111659D01*
X256008D01*
Y115662D01*
D02*
G37*
G36*
X222992D02*
Y111659D01*
X225486D01*
Y112734D01*
X225384Y113509D01*
X225085Y114231D01*
X224609Y114851D01*
X223989Y115327D01*
X223267Y115626D01*
X222992Y115662D01*
D02*
G37*
G36*
X259502Y110659D02*
X257008D01*
Y106656D01*
X257283Y106692D01*
X258005Y106991D01*
X258625Y107467D01*
X259101Y108087D01*
X259400Y108809D01*
X259502Y109584D01*
Y110659D01*
D02*
G37*
G36*
X256008D02*
X253514D01*
Y109584D01*
X253616Y108809D01*
X253915Y108087D01*
X254391Y107467D01*
X255011Y106991D01*
X255733Y106692D01*
X256008Y106656D01*
Y110659D01*
D02*
G37*
G36*
X225486D02*
X222992D01*
Y106656D01*
X223267Y106692D01*
X223989Y106991D01*
X224609Y107467D01*
X225085Y108087D01*
X225384Y108809D01*
X225486Y109584D01*
Y110659D01*
D02*
G37*
%LPD*%
G36*
X267073Y341709D02*
X267568Y340962D01*
X267317Y340526D01*
X267047Y339520D01*
Y338480D01*
X267317Y337474D01*
X267837Y336573D01*
X268381Y336029D01*
X268237Y335240D01*
X267838Y334529D01*
X214162D01*
X213763Y335240D01*
X213619Y336029D01*
X214163Y336573D01*
X214683Y337474D01*
X214953Y338480D01*
Y339520D01*
X214683Y340526D01*
X214662Y340563D01*
X215528Y342063D01*
X266000D01*
X266533Y342169D01*
X267073Y341709D01*
D02*
G37*
G36*
X207338Y340563D02*
X207317Y340526D01*
X207047Y339520D01*
Y338480D01*
X207317Y337474D01*
X207837Y336573D01*
X208381Y336029D01*
X208237Y335240D01*
X207838Y334529D01*
X168458D01*
X168101Y335149D01*
X167449Y335801D01*
X166950Y336089D01*
X166609Y337136D01*
X166575Y337835D01*
X170802Y342063D01*
X206472D01*
X207338Y340563D01*
D02*
G37*
G36*
X206419Y280971D02*
X206130Y280529D01*
X189571D01*
X188728Y281551D01*
X188658Y282029D01*
X189133Y282471D01*
X205608D01*
X206419Y280971D01*
D02*
G37*
G36*
X376384Y186953D02*
X375815Y185579D01*
X374377Y185286D01*
X351978Y207685D01*
X352552Y209071D01*
X354267D01*
X376384Y186953D01*
D02*
G37*
D10*
X166500Y283191D02*
X170691Y279000D01*
X211000D01*
X166500Y283191D02*
Y283500D01*
X184800Y284000D02*
X226000D01*
X184000Y235000D02*
X207000D01*
X211000Y239000D01*
X165300Y333000D02*
X273200D01*
X331343Y347500D02*
X339000D01*
X343000Y343500D01*
X328000Y346500D02*
X330344D01*
X331343Y347500D01*
X275500Y294000D02*
X328000Y346500D01*
X192555Y116055D02*
X199500Y123000D01*
X200000D01*
X187000Y115500D02*
X187555Y116055D01*
X192555D01*
X216250Y110250D02*
Y120250D01*
X216500Y120500D01*
X216000Y110000D02*
X216250Y110250D01*
X260641Y135200D02*
X280900D01*
X259841Y136000D02*
X260641Y135200D01*
X238500Y136000D02*
X259841D01*
X280900Y135200D02*
X336000Y190300D01*
X235700Y233700D02*
X353000D01*
X211000Y209000D02*
X235700Y233700D01*
X265000Y294000D02*
X275500D01*
X215000Y244000D02*
X265000Y294000D01*
X215000Y223000D02*
Y244000D01*
X211000Y219000D02*
X215000Y223000D01*
X271000Y319000D02*
X275000Y323000D01*
Y331200D01*
X273200Y333000D02*
X275000Y331200D01*
X348500Y209000D02*
X376000Y181500D01*
X271000Y209000D02*
X348500D01*
X173400Y325600D02*
X196000Y303000D01*
X212800D01*
X215000Y300800D01*
Y293000D02*
Y300800D01*
X211000Y289000D02*
X215000Y293000D01*
X176000Y299000D02*
X211000D01*
X226000Y284000D02*
X271000Y329000D01*
X317000Y195700D02*
X340800D01*
X305200Y183900D02*
X317000Y195700D01*
X259000Y183900D02*
X305200D01*
X207600Y132500D02*
X259000Y183900D01*
X271000Y229000D02*
X322500D01*
X340900Y210600D01*
X354900D01*
X380000Y185500D01*
Y117000D02*
Y185500D01*
Y117000D02*
X384500Y112500D01*
D55*
X141500Y315500D02*
X170000Y344000D01*
X266000D01*
X141500Y307500D02*
Y315500D01*
X357100Y349400D02*
X363000Y343500D01*
X304370Y349400D02*
X357100D01*
X271000Y349000D02*
X303970D01*
X304370Y349400D01*
X222492Y127616D02*
Y127858D01*
X223479Y128846D02*
X255521D01*
X256508Y127616D02*
Y127858D01*
X222492D02*
X223479Y128846D01*
X255521D02*
X256508Y127858D01*
X146500Y482500D02*
X198500D01*
X208500Y492500D01*
X221000Y480000D01*
X362843D01*
X368843Y486000D01*
X266000Y344000D02*
X271000Y349000D01*
D56*
X218500Y492500D02*
X224500Y498500D01*
X366185D02*
X378685Y486000D01*
X224500Y498500D02*
X366185D01*
X212500D02*
X218500Y492500D01*
X116500Y492500D02*
X122500Y498500D01*
X212500D01*
X327484Y162255D02*
X328051D01*
X330596Y164800D01*
X349300D01*
X363200Y359000D02*
X368000Y354200D01*
X365400Y339200D02*
X368000Y341800D01*
Y354200D01*
X337300Y339200D02*
X365400D01*
X271000Y359000D02*
X363200D01*
X333000Y343500D02*
X337300Y339200D01*
X349300Y164800D02*
X366000Y181500D01*
D59*
X133000Y343100D02*
D03*
X363000Y343500D02*
D03*
X333000D02*
D03*
X343000D02*
D03*
X353000D02*
D03*
X349157Y486000D02*
D03*
X378685D02*
D03*
X368843D02*
D03*
X359000D02*
D03*
X126500Y492500D02*
D03*
X146500D02*
D03*
X116500Y482500D02*
D03*
Y492500D02*
D03*
X136500Y482500D02*
D03*
Y492500D02*
D03*
X126500Y482500D02*
D03*
D60*
X386000Y181500D02*
D03*
X211000Y359000D02*
D03*
D61*
X366000Y181500D02*
D03*
X376000D02*
D03*
X211000Y349000D02*
D03*
Y339000D02*
D03*
Y329000D02*
D03*
Y279000D02*
D03*
Y259000D02*
D03*
Y239000D02*
D03*
Y229000D02*
D03*
Y199000D02*
D03*
Y189000D02*
D03*
Y179000D02*
D03*
Y169000D02*
D03*
X271000D02*
D03*
Y179000D02*
D03*
Y189000D02*
D03*
Y199000D02*
D03*
Y239000D02*
D03*
Y249000D02*
D03*
Y259000D02*
D03*
Y269000D02*
D03*
Y279000D02*
D03*
Y289000D02*
D03*
Y299000D02*
D03*
Y309000D02*
D03*
Y339000D02*
D03*
Y349000D02*
D03*
Y219000D02*
D03*
Y229000D02*
D03*
Y359000D02*
D03*
X211000Y319000D02*
D03*
X271000Y329000D02*
D03*
X211000Y309000D02*
D03*
Y299000D02*
D03*
Y289000D02*
D03*
Y269000D02*
D03*
Y249000D02*
D03*
X271000Y209000D02*
D03*
Y319000D02*
D03*
X211000Y219000D02*
D03*
Y209000D02*
D03*
D62*
X256508Y111159D02*
D03*
X222492D02*
D03*
D63*
X256508Y127616D02*
D03*
X222492D02*
D03*
D64*
X131500Y307500D02*
D03*
X394500Y112500D02*
D03*
D65*
X238500Y492500D02*
D03*
X228500D02*
D03*
X218500D02*
D03*
X384500Y112500D02*
D03*
X141500Y307500D02*
D03*
X208500Y492500D02*
D03*
D66*
X137843Y204000D02*
D03*
X116316Y265500D02*
D03*
X118157Y204000D02*
D03*
X136001Y265500D02*
D03*
D67*
X146500Y482500D02*
D03*
D68*
X166500Y283500D02*
D03*
X184800Y284000D02*
D03*
X184000Y235000D02*
D03*
X165300Y333000D02*
D03*
X200000Y123000D02*
D03*
X187000Y115500D02*
D03*
X132100Y329500D02*
D03*
X115000D02*
D03*
Y344000D02*
D03*
Y357500D02*
D03*
X105500Y184000D02*
D03*
X180500Y167000D02*
D03*
X132100Y357500D02*
D03*
X105500Y230000D02*
D03*
Y241000D02*
D03*
Y252500D02*
D03*
Y200500D02*
D03*
X208500Y151500D02*
D03*
X246000Y156000D02*
D03*
X395500Y199000D02*
D03*
X302000Y191500D02*
D03*
X167500Y487500D02*
D03*
X285500Y492000D02*
D03*
X298000D02*
D03*
X311000D02*
D03*
X395500Y356000D02*
D03*
X216000Y110000D02*
D03*
X216500Y120500D02*
D03*
X327484Y162255D02*
D03*
X238500Y136000D02*
D03*
X353000Y233700D02*
D03*
X173400Y325600D02*
D03*
X176000Y299000D02*
D03*
X336000Y190300D02*
D03*
X340800Y195700D02*
D03*
X207600Y132500D02*
D03*
D69*
X183146Y490531D02*
D03*
X263854D02*
D03*
X183146Y399980D02*
D03*
X263854D02*
D03*
M02*
