G04*
G04 #@! TF.GenerationSoftware,Altium Limited,Altium Designer,24.6.1 (21)*
G04*
G04 Layer_Color=8388736*
%FSLAX25Y25*%
%MOIN*%
G70*
G04*
G04 #@! TF.SameCoordinates,EDD53237-EAC9-4869-82B0-0CFB14AF029E*
G04*
G04*
G04 #@! TF.FilePolarity,Positive*
G04*
G01*
G75*
%ADD11C,0.01181*%
%ADD71C,0.06299*%
%ADD72C,0.07874*%
%ADD73C,0.00984*%
G36*
X115928Y272500D02*
X117658D01*
Y271500D01*
X115928D01*
Y270363D01*
Y269863D01*
X114928D01*
Y271500D01*
X113658D01*
Y272500D01*
X114928D01*
Y273863D01*
X115928D01*
Y272500D01*
D02*
G37*
G36*
X117770Y211000D02*
X119500D01*
Y210000D01*
X117770D01*
Y208863D01*
Y208363D01*
X116770D01*
Y210000D01*
X115500D01*
Y211000D01*
X116770D01*
Y212363D01*
X117770D01*
Y211000D01*
D02*
G37*
G36*
X386371Y150224D02*
X388756D01*
Y149437D01*
X386371D01*
Y147999D01*
X385780D01*
Y149437D01*
X383244D01*
Y150224D01*
X385780D01*
Y151936D01*
X386371D01*
Y150224D01*
D02*
G37*
G36*
X386000Y139201D02*
X385409D01*
Y143138D01*
X386000D01*
Y139201D01*
D02*
G37*
G36*
X291574Y111620D02*
X288533D01*
Y112380D01*
X291574D01*
Y111620D01*
D02*
G37*
G36*
X274326Y112380D02*
X275467D01*
Y111620D01*
X274326D01*
Y109466D01*
X273566D01*
Y111620D01*
X272426D01*
Y112380D01*
X273566D01*
Y114534D01*
X274326D01*
Y112380D01*
D02*
G37*
G36*
X253279Y102784D02*
X251311D01*
Y118532D01*
X227689D01*
Y102784D01*
X225721D01*
Y120500D01*
X253279D01*
Y102784D01*
D02*
G37*
D11*
X339567Y150000D02*
G03*
X339567Y150000I-591J0D01*
G01*
X161991Y200971D02*
G03*
X161991Y200971I-591J0D01*
G01*
X164991Y261471D02*
G03*
X164991Y261471I-591J0D01*
G01*
D71*
X310008Y217713D02*
G03*
X310008Y217713I-3150J0D01*
G01*
X391504D02*
G03*
X391504Y217713I-3150J0D01*
G01*
Y340941D02*
G03*
X391504Y340941I-3150J0D01*
G01*
X310008D02*
G03*
X310008Y340941I-3150J0D01*
G01*
D72*
X358827Y219682D02*
G03*
X358827Y219682I-3937J0D01*
G01*
D73*
X228614Y125649D02*
G03*
X228614Y125649I-492J0D01*
G01*
X251370D02*
G03*
X251370Y125649I-492J0D01*
G01*
M02*
