G04*
G04 #@! TF.GenerationSoftware,Altium Limited,Altium Designer,24.6.1 (21)*
G04*
G04 Layer_Color=255*
%FSLAX25Y25*%
%MOIN*%
G70*
G04*
G04 #@! TF.SameCoordinates,14203EA7-49FE-442F-A609-4801219AAA54*
G04*
G04*
G04 #@! TF.FilePolarity,Positive*
G04*
G01*
G75*
G04:AMPARAMS|DCode=17|XSize=86.61mil|YSize=66.93mil|CornerRadius=0mil|HoleSize=0mil|Usage=FLASHONLY|Rotation=230.000|XOffset=0mil|YOffset=0mil|HoleType=Round|Shape=Rectangle|*
%AMROTATEDRECTD17*
4,1,4,0.00220,0.05469,0.05347,0.01167,-0.00220,-0.05469,-0.05347,-0.01167,0.00220,0.05469,0.0*
%
%ADD17ROTATEDRECTD17*%

%ADD18O,0.02205X0.06870*%
%ADD19R,0.03937X0.03150*%
%ADD20R,0.02953X0.03937*%
G04:AMPARAMS|DCode=21|XSize=70.87mil|YSize=43.31mil|CornerRadius=0mil|HoleSize=0mil|Usage=FLASHONLY|Rotation=35.000|XOffset=0mil|YOffset=0mil|HoleType=Round|Shape=Rectangle|*
%AMROTATEDRECTD21*
4,1,4,-0.01661,-0.03806,-0.04145,-0.00259,0.01661,0.03806,0.04145,0.00259,-0.01661,-0.03806,0.0*
%
%ADD21ROTATEDRECTD21*%

%ADD22R,0.03937X0.02953*%
G04:AMPARAMS|DCode=23|XSize=137.8mil|YSize=86.61mil|CornerRadius=0mil|HoleSize=0mil|Usage=FLASHONLY|Rotation=50.000|XOffset=0mil|YOffset=0mil|HoleType=Round|Shape=Rectangle|*
%AMROTATEDRECTD23*
4,1,4,-0.01111,-0.08062,-0.07746,-0.02494,0.01111,0.08062,0.07746,0.02494,-0.01111,-0.08062,0.0*
%
%ADD23ROTATEDRECTD23*%

G04:AMPARAMS|DCode=24|XSize=43.31mil|YSize=86.61mil|CornerRadius=0mil|HoleSize=0mil|Usage=FLASHONLY|Rotation=50.000|XOffset=0mil|YOffset=0mil|HoleType=Round|Shape=Rectangle|*
%AMROTATEDRECTD24*
4,1,4,0.01926,-0.04443,-0.04709,0.01125,-0.01926,0.04443,0.04709,-0.01125,0.01926,-0.04443,0.0*
%
%ADD24ROTATEDRECTD24*%

G04:AMPARAMS|DCode=25|XSize=31.5mil|YSize=35.43mil|CornerRadius=0mil|HoleSize=0mil|Usage=FLASHONLY|Rotation=50.000|XOffset=0mil|YOffset=0mil|HoleType=Round|Shape=Rectangle|*
%AMROTATEDRECTD25*
4,1,4,0.00345,-0.02345,-0.02369,-0.00068,-0.00345,0.02345,0.02369,0.00068,0.00345,-0.02345,0.0*
%
%ADD25ROTATEDRECTD25*%

%ADD26R,0.03543X0.03150*%
%ADD27R,0.04921X0.03937*%
%ADD59R,0.01181X0.04528*%
%ADD60R,0.03402X0.03175*%
G04:AMPARAMS|DCode=61|XSize=31.75mil|YSize=34.02mil|CornerRadius=0mil|HoleSize=0mil|Usage=FLASHONLY|Rotation=135.000|XOffset=0mil|YOffset=0mil|HoleType=Round|Shape=Rectangle|*
%AMROTATEDRECTD61*
4,1,4,0.02325,0.00080,-0.00080,-0.02325,-0.02325,-0.00080,0.00080,0.02325,0.02325,0.00080,0.0*
%
%ADD61ROTATEDRECTD61*%

%ADD63P,0.09465X4X195.0*%
%ADD64C,0.06693*%
%ADD65R,0.06693X0.06693*%
%ADD66R,0.06693X0.06693*%
G04:AMPARAMS|DCode=67|XSize=66.93mil|YSize=62mil|CornerRadius=0mil|HoleSize=0mil|Usage=FLASHONLY|Rotation=30.000|XOffset=0mil|YOffset=0mil|HoleType=Round|Shape=Rectangle|*
%AMROTATEDRECTD67*
4,1,4,-0.01348,-0.04358,-0.04448,0.01011,0.01348,0.04358,0.04448,-0.01011,-0.01348,-0.04358,0.0*
%
%ADD67ROTATEDRECTD67*%

%ADD68C,0.05906*%
%ADD69P,0.08352X4X91.0*%
%ADD70O,0.03937X0.08268*%
%ADD71O,0.03937X0.07087*%
%ADD72C,0.07087*%
%ADD73P,0.08768X4X90.0*%
%ADD74C,0.06200*%
%ADD75R,0.05906X0.05906*%
%ADD76R,0.06200X0.06693*%
D17*
X-58508Y-131763D02*
D03*
X-71492Y-147237D02*
D03*
D18*
X-18500Y-116382D02*
D03*
X-3500Y-139000D02*
D03*
X6500D02*
D03*
X1500D02*
D03*
X-13500D02*
D03*
X-8500D02*
D03*
X-18500D02*
D03*
X11500D02*
D03*
X16500D02*
D03*
X-13500Y-116382D02*
D03*
X-8500D02*
D03*
X-3500D02*
D03*
X1500D02*
D03*
X6500D02*
D03*
X11500D02*
D03*
X16500D02*
D03*
D19*
X56972Y102760D02*
D03*
X66028Y106500D02*
D03*
X56972Y110240D02*
D03*
X-100274Y44547D02*
D03*
X-109329Y48287D02*
D03*
X-100274Y52027D02*
D03*
D20*
X48500Y99500D02*
D03*
X42595D02*
D03*
Y112500D02*
D03*
X48500D02*
D03*
D21*
X-148175Y-74035D02*
D03*
X-128180Y-60034D02*
D03*
X-139820Y-85966D02*
D03*
X-119825Y-71965D02*
D03*
D22*
X-73802Y51569D02*
D03*
X-86802Y45663D02*
D03*
X-73802D02*
D03*
X-86802Y51569D02*
D03*
D23*
X-99346Y-113158D02*
D03*
D24*
X-80654Y-128842D02*
D03*
X-74834Y-121905D02*
D03*
X-86475Y-135779D02*
D03*
D25*
X-107228Y-100389D02*
D03*
X-116228Y-93389D02*
D03*
X-52772Y-121611D02*
D03*
X-61272Y-114111D02*
D03*
X-49228Y-117389D02*
D03*
X-57728Y-109889D02*
D03*
X-110771Y-104611D02*
D03*
X-119771Y-97611D02*
D03*
D26*
X-32000Y-127756D02*
D03*
Y-122244D02*
D03*
D27*
X32500Y-164169D02*
D03*
Y-172831D02*
D03*
D59*
X-15189Y-154159D02*
D03*
X-14008D02*
D03*
X-12039D02*
D03*
X-10858D02*
D03*
X-8890D02*
D03*
X-6921D02*
D03*
X-4953D02*
D03*
X-2984D02*
D03*
X-1016D02*
D03*
X953D02*
D03*
X2921D02*
D03*
X4890D02*
D03*
X6858D02*
D03*
X8039D02*
D03*
X10008D02*
D03*
X11189D02*
D03*
D60*
X-35000Y-169966D02*
D03*
Y-164034D02*
D03*
X-93500Y-34500D02*
D03*
Y-40432D02*
D03*
X46000Y-168966D02*
D03*
Y-163034D02*
D03*
X-47000Y-164034D02*
D03*
Y-169966D02*
D03*
D61*
X-92403Y128403D02*
D03*
X-96597Y132597D02*
D03*
D63*
X94820Y140000D02*
D03*
D64*
X86160Y145000D02*
D03*
X77500Y150000D02*
D03*
X68840Y155000D02*
D03*
X-9000Y161000D02*
D03*
X-19000D02*
D03*
X-29000D02*
D03*
X-155000Y13500D02*
D03*
Y3500D02*
D03*
Y-6500D02*
D03*
X81716Y-149853D02*
D03*
X-77500Y-41000D02*
D03*
D65*
X1000Y161000D02*
D03*
D66*
X-155000Y23500D02*
D03*
D67*
X73056Y-154853D02*
D03*
D68*
X111927Y-124097D02*
D03*
X104980Y-131291D02*
D03*
X-43000Y-41000D02*
D03*
Y-31000D02*
D03*
X17000Y69000D02*
D03*
Y-41000D02*
D03*
X-43000Y-1000D02*
D03*
Y19000D02*
D03*
Y39000D02*
D03*
Y49000D02*
D03*
Y59000D02*
D03*
X17000Y79000D02*
D03*
X-43000Y69000D02*
D03*
X17000Y109000D02*
D03*
Y-21000D02*
D03*
Y-31000D02*
D03*
Y99000D02*
D03*
Y89000D02*
D03*
Y59000D02*
D03*
Y49000D02*
D03*
Y39000D02*
D03*
Y29000D02*
D03*
Y19000D02*
D03*
Y9000D02*
D03*
Y-1000D02*
D03*
Y-11000D02*
D03*
Y-51000D02*
D03*
Y-61000D02*
D03*
Y-71000D02*
D03*
Y-81000D02*
D03*
X-43000D02*
D03*
Y-71000D02*
D03*
Y-61000D02*
D03*
Y-51000D02*
D03*
Y-21000D02*
D03*
Y-11000D02*
D03*
Y9000D02*
D03*
Y29000D02*
D03*
Y79000D02*
D03*
Y89000D02*
D03*
Y99000D02*
D03*
D69*
X118873Y-116904D02*
D03*
D70*
X-19008Y-156384D02*
D03*
X15008D02*
D03*
D71*
X-19008Y-172841D02*
D03*
X15008D02*
D03*
D72*
X92658Y107000D02*
D03*
X112343D02*
D03*
X-82657Y11500D02*
D03*
X-102342D02*
D03*
D73*
X-123571Y94858D02*
D03*
D74*
X-130642Y101929D02*
D03*
X-116500D02*
D03*
X-123571Y109000D02*
D03*
X-109429D02*
D03*
X-116500Y116071D02*
D03*
X-102358D02*
D03*
X-109429Y123142D02*
D03*
D75*
X-43000Y109000D02*
D03*
D76*
X-77500Y-31000D02*
D03*
M02*
