M48
;Layer_Color=9474304
;FILE_FORMAT=2:5
INCH,TZ
;TYPE=PLATED
T02F00S00C0.02800
T03F00S00C0.03150
T04F00S00C0.03500
T05F00S00C0.03937
T06F00S00C0.04331
%
T02
X-29700Y-162000
X3400Y-160800
X-128180Y-33600
X-109300Y30200
X-92403Y82500
Y109000
T03
X104980Y-131291
X111927Y-124097
X118873Y-116904
X17000Y-81000
Y-71000
Y-61000
Y-51000
Y-41000
Y-31000
Y-21000
Y-11000
Y-1000
Y9000
X-43000
Y-1000
Y-11000
Y-21000
Y-31000
Y-41000
Y-51000
Y-61000
Y-71000
Y-81000
Y19000
Y29000
Y39000
Y49000
Y59000
Y69000
Y79000
Y89000
Y99000
Y109000
X17000
Y99000
Y89000
Y79000
Y69000
Y59000
Y49000
Y39000
Y29000
Y19000
T04
X-123571Y94858
X-116500Y101929
X-123571Y109000
X-109429
X-116500Y116071
X-102358
X-109429Y123142
X-130642Y101929
T05
X-82658Y11500
X-102344
X92658Y107000
X112344
T06
X73056Y-154853
X81716Y-149853
X-77500Y-41000
Y-31000
X-155000Y-6500
Y3500
Y13500
Y23500
X-29000Y161000
X-19000
X-9000
X1000
X68840Y155000
X77500Y150000
X86160Y145000
X94820Y140000
M30
