G04*
G04 #@! TF.GenerationSoftware,Altium Limited,Altium Designer,24.6.1 (21)*
G04*
G04 Layer_Physical_Order=1*
G04 Layer_Color=255*
%FSLAX25Y25*%
%MOIN*%
G70*
G04*
G04 #@! TF.SameCoordinates,14203EA7-49FE-442F-A609-4801219AAA54*
G04*
G04*
G04 #@! TF.FilePolarity,Positive*
G04*
G01*
G75*
%ADD11C,0.01000*%
G04:AMPARAMS|DCode=17|XSize=86.61mil|YSize=66.93mil|CornerRadius=0mil|HoleSize=0mil|Usage=FLASHONLY|Rotation=230.000|XOffset=0mil|YOffset=0mil|HoleType=Round|Shape=Rectangle|*
%AMROTATEDRECTD17*
4,1,4,0.00220,0.05469,0.05347,0.01167,-0.00220,-0.05469,-0.05347,-0.01167,0.00220,0.05469,0.0*
%
%ADD17ROTATEDRECTD17*%

%ADD18O,0.02205X0.06870*%
%ADD19R,0.03937X0.03150*%
%ADD20R,0.02953X0.03937*%
G04:AMPARAMS|DCode=21|XSize=70.87mil|YSize=43.31mil|CornerRadius=0mil|HoleSize=0mil|Usage=FLASHONLY|Rotation=35.000|XOffset=0mil|YOffset=0mil|HoleType=Round|Shape=Rectangle|*
%AMROTATEDRECTD21*
4,1,4,-0.01661,-0.03806,-0.04145,-0.00259,0.01661,0.03806,0.04145,0.00259,-0.01661,-0.03806,0.0*
%
%ADD21ROTATEDRECTD21*%

%ADD22R,0.03937X0.02953*%
G04:AMPARAMS|DCode=23|XSize=137.8mil|YSize=86.61mil|CornerRadius=0mil|HoleSize=0mil|Usage=FLASHONLY|Rotation=50.000|XOffset=0mil|YOffset=0mil|HoleType=Round|Shape=Rectangle|*
%AMROTATEDRECTD23*
4,1,4,-0.01111,-0.08062,-0.07746,-0.02494,0.01111,0.08062,0.07746,0.02494,-0.01111,-0.08062,0.0*
%
%ADD23ROTATEDRECTD23*%

G04:AMPARAMS|DCode=24|XSize=43.31mil|YSize=86.61mil|CornerRadius=0mil|HoleSize=0mil|Usage=FLASHONLY|Rotation=50.000|XOffset=0mil|YOffset=0mil|HoleType=Round|Shape=Rectangle|*
%AMROTATEDRECTD24*
4,1,4,0.01926,-0.04443,-0.04709,0.01125,-0.01926,0.04443,0.04709,-0.01125,0.01926,-0.04443,0.0*
%
%ADD24ROTATEDRECTD24*%

G04:AMPARAMS|DCode=25|XSize=31.5mil|YSize=35.43mil|CornerRadius=0mil|HoleSize=0mil|Usage=FLASHONLY|Rotation=50.000|XOffset=0mil|YOffset=0mil|HoleType=Round|Shape=Rectangle|*
%AMROTATEDRECTD25*
4,1,4,0.00345,-0.02345,-0.02369,-0.00068,-0.00345,0.02345,0.02369,0.00068,0.00345,-0.02345,0.0*
%
%ADD25ROTATEDRECTD25*%

%ADD26R,0.03543X0.03150*%
%ADD27R,0.04921X0.03937*%
%ADD59R,0.01181X0.04528*%
%ADD60R,0.03402X0.03175*%
G04:AMPARAMS|DCode=61|XSize=31.75mil|YSize=34.02mil|CornerRadius=0mil|HoleSize=0mil|Usage=FLASHONLY|Rotation=135.000|XOffset=0mil|YOffset=0mil|HoleType=Round|Shape=Rectangle|*
%AMROTATEDRECTD61*
4,1,4,0.02325,0.00080,-0.00080,-0.02325,-0.02325,-0.00080,0.00080,0.02325,0.02325,0.00080,0.0*
%
%ADD61ROTATEDRECTD61*%

%ADD62C,0.01800*%
%ADD63P,0.09465X4X195.0*%
%ADD64C,0.06693*%
%ADD65R,0.06693X0.06693*%
%ADD66R,0.06693X0.06693*%
G04:AMPARAMS|DCode=67|XSize=66.93mil|YSize=62mil|CornerRadius=0mil|HoleSize=0mil|Usage=FLASHONLY|Rotation=30.000|XOffset=0mil|YOffset=0mil|HoleType=Round|Shape=Rectangle|*
%AMROTATEDRECTD67*
4,1,4,-0.01348,-0.04358,-0.04448,0.01011,0.01348,0.04358,0.04448,-0.01011,-0.01348,-0.04358,0.0*
%
%ADD67ROTATEDRECTD67*%

%ADD68C,0.05906*%
%ADD69P,0.08352X4X91.0*%
%ADD70O,0.03937X0.08268*%
%ADD71O,0.03937X0.07087*%
%ADD72C,0.07087*%
%ADD73P,0.08768X4X90.0*%
%ADD74C,0.06200*%
%ADD75R,0.05906X0.05906*%
%ADD76R,0.06200X0.06693*%
%ADD77C,0.05000*%
G36*
X-78129Y119466D02*
Y49000D01*
X-78068Y48693D01*
X-78602Y47686D01*
X-79001Y47193D01*
X-82726D01*
X-83833Y48140D01*
Y49092D01*
X-83833D01*
Y51069D01*
X-86802D01*
Y51569D01*
X-87302D01*
Y54045D01*
X-89770D01*
Y53506D01*
X-97306D01*
Y54602D01*
X-99774D01*
Y52027D01*
X-100774D01*
Y54602D01*
X-103243D01*
X-103813Y55866D01*
Y81981D01*
X-101276Y84519D01*
X-100945Y85015D01*
X-100828Y85600D01*
Y112236D01*
X-100775Y112250D01*
X-99840Y112790D01*
X-99077Y113554D01*
X-98537Y114488D01*
X-98258Y115531D01*
Y116611D01*
X-98537Y117654D01*
X-98565Y117701D01*
X-95516Y120750D01*
X-95432Y120875D01*
X-93932Y120437D01*
Y112159D01*
X-94552Y111801D01*
X-95204Y111149D01*
X-95664Y110351D01*
X-95903Y109461D01*
Y108539D01*
X-95664Y107649D01*
X-95204Y106851D01*
X-94552Y106199D01*
X-93932Y105842D01*
Y85659D01*
X-94552Y85301D01*
X-95204Y84649D01*
X-95664Y83851D01*
X-95903Y82961D01*
Y82039D01*
X-95664Y81149D01*
X-95204Y80351D01*
X-94552Y79699D01*
X-93754Y79238D01*
X-92864Y79000D01*
X-91942D01*
X-91052Y79238D01*
X-90254Y79699D01*
X-89602Y80351D01*
X-89141Y81149D01*
X-88903Y82039D01*
Y82961D01*
X-89141Y83851D01*
X-89602Y84649D01*
X-90254Y85301D01*
X-90873Y85659D01*
Y105842D01*
X-90254Y106199D01*
X-89602Y106851D01*
X-89141Y107649D01*
X-88903Y108539D01*
Y109461D01*
X-89141Y110351D01*
X-89602Y111149D01*
X-90254Y111801D01*
X-90873Y112159D01*
Y126273D01*
X-88663Y128483D01*
X-87176Y128513D01*
X-78129Y119466D01*
D02*
G37*
G36*
X12042Y183718D02*
X20044Y183017D01*
X28008Y181969D01*
X35918Y180574D01*
X43761Y178835D01*
X51520Y176756D01*
X59181Y174341D01*
X66729Y171594D01*
X74150Y168520D01*
X81431Y165125D01*
X88556Y161416D01*
X95512Y157399D01*
X102287Y153083D01*
X108867Y148476D01*
X115240Y143586D01*
X121393Y138423D01*
X127316Y132996D01*
X132996Y127316D01*
X138423Y121393D01*
X143586Y115240D01*
X148476Y108867D01*
X153083Y102287D01*
X157399Y95512D01*
X161416Y88556D01*
X165125Y81431D01*
X168520Y74150D01*
X171594Y66729D01*
X174341Y59181D01*
X176756Y51520D01*
X178835Y43761D01*
X180574Y35918D01*
X181969Y28008D01*
X183017Y20044D01*
X183718Y12042D01*
X184068Y4016D01*
Y0D01*
Y-4016D01*
X183718Y-12042D01*
X183017Y-20044D01*
X181969Y-28008D01*
X180574Y-35918D01*
X178835Y-43761D01*
X176756Y-51520D01*
X174341Y-59181D01*
X171594Y-66729D01*
X168520Y-74150D01*
X165125Y-81431D01*
X161416Y-88556D01*
X157399Y-95512D01*
X153083Y-102287D01*
X148476Y-108867D01*
X143586Y-115240D01*
X138423Y-121393D01*
X132996Y-127316D01*
X127316Y-132996D01*
X121393Y-138423D01*
X115240Y-143586D01*
X108867Y-148476D01*
X102287Y-153083D01*
X95512Y-157399D01*
X88556Y-161416D01*
X81431Y-165125D01*
X75995Y-167659D01*
X74393Y-166753D01*
X74710Y-166353D01*
X74382Y-166681D01*
Y-166681D01*
X74979Y-166083D01*
X96081Y-144981D01*
X96413Y-144485D01*
X96529Y-143900D01*
Y-141904D01*
X103464Y-134970D01*
X103519Y-135000D01*
X104529Y-135252D01*
X105569Y-135234D01*
X106570Y-134947D01*
X107462Y-134411D01*
X108185Y-133662D01*
X108689Y-132752D01*
X108941Y-131742D01*
X108923Y-130701D01*
X108636Y-129701D01*
X108100Y-128809D01*
X107352Y-128086D01*
X106441Y-127581D01*
X105431Y-127329D01*
X104391Y-127348D01*
X103390Y-127634D01*
X102498Y-128171D01*
X101775Y-128919D01*
X101271Y-129829D01*
X101019Y-130839D01*
X101037Y-131880D01*
X101302Y-132805D01*
X93919Y-140189D01*
X93587Y-140685D01*
X93471Y-141271D01*
Y-143266D01*
X87531Y-149206D01*
X87301Y-149218D01*
X85909Y-148707D01*
X85766Y-148176D01*
X85194Y-147185D01*
X84385Y-146375D01*
X83394Y-145803D01*
X83245Y-145763D01*
Y-85716D01*
X83129Y-85131D01*
X82797Y-84635D01*
X20685Y-22522D01*
X20953Y-21520D01*
Y-20480D01*
X20683Y-19474D01*
X20163Y-18573D01*
X19427Y-17837D01*
X18526Y-17317D01*
X17520Y-17047D01*
X16480D01*
X15474Y-17317D01*
X14573Y-17837D01*
X13837Y-18573D01*
X13317Y-19474D01*
X13047Y-20480D01*
Y-21520D01*
X13316Y-22522D01*
X-11981Y-47819D01*
X-12313Y-48315D01*
X-12429Y-48900D01*
Y-110590D01*
X-13500Y-111906D01*
X-14320Y-112069D01*
X-15016Y-112534D01*
X-16419Y-111952D01*
X-16971Y-111401D01*
Y-83800D01*
X-17087Y-83215D01*
X-17419Y-82719D01*
X-35219Y-64919D01*
X-35715Y-64587D01*
X-36300Y-64471D01*
X-38769D01*
X-39033Y-64213D01*
X-39573Y-62971D01*
X-39317Y-62526D01*
X-39047Y-61520D01*
Y-60480D01*
X-39317Y-59474D01*
X-39837Y-58573D01*
X-40573Y-57837D01*
X-41474Y-57317D01*
X-42480Y-57047D01*
X-43520D01*
X-44526Y-57317D01*
X-45427Y-57837D01*
X-46163Y-58573D01*
X-46683Y-59474D01*
X-46953Y-60480D01*
Y-61520D01*
X-46683Y-62526D01*
X-46426Y-62971D01*
X-46968Y-64213D01*
X-47231Y-64471D01*
X-75000D01*
X-75585Y-64587D01*
X-76081Y-64919D01*
X-81736Y-70573D01*
X-82067Y-71069D01*
X-82184Y-71654D01*
Y-113852D01*
X-83569Y-114426D01*
X-85919Y-112077D01*
X-86415Y-111745D01*
X-87000Y-111629D01*
X-89684D01*
X-90191Y-110541D01*
Y-110541D01*
X-98358Y-103688D01*
X-103241Y-109506D01*
X-105212Y-109630D01*
X-105699Y-109180D01*
Y-102878D01*
X-103450Y-100198D01*
X-105699Y-98311D01*
Y5982D01*
X-104298Y7383D01*
X-104096Y7266D01*
X-102940Y6957D01*
X-101744D01*
X-100589Y7266D01*
X-99937Y7643D01*
X-98803Y7188D01*
X-98437Y6859D01*
Y-36500D01*
X-98290Y-37241D01*
X-97870Y-37870D01*
X-96870Y-38870D01*
X-96241Y-39290D01*
X-96201Y-39298D01*
Y-43020D01*
X-95029D01*
Y-44500D01*
X-94913Y-45085D01*
X-94581Y-45581D01*
X-90181Y-49981D01*
X-89685Y-50313D01*
X-89100Y-50429D01*
X-69100D01*
X-68515Y-50313D01*
X-68019Y-49981D01*
X-51919Y-33881D01*
X-51587Y-33385D01*
X-51471Y-32800D01*
Y18367D01*
X-44522Y25315D01*
X-43520Y25047D01*
X-42480D01*
X-41474Y25317D01*
X-40573Y25837D01*
X-39837Y26573D01*
X-39317Y27474D01*
X-39047Y28480D01*
Y29520D01*
X-39317Y30526D01*
X-39837Y31427D01*
X-40573Y32163D01*
X-41474Y32683D01*
X-42480Y32953D01*
X-43520D01*
X-44526Y32683D01*
X-45427Y32163D01*
X-46163Y31427D01*
X-46683Y30526D01*
X-46953Y29520D01*
Y28480D01*
X-46685Y27478D01*
X-54081Y20081D01*
X-54413Y19585D01*
X-54529Y19000D01*
Y-32166D01*
X-69734Y-47371D01*
X-88467D01*
X-91318Y-44519D01*
X-90799Y-43020D01*
X-90799D01*
Y-39437D01*
X-83134D01*
X-81846Y-40428D01*
Y-40500D01*
X-77500D01*
X-73154D01*
Y-40428D01*
X-73450Y-39322D01*
X-74022Y-38331D01*
X-74831Y-37522D01*
X-75822Y-36950D01*
X-76208Y-36846D01*
X-76010Y-35346D01*
X-73400D01*
Y-26654D01*
X-81600D01*
Y-29471D01*
X-92000D01*
X-92585Y-29587D01*
X-93081Y-29919D01*
X-93177Y-30014D01*
X-94563Y-29440D01*
Y35200D01*
X-94710Y35941D01*
X-95130Y36570D01*
X-99147Y40586D01*
X-98573Y41972D01*
X-97306D01*
Y43018D01*
X-94100D01*
X-93515Y43134D01*
X-93019Y43466D01*
X-92350Y44134D01*
X-89770D01*
Y43187D01*
X-83833D01*
Y44134D01*
X-76771D01*
Y43187D01*
X-70833D01*
Y47471D01*
X-46681D01*
X-46163Y46573D01*
X-45427Y45837D01*
X-44526Y45317D01*
X-43520Y45047D01*
X-42480D01*
X-41474Y45317D01*
X-40573Y45837D01*
X-39837Y46573D01*
X-39317Y47474D01*
X-39047Y48480D01*
Y49520D01*
X-39317Y50526D01*
X-39837Y51427D01*
X-40573Y52163D01*
X-41474Y52683D01*
X-42480Y52953D01*
X-43520D01*
X-44526Y52683D01*
X-45427Y52163D01*
X-46163Y51427D01*
X-46681Y50529D01*
X-57348D01*
X-57922Y51915D01*
X-44522Y65316D01*
X-43520Y65047D01*
X-42480D01*
X-41474Y65317D01*
X-40573Y65837D01*
X-39837Y66573D01*
X-39317Y67474D01*
X-39047Y68480D01*
Y69520D01*
X-39317Y70526D01*
X-39837Y71427D01*
X-40573Y72163D01*
X-41474Y72683D01*
X-42480Y72953D01*
X-43520D01*
X-44526Y72683D01*
X-45427Y72163D01*
X-46163Y71427D01*
X-46683Y70526D01*
X-46953Y69520D01*
Y68480D01*
X-46685Y67478D01*
X-61065Y53098D01*
X-70833D01*
Y54045D01*
X-75071D01*
Y120100D01*
X-75187Y120685D01*
X-75519Y121181D01*
X-93419Y139081D01*
X-93915Y139413D01*
X-94500Y139529D01*
X-99500D01*
X-100085Y139413D01*
X-100581Y139081D01*
X-110510Y129152D01*
X-110842Y128656D01*
X-110958Y128071D01*
Y126977D01*
X-111012Y126963D01*
X-111946Y126423D01*
X-112710Y125660D01*
X-113250Y124725D01*
X-113529Y123682D01*
Y122602D01*
X-113250Y121560D01*
X-112710Y120625D01*
X-111946Y119861D01*
X-111012Y119322D01*
X-109969Y119042D01*
X-108889D01*
X-107846Y119322D01*
X-106912Y119861D01*
X-106148Y120625D01*
X-105608Y121560D01*
X-105329Y122602D01*
Y123682D01*
X-105608Y124725D01*
X-106148Y125660D01*
X-106912Y126423D01*
X-107083Y128254D01*
X-99759Y135579D01*
X-99457Y135519D01*
X-98963Y133891D01*
X-100337Y132517D01*
X-98127Y130307D01*
Y122465D01*
X-100728Y119864D01*
X-100775Y119892D01*
X-101818Y120171D01*
X-102898D01*
X-103940Y119892D01*
X-104875Y119352D01*
X-105639Y118588D01*
X-106178Y117654D01*
X-106458Y116611D01*
Y115531D01*
X-106178Y114488D01*
X-105639Y113554D01*
X-104875Y112790D01*
X-103940Y112250D01*
X-103887Y112236D01*
Y109954D01*
X-105387Y109757D01*
X-105608Y110582D01*
X-106148Y111518D01*
X-106912Y112281D01*
X-107846Y112821D01*
X-108889Y113100D01*
X-109969D01*
X-111012Y112821D01*
X-111946Y112281D01*
X-112710Y111518D01*
X-113250Y110582D01*
X-113529Y109540D01*
Y108460D01*
X-113250Y107418D01*
X-112710Y106483D01*
X-111946Y105719D01*
X-111012Y105179D01*
X-109969Y104900D01*
X-108889D01*
X-107846Y105179D01*
X-106912Y105719D01*
X-106148Y106483D01*
X-105608Y107418D01*
X-105387Y108243D01*
X-103887Y108046D01*
Y86234D01*
X-106424Y83696D01*
X-106756Y83200D01*
X-106872Y82615D01*
Y50862D01*
X-112298D01*
Y45713D01*
X-110829D01*
Y33358D01*
X-111449Y33001D01*
X-112101Y32349D01*
X-112562Y31551D01*
X-112800Y30661D01*
Y29739D01*
X-112562Y28849D01*
X-112101Y28051D01*
X-111449Y27399D01*
X-110651Y26939D01*
X-109761Y26700D01*
X-108839D01*
X-108372Y26825D01*
X-107257Y26225D01*
X-106872Y25828D01*
Y14499D01*
X-106756Y13914D01*
X-106455Y13464D01*
X-106576Y13254D01*
X-106886Y12098D01*
Y10902D01*
X-106576Y9746D01*
X-106460Y9546D01*
X-108310Y7697D01*
X-108641Y7201D01*
X-108758Y6615D01*
Y-95808D01*
X-110144Y-96382D01*
X-112851Y-93675D01*
X-112450Y-93198D01*
X-116697Y-89635D01*
X-120007Y-93580D01*
D01*
X-120971Y-94729D01*
X-121764Y-95674D01*
X-132986D01*
X-137883Y-90777D01*
Y-88474D01*
X-134283Y-85953D01*
X-135812Y-83770D01*
X-139534Y-86376D01*
X-143255Y-88982D01*
X-141758Y-91121D01*
Y-91580D01*
X-141610Y-92321D01*
X-141190Y-92949D01*
X-135159Y-98981D01*
X-134530Y-99401D01*
X-133789Y-99548D01*
X-122050D01*
X-120154Y-97290D01*
X-119388Y-97933D01*
X-121043Y-99905D01*
X-119303Y-101365D01*
X-119303D01*
X-117849Y-101302D01*
X-114458Y-104693D01*
X-114550Y-104802D01*
X-113301Y-105850D01*
X-113170Y-105981D01*
X-113046Y-106064D01*
X-112709Y-106347D01*
Y-128007D01*
X-112561Y-128749D01*
X-112141Y-129377D01*
X-104370Y-137148D01*
X-103741Y-137568D01*
X-103000Y-137716D01*
X-89090D01*
X-88892Y-137882D01*
X-87179Y-135840D01*
X-90879Y-132735D01*
X-91808Y-133841D01*
X-102198D01*
X-108834Y-127205D01*
Y-117454D01*
X-107334Y-116754D01*
X-100334Y-122628D01*
X-93670Y-114687D01*
X-87634D01*
X-82184Y-120137D01*
Y-122748D01*
X-82703Y-122991D01*
X-82703D01*
X-86772Y-127840D01*
X-78605Y-134693D01*
X-74979Y-130371D01*
X-71500D01*
X-70915Y-130255D01*
X-70419Y-129923D01*
X-67225Y-126729D01*
X-61733D01*
X-61099Y-128089D01*
X-65264Y-133053D01*
X-62165Y-135653D01*
X-62678Y-137063D01*
X-80225D01*
X-80356Y-136780D01*
Y-136780D01*
X-84057Y-133675D01*
X-86092Y-136100D01*
X-88337Y-138776D01*
Y-139000D01*
X-88190Y-139741D01*
X-87770Y-140370D01*
X-87141Y-140790D01*
X-86400Y-140937D01*
X-85251D01*
X-84426Y-141630D01*
X-83845Y-140937D01*
X-73655D01*
X-73021Y-142297D01*
X-78248Y-148527D01*
X-71589Y-154114D01*
X-67102Y-148766D01*
X-59096D01*
X-54729Y-153133D01*
Y-168500D01*
X-54613Y-169085D01*
X-54281Y-169581D01*
X-50282Y-173581D01*
X-49785Y-173913D01*
X-49200Y-174029D01*
X-31334D01*
X-25181Y-180181D01*
X-24685Y-180513D01*
X-24100Y-180629D01*
X1000D01*
X1585Y-180513D01*
X2081Y-180181D01*
X7981Y-174281D01*
X8313Y-173785D01*
X8429Y-173200D01*
Y-162500D01*
Y-161544D01*
X8461Y-161456D01*
X8995Y-160445D01*
X9834Y-160155D01*
X10300Y-159965D01*
X10375Y-159890D01*
X10474Y-159851D01*
X10695Y-159634D01*
X10831Y-159604D01*
X11774Y-159653D01*
X12346Y-159879D01*
X12415Y-160046D01*
X12891Y-160667D01*
X13071Y-160805D01*
Y-169011D01*
X12891Y-169149D01*
X12415Y-169769D01*
X12116Y-170491D01*
X12014Y-171266D01*
Y-172341D01*
X15008D01*
Y-172841D01*
X15508D01*
Y-177344D01*
X15783Y-177308D01*
X16505Y-177009D01*
X17125Y-176533D01*
X17601Y-175913D01*
X17900Y-175191D01*
X17954Y-174778D01*
X23700D01*
X23750Y-174768D01*
X29039D01*
Y-175800D01*
X32000D01*
Y-172831D01*
X32500D01*
Y-172331D01*
X35961D01*
Y-170495D01*
X43299D01*
Y-171554D01*
X48701D01*
Y-167129D01*
X72360D01*
X72925Y-167671D01*
X73413Y-168583D01*
X73303Y-168871D01*
X66729Y-171594D01*
X59181Y-174341D01*
X51520Y-176756D01*
X43761Y-178835D01*
X35918Y-180574D01*
X28008Y-181969D01*
X20044Y-183017D01*
X12042Y-183718D01*
X4016Y-184068D01*
X-4016D01*
X-12042Y-183718D01*
X-20044Y-183017D01*
X-28008Y-181969D01*
X-35918Y-180574D01*
X-43761Y-178835D01*
X-51520Y-176756D01*
X-59181Y-174341D01*
X-66729Y-171594D01*
X-74150Y-168520D01*
X-81431Y-165125D01*
X-88556Y-161416D01*
X-95512Y-157399D01*
X-102287Y-153083D01*
X-108867Y-148476D01*
X-115240Y-143586D01*
X-121393Y-138423D01*
X-127316Y-132996D01*
X-132996Y-127316D01*
X-138423Y-121393D01*
X-143586Y-115240D01*
X-148476Y-108867D01*
X-153083Y-102287D01*
X-157399Y-95512D01*
X-161416Y-88556D01*
X-165125Y-81431D01*
X-168520Y-74150D01*
X-171594Y-66729D01*
X-174341Y-59181D01*
X-176756Y-51520D01*
X-178835Y-43761D01*
X-180574Y-35918D01*
X-181969Y-28008D01*
X-183017Y-20044D01*
X-183718Y-12042D01*
X-184068Y-4016D01*
Y0D01*
Y4016D01*
X-183718Y12042D01*
X-183017Y20044D01*
X-181969Y28008D01*
X-180574Y35918D01*
X-178835Y43761D01*
X-176756Y51520D01*
X-174341Y59181D01*
X-171594Y66729D01*
X-168520Y74150D01*
X-165125Y81431D01*
X-161416Y88556D01*
X-157399Y95512D01*
X-153083Y102287D01*
X-148476Y108867D01*
X-143586Y115240D01*
X-138423Y121393D01*
X-132996Y127316D01*
X-127316Y132996D01*
X-121393Y138423D01*
X-115240Y143586D01*
X-108867Y148476D01*
X-102287Y153083D01*
X-95512Y157399D01*
X-88556Y161416D01*
X-81431Y165125D01*
X-74150Y168520D01*
X-66729Y171594D01*
X-59181Y174341D01*
X-51520Y176756D01*
X-43761Y178835D01*
X-35918Y180574D01*
X-28008Y181969D01*
X-20044Y183017D01*
X-12042Y183718D01*
X-4016Y184068D01*
X4016D01*
X12042Y183718D01*
D02*
G37*
G36*
X-20029Y-84434D02*
Y-112554D01*
X-20480Y-113229D01*
X-20643Y-114049D01*
Y-118715D01*
X-20480Y-119535D01*
X-20618Y-119793D01*
X-20683Y-119862D01*
X-22259Y-120454D01*
X-23000Y-120307D01*
X-29228D01*
Y-119669D01*
X-31500D01*
Y-122244D01*
X-32500D01*
Y-119669D01*
X-34772D01*
Y-120307D01*
X-37442D01*
X-41374Y-116375D01*
X-41210Y-116130D01*
X-41063Y-115389D01*
Y-84446D01*
X-40573Y-84163D01*
X-39837Y-83427D01*
X-39317Y-82526D01*
X-39047Y-81520D01*
Y-81500D01*
X-46953D01*
Y-81520D01*
X-46683Y-82526D01*
X-46163Y-83427D01*
X-45427Y-84163D01*
X-44937Y-84446D01*
Y-114586D01*
X-45802Y-115452D01*
X-46950D01*
X-48845Y-117710D01*
X-49611Y-117067D01*
X-47956Y-115095D01*
X-49697Y-113635D01*
X-49697D01*
X-50768Y-113682D01*
X-54316Y-110134D01*
X-53950Y-109698D01*
X-55690Y-108238D01*
X-57345Y-110210D01*
X-57728Y-109889D01*
X-58050Y-110272D01*
X-60173Y-108490D01*
X-60806Y-109244D01*
X-61720Y-110334D01*
X-61740Y-110357D01*
X-61740Y-110357D01*
X-65050Y-114302D01*
X-63827Y-115328D01*
X-63761Y-116827D01*
X-67311Y-120376D01*
X-71732D01*
X-76883Y-116054D01*
X-77715Y-117046D01*
X-79125Y-116533D01*
Y-72288D01*
X-74366Y-67529D01*
X-47231D01*
X-46968Y-67787D01*
X-46426Y-69029D01*
X-46683Y-69474D01*
X-46953Y-70480D01*
Y-70500D01*
X-39047D01*
Y-70480D01*
X-39317Y-69474D01*
X-39573Y-69029D01*
X-39033Y-67787D01*
X-38769Y-67529D01*
X-36933D01*
X-20029Y-84434D01*
D02*
G37*
G36*
X-18000Y-143377D02*
X-17680Y-143313D01*
X-16581Y-143581D01*
X-16183Y-143980D01*
X-14081Y-146081D01*
X-13585Y-146413D01*
X-13000Y-146529D01*
X-6000D01*
X-5415Y-146413D01*
X-4919Y-146081D01*
X-3931Y-145094D01*
X-2545Y-145668D01*
Y-148924D01*
X-4367D01*
X-4953Y-149040D01*
X-5449Y-149372D01*
X-5933Y-149856D01*
X-6336Y-149587D01*
X-6921Y-149471D01*
X-43000D01*
X-43585Y-149587D01*
X-44082Y-149919D01*
X-45835Y-151672D01*
X-47428Y-151144D01*
X-47515Y-150554D01*
X-37898Y-140937D01*
X-20643D01*
Y-141333D01*
X-20480Y-142153D01*
X-20016Y-142848D01*
X-19320Y-143313D01*
X-19000Y-143377D01*
Y-139000D01*
X-18000D01*
Y-143377D01*
D02*
G37*
G36*
X14833Y-142622D02*
X14985Y-142848D01*
X15680Y-143313D01*
X16500Y-143476D01*
X17356Y-144835D01*
Y-150419D01*
X17242Y-150581D01*
X15856Y-151357D01*
X15783Y-151327D01*
X15508Y-151290D01*
Y-156384D01*
X14508D01*
Y-151290D01*
X14280Y-151320D01*
X14222Y-151323D01*
X12779Y-150895D01*
Y-150895D01*
X11689D01*
Y-154159D01*
X10689D01*
Y-150895D01*
X10508D01*
Y-154159D01*
X9630D01*
Y-150895D01*
X2482D01*
Y-143205D01*
X3016Y-142848D01*
X3167Y-142623D01*
X3277Y-142584D01*
X4723D01*
X4834Y-142623D01*
X4984Y-142848D01*
X5680Y-143313D01*
X6500Y-143476D01*
X7320Y-143313D01*
X8016Y-142848D01*
X8167Y-142622D01*
X8278Y-142584D01*
X9722D01*
X9833Y-142622D01*
X9984Y-142848D01*
X10680Y-143313D01*
X11500Y-143476D01*
X12320Y-143313D01*
X13016Y-142848D01*
X13167Y-142622D01*
X13278Y-142584D01*
X14722D01*
X14833Y-142622D01*
D02*
G37*
G36*
X-10209Y-159312D02*
X-4139Y-165381D01*
X-3643Y-165713D01*
X-3058Y-165829D01*
X5100D01*
X5371Y-166051D01*
Y-172566D01*
X366Y-177571D01*
X-15890D01*
X-15936Y-177522D01*
X-16536Y-176071D01*
X-16415Y-175913D01*
X-16116Y-175191D01*
X-16014Y-174416D01*
Y-173341D01*
X-19008D01*
Y-172341D01*
X-16014D01*
Y-171266D01*
X-16116Y-170491D01*
X-16415Y-169769D01*
X-16891Y-169149D01*
X-17071Y-169011D01*
Y-160805D01*
X-16891Y-160667D01*
X-16415Y-160046D01*
X-16345Y-159879D01*
X-15772Y-159652D01*
X-14831Y-159604D01*
X-14694Y-159634D01*
X-14473Y-159851D01*
X-14374Y-159891D01*
X-14299Y-159966D01*
X-13833Y-160155D01*
X-13727Y-160155D01*
X-13629Y-160196D01*
X-13126Y-160196D01*
X-13028Y-160155D01*
X-12922Y-160155D01*
X-12456Y-159965D01*
X-12381Y-159890D01*
X-12282Y-159851D01*
X-11924Y-159499D01*
X-11373Y-159318D01*
X-10252Y-159295D01*
X-10209Y-159312D01*
D02*
G37*
G36*
X-22808Y-152777D02*
X-21977Y-154029D01*
X-22002Y-154219D01*
Y-155884D01*
X-19008D01*
Y-156884D01*
X-22002D01*
Y-158549D01*
X-21900Y-159324D01*
X-21601Y-160046D01*
X-21125Y-160667D01*
X-20945Y-160805D01*
Y-168029D01*
X-31231D01*
X-32052Y-166529D01*
X-31734Y-165563D01*
X-31149Y-165447D01*
X-30923Y-165296D01*
X-30161Y-165500D01*
X-29239D01*
X-28349Y-165261D01*
X-27551Y-164801D01*
X-26899Y-164149D01*
X-26439Y-163351D01*
X-26200Y-162461D01*
Y-161539D01*
X-26439Y-160649D01*
X-26899Y-159851D01*
X-27551Y-159199D01*
X-28349Y-158739D01*
X-29239Y-158500D01*
X-30161D01*
X-31051Y-158739D01*
X-31849Y-159199D01*
X-32501Y-159851D01*
X-32961Y-160649D01*
X-33175Y-161446D01*
X-37701D01*
Y-165878D01*
X-37701Y-166622D01*
X-37925Y-168029D01*
X-44075D01*
X-44299Y-166622D01*
X-44299Y-166621D01*
Y-161446D01*
X-45471D01*
Y-155633D01*
X-42366Y-152529D01*
X-23145D01*
X-22808Y-152777D01*
D02*
G37*
%LPC*%
G36*
X-83833Y54045D02*
X-86302D01*
Y52069D01*
X-83833D01*
Y54045D01*
D02*
G37*
G36*
X-29500Y165347D02*
X-29572D01*
X-30678Y165050D01*
X-31669Y164478D01*
X-32478Y163669D01*
X-33050Y162678D01*
X-33346Y161572D01*
Y161500D01*
X-29500D01*
Y165347D01*
D02*
G37*
G36*
Y160500D02*
X-33346D01*
Y160428D01*
X-33050Y159322D01*
X-32478Y158331D01*
X-31669Y157522D01*
X-30678Y156950D01*
X-29572Y156653D01*
X-29500D01*
Y160500D01*
D02*
G37*
G36*
X-115960Y120171D02*
X-117040D01*
X-118082Y119892D01*
X-119018Y119352D01*
X-119781Y118588D01*
X-120321Y117654D01*
X-120600Y116611D01*
Y115531D01*
X-120321Y114488D01*
X-119781Y113554D01*
X-119018Y112790D01*
X-118082Y112250D01*
X-117040Y111971D01*
X-115960D01*
X-114918Y112250D01*
X-113982Y112790D01*
X-113219Y113554D01*
X-112679Y114488D01*
X-112400Y115531D01*
Y116611D01*
X-112679Y117654D01*
X-113219Y118588D01*
X-113982Y119352D01*
X-114918Y119892D01*
X-115960Y120171D01*
D02*
G37*
G36*
X-39047Y112953D02*
X-46953D01*
Y105047D01*
X-39047D01*
Y112953D01*
D02*
G37*
G36*
X-123031Y113100D02*
X-124111D01*
X-125154Y112821D01*
X-126089Y112281D01*
X-126852Y111518D01*
X-127392Y110582D01*
X-127671Y109540D01*
Y108460D01*
X-127392Y107418D01*
X-126852Y106483D01*
X-126089Y105719D01*
X-125154Y105179D01*
X-124111Y104900D01*
X-123031D01*
X-121988Y105179D01*
X-121054Y105719D01*
X-120290Y106483D01*
X-119750Y107418D01*
X-119471Y108460D01*
Y109540D01*
X-119750Y110582D01*
X-120290Y111518D01*
X-121054Y112281D01*
X-121988Y112821D01*
X-123031Y113100D01*
D02*
G37*
G36*
X56472Y105335D02*
X54004D01*
Y103260D01*
X56472D01*
Y105335D01*
D02*
G37*
G36*
X-130102Y106029D02*
X-131182D01*
X-132225Y105750D01*
X-133160Y105210D01*
X-133188Y105182D01*
X-130642Y102636D01*
X-128097Y105182D01*
X-128125Y105210D01*
X-129060Y105750D01*
X-130102Y106029D01*
D02*
G37*
G36*
X7500Y170529D02*
X-17400D01*
X-17985Y170413D01*
X-18481Y170081D01*
X-21193Y167370D01*
X-24194Y164369D01*
X-24698Y164103D01*
X-26095Y164242D01*
X-26331Y164478D01*
X-27322Y165050D01*
X-28428Y165347D01*
X-28500D01*
Y161000D01*
Y156653D01*
X-28428D01*
X-27322Y156950D01*
X-26429Y157465D01*
X-26003Y157354D01*
X-24929Y156802D01*
Y79233D01*
X-41478Y62685D01*
X-42480Y62953D01*
X-43520D01*
X-44526Y62683D01*
X-45427Y62163D01*
X-46163Y61427D01*
X-46683Y60526D01*
X-46953Y59520D01*
Y58480D01*
X-46683Y57474D01*
X-46163Y56573D01*
X-45427Y55837D01*
X-44526Y55317D01*
X-43520Y55047D01*
X-42480D01*
X-41474Y55317D01*
X-40573Y55837D01*
X-39837Y56573D01*
X-39317Y57474D01*
X-39047Y58480D01*
Y59520D01*
X-39316Y60522D01*
X-22319Y77519D01*
X-22029Y77951D01*
X-21917Y77973D01*
X-20529Y77533D01*
Y-16366D01*
X-41478Y-37315D01*
X-42480Y-37047D01*
X-43520D01*
X-44502Y-36087D01*
X-43788Y-35262D01*
X-43277Y-34953D01*
X-42480D01*
X-41474Y-34683D01*
X-40573Y-34163D01*
X-39837Y-33427D01*
X-39317Y-32526D01*
X-39047Y-31520D01*
Y-30480D01*
X-39317Y-29474D01*
X-39837Y-28573D01*
X-40573Y-27837D01*
X-41474Y-27317D01*
X-42480Y-27047D01*
X-43520D01*
X-44526Y-27317D01*
X-45427Y-27837D01*
X-46163Y-28573D01*
X-46683Y-29474D01*
X-46953Y-30480D01*
Y-31520D01*
X-46685Y-32522D01*
X-48081Y-33919D01*
X-48413Y-34415D01*
X-48529Y-35000D01*
Y-44000D01*
X-48413Y-44585D01*
X-48081Y-45081D01*
X-46371Y-46791D01*
X-46083Y-47111D01*
X-46162Y-48559D01*
X-46213Y-48660D01*
X-46683Y-49474D01*
X-46953Y-50480D01*
Y-51520D01*
X-46683Y-52526D01*
X-46163Y-53427D01*
X-45427Y-54163D01*
X-44526Y-54683D01*
X-43520Y-54953D01*
X-42480D01*
X-41474Y-54683D01*
X-40573Y-54163D01*
X-39837Y-53427D01*
X-39317Y-52526D01*
X-39047Y-51520D01*
Y-50480D01*
X-39317Y-49474D01*
X-39837Y-48573D01*
X-40264Y-48147D01*
X-40569Y-47806D01*
X-40363Y-46226D01*
X-7919Y-13781D01*
X-7587Y-13285D01*
X-7471Y-12700D01*
Y156910D01*
X-7322Y156950D01*
X-6331Y157522D01*
X-5522Y158331D01*
X-4950Y159322D01*
X-4846Y159708D01*
X-3347Y159510D01*
Y156653D01*
X3184D01*
X15471Y144367D01*
Y112681D01*
X14573Y112163D01*
X13837Y111427D01*
X13317Y110526D01*
X13047Y109520D01*
Y108480D01*
X13317Y107474D01*
X13837Y106573D01*
X14573Y105837D01*
X15474Y105317D01*
X16480Y105047D01*
X17520D01*
X18526Y105317D01*
X19427Y105837D01*
X20163Y106573D01*
X20683Y107474D01*
X20953Y108480D01*
Y109520D01*
X20683Y110526D01*
X20163Y111427D01*
X19427Y112163D01*
X18529Y112681D01*
Y145000D01*
X18413Y145585D01*
X18081Y146081D01*
X5347Y158816D01*
Y165347D01*
X-3347D01*
Y162490D01*
X-4846Y162292D01*
X-4950Y162678D01*
X-5522Y163669D01*
X-6331Y164478D01*
X-7322Y165050D01*
X-8428Y165347D01*
X-9572D01*
X-10678Y165050D01*
X-11669Y164478D01*
X-12478Y163669D01*
X-13050Y162678D01*
X-13224Y162031D01*
X-14776D01*
X-14950Y162678D01*
X-15522Y163669D01*
X-16331Y164478D01*
X-17115Y164931D01*
X-17410Y166387D01*
X-16433Y167471D01*
X6866D01*
X20419Y153919D01*
X20915Y153587D01*
X21500Y153471D01*
X64750D01*
X64789Y153322D01*
X65362Y152331D01*
X66171Y151522D01*
X67162Y150950D01*
X68268Y150654D01*
X69412Y150654D01*
X70517Y150950D01*
X71509Y151522D01*
X71982Y151996D01*
X73327Y151219D01*
X73154Y150572D01*
X73154Y149428D01*
X73450Y148322D01*
X74022Y147331D01*
X74831Y146522D01*
X75822Y145950D01*
X76928Y145654D01*
X78072Y145654D01*
X79178Y145950D01*
X80169Y146522D01*
X80642Y146995D01*
X81987Y146219D01*
X81814Y145572D01*
X81814Y144428D01*
X82078Y143441D01*
X60630Y121994D01*
X60630Y121994D01*
X60630Y121993D01*
X60512Y121875D01*
X49541D01*
X48799Y121728D01*
X48171Y121308D01*
X42331Y115469D01*
X40118D01*
Y113000D01*
X42595D01*
Y112000D01*
X39855D01*
X28792Y100937D01*
X20446D01*
X20163Y101427D01*
X19427Y102163D01*
X18526Y102683D01*
X17520Y102953D01*
X17500D01*
Y99000D01*
Y95047D01*
X17520D01*
X18526Y95317D01*
X19427Y95837D01*
X20163Y96573D01*
X20446Y97063D01*
X29595D01*
X30336Y97210D01*
X30964Y97630D01*
X42866Y109531D01*
X44524D01*
X45071Y109531D01*
Y109531D01*
X45471D01*
X46971Y108424D01*
Y103529D01*
X45910Y102469D01*
X45071D01*
X44524Y102469D01*
X40118D01*
Y100529D01*
X37000D01*
X36415Y100413D01*
X35919Y100081D01*
X18522Y82684D01*
X17520Y82953D01*
X16480D01*
X15474Y82683D01*
X14573Y82163D01*
X13837Y81427D01*
X13317Y80526D01*
X13047Y79520D01*
Y78480D01*
X13317Y77474D01*
X13837Y76573D01*
X14573Y75837D01*
X15474Y75317D01*
X16480Y75047D01*
X17520D01*
X18526Y75317D01*
X19427Y75837D01*
X20163Y76573D01*
X20683Y77474D01*
X20953Y78480D01*
Y79520D01*
X20685Y80522D01*
X37633Y97471D01*
X40118D01*
Y96531D01*
X44524D01*
X46024Y96531D01*
X46571Y96531D01*
X50976D01*
Y102469D01*
X50029D01*
Y109531D01*
X50976D01*
Y110971D01*
X53685D01*
X54004Y110652D01*
Y107665D01*
X57348D01*
X57932Y106314D01*
X57472Y105752D01*
Y102760D01*
Y100185D01*
X59941D01*
Y102595D01*
X61795Y104449D01*
X63059Y103925D01*
Y103925D01*
X68996D01*
Y104731D01*
X81700D01*
X82285Y104847D01*
X82781Y105179D01*
X83074Y105471D01*
X88364D01*
X88424Y105246D01*
X89022Y104210D01*
X89868Y103365D01*
X90904Y102766D01*
X92059Y102457D01*
X93256D01*
X94411Y102766D01*
X95447Y103365D01*
X96293Y104210D01*
X96891Y105246D01*
X97201Y106402D01*
Y107598D01*
X96891Y108754D01*
X96293Y109790D01*
X95447Y110635D01*
X94411Y111234D01*
X93256Y111543D01*
X92059D01*
X90904Y111234D01*
X89868Y110635D01*
X89022Y109790D01*
X88424Y108754D01*
X88364Y108529D01*
X82440D01*
X81855Y108413D01*
X81359Y108081D01*
X81067Y107789D01*
X68996D01*
Y109075D01*
X63937D01*
Y119821D01*
X84943Y140827D01*
X85588Y140654D01*
X86733Y140654D01*
X87838Y140950D01*
X88829Y141522D01*
X89111Y141804D01*
X90312Y140883D01*
X88883Y138409D01*
X96411Y134063D01*
X96595Y134380D01*
X98082Y134576D01*
X110813Y121844D01*
Y111294D01*
X110589Y111234D01*
X109553Y110635D01*
X108707Y109790D01*
X108109Y108754D01*
X107799Y107598D01*
Y106402D01*
X108109Y105246D01*
X108707Y104210D01*
X109553Y103365D01*
X110589Y102766D01*
X111744Y102457D01*
X112941D01*
X114096Y102766D01*
X115132Y103365D01*
X115978Y104210D01*
X116576Y105246D01*
X116886Y106402D01*
Y107598D01*
X116576Y108754D01*
X115978Y109790D01*
X115132Y110635D01*
X114096Y111234D01*
X113872Y111294D01*
Y122478D01*
X113756Y123063D01*
X113424Y123559D01*
X98794Y138189D01*
X100758Y141591D01*
X93230Y145937D01*
X91801Y143463D01*
X90403Y144042D01*
X90507Y144428D01*
X90507Y145572D01*
X90210Y146678D01*
X89638Y147669D01*
X88829Y148478D01*
X88766Y148514D01*
X86593Y144750D01*
X85727Y145250D01*
X87901Y149014D01*
X87838Y149050D01*
X86733Y149346D01*
X85588Y149346D01*
X84483Y149050D01*
X83491Y148478D01*
X83018Y148005D01*
X81673Y148781D01*
X81846Y149428D01*
X81846Y150572D01*
X81550Y151678D01*
X80978Y152669D01*
X80169Y153478D01*
X79178Y154050D01*
X78072Y154347D01*
X76928Y154347D01*
X75822Y154050D01*
X74831Y153478D01*
X74358Y153005D01*
X73013Y153781D01*
X73186Y154428D01*
X73186Y155572D01*
X72890Y156678D01*
X72318Y157669D01*
X71509Y158478D01*
X70517Y159050D01*
X69412Y159346D01*
X68268Y159346D01*
X67162Y159050D01*
X66171Y158478D01*
X65362Y157669D01*
X64789Y156678D01*
X64750Y156529D01*
X22133D01*
X8581Y170081D01*
X8085Y170413D01*
X7500Y170529D01*
D02*
G37*
G36*
X56472Y102260D02*
X54004D01*
Y100185D01*
X56472D01*
Y102260D01*
D02*
G37*
G36*
X16500Y102953D02*
X16480D01*
X15474Y102683D01*
X14573Y102163D01*
X13837Y101427D01*
X13317Y100526D01*
X13047Y99520D01*
Y99500D01*
X16500D01*
Y102953D01*
D02*
G37*
G36*
X-127390Y104475D02*
X-129935Y101929D01*
X-127390Y99383D01*
X-127361Y99411D01*
X-126822Y100347D01*
X-126542Y101389D01*
Y102469D01*
X-126822Y103512D01*
X-127361Y104446D01*
X-127390Y104475D01*
D02*
G37*
G36*
X-133895D02*
X-133923Y104446D01*
X-134463Y103512D01*
X-134742Y102469D01*
Y101389D01*
X-134463Y100347D01*
X-133923Y99411D01*
X-133895Y99383D01*
X-131349Y101929D01*
X-133895Y104475D01*
D02*
G37*
G36*
X-115960Y106029D02*
X-117040D01*
X-118082Y105750D01*
X-119018Y105210D01*
X-119781Y104446D01*
X-120321Y103512D01*
X-120600Y102469D01*
Y101389D01*
X-120321Y100347D01*
X-119781Y99411D01*
X-119018Y98648D01*
X-118082Y98108D01*
X-117040Y97829D01*
X-115960D01*
X-114918Y98108D01*
X-113982Y98648D01*
X-113219Y99411D01*
X-112679Y100347D01*
X-112400Y101389D01*
Y102469D01*
X-112679Y103512D01*
X-113219Y104446D01*
X-113982Y105210D01*
X-114918Y105750D01*
X-115960Y106029D01*
D02*
G37*
G36*
X16500Y98500D02*
X13047D01*
Y98480D01*
X13317Y97474D01*
X13837Y96573D01*
X14573Y95837D01*
X15474Y95317D01*
X16480Y95047D01*
X16500D01*
Y98500D01*
D02*
G37*
G36*
X-42480Y102953D02*
X-43520D01*
X-44526Y102683D01*
X-45427Y102163D01*
X-46163Y101427D01*
X-46683Y100526D01*
X-46953Y99520D01*
Y98480D01*
X-46683Y97474D01*
X-46163Y96573D01*
X-45427Y95837D01*
X-44526Y95317D01*
X-43520Y95047D01*
X-42480D01*
X-41474Y95317D01*
X-40573Y95837D01*
X-39837Y96573D01*
X-39317Y97474D01*
X-39047Y98480D01*
Y99520D01*
X-39317Y100526D01*
X-39837Y101427D01*
X-40573Y102163D01*
X-41474Y102683D01*
X-42480Y102953D01*
D02*
G37*
G36*
X-130642Y101222D02*
X-133188Y98676D01*
X-133160Y98648D01*
X-132579Y98313D01*
Y38660D01*
X-149268Y21972D01*
X-150654Y22546D01*
Y27846D01*
X-159346D01*
Y19154D01*
X-156490D01*
X-156292Y17654D01*
X-156678Y17550D01*
X-157669Y16978D01*
X-158478Y16169D01*
X-159050Y15178D01*
X-159346Y14072D01*
Y14000D01*
X-155000D01*
X-150654D01*
Y14072D01*
X-150872Y14888D01*
X-129272Y36488D01*
X-128852Y37116D01*
X-128705Y37858D01*
Y92234D01*
X-127319Y92808D01*
X-123571Y89060D01*
X-117773Y94858D01*
X-123571Y100656D01*
X-126414Y97813D01*
X-127300Y97930D01*
X-127982Y98366D01*
X-127978Y98557D01*
X-130642Y101222D01*
D02*
G37*
G36*
X17520Y92953D02*
X16480D01*
X15474Y92683D01*
X14573Y92163D01*
X13837Y91427D01*
X13317Y90526D01*
X13047Y89520D01*
Y88480D01*
X13317Y87474D01*
X13837Y86573D01*
X14573Y85837D01*
X15474Y85317D01*
X16480Y85047D01*
X17520D01*
X18526Y85317D01*
X19427Y85837D01*
X20163Y86573D01*
X20683Y87474D01*
X20953Y88480D01*
Y89520D01*
X20683Y90526D01*
X20163Y91427D01*
X19427Y92163D01*
X18526Y92683D01*
X17520Y92953D01*
D02*
G37*
G36*
X-42480D02*
X-43520D01*
X-44526Y92683D01*
X-45427Y92163D01*
X-46163Y91427D01*
X-46683Y90526D01*
X-46953Y89520D01*
Y88480D01*
X-46683Y87474D01*
X-46163Y86573D01*
X-45427Y85837D01*
X-44526Y85317D01*
X-43520Y85047D01*
X-42480D01*
X-41474Y85317D01*
X-40573Y85837D01*
X-39837Y86573D01*
X-39317Y87474D01*
X-39047Y88480D01*
Y89520D01*
X-39317Y90526D01*
X-39837Y91427D01*
X-40573Y92163D01*
X-41474Y92683D01*
X-42480Y92953D01*
D02*
G37*
G36*
Y82953D02*
X-43520D01*
X-44526Y82683D01*
X-45427Y82163D01*
X-46163Y81427D01*
X-46683Y80526D01*
X-46953Y79520D01*
Y78480D01*
X-46683Y77474D01*
X-46163Y76573D01*
X-45427Y75837D01*
X-44526Y75317D01*
X-43520Y75047D01*
X-42480D01*
X-41474Y75317D01*
X-40573Y75837D01*
X-39837Y76573D01*
X-39317Y77474D01*
X-39047Y78480D01*
Y79520D01*
X-39317Y80526D01*
X-39837Y81427D01*
X-40573Y82163D01*
X-41474Y82683D01*
X-42480Y82953D01*
D02*
G37*
G36*
X17520Y72953D02*
X16480D01*
X15474Y72683D01*
X14573Y72163D01*
X13837Y71427D01*
X13317Y70526D01*
X13047Y69520D01*
Y68480D01*
X13317Y67474D01*
X13837Y66573D01*
X14573Y65837D01*
X15474Y65317D01*
X16480Y65047D01*
X17520D01*
X18526Y65317D01*
X19427Y65837D01*
X20163Y66573D01*
X20683Y67474D01*
X20953Y68480D01*
Y69520D01*
X20683Y70526D01*
X20163Y71427D01*
X19427Y72163D01*
X18526Y72683D01*
X17520Y72953D01*
D02*
G37*
G36*
Y62953D02*
X16480D01*
X15474Y62683D01*
X14573Y62163D01*
X13837Y61427D01*
X13317Y60526D01*
X13047Y59520D01*
Y58480D01*
X13317Y57474D01*
X13837Y56573D01*
X14573Y55837D01*
X15474Y55317D01*
X16480Y55047D01*
X17520D01*
X18526Y55317D01*
X19427Y55837D01*
X20163Y56573D01*
X20683Y57474D01*
X20953Y58480D01*
Y59520D01*
X20683Y60526D01*
X20163Y61427D01*
X19427Y62163D01*
X18526Y62683D01*
X17520Y62953D01*
D02*
G37*
G36*
Y52953D02*
X16480D01*
X15474Y52683D01*
X14573Y52163D01*
X13837Y51427D01*
X13317Y50526D01*
X13047Y49520D01*
Y48480D01*
X13317Y47474D01*
X13837Y46573D01*
X14573Y45837D01*
X15474Y45317D01*
X16480Y45047D01*
X17520D01*
X18526Y45317D01*
X19427Y45837D01*
X20163Y46573D01*
X20683Y47474D01*
X20953Y48480D01*
Y49520D01*
X20683Y50526D01*
X20163Y51427D01*
X19427Y52163D01*
X18526Y52683D01*
X17520Y52953D01*
D02*
G37*
G36*
Y42953D02*
X16480D01*
X15474Y42683D01*
X14573Y42163D01*
X13837Y41427D01*
X13317Y40526D01*
X13047Y39520D01*
Y38480D01*
X13317Y37474D01*
X13837Y36573D01*
X14573Y35837D01*
X15474Y35317D01*
X16480Y35047D01*
X17520D01*
X18526Y35317D01*
X19427Y35837D01*
X20163Y36573D01*
X20683Y37474D01*
X20953Y38480D01*
Y39520D01*
X20683Y40526D01*
X20163Y41427D01*
X19427Y42163D01*
X18526Y42683D01*
X17520Y42953D01*
D02*
G37*
G36*
X-42480D02*
X-43520D01*
X-44526Y42683D01*
X-45427Y42163D01*
X-46163Y41427D01*
X-46683Y40526D01*
X-46953Y39520D01*
Y38480D01*
X-46683Y37474D01*
X-46163Y36573D01*
X-45427Y35837D01*
X-44526Y35317D01*
X-43520Y35047D01*
X-42480D01*
X-41474Y35317D01*
X-40573Y35837D01*
X-39837Y36573D01*
X-39317Y37474D01*
X-39047Y38480D01*
Y39520D01*
X-39317Y40526D01*
X-39837Y41427D01*
X-40573Y42163D01*
X-41474Y42683D01*
X-42480Y42953D01*
D02*
G37*
G36*
X17520Y32953D02*
X16480D01*
X15474Y32683D01*
X14573Y32163D01*
X13837Y31427D01*
X13317Y30526D01*
X13047Y29520D01*
Y28480D01*
X13317Y27474D01*
X13837Y26573D01*
X14573Y25837D01*
X15474Y25317D01*
X16480Y25047D01*
X17520D01*
X18526Y25317D01*
X19427Y25837D01*
X20163Y26573D01*
X20683Y27474D01*
X20953Y28480D01*
Y29520D01*
X20683Y30526D01*
X20163Y31427D01*
X19427Y32163D01*
X18526Y32683D01*
X17520Y32953D01*
D02*
G37*
G36*
Y22953D02*
X16480D01*
X15474Y22683D01*
X14573Y22163D01*
X13837Y21427D01*
X13317Y20526D01*
X13047Y19520D01*
Y18480D01*
X13317Y17474D01*
X13837Y16573D01*
X14573Y15837D01*
X15474Y15317D01*
X16480Y15047D01*
X17520D01*
X18526Y15317D01*
X19427Y15837D01*
X20163Y16573D01*
X20683Y17474D01*
X20953Y18480D01*
Y19520D01*
X20683Y20526D01*
X20163Y21427D01*
X19427Y22163D01*
X18526Y22683D01*
X17520Y22953D01*
D02*
G37*
G36*
X-42480D02*
X-43520D01*
X-44526Y22683D01*
X-45427Y22163D01*
X-46163Y21427D01*
X-46683Y20526D01*
X-46953Y19520D01*
Y18480D01*
X-46683Y17474D01*
X-46163Y16573D01*
X-45427Y15837D01*
X-44526Y15317D01*
X-43520Y15047D01*
X-42480D01*
X-41474Y15317D01*
X-40573Y15837D01*
X-39837Y16573D01*
X-39317Y17474D01*
X-39047Y18480D01*
Y19520D01*
X-39317Y20526D01*
X-39837Y21427D01*
X-40573Y22163D01*
X-41474Y22683D01*
X-42480Y22953D01*
D02*
G37*
G36*
X-82059Y16043D02*
X-83255D01*
X-84411Y15734D01*
X-85447Y15135D01*
X-86293Y14290D01*
X-86891Y13254D01*
X-87201Y12098D01*
Y10902D01*
X-86891Y9746D01*
X-86293Y8710D01*
X-85447Y7864D01*
X-84411Y7266D01*
X-83255Y6957D01*
X-82059D01*
X-80904Y7266D01*
X-79868Y7864D01*
X-79022Y8710D01*
X-78424Y9746D01*
X-78114Y10902D01*
Y12098D01*
X-78424Y13254D01*
X-79022Y14290D01*
X-79868Y15135D01*
X-80904Y15734D01*
X-82059Y16043D01*
D02*
G37*
G36*
X17520Y12953D02*
X16480D01*
X15474Y12683D01*
X14573Y12163D01*
X13837Y11427D01*
X13317Y10526D01*
X13047Y9520D01*
Y8480D01*
X13317Y7474D01*
X13837Y6573D01*
X14573Y5837D01*
X15474Y5317D01*
X16480Y5047D01*
X17520D01*
X18526Y5317D01*
X19427Y5837D01*
X20163Y6573D01*
X20683Y7474D01*
X20953Y8480D01*
Y9520D01*
X20683Y10526D01*
X20163Y11427D01*
X19427Y12163D01*
X18526Y12683D01*
X17520Y12953D01*
D02*
G37*
G36*
X-42480D02*
X-43520D01*
X-44526Y12683D01*
X-45427Y12163D01*
X-46163Y11427D01*
X-46683Y10526D01*
X-46953Y9520D01*
Y8480D01*
X-46683Y7474D01*
X-46163Y6573D01*
X-45427Y5837D01*
X-44526Y5317D01*
X-43520Y5047D01*
X-42480D01*
X-41474Y5317D01*
X-40573Y5837D01*
X-39837Y6573D01*
X-39317Y7474D01*
X-39047Y8480D01*
Y9520D01*
X-39317Y10526D01*
X-39837Y11427D01*
X-40573Y12163D01*
X-41474Y12683D01*
X-42480Y12953D01*
D02*
G37*
G36*
X17520Y2953D02*
X16480D01*
X15474Y2683D01*
X14573Y2163D01*
X13837Y1427D01*
X13317Y526D01*
X13047Y-480D01*
Y-1520D01*
X13317Y-2526D01*
X13837Y-3427D01*
X14573Y-4163D01*
X15474Y-4683D01*
X16480Y-4953D01*
X17520D01*
X18526Y-4683D01*
X19427Y-4163D01*
X20163Y-3427D01*
X20683Y-2526D01*
X20953Y-1520D01*
Y-480D01*
X20683Y526D01*
X20163Y1427D01*
X19427Y2163D01*
X18526Y2683D01*
X17520Y2953D01*
D02*
G37*
G36*
X-42480D02*
X-43520D01*
X-44526Y2683D01*
X-45427Y2163D01*
X-46163Y1427D01*
X-46683Y526D01*
X-46953Y-480D01*
Y-1520D01*
X-46683Y-2526D01*
X-46163Y-3427D01*
X-45427Y-4163D01*
X-44526Y-4683D01*
X-43520Y-4953D01*
X-42480D01*
X-41474Y-4683D01*
X-40573Y-4163D01*
X-39837Y-3427D01*
X-39317Y-2526D01*
X-39047Y-1520D01*
Y-480D01*
X-39317Y526D01*
X-39837Y1427D01*
X-40573Y2163D01*
X-41474Y2683D01*
X-42480Y2953D01*
D02*
G37*
G36*
X17520Y-7047D02*
X16480D01*
X15474Y-7317D01*
X14573Y-7837D01*
X13837Y-8573D01*
X13317Y-9474D01*
X13047Y-10480D01*
Y-11520D01*
X13317Y-12526D01*
X13837Y-13427D01*
X14573Y-14163D01*
X15474Y-14683D01*
X16480Y-14953D01*
X17520D01*
X18526Y-14683D01*
X19427Y-14163D01*
X20163Y-13427D01*
X20683Y-12526D01*
X20953Y-11520D01*
Y-10480D01*
X20683Y-9474D01*
X20163Y-8573D01*
X19427Y-7837D01*
X18526Y-7317D01*
X17520Y-7047D01*
D02*
G37*
G36*
X-42480D02*
X-43520D01*
X-44526Y-7317D01*
X-45427Y-7837D01*
X-46163Y-8573D01*
X-46683Y-9474D01*
X-46953Y-10480D01*
Y-11520D01*
X-46683Y-12526D01*
X-46163Y-13427D01*
X-45427Y-14163D01*
X-44526Y-14683D01*
X-43520Y-14953D01*
X-42480D01*
X-41474Y-14683D01*
X-40573Y-14163D01*
X-39837Y-13427D01*
X-39317Y-12526D01*
X-39047Y-11520D01*
Y-10480D01*
X-39317Y-9474D01*
X-39837Y-8573D01*
X-40573Y-7837D01*
X-41474Y-7317D01*
X-42480Y-7047D01*
D02*
G37*
G36*
Y-17047D02*
X-43520D01*
X-44526Y-17317D01*
X-45427Y-17837D01*
X-46163Y-18573D01*
X-46683Y-19474D01*
X-46953Y-20480D01*
Y-21520D01*
X-46683Y-22526D01*
X-46163Y-23427D01*
X-45427Y-24163D01*
X-44526Y-24683D01*
X-43520Y-24953D01*
X-42480D01*
X-41474Y-24683D01*
X-40573Y-24163D01*
X-39837Y-23427D01*
X-39317Y-22526D01*
X-39047Y-21520D01*
Y-20480D01*
X-39317Y-19474D01*
X-39837Y-18573D01*
X-40573Y-17837D01*
X-41474Y-17317D01*
X-42480Y-17047D01*
D02*
G37*
G36*
X-73154Y-41500D02*
X-77000D01*
Y-45346D01*
X-76928D01*
X-75822Y-45050D01*
X-74831Y-44478D01*
X-74022Y-43669D01*
X-73450Y-42678D01*
X-73154Y-41572D01*
Y-41500D01*
D02*
G37*
G36*
X-78000D02*
X-81846D01*
Y-41572D01*
X-81550Y-42678D01*
X-80978Y-43669D01*
X-80169Y-44478D01*
X-79178Y-45050D01*
X-78072Y-45346D01*
X-78000D01*
Y-41500D01*
D02*
G37*
G36*
X-127719Y-30100D02*
X-128640D01*
X-129531Y-30338D01*
X-130329Y-30799D01*
X-130980Y-31451D01*
X-131441Y-32249D01*
X-131680Y-33139D01*
Y-34061D01*
X-131441Y-34951D01*
X-130980Y-35749D01*
X-130329Y-36401D01*
X-129709Y-36759D01*
Y-57240D01*
X-133717Y-60047D01*
X-130086Y-65232D01*
X-122642Y-60021D01*
X-126274Y-54835D01*
X-126274D01*
X-126650Y-54639D01*
Y-36759D01*
X-126031Y-36401D01*
X-125379Y-35749D01*
X-124918Y-34951D01*
X-124680Y-34061D01*
Y-33139D01*
X-124918Y-32249D01*
X-125379Y-31451D01*
X-126031Y-30799D01*
X-126829Y-30338D01*
X-127719Y-30100D01*
D02*
G37*
G36*
X-150654Y13000D02*
X-155000D01*
X-159346D01*
Y12928D01*
X-159050Y11822D01*
X-158478Y10831D01*
X-157669Y10022D01*
X-156678Y9450D01*
X-156031Y9277D01*
Y7723D01*
X-156678Y7550D01*
X-157669Y6978D01*
X-158478Y6169D01*
X-159050Y5178D01*
X-159346Y4072D01*
Y2928D01*
X-159050Y1822D01*
X-158478Y831D01*
X-157669Y22D01*
X-156678Y-550D01*
X-156031Y-723D01*
Y-2276D01*
X-156678Y-2450D01*
X-157669Y-3022D01*
X-158478Y-3831D01*
X-159050Y-4822D01*
X-159346Y-5928D01*
Y-7072D01*
X-159050Y-8178D01*
X-158478Y-9169D01*
X-157669Y-9978D01*
X-156678Y-10550D01*
X-155572Y-10847D01*
X-154428D01*
X-153322Y-10550D01*
X-152331Y-9978D01*
X-151522Y-9169D01*
X-150950Y-8178D01*
X-150654Y-7072D01*
Y-5928D01*
X-150950Y-4822D01*
X-151522Y-3831D01*
X-152331Y-3022D01*
X-153322Y-2450D01*
X-153969Y-2276D01*
Y-723D01*
X-153322Y-550D01*
X-152331Y22D01*
X-151522Y831D01*
X-150950Y1822D01*
X-150654Y2928D01*
Y4072D01*
X-150932Y5111D01*
X-150785Y5375D01*
X-149926Y6404D01*
X-149820Y6383D01*
X-141758D01*
Y-72664D01*
X-142917Y-73029D01*
X-143258Y-73137D01*
X-143319Y-73049D01*
X-146269Y-68836D01*
X-153712Y-74048D01*
X-150081Y-79233D01*
X-143468Y-74603D01*
X-143258Y-74455D01*
X-141758Y-75219D01*
Y-83459D01*
X-145358Y-85979D01*
X-143829Y-88163D01*
X-140107Y-85557D01*
X-136386Y-82951D01*
X-137883Y-80812D01*
Y8320D01*
X-138031Y9062D01*
X-138451Y9690D01*
X-139079Y10110D01*
X-139820Y10258D01*
X-149018D01*
X-150872Y12112D01*
X-150654Y12928D01*
Y13000D01*
D02*
G37*
G36*
X-117919Y-66767D02*
X-125362Y-71978D01*
X-121731Y-77164D01*
X-114288Y-71952D01*
X-117919Y-66767D01*
D02*
G37*
G36*
X118776Y-111315D02*
X116377Y-113798D01*
X118861Y-116197D01*
X121259Y-113713D01*
X118776Y-111315D01*
D02*
G37*
G36*
X121979Y-114408D02*
X119580Y-116892D01*
X122064Y-119290D01*
X124462Y-116806D01*
X121979Y-114408D01*
D02*
G37*
G36*
X115682Y-114518D02*
X113284Y-117002D01*
X115768Y-119400D01*
X118166Y-116916D01*
X115682Y-114518D01*
D02*
G37*
G36*
X118886Y-117611D02*
X116487Y-120095D01*
X118971Y-122493D01*
X121369Y-120010D01*
X118886Y-117611D01*
D02*
G37*
G36*
X112378Y-120136D02*
X111337Y-120154D01*
X110337Y-120441D01*
X109445Y-120977D01*
X108722Y-121726D01*
X108217Y-122636D01*
X107965Y-123646D01*
X107984Y-124687D01*
X108270Y-125687D01*
X108806Y-126579D01*
X109555Y-127302D01*
X110465Y-127807D01*
X111475Y-128059D01*
X112516Y-128041D01*
X113516Y-127754D01*
X114409Y-127218D01*
X115131Y-126469D01*
X115636Y-125559D01*
X115888Y-124549D01*
X115870Y-123508D01*
X115583Y-122508D01*
X115047Y-121616D01*
X114298Y-120893D01*
X113388Y-120388D01*
X112378Y-120136D01*
D02*
G37*
G36*
X-88524Y-129927D02*
X-90237Y-131969D01*
X-86536Y-135074D01*
X-84823Y-133032D01*
X-88524Y-129927D01*
D02*
G37*
G36*
X35961Y-173331D02*
X33000D01*
Y-175800D01*
X35961D01*
Y-173331D01*
D02*
G37*
G36*
X14508Y-173341D02*
X12014D01*
Y-174416D01*
X12116Y-175191D01*
X12415Y-175913D01*
X12891Y-176533D01*
X13511Y-177009D01*
X14233Y-177308D01*
X14508Y-177344D01*
Y-173341D01*
D02*
G37*
G36*
X-39047Y-71500D02*
X-46953D01*
Y-71520D01*
X-46683Y-72526D01*
X-46163Y-73427D01*
X-45427Y-74163D01*
X-44937Y-74446D01*
Y-77554D01*
X-45427Y-77837D01*
X-46163Y-78573D01*
X-46683Y-79474D01*
X-46953Y-80480D01*
Y-80500D01*
X-39047D01*
Y-80480D01*
X-39317Y-79474D01*
X-39837Y-78573D01*
X-40573Y-77837D01*
X-41063Y-77554D01*
Y-74446D01*
X-40573Y-74163D01*
X-39837Y-73427D01*
X-39317Y-72526D01*
X-39047Y-71520D01*
Y-71500D01*
D02*
G37*
G36*
X-58197Y-106135D02*
X-59530Y-107724D01*
X-57790Y-109184D01*
X-56456Y-107595D01*
X-58197Y-106135D01*
D02*
G37*
%LPD*%
D11*
X-105343Y14499D02*
X-102344Y11500D01*
X-105343Y14499D02*
Y82615D01*
X48500Y112500D02*
X54319D01*
X56579Y110240D02*
X56972D01*
X54319Y112500D02*
X56579Y110240D01*
X66028Y106500D02*
X66268Y106260D01*
X94820Y140000D02*
Y140000D01*
X112343Y107001D02*
X112344Y107000D01*
X112343Y107001D02*
Y122478D01*
X94820Y140000D02*
X112343Y122478D01*
X7500Y169000D02*
X21500Y155000D01*
X-20111Y166289D02*
X-17400Y169000D01*
X7500D01*
X21500Y155000D02*
X68840D01*
X-23400Y163000D02*
X-20111Y166289D01*
X-109429Y128071D02*
X-99500Y138000D01*
X-94500D02*
X-76600Y120100D01*
X-99500Y138000D02*
X-94500D01*
X-109429Y123142D02*
Y128071D01*
X-76600Y49000D02*
Y120100D01*
X-4953Y-151039D02*
X-4367Y-150453D01*
X-2063D02*
X-1016Y-151500D01*
X-4953Y-154159D02*
Y-151039D01*
X-4367Y-150453D02*
X-2063D01*
X-8500Y-132500D02*
Y-128500D01*
Y-139000D02*
Y-132500D01*
X953Y-141735D02*
X1500D01*
X-1016Y-151500D02*
Y-135916D01*
X-80654Y-119504D02*
Y-71654D01*
X6900Y-157342D02*
Y-156939D01*
Y-162500D02*
Y-157342D01*
Y-173200D02*
Y-162500D01*
X-109300Y30200D02*
Y48287D01*
X37000Y99000D02*
X42595D01*
X-92403Y109000D02*
Y128403D01*
Y82500D02*
Y109000D01*
X-8500Y-128500D02*
X-6500Y-126500D01*
Y-54500D01*
X17000Y-31000D01*
X-1016Y-135916D02*
X900Y-134000D01*
X4800D01*
X6500Y-135700D01*
Y-139000D02*
Y-135700D01*
X-3500Y-139000D02*
Y-134500D01*
X-1386Y-132386D01*
X16771D01*
X18886Y-134500D01*
Y-157920D02*
Y-134500D01*
Y-157920D02*
X29932Y-168966D01*
X46000D01*
X-107228Y-100389D02*
Y6615D01*
X-102344Y11500D01*
X-96597Y121832D02*
Y132597D01*
X-102358Y116071D02*
X-96597Y121832D01*
X-10858Y-156500D02*
Y-154159D01*
Y-156500D02*
X-3058Y-164300D01*
X5100D01*
X6900Y-162500D01*
X6858Y-154159D02*
X6900Y-157342D01*
X-128180Y-60034D02*
Y-33600D01*
X-93500Y-44500D02*
Y-40432D01*
Y-44500D02*
X-89100Y-48900D01*
X-69100D01*
X-53000Y-32800D01*
Y19000D01*
X-43000Y29000D01*
X-9000Y-12700D02*
Y161000D01*
X-42300Y-46000D02*
X-9000Y-12700D01*
X-45000Y-46000D02*
X-42300D01*
X-47000Y-44000D02*
X-45000Y-46000D01*
X-47000Y-44000D02*
Y-35000D01*
X-43000Y-31000D01*
X-76600Y49000D02*
X-43000D01*
X-23400Y78600D02*
Y163000D01*
X-43000Y59000D02*
X-23400Y78600D01*
X-109329Y48287D02*
X-109300D01*
X8039Y-155800D02*
Y-154159D01*
X6900Y-156939D02*
X8039Y-155800D01*
X1000Y-179100D02*
X6900Y-173200D01*
X-24100Y-179100D02*
X1000D01*
X-30700Y-172500D02*
X-24100Y-179100D01*
X-49200Y-172500D02*
X-30700D01*
X-53200Y-168500D02*
X-49200Y-172500D01*
X-53200Y-168500D02*
Y-152500D01*
X-58463Y-147237D02*
X-53200Y-152500D01*
X-71492Y-147237D02*
X-58463D01*
X-80654Y-71654D02*
X-75000Y-66000D01*
X-36300D01*
X-18500Y-83800D01*
Y-116382D02*
Y-83800D01*
X-3500Y-142500D02*
Y-139000D01*
X-6000Y-145000D02*
X-3500Y-142500D01*
X-13000Y-145000D02*
X-6000D01*
X-15500Y-142500D02*
X-13000Y-145000D01*
X-15500Y-142500D02*
Y-125800D01*
X-18500Y-122800D02*
X-15500Y-125800D01*
X-18500Y-122800D02*
Y-116382D01*
X46000Y-168966D02*
Y-166600D01*
X47000Y-165600D01*
X73300D01*
X95000Y-143900D01*
Y-141271D01*
X104980Y-131291D01*
X1500Y-141735D02*
Y-139000D01*
X953Y-154159D02*
Y-141735D01*
X81716Y-149853D02*
Y-85716D01*
X17000Y-21000D02*
X81716Y-85716D01*
X62553Y-154853D02*
X73056D01*
X35500Y-127800D02*
X62553Y-154853D01*
X-3800Y-127800D02*
X35500D01*
X-8500Y-132500D02*
X-3800Y-127800D01*
X-35000Y-164034D02*
X-31734D01*
X-29700Y-162000D01*
X3400Y-160800D02*
X4890Y-159310D01*
Y-154159D01*
X-47000Y-164034D02*
Y-155000D01*
X-43000Y-151000D01*
X-6921D01*
Y-154159D02*
Y-151000D01*
X-1016Y-154159D02*
Y-151500D01*
X-2984Y-157300D02*
Y-154159D01*
Y-157300D02*
X953D01*
Y-154159D01*
X-80654Y-128842D02*
Y-119504D01*
X-87000Y-113158D02*
X-80654Y-119504D01*
X-99346Y-113158D02*
X-87000D01*
X42595Y99000D02*
Y99500D01*
X17000Y79000D02*
X37000Y99000D01*
X-105000Y-113158D02*
X-99346D01*
X-107228Y-110930D02*
X-105000Y-113158D01*
X-107228Y-110930D02*
Y-100389D01*
X-44044Y-127756D02*
X-32000D01*
X-46600Y-125200D02*
X-44044Y-127756D01*
X-67858Y-125200D02*
X-46600D01*
X-71500Y-128842D02*
X-67858Y-125200D01*
X-80654Y-128842D02*
X-71500D01*
X-74834Y-121905D02*
X-66677D01*
X-61272Y-116500D01*
Y-114111D01*
X-73802Y51569D02*
X-60431D01*
X-43000Y69000D01*
X-58508Y-131763D02*
X-57875Y-131009D01*
Y-130300D01*
X-29400D01*
Y-125000D01*
X-39200D02*
X-29400D01*
X-42589Y-121611D02*
X-39200Y-125000D01*
X-52772Y-121611D02*
X-42589D01*
X17000Y109000D02*
Y145000D01*
X1000Y161000D02*
X17000Y145000D01*
X-13500Y-139000D02*
Y-136700D01*
X-10900Y-134100D01*
Y-48900D01*
X17000Y-21000D01*
X-19000Y-17000D02*
Y161000D01*
X-43000Y-41000D02*
X-19000Y-17000D01*
X-102358Y85600D02*
Y116071D01*
X-105343Y82615D02*
X-102358Y85600D01*
X-92000Y-31000D02*
X-77500D01*
X-93500Y-32500D02*
X-92000Y-31000D01*
X-93500Y-34500D02*
Y-32500D01*
X82440Y107000D02*
X92658D01*
X81700Y106260D02*
X82440Y107000D01*
X66268Y106260D02*
X81700D01*
X48500Y99500D02*
Y112500D01*
X-53300Y-121611D02*
X-52772D01*
X-60800Y-114111D02*
X-53300Y-121611D01*
X-61272Y-114111D02*
X-60800D01*
X39735Y-163034D02*
X46000D01*
X38600Y-164169D02*
X39735Y-163034D01*
X32500Y-164169D02*
X38600D01*
X-108300Y-100389D02*
X-107228D01*
X-115300Y-93389D02*
X-108300Y-100389D01*
X-116228Y-93389D02*
X-115300D01*
X6858Y-154159D02*
X8039D01*
X-12039D02*
X-10858D01*
X-92984Y45663D02*
X-86802D01*
X-94100Y44547D02*
X-92984Y45663D01*
X-100274Y44547D02*
X-94100D01*
X-86802Y45663D02*
X-73802D01*
D17*
X-58508Y-131763D02*
D03*
X-71492Y-147237D02*
D03*
D18*
X-18500Y-116382D02*
D03*
X-3500Y-139000D02*
D03*
X6500D02*
D03*
X1500D02*
D03*
X-13500D02*
D03*
X-8500D02*
D03*
X-18500D02*
D03*
X11500D02*
D03*
X16500D02*
D03*
X-13500Y-116382D02*
D03*
X-8500D02*
D03*
X-3500D02*
D03*
X1500D02*
D03*
X6500D02*
D03*
X11500D02*
D03*
X16500D02*
D03*
D19*
X56972Y102760D02*
D03*
X66028Y106500D02*
D03*
X56972Y110240D02*
D03*
X-100274Y44547D02*
D03*
X-109329Y48287D02*
D03*
X-100274Y52027D02*
D03*
D20*
X48500Y99500D02*
D03*
X42595D02*
D03*
Y112500D02*
D03*
X48500D02*
D03*
D21*
X-148175Y-74035D02*
D03*
X-128180Y-60034D02*
D03*
X-139820Y-85966D02*
D03*
X-119825Y-71965D02*
D03*
D22*
X-73802Y51569D02*
D03*
X-86802Y45663D02*
D03*
X-73802D02*
D03*
X-86802Y51569D02*
D03*
D23*
X-99346Y-113158D02*
D03*
D24*
X-80654Y-128842D02*
D03*
X-74834Y-121905D02*
D03*
X-86475Y-135779D02*
D03*
D25*
X-107228Y-100389D02*
D03*
X-116228Y-93389D02*
D03*
X-52772Y-121611D02*
D03*
X-61272Y-114111D02*
D03*
X-49228Y-117389D02*
D03*
X-57728Y-109889D02*
D03*
X-110771Y-104611D02*
D03*
X-119771Y-97611D02*
D03*
D26*
X-32000Y-127756D02*
D03*
Y-122244D02*
D03*
D27*
X32500Y-164169D02*
D03*
Y-172831D02*
D03*
D59*
X-15189Y-154159D02*
D03*
X-14008D02*
D03*
X-12039D02*
D03*
X-10858D02*
D03*
X-8890D02*
D03*
X-6921D02*
D03*
X-4953D02*
D03*
X-2984D02*
D03*
X-1016D02*
D03*
X953D02*
D03*
X2921D02*
D03*
X4890D02*
D03*
X6858D02*
D03*
X8039D02*
D03*
X10008D02*
D03*
X11189D02*
D03*
D60*
X-35000Y-169966D02*
D03*
Y-164034D02*
D03*
X-93500Y-34500D02*
D03*
Y-40432D02*
D03*
X46000Y-168966D02*
D03*
Y-163034D02*
D03*
X-47000Y-164034D02*
D03*
Y-169966D02*
D03*
D61*
X-92403Y128403D02*
D03*
X-96597Y132597D02*
D03*
D62*
X-155000Y13500D02*
X-130642Y37858D01*
X-155000Y13500D02*
X-149820Y8320D01*
X-139820D01*
X62000Y107394D02*
Y120624D01*
X61314Y119938D02*
X85865Y144489D01*
X49541Y119938D02*
X61314D01*
X42595Y112992D02*
X49541Y119938D01*
X62000Y120624D02*
X62000Y120624D01*
X57366Y102760D02*
X62000Y107394D01*
X56972Y102760D02*
X57366D01*
X42595Y112500D02*
Y112992D01*
X11189Y-156384D02*
X15008D01*
X11189D02*
Y-154159D01*
X-15189Y-154200D02*
Y-154159D01*
X-19008Y-154200D02*
X-15189D01*
X-35000Y-169966D02*
X-19008D01*
X-103443Y47322D02*
X-99196Y51569D01*
X-49000Y-167600D02*
X-47000D01*
X-86400Y-139000D02*
Y-135779D01*
X-45000Y-117389D02*
X-43100D01*
X-49228D02*
X-45000D01*
X-86400Y-139000D02*
X-38700D01*
X-99196Y51569D02*
X-86802D01*
X-103443Y42143D02*
Y47322D01*
Y42143D02*
X-96500Y35200D01*
Y-36500D02*
Y35200D01*
Y-36500D02*
X-95500Y-37500D01*
X-81000D01*
X-77500Y-41000D01*
X-100274Y52027D02*
X-99196Y51569D01*
X-43000Y-115389D02*
Y-81000D01*
X-45000Y-117389D02*
X-43000Y-115389D01*
X-86475Y-135779D02*
X-86400D01*
X-47000Y-169966D02*
Y-167600D01*
X-50000Y-166600D02*
X-49000Y-167600D01*
X-50000Y-166600D02*
Y-150300D01*
X-38700Y-139000D01*
X-18500D01*
X-19008Y-156384D02*
Y-154200D01*
X-139820Y-85966D02*
Y8320D01*
X-130642Y37858D02*
Y101929D01*
X-32000Y-122244D02*
X-23000D01*
X-18500Y-126744D01*
Y-139000D02*
Y-126744D01*
X-103000Y-135779D02*
X-86475D01*
X-110771Y-128007D02*
X-103000Y-135779D01*
X-110771Y-128007D02*
Y-104611D01*
X-139820Y-91580D02*
Y-85966D01*
Y-91580D02*
X-133789Y-97611D01*
X-119771D01*
X42595Y112000D02*
Y112500D01*
X29595Y99000D02*
X42595Y112000D01*
X17000Y99000D02*
X29595D01*
X-19008Y-172841D02*
Y-169966D01*
X-111800Y-104611D02*
X-110771D01*
X-118800Y-97611D02*
X-111800Y-104611D01*
X-119771Y-97611D02*
X-118800D01*
X-43000Y-81000D02*
Y-71000D01*
X-38245Y-122244D02*
X-32000D01*
X-43100Y-117389D02*
X-38245Y-122244D01*
X-49800Y-117389D02*
X-49228D01*
X-57300Y-109889D02*
X-49800Y-117389D01*
X-57728Y-109889D02*
X-57300D01*
X23710Y-172831D02*
X32500D01*
X23700Y-172841D02*
X23710Y-172831D01*
X15008Y-172841D02*
X23700D01*
X15008D02*
Y-156384D01*
X10008Y-154159D02*
X11189D01*
X-47000Y-169966D02*
X-35000D01*
X-19008D02*
Y-156384D01*
X-15189Y-154159D02*
X-14008D01*
D63*
X94820Y140000D02*
D03*
D64*
X86160Y145000D02*
D03*
X77500Y150000D02*
D03*
X68840Y155000D02*
D03*
X-9000Y161000D02*
D03*
X-19000D02*
D03*
X-29000D02*
D03*
X-155000Y13500D02*
D03*
Y3500D02*
D03*
Y-6500D02*
D03*
X81716Y-149853D02*
D03*
X-77500Y-41000D02*
D03*
D65*
X1000Y161000D02*
D03*
D66*
X-155000Y23500D02*
D03*
D67*
X73056Y-154853D02*
D03*
D68*
X111927Y-124097D02*
D03*
X104980Y-131291D02*
D03*
X-43000Y-41000D02*
D03*
Y-31000D02*
D03*
X17000Y69000D02*
D03*
Y-41000D02*
D03*
X-43000Y-1000D02*
D03*
Y19000D02*
D03*
Y39000D02*
D03*
Y49000D02*
D03*
Y59000D02*
D03*
X17000Y79000D02*
D03*
X-43000Y69000D02*
D03*
X17000Y109000D02*
D03*
Y-21000D02*
D03*
Y-31000D02*
D03*
Y99000D02*
D03*
Y89000D02*
D03*
Y59000D02*
D03*
Y49000D02*
D03*
Y39000D02*
D03*
Y29000D02*
D03*
Y19000D02*
D03*
Y9000D02*
D03*
Y-1000D02*
D03*
Y-11000D02*
D03*
Y-51000D02*
D03*
Y-61000D02*
D03*
Y-71000D02*
D03*
Y-81000D02*
D03*
X-43000D02*
D03*
Y-71000D02*
D03*
Y-61000D02*
D03*
Y-51000D02*
D03*
Y-21000D02*
D03*
Y-11000D02*
D03*
Y9000D02*
D03*
Y29000D02*
D03*
Y79000D02*
D03*
Y89000D02*
D03*
Y99000D02*
D03*
D69*
X118873Y-116904D02*
D03*
D70*
X-19008Y-156384D02*
D03*
X15008D02*
D03*
D71*
X-19008Y-172841D02*
D03*
X15008D02*
D03*
D72*
X92658Y107000D02*
D03*
X112343D02*
D03*
X-82657Y11500D02*
D03*
X-102342D02*
D03*
D73*
X-123571Y94858D02*
D03*
D74*
X-130642Y101929D02*
D03*
X-116500D02*
D03*
X-123571Y109000D02*
D03*
X-109429D02*
D03*
X-116500Y116071D02*
D03*
X-102358D02*
D03*
X-109429Y123142D02*
D03*
D75*
X-43000Y109000D02*
D03*
D76*
X-77500Y-31000D02*
D03*
D77*
X-92403Y82500D02*
D03*
Y109000D02*
D03*
X-128180Y-33600D02*
D03*
X-109300Y30200D02*
D03*
X-29700Y-162000D02*
D03*
X3400Y-160800D02*
D03*
M02*
