G04*
G04 #@! TF.GenerationSoftware,Altium Limited,Altium Designer,24.6.1 (21)*
G04*
G04 Layer_Color=8421504*
%FSLAX25Y25*%
%MOIN*%
G70*
G04*
G04 #@! TF.SameCoordinates,C93C9CB5-FBF7-4B20-BE99-6934CCFB3FDC*
G04*
G04*
G04 #@! TF.FilePolarity,Positive*
G04*
G01*
G75*
G04:AMPARAMS|DCode=17|XSize=86.61mil|YSize=66.93mil|CornerRadius=0mil|HoleSize=0mil|Usage=FLASHONLY|Rotation=230.000|XOffset=0mil|YOffset=0mil|HoleType=Round|Shape=Rectangle|*
%AMROTATEDRECTD17*
4,1,4,0.00220,0.05469,0.05347,0.01167,-0.00220,-0.05469,-0.05347,-0.01167,0.00220,0.05469,0.0*
%
%ADD17ROTATEDRECTD17*%

%ADD18O,0.02205X0.06870*%
%ADD19R,0.03937X0.03150*%
%ADD20R,0.02953X0.03937*%
G04:AMPARAMS|DCode=21|XSize=70.87mil|YSize=43.31mil|CornerRadius=0mil|HoleSize=0mil|Usage=FLASHONLY|Rotation=35.000|XOffset=0mil|YOffset=0mil|HoleType=Round|Shape=Rectangle|*
%AMROTATEDRECTD21*
4,1,4,-0.01661,-0.03806,-0.04145,-0.00259,0.01661,0.03806,0.04145,0.00259,-0.01661,-0.03806,0.0*
%
%ADD21ROTATEDRECTD21*%

%ADD22R,0.03937X0.02953*%
G04:AMPARAMS|DCode=23|XSize=137.8mil|YSize=86.61mil|CornerRadius=0mil|HoleSize=0mil|Usage=FLASHONLY|Rotation=50.000|XOffset=0mil|YOffset=0mil|HoleType=Round|Shape=Rectangle|*
%AMROTATEDRECTD23*
4,1,4,-0.01111,-0.08062,-0.07746,-0.02494,0.01111,0.08062,0.07746,0.02494,-0.01111,-0.08062,0.0*
%
%ADD23ROTATEDRECTD23*%

G04:AMPARAMS|DCode=24|XSize=43.31mil|YSize=86.61mil|CornerRadius=0mil|HoleSize=0mil|Usage=FLASHONLY|Rotation=50.000|XOffset=0mil|YOffset=0mil|HoleType=Round|Shape=Rectangle|*
%AMROTATEDRECTD24*
4,1,4,0.01926,-0.04443,-0.04709,0.01125,-0.01926,0.04443,0.04709,-0.01125,0.01926,-0.04443,0.0*
%
%ADD24ROTATEDRECTD24*%

G04:AMPARAMS|DCode=25|XSize=31.5mil|YSize=35.43mil|CornerRadius=0mil|HoleSize=0mil|Usage=FLASHONLY|Rotation=50.000|XOffset=0mil|YOffset=0mil|HoleType=Round|Shape=Rectangle|*
%AMROTATEDRECTD25*
4,1,4,0.00345,-0.02345,-0.02369,-0.00068,-0.00345,0.02345,0.02369,0.00068,0.00345,-0.02345,0.0*
%
%ADD25ROTATEDRECTD25*%

%ADD26R,0.03543X0.03150*%
%ADD27R,0.04921X0.03937*%
G36*
X-94347Y132852D02*
X-94347Y132574D01*
X-95021Y131900D01*
X-96051Y132930D01*
X-96969Y132012D01*
X-95939Y130982D01*
X-96574Y130347D01*
X-96852D01*
X-99080Y132574D01*
X-99079Y132852D01*
X-96852Y135080D01*
X-96574D01*
X-94347Y132852D01*
D02*
G37*
G36*
X-89921Y128426D02*
X-89921Y128148D01*
X-92148Y125921D01*
X-92426D01*
X-94625Y128120D01*
X-94625Y128398D01*
X-93991Y129033D01*
X-92933Y127975D01*
X-92014Y128894D01*
X-93072Y129952D01*
X-92398Y130625D01*
X-92120D01*
X-89921Y128426D01*
D02*
G37*
G36*
X-91728Y-32761D02*
Y-35911D01*
X-91925Y-36108D01*
X-92878D01*
Y-34651D01*
X-94177D01*
Y-36108D01*
X-95075D01*
X-95272Y-35911D01*
Y-32761D01*
X-95075Y-32564D01*
X-91925D01*
X-91728Y-32761D01*
D02*
G37*
G36*
Y-39060D02*
Y-42171D01*
X-91925Y-42368D01*
X-95075D01*
X-95272Y-42171D01*
Y-39060D01*
X-95075Y-38864D01*
X-94177D01*
Y-40360D01*
X-92878D01*
Y-38864D01*
X-91925D01*
X-91728Y-39060D01*
D02*
G37*
G36*
X11780Y-156423D02*
X10599D01*
Y-156423D01*
X9418D01*
Y-151896D01*
X11780D01*
Y-156423D01*
D02*
G37*
G36*
X8630Y-156423D02*
X6267D01*
Y-151896D01*
X8630D01*
Y-156423D01*
D02*
G37*
G36*
X5481D02*
X4299D01*
Y-151896D01*
X5481D01*
Y-156423D01*
D02*
G37*
G36*
X3512D02*
X2331D01*
Y-151896D01*
X3512D01*
Y-156423D01*
D02*
G37*
G36*
X1544D02*
X362D01*
Y-151896D01*
X1544D01*
Y-156423D01*
D02*
G37*
G36*
X-425D02*
X-1606D01*
Y-151896D01*
X-425D01*
Y-156423D01*
D02*
G37*
G36*
X-2393D02*
X-3574D01*
Y-151896D01*
X-2393D01*
Y-156423D01*
D02*
G37*
G36*
X-4362D02*
X-5544D01*
Y-151896D01*
X-4362D01*
Y-156423D01*
D02*
G37*
G36*
X-6330D02*
X-7512D01*
Y-151896D01*
X-6330D01*
Y-156423D01*
D02*
G37*
G36*
X-8299D02*
X-9481D01*
Y-151896D01*
X-8299D01*
Y-156423D01*
D02*
G37*
G36*
X-10267D02*
X-12630D01*
Y-151896D01*
X-10267D01*
Y-156423D01*
D02*
G37*
G36*
X-13417D02*
X-15779D01*
Y-151896D01*
X-13417D01*
Y-156423D01*
D02*
G37*
G36*
X16123Y-152549D02*
X16677Y-153103D01*
X16976Y-153827D01*
Y-154218D01*
Y-158549D01*
Y-158940D01*
X16677Y-159664D01*
X16123Y-160218D01*
X15400Y-160517D01*
X14616D01*
X13893Y-160218D01*
X13339Y-159664D01*
X13039Y-158940D01*
Y-158549D01*
Y-154218D01*
Y-153827D01*
X13339Y-153103D01*
X13893Y-152549D01*
X14616Y-152250D01*
X15400D01*
X16123Y-152549D01*
D02*
G37*
G36*
X-17893D02*
X-17339Y-153103D01*
X-17040Y-153827D01*
Y-154218D01*
Y-158549D01*
Y-158940D01*
X-17339Y-159664D01*
X-17893Y-160218D01*
X-18617Y-160517D01*
X-19400D01*
X-20123Y-160218D01*
X-20677Y-159664D01*
X-20977Y-158940D01*
Y-158549D01*
Y-154218D01*
Y-153827D01*
X-20677Y-153103D01*
X-20123Y-152549D01*
X-19400Y-152250D01*
X-18617D01*
X-17893Y-152549D01*
D02*
G37*
G36*
X47772Y-161295D02*
X47772Y-164406D01*
X47575Y-164602D01*
X46677Y-164602D01*
Y-163106D01*
X45378Y-163106D01*
X45378Y-164602D01*
X44425D01*
X44228Y-164406D01*
Y-161295D01*
X44425Y-161099D01*
X47575D01*
X47772Y-161295D01*
D02*
G37*
G36*
X-45228Y-162295D02*
Y-165406D01*
X-45425Y-165602D01*
X-46323D01*
Y-164106D01*
X-47622D01*
Y-165602D01*
X-48575D01*
X-48772Y-165406D01*
Y-162295D01*
X-48575Y-162099D01*
X-45425D01*
X-45228Y-162295D01*
D02*
G37*
G36*
X-33228Y-162295D02*
Y-165445D01*
X-33425Y-165642D01*
X-34378D01*
Y-164185D01*
X-35677D01*
Y-165642D01*
X-36575D01*
X-36772Y-165445D01*
Y-162295D01*
X-36575Y-162098D01*
X-33425D01*
X-33228Y-162295D01*
D02*
G37*
G36*
X47772Y-167555D02*
X47772Y-170705D01*
X47575Y-170902D01*
X44425Y-170902D01*
X44228Y-170705D01*
X44228Y-167555D01*
X44425Y-167358D01*
X45378Y-167358D01*
X45378Y-168815D01*
X46677Y-168815D01*
Y-167358D01*
X47575D01*
X47772Y-167555D01*
D02*
G37*
G36*
X-45228Y-168555D02*
Y-171705D01*
X-45425Y-171902D01*
X-48575D01*
X-48772Y-171705D01*
Y-168555D01*
X-48575Y-168358D01*
X-47622D01*
Y-169815D01*
X-46323D01*
Y-168358D01*
X-45425D01*
X-45228Y-168555D01*
D02*
G37*
G36*
X-33228Y-168594D02*
Y-171705D01*
X-33425Y-171902D01*
X-36575D01*
X-36772Y-171705D01*
Y-168594D01*
X-36575Y-168398D01*
X-35677D01*
Y-169894D01*
X-34378D01*
Y-168398D01*
X-33425D01*
X-33228Y-168594D01*
D02*
G37*
G36*
X16123Y-169597D02*
X16677Y-170151D01*
X16976Y-170874D01*
Y-171266D01*
Y-174415D01*
Y-174807D01*
X16677Y-175530D01*
X16123Y-176084D01*
X15400Y-176384D01*
X14616D01*
X13893Y-176084D01*
X13339Y-175530D01*
X13039Y-174807D01*
Y-174415D01*
Y-171266D01*
Y-170874D01*
X13339Y-170151D01*
X13893Y-169597D01*
X14616Y-169297D01*
X15400D01*
X16123Y-169597D01*
D02*
G37*
G36*
X-17893D02*
X-17339Y-170151D01*
X-17040Y-170874D01*
Y-171266D01*
Y-174415D01*
Y-174807D01*
X-17339Y-175530D01*
X-17893Y-176084D01*
X-18617Y-176384D01*
X-19400D01*
X-20123Y-176084D01*
X-20677Y-175530D01*
X-20977Y-174807D01*
Y-174415D01*
Y-171266D01*
Y-170874D01*
X-20677Y-170151D01*
X-20123Y-169597D01*
X-19400Y-169297D01*
X-18617D01*
X-17893Y-169597D01*
D02*
G37*
D17*
X-58508Y-131763D02*
D03*
X-71492Y-147237D02*
D03*
D18*
X-18500Y-116382D02*
D03*
X-3500Y-139000D02*
D03*
X6500D02*
D03*
X1500D02*
D03*
X-13500D02*
D03*
X-8500D02*
D03*
X-18500D02*
D03*
X11500D02*
D03*
X16500D02*
D03*
X-13500Y-116382D02*
D03*
X-8500D02*
D03*
X-3500D02*
D03*
X1500D02*
D03*
X6500D02*
D03*
X11500D02*
D03*
X16500D02*
D03*
D19*
X62500Y110000D02*
D03*
X71555Y106260D02*
D03*
X62500Y102520D02*
D03*
X-100274Y44547D02*
D03*
X-109329Y48287D02*
D03*
X-100274Y52027D02*
D03*
D20*
X48500Y99500D02*
D03*
X42595D02*
D03*
Y112500D02*
D03*
X48500D02*
D03*
D21*
X-148175Y-74035D02*
D03*
X-128180Y-60034D02*
D03*
X-139820Y-85966D02*
D03*
X-119825Y-71965D02*
D03*
D22*
X-73802Y51569D02*
D03*
X-86802Y45663D02*
D03*
X-73802D02*
D03*
X-86802Y51569D02*
D03*
D23*
X-99346Y-113158D02*
D03*
D24*
X-80654Y-128842D02*
D03*
X-74834Y-121905D02*
D03*
X-86475Y-135779D02*
D03*
D25*
X-107228Y-100389D02*
D03*
X-116228Y-93389D02*
D03*
X-52772Y-121611D02*
D03*
X-61272Y-114111D02*
D03*
X-49228Y-117389D02*
D03*
X-57728Y-109889D02*
D03*
X-110771Y-104611D02*
D03*
X-119771Y-97611D02*
D03*
D26*
X-32000Y-127756D02*
D03*
Y-122244D02*
D03*
D27*
X32500Y-164169D02*
D03*
Y-172831D02*
D03*
M02*
