G04*
G04 #@! TF.GenerationSoftware,Altium Limited,Altium Designer,24.6.1 (21)*
G04*
G04 Layer_Color=8388736*
%FSLAX25Y25*%
%MOIN*%
G70*
G04*
G04 #@! TF.SameCoordinates,C93C9CB5-FBF7-4B20-BE99-6934CCFB3FDC*
G04*
G04*
G04 #@! TF.FilePolarity,Negative*
G04*
G01*
G75*
G04:AMPARAMS|DCode=28|XSize=90.61mil|YSize=70.93mil|CornerRadius=0mil|HoleSize=0mil|Usage=FLASHONLY|Rotation=230.000|XOffset=0mil|YOffset=0mil|HoleType=Round|Shape=Rectangle|*
%AMROTATEDRECTD28*
4,1,4,0.00196,0.05750,0.05629,0.01191,-0.00196,-0.05750,-0.05629,-0.01191,0.00196,0.05750,0.0*
%
%ADD28ROTATEDRECTD28*%

%ADD29O,0.02605X0.07270*%
%ADD30R,0.01575X0.04921*%
%ADD31R,0.04337X0.03550*%
%ADD32R,0.03553X0.04537*%
G04:AMPARAMS|DCode=33|XSize=74.87mil|YSize=47.31mil|CornerRadius=0mil|HoleSize=0mil|Usage=FLASHONLY|Rotation=35.000|XOffset=0mil|YOffset=0mil|HoleType=Round|Shape=Rectangle|*
%AMROTATEDRECTD33*
4,1,4,-0.01710,-0.04085,-0.04423,-0.00210,0.01710,0.04085,0.04423,0.00210,-0.01710,-0.04085,0.0*
%
%ADD33ROTATEDRECTD33*%

%ADD34R,0.03802X0.03575*%
G04:AMPARAMS|DCode=35|XSize=35.75mil|YSize=38.02mil|CornerRadius=0mil|HoleSize=0mil|Usage=FLASHONLY|Rotation=135.000|XOffset=0mil|YOffset=0mil|HoleType=Round|Shape=Rectangle|*
%AMROTATEDRECTD35*
4,1,4,0.02608,0.00080,-0.00080,-0.02608,-0.02608,-0.00080,0.00080,0.02608,0.02608,0.00080,0.0*
%
%ADD35ROTATEDRECTD35*%

%ADD36R,0.04537X0.03553*%
G04:AMPARAMS|DCode=37|XSize=145.8mil|YSize=94.61mil|CornerRadius=0mil|HoleSize=0mil|Usage=FLASHONLY|Rotation=50.000|XOffset=0mil|YOffset=0mil|HoleType=Round|Shape=Rectangle|*
%AMROTATEDRECTD37*
4,1,4,-0.01062,-0.08625,-0.08310,-0.02543,0.01062,0.08625,0.08310,0.02543,-0.01062,-0.08625,0.0*
%
%ADD37ROTATEDRECTD37*%

G04:AMPARAMS|DCode=38|XSize=51.31mil|YSize=94.61mil|CornerRadius=0mil|HoleSize=0mil|Usage=FLASHONLY|Rotation=50.000|XOffset=0mil|YOffset=0mil|HoleType=Round|Shape=Rectangle|*
%AMROTATEDRECTD38*
4,1,4,0.01975,-0.05006,-0.05273,0.01076,-0.01975,0.05006,0.05273,-0.01076,0.01975,-0.05006,0.0*
%
%ADD38ROTATEDRECTD38*%

G04:AMPARAMS|DCode=39|XSize=39.5mil|YSize=43.43mil|CornerRadius=0mil|HoleSize=0mil|Usage=FLASHONLY|Rotation=50.000|XOffset=0mil|YOffset=0mil|HoleType=Round|Shape=Rectangle|*
%AMROTATEDRECTD39*
4,1,4,0.00394,-0.02909,-0.02933,-0.00117,-0.00394,0.02909,0.02933,0.00117,0.00394,-0.02909,0.0*
%
%ADD39ROTATEDRECTD39*%

%ADD40R,0.04343X0.03950*%
%ADD41R,0.05321X0.04337*%
%ADD42R,0.07293X0.07293*%
%ADD43C,0.07293*%
%ADD44R,0.07293X0.07293*%
G04:AMPARAMS|DCode=45|XSize=70.93mil|YSize=66mil|CornerRadius=0mil|HoleSize=0mil|Usage=FLASHONLY|Rotation=30.000|XOffset=0mil|YOffset=0mil|HoleType=Round|Shape=Rectangle|*
%AMROTATEDRECTD45*
4,1,4,-0.01421,-0.04631,-0.04721,0.01085,0.01421,0.04631,0.04721,-0.01085,-0.01421,-0.04631,0.0*
%
%ADD45ROTATEDRECTD45*%

%ADD46C,0.07093*%
%ADD47C,0.06506*%
%ADD48P,0.09200X4X91.0*%
%ADD49O,0.04331X0.08662*%
%ADD50O,0.04331X0.07480*%
%ADD51C,0.07687*%
%ADD52P,0.06416X4X195.0*%
%ADD53C,0.04537*%
%ADD54P,0.09334X4X90.0*%
%ADD55C,0.06600*%
%ADD56C,0.06307*%
%ADD57R,0.06307X0.06307*%
%ADD58R,0.06600X0.07093*%
%ADD59C,0.05600*%
D28*
X-58508Y-131763D02*
D03*
X-71492Y-147237D02*
D03*
D29*
X-18500Y-116382D02*
D03*
X-3500Y-139000D02*
D03*
X6500D02*
D03*
X1500D02*
D03*
X-13500D02*
D03*
X-8500D02*
D03*
X-18500D02*
D03*
X11500D02*
D03*
X16500D02*
D03*
X-13500Y-116382D02*
D03*
X-8500D02*
D03*
X-3500D02*
D03*
X1500D02*
D03*
X6500D02*
D03*
X11500D02*
D03*
X16500D02*
D03*
D30*
X-15189Y-154159D02*
D03*
X-14008D02*
D03*
X-12039D02*
D03*
X-10858D02*
D03*
X-8890D02*
D03*
X-6921D02*
D03*
X-4953D02*
D03*
X-2984D02*
D03*
X-1016D02*
D03*
X953D02*
D03*
X2921D02*
D03*
X4890D02*
D03*
X6858D02*
D03*
X8039D02*
D03*
X10008D02*
D03*
X11189D02*
D03*
D31*
X62500Y110000D02*
D03*
X71555Y106260D02*
D03*
X62500Y102520D02*
D03*
X-100274Y44547D02*
D03*
X-109329Y48287D02*
D03*
X-100274Y52027D02*
D03*
D32*
X48500Y99500D02*
D03*
X42595D02*
D03*
Y112500D02*
D03*
X48500D02*
D03*
D33*
X-148175Y-74035D02*
D03*
X-128180Y-60034D02*
D03*
X-139820Y-85966D02*
D03*
X-119825Y-71965D02*
D03*
D34*
X-35000Y-169966D02*
D03*
Y-164034D02*
D03*
X-93500Y-34500D02*
D03*
Y-40432D02*
D03*
X46000Y-168966D02*
D03*
Y-163034D02*
D03*
X-47000Y-164034D02*
D03*
Y-169966D02*
D03*
D35*
X-92403Y128403D02*
D03*
X-96597Y132597D02*
D03*
D36*
X-73802Y51569D02*
D03*
X-86802Y45663D02*
D03*
X-73802D02*
D03*
X-86802Y51569D02*
D03*
D37*
X-99346Y-113158D02*
D03*
D38*
X-80654Y-128842D02*
D03*
X-74834Y-121905D02*
D03*
X-86475Y-135779D02*
D03*
D39*
X-107228Y-100389D02*
D03*
X-116228Y-93389D02*
D03*
X-52772Y-121611D02*
D03*
X-61272Y-114111D02*
D03*
X-49228Y-117389D02*
D03*
X-57728Y-109889D02*
D03*
X-110771Y-104611D02*
D03*
X-119771Y-97611D02*
D03*
D40*
X-32000Y-127756D02*
D03*
Y-122244D02*
D03*
D41*
X32500Y-164169D02*
D03*
Y-172831D02*
D03*
D42*
X1000Y161000D02*
D03*
D43*
X-9000D02*
D03*
X-19000D02*
D03*
X-29000D02*
D03*
X-155000Y13500D02*
D03*
Y3500D02*
D03*
Y-6500D02*
D03*
D44*
Y23500D02*
D03*
D45*
X73056Y-154853D02*
D03*
D46*
X81716Y-149853D02*
D03*
X-77500Y-41000D02*
D03*
D47*
X111927Y-124097D02*
D03*
X104980Y-131291D02*
D03*
D48*
X118873Y-116904D02*
D03*
D49*
X-19008Y-156384D02*
D03*
X15008D02*
D03*
D50*
X-19008Y-172841D02*
D03*
X15008D02*
D03*
D51*
X92658Y107000D02*
D03*
X112343D02*
D03*
X-82657Y11500D02*
D03*
X-102342D02*
D03*
D52*
X81830Y147500D02*
D03*
D53*
X77500Y150000D02*
D03*
X73170Y152500D02*
D03*
X68840Y155000D02*
D03*
D54*
X-123571Y94858D02*
D03*
D55*
X-130642Y101929D02*
D03*
X-116500D02*
D03*
X-123571Y109000D02*
D03*
X-109429D02*
D03*
X-116500Y116071D02*
D03*
X-102358D02*
D03*
X-109429Y123142D02*
D03*
D56*
X-43000Y-41000D02*
D03*
Y-31000D02*
D03*
X17000Y69000D02*
D03*
Y-41000D02*
D03*
X-43000Y-1000D02*
D03*
Y19000D02*
D03*
Y39000D02*
D03*
Y49000D02*
D03*
Y59000D02*
D03*
X17000Y79000D02*
D03*
X-43000Y69000D02*
D03*
X17000Y109000D02*
D03*
Y-21000D02*
D03*
Y-31000D02*
D03*
Y99000D02*
D03*
Y89000D02*
D03*
Y59000D02*
D03*
Y49000D02*
D03*
Y39000D02*
D03*
Y29000D02*
D03*
Y19000D02*
D03*
Y9000D02*
D03*
Y-1000D02*
D03*
Y-11000D02*
D03*
Y-51000D02*
D03*
Y-61000D02*
D03*
Y-71000D02*
D03*
Y-81000D02*
D03*
X-43000D02*
D03*
Y-71000D02*
D03*
Y-61000D02*
D03*
Y-51000D02*
D03*
Y-21000D02*
D03*
Y-11000D02*
D03*
Y9000D02*
D03*
Y29000D02*
D03*
Y79000D02*
D03*
Y89000D02*
D03*
Y99000D02*
D03*
D57*
Y109000D02*
D03*
D58*
X-77500Y-31000D02*
D03*
D59*
X-92403Y82500D02*
D03*
Y109000D02*
D03*
X-128180Y-33600D02*
D03*
X-109300Y30200D02*
D03*
X-29700Y-162000D02*
D03*
X3400Y-160800D02*
D03*
M02*
