G04*
G04 #@! TF.GenerationSoftware,Altium Limited,Altium Designer,24.6.1 (21)*
G04*
G04 Layer_Color=255*
%FSLAX25Y25*%
%MOIN*%
G70*
G04*
G04 #@! TF.SameCoordinates,14203EA7-49FE-442F-A609-4801219AAA54*
G04*
G04*
G04 #@! TF.FilePolarity,Positive*
G04*
G01*
G75*
%ADD63P,0.09465X4X195.0*%
%ADD64C,0.06693*%
%ADD65R,0.06693X0.06693*%
%ADD66R,0.06693X0.06693*%
G04:AMPARAMS|DCode=67|XSize=66.93mil|YSize=62mil|CornerRadius=0mil|HoleSize=0mil|Usage=FLASHONLY|Rotation=30.000|XOffset=0mil|YOffset=0mil|HoleType=Round|Shape=Rectangle|*
%AMROTATEDRECTD67*
4,1,4,-0.01348,-0.04358,-0.04448,0.01011,0.01348,0.04358,0.04448,-0.01011,-0.01348,-0.04358,0.0*
%
%ADD67ROTATEDRECTD67*%

%ADD68C,0.05906*%
%ADD69P,0.08352X4X91.0*%
%ADD70O,0.03937X0.08268*%
%ADD71O,0.03937X0.07087*%
%ADD72C,0.07087*%
%ADD73P,0.08768X4X90.0*%
%ADD74C,0.06200*%
%ADD75R,0.05906X0.05906*%
%ADD76R,0.06200X0.06693*%
D63*
X94820Y140000D02*
D03*
D64*
X86160Y145000D02*
D03*
X77500Y150000D02*
D03*
X68840Y155000D02*
D03*
X-9000Y161000D02*
D03*
X-19000D02*
D03*
X-29000D02*
D03*
X-155000Y13500D02*
D03*
Y3500D02*
D03*
Y-6500D02*
D03*
X81716Y-149853D02*
D03*
X-77500Y-41000D02*
D03*
D65*
X1000Y161000D02*
D03*
D66*
X-155000Y23500D02*
D03*
D67*
X73056Y-154853D02*
D03*
D68*
X111927Y-124097D02*
D03*
X104980Y-131291D02*
D03*
X-43000Y-41000D02*
D03*
Y-31000D02*
D03*
X17000Y69000D02*
D03*
Y-41000D02*
D03*
X-43000Y-1000D02*
D03*
Y19000D02*
D03*
Y39000D02*
D03*
Y49000D02*
D03*
Y59000D02*
D03*
X17000Y79000D02*
D03*
X-43000Y69000D02*
D03*
X17000Y109000D02*
D03*
Y-21000D02*
D03*
Y-31000D02*
D03*
Y99000D02*
D03*
Y89000D02*
D03*
Y59000D02*
D03*
Y49000D02*
D03*
Y39000D02*
D03*
Y29000D02*
D03*
Y19000D02*
D03*
Y9000D02*
D03*
Y-1000D02*
D03*
Y-11000D02*
D03*
Y-51000D02*
D03*
Y-61000D02*
D03*
Y-71000D02*
D03*
Y-81000D02*
D03*
X-43000D02*
D03*
Y-71000D02*
D03*
Y-61000D02*
D03*
Y-51000D02*
D03*
Y-21000D02*
D03*
Y-11000D02*
D03*
Y9000D02*
D03*
Y29000D02*
D03*
Y79000D02*
D03*
Y89000D02*
D03*
Y99000D02*
D03*
D69*
X118873Y-116904D02*
D03*
D70*
X-19008Y-156384D02*
D03*
X15008D02*
D03*
D71*
X-19008Y-172841D02*
D03*
X15008D02*
D03*
D72*
X92658Y107000D02*
D03*
X112343D02*
D03*
X-82657Y11500D02*
D03*
X-102342D02*
D03*
D73*
X-123571Y94858D02*
D03*
D74*
X-130642Y101929D02*
D03*
X-116500D02*
D03*
X-123571Y109000D02*
D03*
X-109429D02*
D03*
X-116500Y116071D02*
D03*
X-102358D02*
D03*
X-109429Y123142D02*
D03*
D75*
X-43000Y109000D02*
D03*
D76*
X-77500Y-31000D02*
D03*
M02*
