G04*
G04 #@! TF.GenerationSoftware,Altium Limited,Altium Designer,24.6.1 (21)*
G04*
G04 Layer_Color=16711935*
%FSLAX25Y25*%
%MOIN*%
G70*
G04*
G04 #@! TF.SameCoordinates,C93C9CB5-FBF7-4B20-BE99-6934CCFB3FDC*
G04*
G04*
G04 #@! TF.FilePolarity,Negative*
G04*
G01*
G75*
%ADD42R,0.07293X0.07293*%
%ADD43C,0.07293*%
%ADD44R,0.07293X0.07293*%
G04:AMPARAMS|DCode=45|XSize=70.93mil|YSize=66mil|CornerRadius=0mil|HoleSize=0mil|Usage=FLASHONLY|Rotation=30.000|XOffset=0mil|YOffset=0mil|HoleType=Round|Shape=Rectangle|*
%AMROTATEDRECTD45*
4,1,4,-0.01421,-0.04631,-0.04721,0.01085,0.01421,0.04631,0.04721,-0.01085,-0.01421,-0.04631,0.0*
%
%ADD45ROTATEDRECTD45*%

%ADD46C,0.07093*%
%ADD47C,0.06506*%
%ADD48P,0.09200X4X91.0*%
%ADD49O,0.04331X0.08662*%
%ADD50O,0.04331X0.07480*%
%ADD51C,0.07687*%
%ADD52P,0.06416X4X195.0*%
%ADD53C,0.04537*%
%ADD54P,0.09334X4X90.0*%
%ADD55C,0.06600*%
%ADD56C,0.06307*%
%ADD57R,0.06307X0.06307*%
%ADD58R,0.06600X0.07093*%
%ADD59C,0.05600*%
D42*
X1000Y161000D02*
D03*
D43*
X-9000D02*
D03*
X-19000D02*
D03*
X-29000D02*
D03*
X-155000Y13500D02*
D03*
Y3500D02*
D03*
Y-6500D02*
D03*
D44*
Y23500D02*
D03*
D45*
X73056Y-154853D02*
D03*
D46*
X81716Y-149853D02*
D03*
X-77500Y-41000D02*
D03*
D47*
X111927Y-124097D02*
D03*
X104980Y-131291D02*
D03*
D48*
X118873Y-116904D02*
D03*
D49*
X-19008Y-156384D02*
D03*
X15008D02*
D03*
D50*
X-19008Y-172841D02*
D03*
X15008D02*
D03*
D51*
X92658Y107000D02*
D03*
X112343D02*
D03*
X-82657Y11500D02*
D03*
X-102342D02*
D03*
D52*
X81830Y147500D02*
D03*
D53*
X77500Y150000D02*
D03*
X73170Y152500D02*
D03*
X68840Y155000D02*
D03*
D54*
X-123571Y94858D02*
D03*
D55*
X-130642Y101929D02*
D03*
X-116500D02*
D03*
X-123571Y109000D02*
D03*
X-109429D02*
D03*
X-116500Y116071D02*
D03*
X-102358D02*
D03*
X-109429Y123142D02*
D03*
D56*
X-43000Y-41000D02*
D03*
Y-31000D02*
D03*
X17000Y69000D02*
D03*
Y-41000D02*
D03*
X-43000Y-1000D02*
D03*
Y19000D02*
D03*
Y39000D02*
D03*
Y49000D02*
D03*
Y59000D02*
D03*
X17000Y79000D02*
D03*
X-43000Y69000D02*
D03*
X17000Y109000D02*
D03*
Y-21000D02*
D03*
Y-31000D02*
D03*
Y99000D02*
D03*
Y89000D02*
D03*
Y59000D02*
D03*
Y49000D02*
D03*
Y39000D02*
D03*
Y29000D02*
D03*
Y19000D02*
D03*
Y9000D02*
D03*
Y-1000D02*
D03*
Y-11000D02*
D03*
Y-51000D02*
D03*
Y-61000D02*
D03*
Y-71000D02*
D03*
Y-81000D02*
D03*
X-43000D02*
D03*
Y-71000D02*
D03*
Y-61000D02*
D03*
Y-51000D02*
D03*
Y-21000D02*
D03*
Y-11000D02*
D03*
Y9000D02*
D03*
Y29000D02*
D03*
Y79000D02*
D03*
Y89000D02*
D03*
Y99000D02*
D03*
D57*
Y109000D02*
D03*
D58*
X-77500Y-31000D02*
D03*
D59*
X-92403Y82500D02*
D03*
Y109000D02*
D03*
X-128180Y-33600D02*
D03*
X-109300Y30200D02*
D03*
X-29700Y-162000D02*
D03*
X3400Y-160800D02*
D03*
M02*
