M48
;Layer_Color=9474304
;FILE_FORMAT=2:5
INCH,TZ
;TYPE=PLATED
T02F00S00C0.02800
T03F00S00C0.03150
T04F00S00C0.03600
T05F00S00C0.03937
T06F00S00C0.04331
T07F00S00C0.05000
T08F00S00C0.11811
%
T02
X187000Y115500
X200000Y123000
X207600Y132500
X208500Y151500
X216500Y120500
X216000Y110000
X238500Y136000
X246000Y156000
X327484Y162255
X336000Y190300
X340800Y195700
X353000Y233700
X395500Y199000
X302000Y191500
X180500Y167000
X184000Y235000
X184800Y284000
X166500Y283500
X176000Y299000
X105500Y252500
Y241000
Y230000
Y200500
Y184000
X115000Y329500
Y344000
Y357500
X132100
Y329500
X165300Y333000
X173400Y325600
X395500Y356000
X311000Y492000
X298000
X285500
X167500Y487500
T03
X366000Y181500
X376000
X386000
X271000Y179000
Y169000
Y189000
Y199000
Y209000
Y219000
Y229000
Y239000
Y249000
Y259000
Y269000
Y279000
Y289000
Y299000
Y309000
X211000
Y299000
Y289000
Y279000
Y269000
Y259000
Y249000
Y239000
Y229000
Y219000
Y209000
Y199000
Y189000
Y179000
Y169000
Y319000
Y329000
Y339000
Y349000
Y359000
X271000
Y349000
Y339000
Y329000
Y319000
T04
X349157Y486000
X359000
X368843
X378685
X146500Y482500
Y492500
X136500
Y482500
X126500
Y492500
X116500
Y482500
T05
X118156Y204000
X137842
X136000Y265500
X116315
X333000Y343500
X343000
X353000
X363000
T06
X384500Y112500
X394500
X141500Y307500
X131500
X208500Y492500
X218500
X228500
X238500
T07
X133000Y343100
T08
X183146Y399980
X263854
Y490531
X183146
M30
