G04*
G04 #@! TF.GenerationSoftware,Altium Limited,Altium Designer,24.6.1 (21)*
G04*
G04 Layer_Color=255*
%FSLAX25Y25*%
%MOIN*%
G70*
G04*
G04 #@! TF.SameCoordinates,810A1A35-3EFD-48DE-86EF-F02317520920*
G04*
G04*
G04 #@! TF.FilePolarity,Positive*
G04*
G01*
G75*
G04:AMPARAMS|DCode=61|XSize=66.93mil|YSize=62mil|CornerRadius=0mil|HoleSize=0mil|Usage=FLASHONLY|Rotation=30.000|XOffset=0mil|YOffset=0mil|HoleType=Round|Shape=Rectangle|*
%AMROTATEDRECTD61*
4,1,4,-0.01348,-0.04358,-0.04448,0.01011,0.01348,0.04358,0.04448,-0.01011,-0.01348,-0.04358,0.0*
%
%ADD61ROTATEDRECTD61*%

%ADD62C,0.06693*%
%ADD63C,0.05906*%
%ADD64P,0.08352X4X91.0*%
%ADD65O,0.03937X0.08268*%
%ADD66O,0.03937X0.07087*%
%ADD67C,0.07087*%
%ADD68R,0.03937X0.03937*%
%ADD69C,0.03937*%
%ADD70P,0.05568X4X345.0*%
%ADD71P,0.05568X4X195.0*%
%ADD72P,0.08768X4X90.0*%
%ADD73C,0.06200*%
%ADD74R,0.05906X0.05906*%
%ADD75R,0.06693X0.06200*%
D61*
X73056Y-154853D02*
D03*
D62*
X81716Y-149853D02*
D03*
X-118500Y8500D02*
D03*
D63*
X111927Y-124097D02*
D03*
X104980Y-131291D02*
D03*
X-43000Y-41000D02*
D03*
Y-31000D02*
D03*
X17000Y69000D02*
D03*
Y-41000D02*
D03*
X-43000Y-1000D02*
D03*
Y19000D02*
D03*
Y39000D02*
D03*
Y49000D02*
D03*
Y59000D02*
D03*
X17000Y79000D02*
D03*
X-43000Y69000D02*
D03*
X17000Y109000D02*
D03*
Y-21000D02*
D03*
Y-31000D02*
D03*
Y99000D02*
D03*
Y89000D02*
D03*
Y59000D02*
D03*
Y49000D02*
D03*
Y39000D02*
D03*
Y29000D02*
D03*
Y19000D02*
D03*
Y9000D02*
D03*
Y-1000D02*
D03*
Y-11000D02*
D03*
Y-51000D02*
D03*
Y-61000D02*
D03*
Y-71000D02*
D03*
Y-81000D02*
D03*
X-43000D02*
D03*
Y-71000D02*
D03*
Y-61000D02*
D03*
Y-51000D02*
D03*
Y-21000D02*
D03*
Y-11000D02*
D03*
Y9000D02*
D03*
Y29000D02*
D03*
Y79000D02*
D03*
Y89000D02*
D03*
Y99000D02*
D03*
D64*
X118873Y-116904D02*
D03*
D65*
X-19008Y-156384D02*
D03*
X15008D02*
D03*
D66*
X-19008Y-172841D02*
D03*
X15008D02*
D03*
D67*
X-1180Y149266D02*
D03*
X18505D02*
D03*
X-125109Y48000D02*
D03*
X-144794D02*
D03*
D68*
X-165543Y-3000D02*
D03*
D69*
Y-8000D02*
D03*
Y-13000D02*
D03*
Y-18000D02*
D03*
X-149071Y-77259D02*
D03*
X-146571Y-81589D02*
D03*
X-144071Y-85919D02*
D03*
X72705Y149464D02*
D03*
X68375Y151964D02*
D03*
X64045Y154464D02*
D03*
D70*
X-151571Y-72929D02*
D03*
D71*
X77036Y146964D02*
D03*
D72*
X-113071Y100858D02*
D03*
D73*
X-120142Y107929D02*
D03*
X-106000D02*
D03*
X-113071Y115000D02*
D03*
X-98929D02*
D03*
X-106000Y122071D02*
D03*
X-91858D02*
D03*
X-98929Y129142D02*
D03*
D74*
X-43000Y109000D02*
D03*
D75*
X-108500Y8500D02*
D03*
M02*
