G04*
G04 #@! TF.GenerationSoftware,Altium Limited,Altium Designer,24.6.1 (21)*
G04*
G04 Layer_Color=128*
%FSLAX25Y25*%
%MOIN*%
G70*
G04*
G04 #@! TF.SameCoordinates,810A1A35-3EFD-48DE-86EF-F02317520920*
G04*
G04*
G04 #@! TF.FilePolarity,Positive*
G04*
G01*
G75*
%ADD16C,0.00500*%
D16*
X70890Y-154853D02*
X75221D01*
X73056Y-157019D02*
Y-152688D01*
X79551Y-149853D02*
X83881D01*
X81716Y-152019D02*
Y-147688D01*
X110352Y-124097D02*
X113501D01*
X111927Y-125672D02*
Y-122523D01*
X103405Y-131291D02*
X106555D01*
X104980Y-132865D02*
Y-129716D01*
X117298Y-116904D02*
X120448D01*
X118873Y-118479D02*
Y-115329D01*
X-20189Y-156384D02*
X-17827D01*
X-19008Y-157565D02*
Y-155203D01*
X-20189Y-172841D02*
X-17827D01*
X-19008Y-174022D02*
Y-171660D01*
X13827Y-156384D02*
X16189D01*
X15008Y-157565D02*
Y-155203D01*
X13827Y-172841D02*
X16189D01*
X15008Y-174022D02*
Y-171660D01*
X-3147Y149266D02*
X790D01*
X-1179Y147298D02*
Y151235D01*
X16538Y149266D02*
X20475D01*
X18507Y147298D02*
Y151235D01*
X-166725Y-3000D02*
X-164362D01*
X-165543Y-4181D02*
Y-1819D01*
X-166725Y-8000D02*
X-164362D01*
X-165543Y-9181D02*
Y-6819D01*
X-166725Y-13000D02*
X-164362D01*
X-165543Y-14181D02*
Y-11819D01*
X-166725Y-18000D02*
X-164362D01*
X-165543Y-19181D02*
Y-16819D01*
X-152752Y-72929D02*
X-150390D01*
X-151571Y-74110D02*
Y-71748D01*
X-150252Y-77259D02*
X-147890D01*
X-149071Y-78440D02*
Y-76078D01*
X-147752Y-81589D02*
X-145390D01*
X-146571Y-82770D02*
Y-80408D01*
X-145252Y-85919D02*
X-142890D01*
X-144071Y-87100D02*
Y-84738D01*
X75854Y146964D02*
X78217D01*
X77036Y145783D02*
Y148145D01*
X71524Y149464D02*
X73887D01*
X72705Y148283D02*
Y150645D01*
X67194Y151964D02*
X69556D01*
X68375Y150783D02*
Y153146D01*
X62864Y154464D02*
X65226D01*
X64045Y153283D02*
Y155646D01*
X-114821Y100858D02*
X-111321D01*
X-113071Y99108D02*
Y102608D01*
X-121892Y107929D02*
X-118392D01*
X-120142Y106179D02*
Y109679D01*
X-107750Y107929D02*
X-104250D01*
X-106000Y106179D02*
Y109679D01*
X-114821Y115000D02*
X-111321D01*
X-113071Y113250D02*
Y116750D01*
X-100679Y115000D02*
X-97179D01*
X-98929Y113250D02*
Y116750D01*
X-107750Y122071D02*
X-104250D01*
X-106000Y120321D02*
Y123821D01*
X-93608Y122071D02*
X-90108D01*
X-91858Y120321D02*
Y123821D01*
X-100679Y129142D02*
X-97179D01*
X-98929Y127392D02*
Y130892D01*
X-44575Y-41000D02*
X-41425D01*
X-43000Y-42575D02*
Y-39425D01*
X-44575Y-31000D02*
X-41425D01*
X-43000Y-32575D02*
Y-29425D01*
X15425Y69000D02*
X18575D01*
X17000Y67425D02*
Y70575D01*
X15425Y-41000D02*
X18575D01*
X17000Y-42575D02*
Y-39425D01*
X-44575Y-1000D02*
X-41425D01*
X-43000Y-2575D02*
Y575D01*
X-44575Y19000D02*
X-41425D01*
X-43000Y17425D02*
Y20575D01*
X-44575Y39000D02*
X-41425D01*
X-43000Y37425D02*
Y40575D01*
X-44575Y49000D02*
X-41425D01*
X-43000Y47425D02*
Y50575D01*
X-44575Y59000D02*
X-41425D01*
X-43000Y57425D02*
Y60575D01*
X15425Y79000D02*
X18575D01*
X17000Y77425D02*
Y80575D01*
X-44575Y69000D02*
X-41425D01*
X-43000Y67425D02*
Y70575D01*
X15425Y109000D02*
X18575D01*
X17000Y107425D02*
Y110575D01*
X15425Y-21000D02*
X18575D01*
X17000Y-22575D02*
Y-19425D01*
X15425Y-31000D02*
X18575D01*
X17000Y-32575D02*
Y-29425D01*
X15425Y99000D02*
X18575D01*
X17000Y97425D02*
Y100575D01*
X15425Y89000D02*
X18575D01*
X17000Y87425D02*
Y90575D01*
X15425Y59000D02*
X18575D01*
X17000Y57425D02*
Y60575D01*
X15425Y49000D02*
X18575D01*
X17000Y47425D02*
Y50575D01*
X15425Y39000D02*
X18575D01*
X17000Y37425D02*
Y40575D01*
X15425Y29000D02*
X18575D01*
X17000Y27425D02*
Y30575D01*
X15425Y19000D02*
X18575D01*
X17000Y17425D02*
Y20575D01*
X15425Y9000D02*
X18575D01*
X17000Y7425D02*
Y10575D01*
X15425Y-1000D02*
X18575D01*
X17000Y-2575D02*
Y575D01*
X15425Y-11000D02*
X18575D01*
X17000Y-12575D02*
Y-9425D01*
X15425Y-51000D02*
X18575D01*
X17000Y-52575D02*
Y-49425D01*
X15425Y-61000D02*
X18575D01*
X17000Y-62575D02*
Y-59425D01*
X15425Y-71000D02*
X18575D01*
X17000Y-72575D02*
Y-69425D01*
X15425Y-81000D02*
X18575D01*
X17000Y-82575D02*
Y-79425D01*
X-44575Y-81000D02*
X-41425D01*
X-43000Y-82575D02*
Y-79425D01*
X-44575Y-71000D02*
X-41425D01*
X-43000Y-72575D02*
Y-69425D01*
X-44575Y-61000D02*
X-41425D01*
X-43000Y-62575D02*
Y-59425D01*
X-44575Y-51000D02*
X-41425D01*
X-43000Y-52575D02*
Y-49425D01*
X-44575Y-21000D02*
X-41425D01*
X-43000Y-22575D02*
Y-19425D01*
X-44575Y-11000D02*
X-41425D01*
X-43000Y-12575D02*
Y-9425D01*
X-44575Y9000D02*
X-41425D01*
X-43000Y7425D02*
Y10575D01*
X-44575Y29000D02*
X-41425D01*
X-43000Y27425D02*
Y30575D01*
X-44575Y79000D02*
X-41425D01*
X-43000Y77425D02*
Y80575D01*
X-44575Y89000D02*
X-41425D01*
X-43000Y87425D02*
Y90575D01*
X-44575Y99000D02*
X-41425D01*
X-43000Y97425D02*
Y100575D01*
X-44575Y109000D02*
X-41425D01*
X-43000Y107425D02*
Y110575D01*
X-110665Y8500D02*
X-106335D01*
X-108500Y6335D02*
Y10665D01*
X-127078Y48000D02*
X-123141D01*
X-125110Y46031D02*
Y49968D01*
X-146764Y48000D02*
X-142827D01*
X-144795Y46031D02*
Y49968D01*
X-120665Y8500D02*
X-116335D01*
X-118500Y6335D02*
Y10665D01*
X400Y-131200D02*
X3200D01*
X1800Y-132600D02*
Y-129800D01*
M02*
