G04*
G04 #@! TF.GenerationSoftware,Altium Limited,Altium Designer,24.6.1 (21)*
G04*
G04 Layer_Color=2752767*
%FSLAX25Y25*%
%MOIN*%
G70*
G04*
G04 #@! TF.SameCoordinates,810A1A35-3EFD-48DE-86EF-F02317520920*
G04*
G04*
G04 #@! TF.FilePolarity,Positive*
G04*
G01*
G75*
%ADD16C,0.00500*%
%ADD80C,0.00667*%
D16*
X71056Y-156853D02*
X72056Y-154853D01*
X71056Y-152853D01*
X73056Y-153853D01*
X75056Y-152853D01*
X74056Y-154853D01*
X75056Y-156853D01*
X73056Y-155853D01*
X71056Y-156853D01*
X79716Y-151853D02*
X80716Y-149853D01*
X79716Y-147853D01*
X81716Y-148853D01*
X83716Y-147853D01*
X82716Y-149853D01*
X83716Y-151853D01*
X81716Y-150853D01*
X79716Y-151853D01*
X111927Y-126097D02*
X109927Y-122097D01*
X113927D01*
X111927Y-126097D01*
X104980Y-133291D02*
X102980Y-129291D01*
X106980D01*
X104980Y-133291D01*
X118873Y-118904D02*
X116873Y-114904D01*
X120873D01*
X118873Y-118904D01*
X-21008Y-158384D02*
Y-154384D01*
X-17008D01*
Y-158384D01*
X-21008D01*
X-20208Y-157584D02*
Y-155184D01*
X-17808D01*
Y-157584D01*
X-20208D01*
X-21008Y-172841D02*
X-19008Y-170841D01*
X-17008Y-172841D01*
X-19008Y-174841D01*
X-21008Y-172841D01*
X13008Y-158384D02*
Y-154384D01*
X17008D01*
Y-158384D01*
X13008D01*
X13808Y-157584D02*
Y-155184D01*
X16208D01*
Y-157584D01*
X13808D01*
X13008Y-172841D02*
X15008Y-170841D01*
X17008Y-172841D01*
X15008Y-174841D01*
X13008Y-172841D01*
X-167543Y-5000D02*
X-166543D01*
X-165543Y-4000D01*
X-164543Y-5000D01*
X-163543D01*
Y-4000D01*
X-164543Y-3000D01*
X-163543Y-2000D01*
Y-1000D01*
X-164543D01*
X-165543Y-2000D01*
X-166543Y-1000D01*
X-167543D01*
Y-2000D01*
X-166543Y-3000D01*
X-167543Y-4000D01*
Y-5000D01*
Y-10000D02*
X-166543D01*
X-165543Y-9000D01*
X-164543Y-10000D01*
X-163543D01*
Y-9000D01*
X-164543Y-8000D01*
X-163543Y-7000D01*
Y-6000D01*
X-164543D01*
X-165543Y-7000D01*
X-166543Y-6000D01*
X-167543D01*
Y-7000D01*
X-166543Y-8000D01*
X-167543Y-9000D01*
Y-10000D01*
Y-15000D02*
X-166543D01*
X-165543Y-14000D01*
X-164543Y-15000D01*
X-163543D01*
Y-14000D01*
X-164543Y-13000D01*
X-163543Y-12000D01*
Y-11000D01*
X-164543D01*
X-165543Y-12000D01*
X-166543Y-11000D01*
X-167543D01*
Y-12000D01*
X-166543Y-13000D01*
X-167543Y-14000D01*
Y-15000D01*
Y-20000D02*
X-166543D01*
X-165543Y-19000D01*
X-164543Y-20000D01*
X-163543D01*
Y-19000D01*
X-164543Y-18000D01*
X-163543Y-17000D01*
Y-16000D01*
X-164543D01*
X-165543Y-17000D01*
X-166543Y-16000D01*
X-167543D01*
Y-17000D01*
X-166543Y-18000D01*
X-167543Y-19000D01*
Y-20000D01*
X-153571Y-74929D02*
X-152571D01*
X-151571Y-73929D01*
X-150571Y-74929D01*
X-149571D01*
Y-73929D01*
X-150571Y-72929D01*
X-149571Y-71929D01*
Y-70929D01*
X-150571D01*
X-151571Y-71929D01*
X-152571Y-70929D01*
X-153571D01*
Y-71929D01*
X-152571Y-72929D01*
X-153571Y-73929D01*
Y-74929D01*
X-151071Y-79259D02*
X-150071D01*
X-149071Y-78259D01*
X-148071Y-79259D01*
X-147071D01*
Y-78259D01*
X-148071Y-77259D01*
X-147071Y-76259D01*
Y-75259D01*
X-148071D01*
X-149071Y-76259D01*
X-150071Y-75259D01*
X-151071D01*
Y-76259D01*
X-150071Y-77259D01*
X-151071Y-78259D01*
Y-79259D01*
X-148571Y-83589D02*
X-147571D01*
X-146571Y-82589D01*
X-145571Y-83589D01*
X-144571D01*
Y-82589D01*
X-145571Y-81589D01*
X-144571Y-80589D01*
Y-79589D01*
X-145571D01*
X-146571Y-80589D01*
X-147571Y-79589D01*
X-148571D01*
Y-80589D01*
X-147571Y-81589D01*
X-148571Y-82589D01*
Y-83589D01*
X-146071Y-87919D02*
X-145071D01*
X-144071Y-86919D01*
X-143071Y-87919D01*
X-142071D01*
Y-86919D01*
X-143071Y-85919D01*
X-142071Y-84919D01*
Y-83919D01*
X-143071D01*
X-144071Y-84919D01*
X-145071Y-83919D01*
X-146071D01*
Y-84919D01*
X-145071Y-85919D01*
X-146071Y-86919D01*
Y-87919D01*
X75036Y144964D02*
X76036D01*
X77036Y145964D01*
X78036Y144964D01*
X79036D01*
Y145964D01*
X78036Y146964D01*
X79036Y147964D01*
Y148964D01*
X78036D01*
X77036Y147964D01*
X76036Y148964D01*
X75036D01*
Y147964D01*
X76036Y146964D01*
X75036Y145964D01*
Y144964D01*
X70705Y147464D02*
X71705D01*
X72705Y148464D01*
X73705Y147464D01*
X74705D01*
Y148464D01*
X73705Y149464D01*
X74705Y150464D01*
Y151464D01*
X73705D01*
X72705Y150464D01*
X71705Y151464D01*
X70705D01*
Y150464D01*
X71705Y149464D01*
X70705Y148464D01*
Y147464D01*
X66375Y149964D02*
X67375D01*
X68375Y150964D01*
X69375Y149964D01*
X70375D01*
Y150964D01*
X69375Y151964D01*
X70375Y152964D01*
Y153964D01*
X69375D01*
X68375Y152964D01*
X67375Y153964D01*
X66375D01*
Y152964D01*
X67375Y151964D01*
X66375Y150964D01*
Y149964D01*
X62045Y152464D02*
X63045D01*
X64045Y153464D01*
X65045Y152464D01*
X66045D01*
Y153464D01*
X65045Y154464D01*
X66045Y155464D01*
Y156464D01*
X65045D01*
X64045Y155464D01*
X63045Y156464D01*
X62045D01*
Y155464D01*
X63045Y154464D01*
X62045Y153464D01*
Y152464D01*
X-113071Y98858D02*
X-112071Y99858D01*
X-111071D01*
X-112071Y100858D01*
X-111071Y101858D01*
X-112071D01*
X-113071Y102858D01*
X-114071Y101858D01*
X-115071D01*
X-114071Y100858D01*
X-115071Y99858D01*
X-114071D01*
X-113071Y98858D01*
X-120142Y105929D02*
X-119142Y106929D01*
X-118142D01*
X-119142Y107929D01*
X-118142Y108929D01*
X-119142D01*
X-120142Y109929D01*
X-121142Y108929D01*
X-122142D01*
X-121142Y107929D01*
X-122142Y106929D01*
X-121142D01*
X-120142Y105929D01*
X-106000D02*
X-105000Y106929D01*
X-104000D01*
X-105000Y107929D01*
X-104000Y108929D01*
X-105000D01*
X-106000Y109929D01*
X-107000Y108929D01*
X-108000D01*
X-107000Y107929D01*
X-108000Y106929D01*
X-107000D01*
X-106000Y105929D01*
X-113071Y113000D02*
X-112071Y114000D01*
X-111071D01*
X-112071Y115000D01*
X-111071Y116000D01*
X-112071D01*
X-113071Y117000D01*
X-114071Y116000D01*
X-115071D01*
X-114071Y115000D01*
X-115071Y114000D01*
X-114071D01*
X-113071Y113000D01*
X-98929D02*
X-97929Y114000D01*
X-96929D01*
X-97929Y115000D01*
X-96929Y116000D01*
X-97929D01*
X-98929Y117000D01*
X-99929Y116000D01*
X-100929D01*
X-99929Y115000D01*
X-100929Y114000D01*
X-99929D01*
X-98929Y113000D01*
X-106000Y120071D02*
X-105000Y121071D01*
X-104000D01*
X-105000Y122071D01*
X-104000Y123071D01*
X-105000D01*
X-106000Y124071D01*
X-107000Y123071D01*
X-108000D01*
X-107000Y122071D01*
X-108000Y121071D01*
X-107000D01*
X-106000Y120071D01*
X-91858D02*
X-90858Y121071D01*
X-89858D01*
X-90858Y122071D01*
X-89858Y123071D01*
X-90858D01*
X-91858Y124071D01*
X-92858Y123071D01*
X-93858D01*
X-92858Y122071D01*
X-93858Y121071D01*
X-92858D01*
X-91858Y120071D01*
X-98929Y127142D02*
X-97929Y128142D01*
X-96929D01*
X-97929Y129142D01*
X-96929Y130142D01*
X-97929D01*
X-98929Y131142D01*
X-99929Y130142D01*
X-100929D01*
X-99929Y129142D01*
X-100929Y128142D01*
X-99929D01*
X-98929Y127142D01*
X-43000Y-43000D02*
X-45000Y-39000D01*
X-41000D01*
X-43000Y-43000D01*
Y-33000D02*
X-45000Y-29000D01*
X-41000D01*
X-43000Y-33000D01*
X17000Y67000D02*
X15000Y71000D01*
X19000D01*
X17000Y67000D01*
Y-43000D02*
X15000Y-39000D01*
X19000D01*
X17000Y-43000D01*
X-43000Y-3000D02*
X-45000Y1000D01*
X-41000D01*
X-43000Y-3000D01*
Y17000D02*
X-45000Y21000D01*
X-41000D01*
X-43000Y17000D01*
Y37000D02*
X-45000Y41000D01*
X-41000D01*
X-43000Y37000D01*
Y47000D02*
X-45000Y51000D01*
X-41000D01*
X-43000Y47000D01*
Y57000D02*
X-45000Y61000D01*
X-41000D01*
X-43000Y57000D01*
X17000Y77000D02*
X15000Y81000D01*
X19000D01*
X17000Y77000D01*
X-43000Y67000D02*
X-45000Y71000D01*
X-41000D01*
X-43000Y67000D01*
X17000Y107000D02*
X15000Y111000D01*
X19000D01*
X17000Y107000D01*
Y-23000D02*
X15000Y-19000D01*
X19000D01*
X17000Y-23000D01*
Y-33000D02*
X15000Y-29000D01*
X19000D01*
X17000Y-33000D01*
Y97000D02*
X15000Y101000D01*
X19000D01*
X17000Y97000D01*
Y87000D02*
X15000Y91000D01*
X19000D01*
X17000Y87000D01*
Y57000D02*
X15000Y61000D01*
X19000D01*
X17000Y57000D01*
Y47000D02*
X15000Y51000D01*
X19000D01*
X17000Y47000D01*
Y37000D02*
X15000Y41000D01*
X19000D01*
X17000Y37000D01*
Y27000D02*
X15000Y31000D01*
X19000D01*
X17000Y27000D01*
Y17000D02*
X15000Y21000D01*
X19000D01*
X17000Y17000D01*
Y7000D02*
X15000Y11000D01*
X19000D01*
X17000Y7000D01*
Y-3000D02*
X15000Y1000D01*
X19000D01*
X17000Y-3000D01*
Y-13000D02*
X15000Y-9000D01*
X19000D01*
X17000Y-13000D01*
Y-53000D02*
X15000Y-49000D01*
X19000D01*
X17000Y-53000D01*
Y-63000D02*
X15000Y-59000D01*
X19000D01*
X17000Y-63000D01*
Y-73000D02*
X15000Y-69000D01*
X19000D01*
X17000Y-73000D01*
Y-83000D02*
X15000Y-79000D01*
X19000D01*
X17000Y-83000D01*
X-43000D02*
X-45000Y-79000D01*
X-41000D01*
X-43000Y-83000D01*
Y-73000D02*
X-45000Y-69000D01*
X-41000D01*
X-43000Y-73000D01*
Y-63000D02*
X-45000Y-59000D01*
X-41000D01*
X-43000Y-63000D01*
Y-53000D02*
X-45000Y-49000D01*
X-41000D01*
X-43000Y-53000D01*
Y-23000D02*
X-45000Y-19000D01*
X-41000D01*
X-43000Y-23000D01*
Y-13000D02*
X-45000Y-9000D01*
X-41000D01*
X-43000Y-13000D01*
Y7000D02*
X-45000Y11000D01*
X-41000D01*
X-43000Y7000D01*
Y27000D02*
X-45000Y31000D01*
X-41000D01*
X-43000Y27000D01*
Y77000D02*
X-45000Y81000D01*
X-41000D01*
X-43000Y77000D01*
Y87000D02*
X-45000Y91000D01*
X-41000D01*
X-43000Y87000D01*
Y97000D02*
X-45000Y101000D01*
X-41000D01*
X-43000Y97000D01*
Y107000D02*
X-45000Y111000D01*
X-41000D01*
X-43000Y107000D01*
X-110500Y6500D02*
X-109500Y8500D01*
X-110500Y10500D01*
X-108500Y9500D01*
X-106500Y10500D01*
X-107500Y8500D01*
X-106500Y6500D01*
X-108500Y7500D01*
X-110500Y6500D01*
X-120500D02*
X-119500Y8500D01*
X-120500Y10500D01*
X-118500Y9500D01*
X-116500Y10500D01*
X-117500Y8500D01*
X-116500Y6500D01*
X-118500Y7500D01*
X-120500Y6500D01*
X-200Y-133200D02*
Y-129200D01*
X3800D01*
Y-133200D01*
X-200D01*
D80*
X821Y149266D02*
G03*
X821Y149266I-2000J0D01*
G01*
X20507D02*
G03*
X20507Y149266I-2000J0D01*
G01*
X-123110Y48000D02*
G03*
X-123110Y48000I-2000J0D01*
G01*
X-142795D02*
G03*
X-142795Y48000I-2000J0D01*
G01*
M02*
