G04*
G04 #@! TF.GenerationSoftware,Altium Limited,Altium Designer,24.6.1 (21)*
G04*
G04 Layer_Physical_Order=2*
G04 Layer_Color=16711680*
%FSLAX25Y25*%
%MOIN*%
G70*
G04*
G04 #@! TF.SameCoordinates,810A1A35-3EFD-48DE-86EF-F02317520920*
G04*
G04*
G04 #@! TF.FilePolarity,Positive*
G04*
G01*
G75*
%ADD11C,0.01000*%
%ADD60C,0.01800*%
G04:AMPARAMS|DCode=61|XSize=66.93mil|YSize=62mil|CornerRadius=0mil|HoleSize=0mil|Usage=FLASHONLY|Rotation=30.000|XOffset=0mil|YOffset=0mil|HoleType=Round|Shape=Rectangle|*
%AMROTATEDRECTD61*
4,1,4,-0.01348,-0.04358,-0.04448,0.01011,0.01348,0.04358,0.04448,-0.01011,-0.01348,-0.04358,0.0*
%
%ADD61ROTATEDRECTD61*%

%ADD62C,0.06693*%
%ADD63C,0.05906*%
%ADD64P,0.08352X4X91.0*%
%ADD65O,0.03937X0.08268*%
%ADD66O,0.03937X0.07087*%
%ADD67C,0.07087*%
%ADD68R,0.03937X0.03937*%
%ADD69C,0.03937*%
%ADD70P,0.05568X4X345.0*%
%ADD71P,0.05568X4X195.0*%
%ADD72P,0.08768X4X90.0*%
%ADD73C,0.06200*%
%ADD74R,0.05906X0.05906*%
%ADD75R,0.06693X0.06200*%
%ADD76C,0.05000*%
G36*
X12042Y183718D02*
X20044Y183017D01*
X28008Y181969D01*
X35918Y180574D01*
X43761Y178835D01*
X51520Y176756D01*
X59181Y174341D01*
X66729Y171594D01*
X74150Y168520D01*
X81431Y165125D01*
X88556Y161416D01*
X95512Y157399D01*
X102287Y153083D01*
X108867Y148476D01*
X115240Y143586D01*
X121393Y138423D01*
X127316Y132996D01*
X132996Y127316D01*
X138423Y121393D01*
X143586Y115240D01*
X148476Y108867D01*
X153083Y102287D01*
X157399Y95512D01*
X161416Y88556D01*
X165125Y81431D01*
X168520Y74150D01*
X171594Y66729D01*
X174341Y59181D01*
X176756Y51520D01*
X178835Y43761D01*
X180574Y35918D01*
X181969Y28008D01*
X183017Y20044D01*
X183718Y12042D01*
X184068Y4016D01*
Y0D01*
Y-4016D01*
X183718Y-12042D01*
X183017Y-20044D01*
X181969Y-28008D01*
X180574Y-35918D01*
X178835Y-43761D01*
X176756Y-51520D01*
X174341Y-59181D01*
X171594Y-66729D01*
X168520Y-74150D01*
X165125Y-81431D01*
X161416Y-88556D01*
X157399Y-95512D01*
X153083Y-102287D01*
X148476Y-108867D01*
X143586Y-115240D01*
X138423Y-121393D01*
X132996Y-127316D01*
X127316Y-132996D01*
X121393Y-138423D01*
X115240Y-143586D01*
X108867Y-148476D01*
X102287Y-153083D01*
X95512Y-157399D01*
X88556Y-161416D01*
X81431Y-165125D01*
X74150Y-168520D01*
X66729Y-171594D01*
X59181Y-174341D01*
X51520Y-176756D01*
X43761Y-178835D01*
X35918Y-180574D01*
X28008Y-181969D01*
X20044Y-183017D01*
X12042Y-183718D01*
X4016Y-184068D01*
X-4016D01*
X-12042Y-183718D01*
X-20044Y-183017D01*
X-28008Y-181969D01*
X-35918Y-180574D01*
X-43761Y-178835D01*
X-51520Y-176756D01*
X-59181Y-174341D01*
X-66729Y-171594D01*
X-74150Y-168520D01*
X-81431Y-165125D01*
X-88556Y-161416D01*
X-95512Y-157399D01*
X-102287Y-153083D01*
X-108867Y-148476D01*
X-115240Y-143586D01*
X-121393Y-138423D01*
X-127316Y-132996D01*
X-132996Y-127316D01*
X-138423Y-121393D01*
X-143586Y-115240D01*
X-148476Y-108867D01*
X-153083Y-102287D01*
X-157399Y-95512D01*
X-161416Y-88556D01*
X-165125Y-81431D01*
X-168520Y-74150D01*
X-171594Y-66729D01*
X-174341Y-59181D01*
X-176756Y-51520D01*
X-178835Y-43761D01*
X-180574Y-35918D01*
X-181969Y-28008D01*
X-183017Y-20044D01*
X-183718Y-12042D01*
X-184068Y-4016D01*
Y0D01*
Y4016D01*
X-183718Y12042D01*
X-183017Y20044D01*
X-181969Y28008D01*
X-180574Y35918D01*
X-178835Y43761D01*
X-176756Y51520D01*
X-174341Y59181D01*
X-171594Y66729D01*
X-168520Y74150D01*
X-165125Y81431D01*
X-161416Y88556D01*
X-157399Y95512D01*
X-153083Y102287D01*
X-148476Y108867D01*
X-143586Y115240D01*
X-138423Y121393D01*
X-132996Y127316D01*
X-127316Y132996D01*
X-121393Y138423D01*
X-115240Y143586D01*
X-108867Y148476D01*
X-102287Y153083D01*
X-95512Y157399D01*
X-88556Y161416D01*
X-81431Y165125D01*
X-74150Y168520D01*
X-66729Y171594D01*
X-59181Y174341D01*
X-51520Y176756D01*
X-43761Y178835D01*
X-35918Y180574D01*
X-28008Y181969D01*
X-20044Y183017D01*
X-12042Y183718D01*
X-4016Y184068D01*
X4016D01*
X12042Y183718D01*
D02*
G37*
%LPC*%
G36*
X64436Y157433D02*
X63654D01*
X62899Y157231D01*
X62222Y156840D01*
X61670Y156287D01*
X61501Y155994D01*
X16864D01*
X16279Y155877D01*
X15783Y155546D01*
X12819Y152581D01*
X12487Y152085D01*
X12371Y151500D01*
Y140800D01*
X12487Y140215D01*
X12819Y139719D01*
X19471Y133066D01*
Y113870D01*
X19226Y113563D01*
X17971Y112832D01*
X17520Y112953D01*
X16480D01*
X15478Y112685D01*
X5010Y123152D01*
X4514Y123484D01*
X3929Y123600D01*
X-88023D01*
X-88037Y123653D01*
X-88577Y124589D01*
X-89340Y125352D01*
X-90275Y125892D01*
X-91318Y126171D01*
X-92398D01*
X-93440Y125892D01*
X-94375Y125352D01*
X-95139Y124589D01*
X-95678Y123653D01*
X-95820Y123124D01*
X-95900Y122828D01*
X-97400Y123025D01*
X-97400Y123244D01*
Y125307D01*
X-97347Y125322D01*
X-96412Y125861D01*
X-95648Y126625D01*
X-95108Y127560D01*
X-94829Y128602D01*
Y129682D01*
X-95108Y130725D01*
X-95648Y131660D01*
X-96412Y132423D01*
X-97347Y132963D01*
X-98389Y133242D01*
X-99469D01*
X-100512Y132963D01*
X-101446Y132423D01*
X-102210Y131660D01*
X-102750Y130725D01*
X-103029Y129682D01*
Y128602D01*
X-102750Y127560D01*
X-102210Y126625D01*
X-101446Y125861D01*
X-100747Y125457D01*
X-100718Y124433D01*
X-100837Y123923D01*
X-100893Y123911D01*
X-102672Y124506D01*
X-102719Y124589D01*
X-103482Y125352D01*
X-104418Y125892D01*
X-105460Y126171D01*
X-106540D01*
X-107582Y125892D01*
X-108518Y125352D01*
X-109281Y124589D01*
X-109821Y123653D01*
X-110100Y122611D01*
Y121531D01*
X-109821Y120489D01*
X-109281Y119553D01*
X-108518Y118790D01*
X-107582Y118250D01*
X-106540Y117971D01*
X-106056D01*
X-105441Y117940D01*
X-104629Y116641D01*
Y112666D01*
X-105460Y112029D01*
X-106540D01*
X-107582Y111750D01*
X-108518Y111210D01*
X-109281Y110447D01*
X-109821Y109511D01*
X-110100Y108469D01*
Y107389D01*
X-109821Y106346D01*
X-109281Y105412D01*
X-108518Y104648D01*
X-107582Y104108D01*
X-106540Y103829D01*
X-105460D01*
X-104418Y104108D01*
X-103482Y104648D01*
X-102719Y105412D01*
X-102418Y105934D01*
X-101145Y106302D01*
X-100644Y106281D01*
X-53129Y58767D01*
Y57600D01*
X-53013Y57015D01*
X-52681Y56519D01*
X-46685Y50522D01*
X-46953Y49520D01*
Y48480D01*
X-46683Y47474D01*
X-46163Y46573D01*
X-45427Y45837D01*
X-44526Y45317D01*
X-43520Y45047D01*
X-42480D01*
X-41474Y45317D01*
X-40573Y45837D01*
X-39837Y46573D01*
X-39317Y47474D01*
X-39047Y48480D01*
Y49520D01*
X-39317Y50526D01*
X-39837Y51427D01*
X-40573Y52163D01*
X-41474Y52683D01*
X-42480Y52953D01*
X-43520D01*
X-44522Y52684D01*
X-50071Y58233D01*
Y59400D01*
X-50187Y59985D01*
X-50519Y60481D01*
X-99437Y109400D01*
X-98816Y110900D01*
X-98389D01*
X-97347Y111179D01*
X-96412Y111719D01*
X-95648Y112483D01*
X-95108Y113417D01*
X-95094Y113471D01*
X-48238D01*
X-46953Y112953D01*
X-46953Y111971D01*
Y105047D01*
X-39047D01*
Y111971D01*
X-39047Y112953D01*
X-37762Y113471D01*
X-29634D01*
X13316Y70522D01*
X13047Y69520D01*
Y68480D01*
X13317Y67474D01*
X13574Y67029D01*
X13033Y65787D01*
X12769Y65529D01*
X-38000D01*
X-38585Y65413D01*
X-39081Y65081D01*
X-41478Y62685D01*
X-42480Y62953D01*
X-43520D01*
X-44526Y62683D01*
X-45427Y62163D01*
X-46163Y61427D01*
X-46683Y60526D01*
X-46953Y59520D01*
Y58480D01*
X-46683Y57474D01*
X-46163Y56573D01*
X-45427Y55837D01*
X-44526Y55317D01*
X-43520Y55047D01*
X-42480D01*
X-41474Y55317D01*
X-40573Y55837D01*
X-39837Y56573D01*
X-39317Y57474D01*
X-39047Y58480D01*
Y59520D01*
X-39316Y60522D01*
X-37367Y62471D01*
X12769D01*
X13033Y62213D01*
X13574Y60971D01*
X13317Y60526D01*
X13047Y59520D01*
Y58480D01*
X13317Y57474D01*
X13837Y56573D01*
X14573Y55837D01*
X15474Y55317D01*
X16480Y55047D01*
X17520D01*
X18526Y55317D01*
X19427Y55837D01*
X20163Y56573D01*
X20683Y57474D01*
X20953Y58480D01*
Y59520D01*
X20683Y60526D01*
X20213Y61340D01*
X20162Y61441D01*
X20083Y62889D01*
X20371Y63209D01*
X22081Y64919D01*
X22413Y65415D01*
X22529Y66000D01*
Y133700D01*
X22413Y134285D01*
X22081Y134781D01*
X15429Y141434D01*
Y144064D01*
X16465Y144822D01*
X16929Y144985D01*
X17907Y144723D01*
X19104D01*
X20259Y145033D01*
X20461Y145149D01*
X24492Y141119D01*
X24988Y140787D01*
X25573Y140671D01*
X72271D01*
X72856Y140787D01*
X73353Y141119D01*
X76234Y144000D01*
X78122Y142909D01*
X81091Y148051D01*
X75949Y151019D01*
D01*
X74631Y151737D01*
X74608Y151760D01*
X73138Y149214D01*
X71669Y146669D01*
X71700Y146660D01*
X72347Y146265D01*
X72683Y144775D01*
X71638Y143729D01*
X26206D01*
X22623Y147312D01*
X22739Y147513D01*
X23049Y148668D01*
Y149864D01*
X22739Y151020D01*
X22500Y151435D01*
X23269Y152929D01*
X23277Y152935D01*
X61501D01*
X61670Y152642D01*
X62222Y152089D01*
X62899Y151698D01*
X63654Y151496D01*
X64436D01*
X65256Y151561D01*
X65609Y150819D01*
X66000Y150142D01*
X66553Y149589D01*
X67229Y149198D01*
X67984Y148996D01*
X68766D01*
X69586Y149062D01*
X69939Y148319D01*
X70330Y147642D01*
X70803Y147169D01*
X72272Y149714D01*
X73742Y152260D01*
X73096Y152433D01*
X72315D01*
X71495Y152367D01*
X71141Y153110D01*
X70751Y153787D01*
X70198Y154340D01*
X69521Y154731D01*
X68766Y154933D01*
X67984D01*
X67164Y154867D01*
X66811Y155610D01*
X66421Y156287D01*
X65868Y156840D01*
X65191Y157231D01*
X64436Y157433D01*
D02*
G37*
G36*
X-581Y153810D02*
X-1778D01*
X-2933Y153500D01*
X-3969Y152902D01*
X-4815Y152056D01*
X-5413Y151020D01*
X-5723Y149864D01*
Y148668D01*
X-5413Y147513D01*
X-4815Y146477D01*
X-3969Y145631D01*
X-2933Y145033D01*
X-1778Y144723D01*
X-581D01*
X574Y145033D01*
X1610Y145631D01*
X2456Y146477D01*
X3054Y147513D01*
X3364Y148668D01*
Y149864D01*
X3054Y151020D01*
X2456Y152056D01*
X1610Y152902D01*
X574Y153500D01*
X-581Y153810D01*
D02*
G37*
G36*
X-112531Y119100D02*
X-113611D01*
X-114654Y118821D01*
X-115588Y118281D01*
X-116352Y117517D01*
X-116892Y116583D01*
X-117171Y115540D01*
Y114460D01*
X-116892Y113417D01*
X-116352Y112483D01*
X-115588Y111719D01*
X-114654Y111179D01*
X-113611Y110900D01*
X-112531D01*
X-111488Y111179D01*
X-110554Y111719D01*
X-109790Y112483D01*
X-109250Y113417D01*
X-108971Y114460D01*
Y115540D01*
X-109250Y116583D01*
X-109790Y117517D01*
X-110554Y118281D01*
X-111488Y118821D01*
X-112531Y119100D01*
D02*
G37*
G36*
X-119602Y112029D02*
X-120682D01*
X-121725Y111750D01*
X-122660Y111210D01*
X-122688Y111182D01*
X-120142Y108636D01*
X-117597Y111182D01*
X-117625Y111210D01*
X-118560Y111750D01*
X-119602Y112029D01*
D02*
G37*
G36*
X-116890Y110475D02*
X-119435Y107929D01*
X-116890Y105383D01*
X-116861Y105412D01*
X-116322Y106346D01*
X-116042Y107389D01*
Y108469D01*
X-116322Y109511D01*
X-116861Y110447D01*
X-116890Y110475D01*
D02*
G37*
G36*
X-123395D02*
X-123423Y110447D01*
X-123963Y109511D01*
X-124242Y108469D01*
Y107389D01*
X-123963Y106346D01*
X-123423Y105412D01*
X-123395Y105383D01*
X-120849Y107929D01*
X-123395Y110475D01*
D02*
G37*
G36*
X-120142Y107222D02*
X-122688Y104676D01*
X-122660Y104648D01*
X-121725Y104108D01*
X-120682Y103829D01*
X-119602D01*
X-118560Y104108D01*
X-117625Y104648D01*
X-117597Y104676D01*
X-120142Y107222D01*
D02*
G37*
G36*
X-42480Y102953D02*
X-43520D01*
X-44526Y102683D01*
X-45427Y102163D01*
X-46163Y101427D01*
X-46683Y100526D01*
X-46953Y99520D01*
Y98480D01*
X-46683Y97474D01*
X-46163Y96573D01*
X-45427Y95837D01*
X-44526Y95317D01*
X-43520Y95047D01*
X-42480D01*
X-41474Y95317D01*
X-40573Y95837D01*
X-39837Y96573D01*
X-39317Y97474D01*
X-39047Y98480D01*
Y99520D01*
X-39317Y100526D01*
X-39837Y101427D01*
X-40573Y102163D01*
X-41474Y102683D01*
X-42480Y102953D01*
D02*
G37*
G36*
Y92953D02*
X-43520D01*
X-44526Y92683D01*
X-45427Y92163D01*
X-46163Y91427D01*
X-46683Y90526D01*
X-46953Y89520D01*
Y88480D01*
X-46683Y87474D01*
X-46163Y86573D01*
X-45427Y85837D01*
X-44526Y85317D01*
X-43520Y85047D01*
X-42480D01*
X-41474Y85317D01*
X-40573Y85837D01*
X-39837Y86573D01*
X-39317Y87474D01*
X-39047Y88480D01*
Y89520D01*
X-39317Y90526D01*
X-39837Y91427D01*
X-40573Y92163D01*
X-41474Y92683D01*
X-42480Y92953D01*
D02*
G37*
G36*
Y82953D02*
X-43520D01*
X-44526Y82683D01*
X-45427Y82163D01*
X-46163Y81427D01*
X-46683Y80526D01*
X-46953Y79520D01*
Y78480D01*
X-46683Y77474D01*
X-46163Y76573D01*
X-45427Y75837D01*
X-44526Y75317D01*
X-43520Y75047D01*
X-42480D01*
X-41474Y75317D01*
X-40573Y75837D01*
X-39837Y76573D01*
X-39317Y77474D01*
X-39047Y78480D01*
Y79520D01*
X-39317Y80526D01*
X-39837Y81427D01*
X-40573Y82163D01*
X-41474Y82683D01*
X-42480Y82953D01*
D02*
G37*
G36*
Y72953D02*
X-43520D01*
X-44526Y72683D01*
X-45427Y72163D01*
X-46163Y71427D01*
X-46683Y70526D01*
X-46953Y69520D01*
Y68480D01*
X-46683Y67474D01*
X-46163Y66573D01*
X-45427Y65837D01*
X-44526Y65317D01*
X-43520Y65047D01*
X-42480D01*
X-41474Y65317D01*
X-40573Y65837D01*
X-39837Y66573D01*
X-39317Y67474D01*
X-39047Y68480D01*
Y69520D01*
X-39317Y70526D01*
X-39837Y71427D01*
X-40573Y72163D01*
X-41474Y72683D01*
X-42480Y72953D01*
D02*
G37*
G36*
X17520Y52953D02*
X16480D01*
X15474Y52683D01*
X14573Y52163D01*
X13837Y51427D01*
X13317Y50526D01*
X13047Y49520D01*
Y48480D01*
X13317Y47474D01*
X13837Y46573D01*
X14573Y45837D01*
X15474Y45317D01*
X16480Y45047D01*
X17520D01*
X18526Y45317D01*
X19427Y45837D01*
X20163Y46573D01*
X20683Y47474D01*
X20953Y48480D01*
Y49520D01*
X20683Y50526D01*
X20163Y51427D01*
X19427Y52163D01*
X18526Y52683D01*
X17520Y52953D01*
D02*
G37*
G36*
X-124511Y52543D02*
X-125707D01*
X-126863Y52234D01*
X-127899Y51635D01*
X-128744Y50790D01*
X-129343Y49754D01*
X-129652Y48598D01*
Y47402D01*
X-129343Y46246D01*
X-128744Y45210D01*
X-127899Y44365D01*
X-126863Y43766D01*
X-125707Y43457D01*
X-124511D01*
X-123355Y43766D01*
X-122319Y44365D01*
X-121474Y45210D01*
X-120875Y46246D01*
X-120566Y47402D01*
Y48598D01*
X-120875Y49754D01*
X-121474Y50790D01*
X-122319Y51635D01*
X-123355Y52234D01*
X-124511Y52543D01*
D02*
G37*
G36*
X-144196D02*
X-145392D01*
X-146548Y52234D01*
X-147584Y51635D01*
X-148430Y50790D01*
X-149028Y49754D01*
X-149337Y48598D01*
Y47402D01*
X-149028Y46246D01*
X-148430Y45210D01*
X-147584Y44365D01*
X-146548Y43766D01*
X-145392Y43457D01*
X-144196D01*
X-143040Y43766D01*
X-142004Y44365D01*
X-141158Y45210D01*
X-140560Y46246D01*
X-140251Y47402D01*
Y48598D01*
X-140560Y49754D01*
X-141158Y50790D01*
X-142004Y51635D01*
X-143040Y52234D01*
X-144196Y52543D01*
D02*
G37*
G36*
X17520Y42953D02*
X16480D01*
X15474Y42683D01*
X14573Y42163D01*
X13837Y41427D01*
X13317Y40526D01*
X13047Y39520D01*
Y38480D01*
X13317Y37474D01*
X13837Y36573D01*
X14573Y35837D01*
X15474Y35317D01*
X16480Y35047D01*
X17520D01*
X18526Y35317D01*
X19427Y35837D01*
X20163Y36573D01*
X20683Y37474D01*
X20953Y38480D01*
Y39520D01*
X20683Y40526D01*
X20163Y41427D01*
X19427Y42163D01*
X18526Y42683D01*
X17520Y42953D01*
D02*
G37*
G36*
X-113071Y106656D02*
X-118869Y100858D01*
X-113071Y95060D01*
X-111253Y96877D01*
X-52295Y37919D01*
X-51798Y37587D01*
X-51213Y37471D01*
X-46681D01*
X-46163Y36573D01*
X-45427Y35837D01*
X-44526Y35317D01*
X-43520Y35047D01*
X-42480D01*
X-41474Y35317D01*
X-40573Y35837D01*
X-39837Y36573D01*
X-39317Y37474D01*
X-39047Y38480D01*
Y39520D01*
X-39317Y40526D01*
X-39837Y41427D01*
X-40573Y42163D01*
X-41474Y42683D01*
X-42480Y42953D01*
X-43520D01*
X-44526Y42683D01*
X-45427Y42163D01*
X-46163Y41427D01*
X-46681Y40529D01*
X-50580D01*
X-109090Y99040D01*
X-107273Y100858D01*
X-113071Y106656D01*
D02*
G37*
G36*
X17520Y32953D02*
X16480D01*
X15474Y32683D01*
X14573Y32163D01*
X13837Y31427D01*
X13317Y30526D01*
X13047Y29520D01*
Y28480D01*
X13317Y27474D01*
X13837Y26573D01*
X14573Y25837D01*
X15474Y25317D01*
X16480Y25047D01*
X17520D01*
X18526Y25317D01*
X19427Y25837D01*
X20163Y26573D01*
X20683Y27474D01*
X20953Y28480D01*
Y29520D01*
X20683Y30526D01*
X20163Y31427D01*
X19427Y32163D01*
X18526Y32683D01*
X17520Y32953D01*
D02*
G37*
G36*
X-42480D02*
X-43520D01*
X-44526Y32683D01*
X-45427Y32163D01*
X-46163Y31427D01*
X-46683Y30526D01*
X-46953Y29520D01*
Y28480D01*
X-46683Y27474D01*
X-46163Y26573D01*
X-45427Y25837D01*
X-44526Y25317D01*
X-43520Y25047D01*
X-42480D01*
X-41474Y25317D01*
X-40573Y25837D01*
X-39837Y26573D01*
X-39317Y27474D01*
X-39047Y28480D01*
Y29520D01*
X-39317Y30526D01*
X-39837Y31427D01*
X-40573Y32163D01*
X-41474Y32683D01*
X-42480Y32953D01*
D02*
G37*
G36*
X17520Y22953D02*
X16480D01*
X15474Y22683D01*
X14573Y22163D01*
X13837Y21427D01*
X13317Y20526D01*
X13047Y19520D01*
Y18480D01*
X13317Y17474D01*
X13837Y16573D01*
X14573Y15837D01*
X15474Y15317D01*
X16480Y15047D01*
X17520D01*
X18526Y15317D01*
X19427Y15837D01*
X20163Y16573D01*
X20683Y17474D01*
X20953Y18480D01*
Y19520D01*
X20683Y20526D01*
X20163Y21427D01*
X19427Y22163D01*
X18526Y22683D01*
X17520Y22953D01*
D02*
G37*
G36*
X-42480D02*
X-43520D01*
X-44526Y22683D01*
X-45427Y22163D01*
X-46163Y21427D01*
X-46683Y20526D01*
X-46953Y19520D01*
Y18480D01*
X-46685Y17478D01*
X-75634Y-11471D01*
X-162743D01*
X-163485Y-10283D01*
X-163168Y-9823D01*
X-162777Y-9146D01*
X-162575Y-8391D01*
Y-7609D01*
X-162613Y-7468D01*
X-162575Y-5968D01*
X-162575D01*
Y-3500D01*
X-165543D01*
X-168512D01*
Y-5968D01*
X-168512Y-5968D01*
X-168474Y-7468D01*
X-168512Y-7609D01*
Y-8391D01*
X-168310Y-9146D01*
X-167919Y-9823D01*
X-167452Y-10500D01*
X-167919Y-11177D01*
X-168310Y-11854D01*
X-168512Y-12609D01*
Y-13391D01*
X-168310Y-14146D01*
X-167919Y-14823D01*
X-167452Y-15500D01*
X-167919Y-16177D01*
X-168310Y-16854D01*
X-168512Y-17609D01*
Y-18391D01*
X-168310Y-19146D01*
X-167919Y-19823D01*
X-167366Y-20375D01*
X-166689Y-20766D01*
X-165934Y-20968D01*
X-165153D01*
X-164398Y-20766D01*
X-163721Y-20375D01*
X-163168Y-19823D01*
X-162999Y-19529D01*
X-60000D01*
X-59415Y-19413D01*
X-58919Y-19081D01*
X-44522Y-4685D01*
X-43520Y-4953D01*
X-42480D01*
X-41474Y-4683D01*
X-40573Y-4163D01*
X-39837Y-3427D01*
X-39317Y-2526D01*
X-39047Y-1520D01*
Y-480D01*
X-39317Y526D01*
X-39837Y1427D01*
X-40573Y2163D01*
X-41474Y2683D01*
X-42480Y2953D01*
X-43520D01*
X-44526Y2683D01*
X-45427Y2163D01*
X-46163Y1427D01*
X-46683Y526D01*
X-46953Y-480D01*
Y-1520D01*
X-46685Y-2522D01*
X-60633Y-16471D01*
X-161880D01*
X-162443Y-15500D01*
X-161880Y-14529D01*
X-75000D01*
X-74415Y-14413D01*
X-73919Y-14081D01*
X-44522Y15315D01*
X-43520Y15047D01*
X-42480D01*
X-41474Y15317D01*
X-40573Y15837D01*
X-39837Y16573D01*
X-39317Y17474D01*
X-39047Y18480D01*
Y19520D01*
X-39317Y20526D01*
X-39837Y21427D01*
X-40573Y22163D01*
X-41474Y22683D01*
X-42480Y22953D01*
D02*
G37*
G36*
X17520Y12953D02*
X16480D01*
X15474Y12683D01*
X14573Y12163D01*
X13837Y11427D01*
X13317Y10526D01*
X13047Y9520D01*
Y8480D01*
X13317Y7474D01*
X13837Y6573D01*
X14573Y5837D01*
X15474Y5317D01*
X16480Y5047D01*
X17520D01*
X18526Y5317D01*
X19427Y5837D01*
X20163Y6573D01*
X20683Y7474D01*
X20953Y8480D01*
Y9520D01*
X20683Y10526D01*
X20163Y11427D01*
X19427Y12163D01*
X18526Y12683D01*
X17520Y12953D01*
D02*
G37*
G36*
X-42480D02*
X-43520D01*
X-44526Y12683D01*
X-45427Y12163D01*
X-46163Y11427D01*
X-46683Y10526D01*
X-46953Y9520D01*
Y8480D01*
X-46683Y7474D01*
X-46163Y6573D01*
X-45427Y5837D01*
X-44526Y5317D01*
X-43520Y5047D01*
X-42480D01*
X-41474Y5317D01*
X-40573Y5837D01*
X-39837Y6573D01*
X-39317Y7474D01*
X-39047Y8480D01*
Y9520D01*
X-39317Y10526D01*
X-39837Y11427D01*
X-40573Y12163D01*
X-41474Y12683D01*
X-42480Y12953D01*
D02*
G37*
G36*
X-117928Y12846D02*
X-118000D01*
Y8500D01*
Y4154D01*
X-117928D01*
X-116822Y4450D01*
X-115831Y5022D01*
X-115022Y5831D01*
X-114450Y6822D01*
X-114347Y7208D01*
X-112847Y7010D01*
Y4400D01*
X-104154D01*
Y12600D01*
X-112847D01*
Y9990D01*
X-114347Y9792D01*
X-114450Y10178D01*
X-115022Y11169D01*
X-115831Y11978D01*
X-116822Y12550D01*
X-117928Y12846D01*
D02*
G37*
G36*
X-119000D02*
X-119072D01*
X-120178Y12550D01*
X-121169Y11978D01*
X-121978Y11169D01*
X-122400Y10437D01*
X-154043D01*
X-154785Y10290D01*
X-155413Y9870D01*
X-165043Y240D01*
Y-2500D01*
X-162304D01*
X-153241Y6563D01*
X-122400D01*
X-121978Y5831D01*
X-121169Y5022D01*
X-120178Y4450D01*
X-119072Y4154D01*
X-119000D01*
Y8500D01*
Y12846D01*
D02*
G37*
G36*
X-166043Y-32D02*
X-168512D01*
Y-2500D01*
X-166043D01*
Y-32D01*
D02*
G37*
G36*
X17520Y2953D02*
X16480D01*
X15474Y2683D01*
X14573Y2163D01*
X13837Y1427D01*
X13317Y526D01*
X13047Y-480D01*
Y-1520D01*
X13317Y-2526D01*
X13837Y-3427D01*
X14573Y-4163D01*
X15474Y-4683D01*
X16480Y-4953D01*
X17520D01*
X18526Y-4683D01*
X19427Y-4163D01*
X20163Y-3427D01*
X20683Y-2526D01*
X20953Y-1520D01*
Y-480D01*
X20683Y526D01*
X20163Y1427D01*
X19427Y2163D01*
X18526Y2683D01*
X17520Y2953D01*
D02*
G37*
G36*
Y-7047D02*
X16480D01*
X15474Y-7317D01*
X14573Y-7837D01*
X13837Y-8573D01*
X13317Y-9474D01*
X13047Y-10480D01*
Y-11520D01*
X13317Y-12526D01*
X13837Y-13427D01*
X14573Y-14163D01*
X15474Y-14683D01*
X16480Y-14953D01*
X17520D01*
X18526Y-14683D01*
X19427Y-14163D01*
X20163Y-13427D01*
X20683Y-12526D01*
X20953Y-11520D01*
Y-10480D01*
X20683Y-9474D01*
X20163Y-8573D01*
X19427Y-7837D01*
X18526Y-7317D01*
X17520Y-7047D01*
D02*
G37*
G36*
X-42480D02*
X-43520D01*
X-44526Y-7317D01*
X-45427Y-7837D01*
X-46163Y-8573D01*
X-46683Y-9474D01*
X-46953Y-10480D01*
Y-11520D01*
X-46683Y-12526D01*
X-46163Y-13427D01*
X-45427Y-14163D01*
X-44526Y-14683D01*
X-43520Y-14953D01*
X-42480D01*
X-41474Y-14683D01*
X-40573Y-14163D01*
X-39837Y-13427D01*
X-39317Y-12526D01*
X-39047Y-11520D01*
Y-10480D01*
X-39317Y-9474D01*
X-39837Y-8573D01*
X-40573Y-7837D01*
X-41474Y-7317D01*
X-42480Y-7047D01*
D02*
G37*
G36*
X17520Y-17047D02*
X16480D01*
X15474Y-17317D01*
X14573Y-17837D01*
X13837Y-18573D01*
X13317Y-19474D01*
X13047Y-20480D01*
Y-21520D01*
X13317Y-22526D01*
X13837Y-23427D01*
X14573Y-24163D01*
X15474Y-24683D01*
X16480Y-24953D01*
X17520D01*
X18526Y-24683D01*
X19427Y-24163D01*
X20163Y-23427D01*
X20683Y-22526D01*
X20953Y-21520D01*
Y-20480D01*
X20683Y-19474D01*
X20163Y-18573D01*
X19427Y-17837D01*
X18526Y-17317D01*
X17520Y-17047D01*
D02*
G37*
G36*
X-42480D02*
X-43520D01*
X-44526Y-17317D01*
X-45427Y-17837D01*
X-46163Y-18573D01*
X-46683Y-19474D01*
X-46953Y-20480D01*
Y-21520D01*
X-46683Y-22526D01*
X-46163Y-23427D01*
X-45427Y-24163D01*
X-44526Y-24683D01*
X-43520Y-24953D01*
X-42480D01*
X-41474Y-24683D01*
X-40573Y-24163D01*
X-39837Y-23427D01*
X-39317Y-22526D01*
X-39047Y-21520D01*
Y-20480D01*
X-39317Y-19474D01*
X-39837Y-18573D01*
X-40573Y-17837D01*
X-41474Y-17317D01*
X-42480Y-17047D01*
D02*
G37*
G36*
X17520Y-27047D02*
X16480D01*
X15474Y-27317D01*
X14573Y-27837D01*
X13837Y-28573D01*
X13317Y-29474D01*
X13047Y-30480D01*
Y-31520D01*
X13317Y-32526D01*
X13837Y-33427D01*
X14573Y-34163D01*
X15474Y-34683D01*
X16480Y-34953D01*
X17520D01*
X18526Y-34683D01*
X19427Y-34163D01*
X20163Y-33427D01*
X20683Y-32526D01*
X20953Y-31520D01*
Y-30480D01*
X20683Y-29474D01*
X20163Y-28573D01*
X19427Y-27837D01*
X18526Y-27317D01*
X17520Y-27047D01*
D02*
G37*
G36*
X-42480D02*
X-43520D01*
X-44526Y-27317D01*
X-45427Y-27837D01*
X-46163Y-28573D01*
X-46681Y-29471D01*
X-102812D01*
X-103398Y-29587D01*
X-103894Y-29919D01*
X-146819Y-72843D01*
X-148306Y-72648D01*
X-150485Y-68874D01*
X-155626Y-71842D01*
X-152658Y-76984D01*
X-152658Y-76984D01*
X-151875Y-78264D01*
X-151837Y-78405D01*
X-151447Y-79082D01*
X-150894Y-79634D01*
X-150217Y-80025D01*
X-149474Y-80378D01*
X-149539Y-81198D01*
Y-81980D01*
X-149337Y-82735D01*
X-148946Y-83412D01*
X-148394Y-83965D01*
X-147717Y-84355D01*
X-146974Y-84708D01*
X-147040Y-85528D01*
Y-86310D01*
X-146867Y-86956D01*
X-144321Y-85486D01*
X-141776Y-84017D01*
X-142248Y-83544D01*
X-142925Y-83153D01*
X-143668Y-82800D01*
X-143603Y-81980D01*
Y-81198D01*
X-143690Y-80871D01*
X-105348Y-42529D01*
X-46681D01*
X-46163Y-43427D01*
X-45427Y-44163D01*
X-44526Y-44683D01*
X-43520Y-44953D01*
X-42480D01*
X-41474Y-44683D01*
X-40573Y-44163D01*
X-39837Y-43427D01*
X-39317Y-42526D01*
X-39047Y-41520D01*
Y-40480D01*
X-39317Y-39474D01*
X-39837Y-38573D01*
X-40573Y-37837D01*
X-41474Y-37317D01*
X-42480Y-37047D01*
X-43520D01*
X-44526Y-37317D01*
X-45427Y-37837D01*
X-46163Y-38573D01*
X-46681Y-39471D01*
X-105982D01*
X-106567Y-39587D01*
X-107063Y-39919D01*
X-143544Y-76399D01*
X-145177Y-75911D01*
X-145244Y-75594D01*
X-102179Y-32529D01*
X-46681D01*
X-46163Y-33427D01*
X-45427Y-34163D01*
X-44526Y-34683D01*
X-43520Y-34953D01*
X-42480D01*
X-41474Y-34683D01*
X-40573Y-34163D01*
X-39837Y-33427D01*
X-39317Y-32526D01*
X-39047Y-31520D01*
Y-30480D01*
X-39317Y-29474D01*
X-39837Y-28573D01*
X-40573Y-27837D01*
X-41474Y-27317D01*
X-42480Y-27047D01*
D02*
G37*
G36*
X17520Y-47047D02*
X16480D01*
X15474Y-47317D01*
X14573Y-47837D01*
X13837Y-48573D01*
X13317Y-49474D01*
X13047Y-50480D01*
Y-51520D01*
X13317Y-52526D01*
X13837Y-53427D01*
X14573Y-54163D01*
X15474Y-54683D01*
X16480Y-54953D01*
X17520D01*
X18526Y-54683D01*
X19427Y-54163D01*
X20163Y-53427D01*
X20683Y-52526D01*
X20953Y-51520D01*
Y-50480D01*
X20683Y-49474D01*
X20163Y-48573D01*
X19427Y-47837D01*
X18526Y-47317D01*
X17520Y-47047D01*
D02*
G37*
G36*
X-42480D02*
X-43520D01*
X-44526Y-47317D01*
X-45427Y-47837D01*
X-46163Y-48573D01*
X-46683Y-49474D01*
X-46953Y-50480D01*
Y-51520D01*
X-46683Y-52526D01*
X-46163Y-53427D01*
X-45427Y-54163D01*
X-44526Y-54683D01*
X-43520Y-54953D01*
X-42480D01*
X-41474Y-54683D01*
X-40573Y-54163D01*
X-39837Y-53427D01*
X-39317Y-52526D01*
X-39047Y-51520D01*
Y-50480D01*
X-39317Y-49474D01*
X-39837Y-48573D01*
X-40573Y-47837D01*
X-41474Y-47317D01*
X-42480Y-47047D01*
D02*
G37*
G36*
X17520Y-57047D02*
X16480D01*
X15474Y-57317D01*
X14573Y-57837D01*
X13837Y-58573D01*
X13317Y-59474D01*
X13047Y-60480D01*
Y-61520D01*
X13317Y-62526D01*
X13837Y-63427D01*
X14573Y-64163D01*
X15474Y-64683D01*
X16480Y-64953D01*
X17520D01*
X18526Y-64683D01*
X19427Y-64163D01*
X20163Y-63427D01*
X20683Y-62526D01*
X20953Y-61520D01*
Y-60480D01*
X20683Y-59474D01*
X20163Y-58573D01*
X19427Y-57837D01*
X18526Y-57317D01*
X17520Y-57047D01*
D02*
G37*
G36*
X-42480D02*
X-43520D01*
X-44526Y-57317D01*
X-45427Y-57837D01*
X-46163Y-58573D01*
X-46683Y-59474D01*
X-46953Y-60480D01*
Y-61520D01*
X-46683Y-62526D01*
X-46163Y-63427D01*
X-45427Y-64163D01*
X-44526Y-64683D01*
X-43520Y-64953D01*
X-42480D01*
X-41474Y-64683D01*
X-40573Y-64163D01*
X-39837Y-63427D01*
X-39317Y-62526D01*
X-39047Y-61520D01*
Y-60480D01*
X-39317Y-59474D01*
X-39837Y-58573D01*
X-40573Y-57837D01*
X-41474Y-57317D01*
X-42480Y-57047D01*
D02*
G37*
G36*
Y-67047D02*
X-42500D01*
Y-70500D01*
X-39047D01*
Y-70480D01*
X-39317Y-69474D01*
X-39837Y-68573D01*
X-40573Y-67837D01*
X-41474Y-67317D01*
X-42480Y-67047D01*
D02*
G37*
G36*
X-43500D02*
X-43520D01*
X-44526Y-67317D01*
X-45427Y-67837D01*
X-46163Y-68573D01*
X-46683Y-69474D01*
X-46953Y-70480D01*
Y-70500D01*
X-43500D01*
Y-67047D01*
D02*
G37*
G36*
X17520D02*
X16480D01*
X15474Y-67317D01*
X14573Y-67837D01*
X13837Y-68573D01*
X13317Y-69474D01*
X13047Y-70480D01*
Y-71520D01*
X13317Y-72526D01*
X13837Y-73427D01*
X14573Y-74163D01*
X15474Y-74683D01*
X16480Y-74953D01*
X17520D01*
X18526Y-74683D01*
X19427Y-74163D01*
X20163Y-73427D01*
X20683Y-72526D01*
X20953Y-71520D01*
Y-70480D01*
X20683Y-69474D01*
X20163Y-68573D01*
X19427Y-67837D01*
X18526Y-67317D01*
X17520Y-67047D01*
D02*
G37*
G36*
X-39047Y-71500D02*
X-42500D01*
Y-74953D01*
X-42480D01*
X-41474Y-74683D01*
X-40573Y-74163D01*
X-39837Y-73427D01*
X-39317Y-72526D01*
X-39047Y-71520D01*
Y-71500D01*
D02*
G37*
G36*
X-43500D02*
X-46953D01*
Y-71520D01*
X-46683Y-72526D01*
X-46163Y-73427D01*
X-45427Y-74163D01*
X-44526Y-74683D01*
X-43520Y-74953D01*
X-43500D01*
Y-71500D01*
D02*
G37*
G36*
X-42480Y-77047D02*
X-42500D01*
Y-80500D01*
X-39047D01*
Y-80480D01*
X-39317Y-79474D01*
X-39837Y-78573D01*
X-40573Y-77837D01*
X-41474Y-77317D01*
X-42480Y-77047D01*
D02*
G37*
G36*
X-43500D02*
X-43520D01*
X-44526Y-77317D01*
X-45427Y-77837D01*
X-46163Y-78573D01*
X-46683Y-79474D01*
X-46953Y-80480D01*
Y-80500D01*
X-43500D01*
Y-77047D01*
D02*
G37*
G36*
X17520D02*
X16480D01*
X15474Y-77317D01*
X14573Y-77837D01*
X13837Y-78573D01*
X13317Y-79474D01*
X13047Y-80480D01*
Y-81520D01*
X13317Y-82526D01*
X13837Y-83427D01*
X14573Y-84163D01*
X15474Y-84683D01*
X16480Y-84953D01*
X17520D01*
X18526Y-84683D01*
X19427Y-84163D01*
X20163Y-83427D01*
X20683Y-82526D01*
X20953Y-81520D01*
Y-80480D01*
X20683Y-79474D01*
X20163Y-78573D01*
X19427Y-77837D01*
X18526Y-77317D01*
X17520Y-77047D01*
D02*
G37*
G36*
X-39047Y-81500D02*
X-42500D01*
Y-84953D01*
X-42480D01*
X-41474Y-84683D01*
X-40573Y-84163D01*
X-39837Y-83427D01*
X-39317Y-82526D01*
X-39047Y-81520D01*
Y-81500D01*
D02*
G37*
G36*
X-43500D02*
X-46953D01*
Y-81520D01*
X-46683Y-82526D01*
X-46163Y-83427D01*
X-45427Y-84163D01*
X-44526Y-84683D01*
X-43520Y-84953D01*
X-43500D01*
Y-81500D01*
D02*
G37*
G36*
X-141276Y-84883D02*
X-143388Y-86102D01*
X-142169Y-88215D01*
X-141696Y-87742D01*
X-141305Y-87065D01*
X-141103Y-86310D01*
Y-85528D01*
X-141276Y-84883D01*
D02*
G37*
G36*
X-144254Y-86602D02*
X-146367Y-87822D01*
X-145894Y-88295D01*
X-145217Y-88685D01*
X-144462Y-88888D01*
X-143680D01*
X-143035Y-88715D01*
X-144254Y-86602D01*
D02*
G37*
G36*
X17520Y-37047D02*
X16480D01*
X15474Y-37317D01*
X14573Y-37837D01*
X13837Y-38573D01*
X13317Y-39474D01*
X13047Y-40480D01*
Y-41520D01*
X13317Y-42526D01*
X13837Y-43427D01*
X14573Y-44163D01*
X15474Y-44683D01*
X16480Y-44953D01*
X17520D01*
X18526Y-44683D01*
X19427Y-44163D01*
X20163Y-43427D01*
X20681Y-42529D01*
X51767D01*
X119249Y-110012D01*
X118776Y-111315D01*
X116377Y-113798D01*
X119220Y-116544D01*
X118526Y-117264D01*
X115682Y-114518D01*
X115249Y-114967D01*
X62796D01*
X62055Y-115114D01*
X61426Y-115534D01*
X24698Y-152263D01*
X17249D01*
X17125Y-152102D01*
X16505Y-151626D01*
X15783Y-151327D01*
X15508Y-151290D01*
Y-156384D01*
X14508D01*
Y-151290D01*
X14233Y-151327D01*
X13511Y-151626D01*
X12891Y-152102D01*
X12415Y-152722D01*
X12116Y-153444D01*
X12014Y-154219D01*
Y-156441D01*
X11832Y-156594D01*
X10514Y-156989D01*
X10473Y-156949D01*
X10375Y-156910D01*
X10299Y-156835D01*
X9834Y-156645D01*
X9727Y-156646D01*
X9629Y-156605D01*
X9127Y-156605D01*
X9029Y-156646D01*
X8922Y-156645D01*
X8457Y-156835D01*
X8381Y-156910D01*
X8283Y-156950D01*
X7924Y-157301D01*
X6912Y-157184D01*
X6373Y-157010D01*
X3329Y-153966D01*
Y-134359D01*
X3949Y-134001D01*
X4601Y-133349D01*
X5062Y-132551D01*
X5300Y-131661D01*
Y-130739D01*
X5062Y-129849D01*
X4601Y-129051D01*
X3949Y-128399D01*
X3151Y-127938D01*
X2261Y-127700D01*
X1339D01*
X449Y-127938D01*
X-349Y-128399D01*
X-1001Y-129051D01*
X-1462Y-129849D01*
X-1700Y-130739D01*
Y-131661D01*
X-1462Y-132551D01*
X-1001Y-133349D01*
X-349Y-134001D01*
X271Y-134359D01*
Y-154600D01*
X387Y-155185D01*
X719Y-155681D01*
X7919Y-162881D01*
X8415Y-163213D01*
X9000Y-163329D01*
X22500D01*
X23085Y-163213D01*
X23581Y-162881D01*
X53643Y-132820D01*
X101306D01*
X101324Y-132880D01*
X101860Y-133773D01*
X102609Y-134495D01*
X103519Y-135000D01*
X104529Y-135252D01*
X105569Y-135234D01*
X106570Y-134947D01*
X107462Y-134411D01*
X108185Y-133662D01*
X108689Y-132752D01*
X108941Y-131742D01*
X108923Y-130701D01*
X108636Y-129701D01*
X108100Y-128809D01*
X107352Y-128086D01*
X106441Y-127581D01*
X105431Y-127329D01*
X104391Y-127348D01*
X103390Y-127634D01*
X102498Y-128171D01*
X101775Y-128919D01*
X101308Y-129761D01*
X54800D01*
X54178Y-128261D01*
X63598Y-118841D01*
X110475D01*
X110686Y-120341D01*
X110337Y-120441D01*
X109445Y-120977D01*
X108722Y-121726D01*
X108217Y-122636D01*
X107965Y-123646D01*
X107984Y-124687D01*
X108270Y-125687D01*
X108806Y-126579D01*
X109555Y-127302D01*
X110465Y-127807D01*
X111475Y-128059D01*
X112516Y-128041D01*
X113516Y-127754D01*
X114409Y-127218D01*
X115131Y-126469D01*
X115598Y-125627D01*
X118603D01*
X119188Y-125510D01*
X119684Y-125179D01*
X127181Y-117681D01*
X127513Y-117185D01*
X127629Y-116600D01*
Y-114700D01*
X127513Y-114115D01*
X127181Y-113619D01*
X53481Y-39919D01*
X52985Y-39587D01*
X52400Y-39471D01*
X20681D01*
X20163Y-38573D01*
X19427Y-37837D01*
X18526Y-37317D01*
X17520Y-37047D01*
D02*
G37*
G36*
X82288Y-145507D02*
X81144Y-145507D01*
X80038Y-145803D01*
X79047Y-146375D01*
X78238Y-147185D01*
X77666Y-148176D01*
X77369Y-149281D01*
X77370Y-150426D01*
X77473Y-150812D01*
X76075Y-151391D01*
X74770Y-149129D01*
X67242Y-153476D01*
X71342Y-160577D01*
X78870Y-156231D01*
X77564Y-153970D01*
X78765Y-153049D01*
X79047Y-153331D01*
X80038Y-153904D01*
X81144Y-154200D01*
X82288Y-154200D01*
X83394Y-153904D01*
X84385Y-153331D01*
X85194Y-152522D01*
X85766Y-151531D01*
X86063Y-150426D01*
X86063Y-149281D01*
X85766Y-148176D01*
X85194Y-147185D01*
X84385Y-146375D01*
X83394Y-145803D01*
X82288Y-145507D01*
D02*
G37*
G36*
X-19508Y-151290D02*
X-19783Y-151327D01*
X-20505Y-151626D01*
X-21125Y-152102D01*
X-21601Y-152722D01*
X-21900Y-153444D01*
X-22002Y-154219D01*
Y-155884D01*
X-19508D01*
Y-151290D01*
D02*
G37*
G36*
X-18508D02*
Y-156384D01*
X-19008D01*
Y-156884D01*
X-22002D01*
Y-158549D01*
X-21900Y-159324D01*
X-21601Y-160046D01*
X-21125Y-160667D01*
X-20945Y-160805D01*
Y-169011D01*
X-21125Y-169149D01*
X-21601Y-169769D01*
X-21900Y-170491D01*
X-22002Y-171266D01*
Y-172341D01*
X-19008D01*
Y-172841D01*
X-18508D01*
Y-177344D01*
X-18233Y-177308D01*
X-17511Y-177009D01*
X-16891Y-176533D01*
X-16415Y-175913D01*
X-16116Y-175191D01*
X-16069Y-174837D01*
X12069D01*
X12116Y-175191D01*
X12415Y-175913D01*
X12891Y-176533D01*
X13511Y-177009D01*
X14233Y-177308D01*
X14508Y-177344D01*
Y-172841D01*
Y-168338D01*
X14233Y-168374D01*
X13511Y-168673D01*
X12891Y-169149D01*
X12415Y-169769D01*
X12116Y-170491D01*
X12054Y-170963D01*
X-16054D01*
X-16116Y-170491D01*
X-16415Y-169769D01*
X-16891Y-169149D01*
X-17071Y-169011D01*
Y-160805D01*
X-16891Y-160667D01*
X-16415Y-160046D01*
X-16345Y-159879D01*
X-15772Y-159652D01*
X-14831Y-159604D01*
X-14694Y-159634D01*
X-14473Y-159851D01*
X-14374Y-159891D01*
X-14299Y-159966D01*
X-13833Y-160155D01*
X-13727Y-160155D01*
X-13629Y-160196D01*
X-13126Y-160196D01*
X-13028Y-160155D01*
X-12922Y-160155D01*
X-12456Y-159965D01*
X-12381Y-159890D01*
X-12282Y-159851D01*
X-11924Y-159499D01*
X-11882Y-159401D01*
X-11806Y-159327D01*
X-11607Y-158866D01*
X-11605Y-158759D01*
X-11562Y-158662D01*
X-11557Y-158411D01*
X-11559Y-158405D01*
X-11557Y-158400D01*
X-11559Y-158395D01*
X-11557Y-158389D01*
X-11562Y-158138D01*
X-11605Y-158041D01*
X-11607Y-157934D01*
X-11806Y-157473D01*
X-11882Y-157399D01*
X-11924Y-157301D01*
X-12283Y-156949D01*
X-12381Y-156910D01*
X-12457Y-156835D01*
X-12922Y-156645D01*
X-13028Y-156646D01*
X-13127Y-156605D01*
X-13629Y-156605D01*
X-13727Y-156646D01*
X-13834Y-156645D01*
X-14299Y-156835D01*
X-14375Y-156910D01*
X-14473Y-156950D01*
X-14514Y-156990D01*
X-15832Y-156595D01*
X-16014Y-156441D01*
Y-154219D01*
X-16116Y-153444D01*
X-16415Y-152722D01*
X-16891Y-152102D01*
X-17511Y-151626D01*
X-18233Y-151327D01*
X-18508Y-151290D01*
D02*
G37*
G36*
X15508Y-168338D02*
Y-172341D01*
X18002D01*
Y-171266D01*
X17900Y-170491D01*
X17601Y-169769D01*
X17125Y-169149D01*
X16505Y-168673D01*
X15783Y-168374D01*
X15508Y-168338D01*
D02*
G37*
G36*
X18002Y-173341D02*
X15508D01*
Y-177344D01*
X15783Y-177308D01*
X16505Y-177009D01*
X17125Y-176533D01*
X17601Y-175913D01*
X17900Y-175191D01*
X18002Y-174416D01*
Y-173341D01*
D02*
G37*
G36*
X-19508D02*
X-22002D01*
Y-174416D01*
X-21900Y-175191D01*
X-21601Y-175913D01*
X-21125Y-176533D01*
X-20505Y-177009D01*
X-19783Y-177308D01*
X-19508Y-177344D01*
Y-173341D01*
D02*
G37*
%LPD*%
G36*
X13316Y110522D02*
X13047Y109520D01*
Y108480D01*
X13317Y107474D01*
X13837Y106573D01*
X14573Y105837D01*
X15474Y105317D01*
X16480Y105047D01*
X17520D01*
X18355Y104000D01*
X18226Y103839D01*
X17500Y103271D01*
Y99000D01*
Y95047D01*
X17520D01*
X18355Y94000D01*
X18226Y93839D01*
X17093Y92953D01*
X16480D01*
X15474Y92683D01*
X14573Y92163D01*
X13837Y91427D01*
X13317Y90526D01*
X13047Y89520D01*
Y88480D01*
X13317Y87474D01*
X13837Y86573D01*
X14573Y85837D01*
X15474Y85317D01*
X16480Y85047D01*
X17520D01*
X18355Y84000D01*
X18226Y83838D01*
X17093Y82953D01*
X16480D01*
X15474Y82683D01*
X14573Y82163D01*
X13837Y81427D01*
X13317Y80526D01*
X13047Y79520D01*
Y78480D01*
X13317Y77474D01*
X13837Y76573D01*
X14573Y75837D01*
X15474Y75317D01*
X16480Y75047D01*
X17520D01*
X18355Y74000D01*
X18226Y73839D01*
X17093Y72953D01*
X16480D01*
X15478Y72685D01*
X-27919Y116081D01*
X-28415Y116413D01*
X-29000Y116529D01*
X-90903D01*
X-91100Y118029D01*
X-90275Y118250D01*
X-89340Y118790D01*
X-88577Y119553D01*
X-88037Y120489D01*
X-88023Y120542D01*
X3295D01*
X13316Y110522D01*
D02*
G37*
%LPC*%
G36*
X16500Y102953D02*
X16480D01*
X15474Y102683D01*
X14573Y102163D01*
X13837Y101427D01*
X13317Y100526D01*
X13047Y99520D01*
Y99500D01*
X16500D01*
Y102953D01*
D02*
G37*
G36*
Y98500D02*
X13047D01*
Y98480D01*
X13317Y97474D01*
X13837Y96573D01*
X14573Y95837D01*
X15474Y95317D01*
X16480Y95047D01*
X16500D01*
Y98500D01*
D02*
G37*
%LPD*%
D11*
X53009Y-131291D02*
X104980D01*
X22500Y-161800D02*
X53009Y-131291D01*
X9000Y-161800D02*
X22500D01*
X1800Y-154600D02*
X9000Y-161800D01*
X1800Y-154600D02*
Y-131200D01*
X16864Y154464D02*
X64045D01*
X13900Y151500D02*
X16864Y154464D01*
X13900Y140800D02*
Y151500D01*
Y140800D02*
X21000Y133700D01*
Y66000D02*
Y133700D01*
X19000Y64000D02*
X21000Y66000D01*
X-38000Y64000D02*
X19000D01*
X-43000Y59000D02*
X-38000Y64000D01*
X-51600Y57600D02*
X-43000Y49000D01*
X-51600Y57600D02*
Y59400D01*
X-103100Y110900D02*
X-51600Y59400D01*
X-103100Y110900D02*
Y117900D01*
X-98929Y122071D01*
Y129142D01*
X-75000Y-13000D02*
X-43000Y19000D01*
X-165543Y-13000D02*
X-75000D01*
X-60000Y-18000D02*
X-43000Y-1000D01*
X-165543Y-18000D02*
X-60000D01*
X17000Y-41000D02*
X52400D01*
X126100Y-114700D01*
Y-116600D02*
Y-114700D01*
X118603Y-124097D02*
X126100Y-116600D01*
X111927Y-124097D02*
X118603D01*
X-29000Y115000D02*
X17000Y69000D01*
X-98929Y115000D02*
X-29000D01*
X-51213Y39000D02*
X-43000D01*
X-113071Y100858D02*
X-51213Y39000D01*
X-91858Y122071D02*
X3929D01*
X17000Y109000D01*
X-149071Y-77259D02*
X-102812Y-31000D01*
X-43000D01*
X-105982Y-41000D02*
X-43000D01*
X-146571Y-81589D02*
X-105982Y-41000D01*
X18507Y149266D02*
X25573Y142200D01*
X72271D01*
X77036Y146964D01*
D60*
X15008Y-154200D02*
X25500D01*
X-19008Y-172900D02*
X15008D01*
Y-156384D02*
Y-154200D01*
X25500D02*
X62796Y-116904D01*
X118873D01*
X-19008Y-172841D02*
Y-156384D01*
X15008Y-172900D02*
Y-172841D01*
X-19008Y-172900D02*
Y-172841D01*
X-154043Y8500D02*
X-118500D01*
X-165543Y-3000D02*
X-154043Y8500D01*
D61*
X73056Y-154853D02*
D03*
D62*
X81716Y-149853D02*
D03*
X-118500Y8500D02*
D03*
D63*
X111927Y-124097D02*
D03*
X104980Y-131291D02*
D03*
X-43000Y-41000D02*
D03*
Y-31000D02*
D03*
X17000Y69000D02*
D03*
Y-41000D02*
D03*
X-43000Y-1000D02*
D03*
Y19000D02*
D03*
Y39000D02*
D03*
Y49000D02*
D03*
Y59000D02*
D03*
X17000Y79000D02*
D03*
X-43000Y69000D02*
D03*
X17000Y109000D02*
D03*
Y-21000D02*
D03*
Y-31000D02*
D03*
Y99000D02*
D03*
Y89000D02*
D03*
Y59000D02*
D03*
Y49000D02*
D03*
Y39000D02*
D03*
Y29000D02*
D03*
Y19000D02*
D03*
Y9000D02*
D03*
Y-1000D02*
D03*
Y-11000D02*
D03*
Y-51000D02*
D03*
Y-61000D02*
D03*
Y-71000D02*
D03*
Y-81000D02*
D03*
X-43000D02*
D03*
Y-71000D02*
D03*
Y-61000D02*
D03*
Y-51000D02*
D03*
Y-21000D02*
D03*
Y-11000D02*
D03*
Y9000D02*
D03*
Y29000D02*
D03*
Y79000D02*
D03*
Y89000D02*
D03*
Y99000D02*
D03*
D64*
X118873Y-116904D02*
D03*
D65*
X-19008Y-156384D02*
D03*
X15008D02*
D03*
D66*
X-19008Y-172841D02*
D03*
X15008D02*
D03*
D67*
X-1180Y149266D02*
D03*
X18505D02*
D03*
X-125109Y48000D02*
D03*
X-144794D02*
D03*
D68*
X-165543Y-3000D02*
D03*
D69*
Y-8000D02*
D03*
Y-13000D02*
D03*
Y-18000D02*
D03*
X-149071Y-77259D02*
D03*
X-146571Y-81589D02*
D03*
X-144071Y-85919D02*
D03*
X72705Y149464D02*
D03*
X68375Y151964D02*
D03*
X64045Y154464D02*
D03*
D70*
X-151571Y-72929D02*
D03*
D71*
X77036Y146964D02*
D03*
D72*
X-113071Y100858D02*
D03*
D73*
X-120142Y107929D02*
D03*
X-106000D02*
D03*
X-113071Y115000D02*
D03*
X-98929D02*
D03*
X-106000Y122071D02*
D03*
X-91858D02*
D03*
X-98929Y129142D02*
D03*
D74*
X-43000Y109000D02*
D03*
D75*
X-108500Y8500D02*
D03*
D76*
X1800Y-131200D02*
D03*
M02*
