G04*
G04 #@! TF.GenerationSoftware,Altium Limited,Altium Designer,24.6.1 (21)*
G04*
G04 Layer_Color=16711935*
%FSLAX25Y25*%
%MOIN*%
G70*
G04*
G04 #@! TF.SameCoordinates,810A1A35-3EFD-48DE-86EF-F02317520920*
G04*
G04*
G04 #@! TF.FilePolarity,Negative*
G04*
G01*
G75*
G04:AMPARAMS|DCode=40|XSize=70.93mil|YSize=66mil|CornerRadius=0mil|HoleSize=0mil|Usage=FLASHONLY|Rotation=30.000|XOffset=0mil|YOffset=0mil|HoleType=Round|Shape=Rectangle|*
%AMROTATEDRECTD40*
4,1,4,-0.01421,-0.04631,-0.04721,0.01085,0.01421,0.04631,0.04721,-0.01085,-0.01421,-0.04631,0.0*
%
%ADD40ROTATEDRECTD40*%

%ADD41C,0.07093*%
%ADD42C,0.06506*%
%ADD43P,0.09200X4X91.0*%
%ADD44O,0.04331X0.08662*%
%ADD45O,0.04331X0.07480*%
%ADD46C,0.07687*%
%ADD47R,0.04537X0.04537*%
%ADD48C,0.04537*%
%ADD49P,0.06416X4X345.0*%
%ADD50P,0.06416X4X195.0*%
%ADD51P,0.09334X4X90.0*%
%ADD52C,0.06600*%
%ADD53C,0.06307*%
%ADD54R,0.06307X0.06307*%
%ADD55R,0.07093X0.06600*%
%ADD56C,0.05600*%
D40*
X73056Y-154853D02*
D03*
D41*
X81716Y-149853D02*
D03*
X-118500Y8500D02*
D03*
D42*
X111927Y-124097D02*
D03*
X104980Y-131291D02*
D03*
D43*
X118873Y-116904D02*
D03*
D44*
X-19008Y-156384D02*
D03*
X15008D02*
D03*
D45*
X-19008Y-172841D02*
D03*
X15008D02*
D03*
D46*
X-1180Y149266D02*
D03*
X18505D02*
D03*
X-125109Y48000D02*
D03*
X-144794D02*
D03*
D47*
X-165543Y-3000D02*
D03*
D48*
Y-8000D02*
D03*
Y-13000D02*
D03*
Y-18000D02*
D03*
X-149071Y-77259D02*
D03*
X-146571Y-81589D02*
D03*
X-144071Y-85919D02*
D03*
X72705Y149464D02*
D03*
X68375Y151964D02*
D03*
X64045Y154464D02*
D03*
D49*
X-151571Y-72929D02*
D03*
D50*
X77036Y146964D02*
D03*
D51*
X-113071Y100858D02*
D03*
D52*
X-120142Y107929D02*
D03*
X-106000D02*
D03*
X-113071Y115000D02*
D03*
X-98929D02*
D03*
X-106000Y122071D02*
D03*
X-91858D02*
D03*
X-98929Y129142D02*
D03*
D53*
X-43000Y-41000D02*
D03*
Y-31000D02*
D03*
X17000Y69000D02*
D03*
Y-41000D02*
D03*
X-43000Y-1000D02*
D03*
Y19000D02*
D03*
Y39000D02*
D03*
Y49000D02*
D03*
Y59000D02*
D03*
X17000Y79000D02*
D03*
X-43000Y69000D02*
D03*
X17000Y109000D02*
D03*
Y-21000D02*
D03*
Y-31000D02*
D03*
Y99000D02*
D03*
Y89000D02*
D03*
Y59000D02*
D03*
Y49000D02*
D03*
Y39000D02*
D03*
Y29000D02*
D03*
Y19000D02*
D03*
Y9000D02*
D03*
Y-1000D02*
D03*
Y-11000D02*
D03*
Y-51000D02*
D03*
Y-61000D02*
D03*
Y-71000D02*
D03*
Y-81000D02*
D03*
X-43000D02*
D03*
Y-71000D02*
D03*
Y-61000D02*
D03*
Y-51000D02*
D03*
Y-21000D02*
D03*
Y-11000D02*
D03*
Y9000D02*
D03*
Y29000D02*
D03*
Y79000D02*
D03*
Y89000D02*
D03*
Y99000D02*
D03*
D54*
Y109000D02*
D03*
D55*
X-108500Y8500D02*
D03*
D56*
X1800Y-131200D02*
D03*
M02*
