G04*
G04 #@! TF.GenerationSoftware,Altium Limited,Altium Designer,24.6.1 (21)*
G04*
G04 Layer_Color=8421504*
%FSLAX25Y25*%
%MOIN*%
G70*
G04*
G04 #@! TF.SameCoordinates,810A1A35-3EFD-48DE-86EF-F02317520920*
G04*
G04*
G04 #@! TF.FilePolarity,Positive*
G04*
G01*
G75*
G04:AMPARAMS|DCode=17|XSize=86.61mil|YSize=66.93mil|CornerRadius=0mil|HoleSize=0mil|Usage=FLASHONLY|Rotation=230.000|XOffset=0mil|YOffset=0mil|HoleType=Round|Shape=Rectangle|*
%AMROTATEDRECTD17*
4,1,4,0.00220,0.05469,0.05347,0.01167,-0.00220,-0.05469,-0.05347,-0.01167,0.00220,0.05469,0.0*
%
%ADD17ROTATEDRECTD17*%

%ADD18O,0.02205X0.06870*%
%ADD19R,0.03937X0.03150*%
%ADD20R,0.03937X0.02953*%
%ADD21R,0.07087X0.04331*%
G04:AMPARAMS|DCode=22|XSize=137.8mil|YSize=86.61mil|CornerRadius=0mil|HoleSize=0mil|Usage=FLASHONLY|Rotation=50.000|XOffset=0mil|YOffset=0mil|HoleType=Round|Shape=Rectangle|*
%AMROTATEDRECTD22*
4,1,4,-0.01111,-0.08062,-0.07746,-0.02494,0.01111,0.08062,0.07746,0.02494,-0.01111,-0.08062,0.0*
%
%ADD22ROTATEDRECTD22*%

G04:AMPARAMS|DCode=23|XSize=43.31mil|YSize=86.61mil|CornerRadius=0mil|HoleSize=0mil|Usage=FLASHONLY|Rotation=50.000|XOffset=0mil|YOffset=0mil|HoleType=Round|Shape=Rectangle|*
%AMROTATEDRECTD23*
4,1,4,0.01926,-0.04443,-0.04709,0.01125,-0.01926,0.04443,0.04709,-0.01125,0.01926,-0.04443,0.0*
%
%ADD23ROTATEDRECTD23*%

G04:AMPARAMS|DCode=24|XSize=31.5mil|YSize=35.43mil|CornerRadius=0mil|HoleSize=0mil|Usage=FLASHONLY|Rotation=50.000|XOffset=0mil|YOffset=0mil|HoleType=Round|Shape=Rectangle|*
%AMROTATEDRECTD24*
4,1,4,0.00345,-0.02345,-0.02369,-0.00068,-0.00345,0.02345,0.02369,0.00068,0.00345,-0.02345,0.0*
%
%ADD24ROTATEDRECTD24*%

%ADD25R,0.03543X0.03150*%
%ADD26R,0.04921X0.03937*%
G36*
X-83847Y138853D02*
X-83847Y138574D01*
X-84521Y137900D01*
X-85551Y138930D01*
X-86469Y138012D01*
X-85439Y136982D01*
X-86074Y136347D01*
X-86352D01*
X-88579Y138574D01*
X-88579Y138853D01*
X-86352Y141080D01*
X-86074D01*
X-83847Y138853D01*
D02*
G37*
G36*
X-79421Y134426D02*
X-79421Y134148D01*
X-81648Y131921D01*
X-81926D01*
X-84125Y134120D01*
X-84125Y134398D01*
X-83491Y135033D01*
X-82433Y133975D01*
X-81514Y134894D01*
X-82572Y135952D01*
X-81898Y136625D01*
X-81620D01*
X-79421Y134426D01*
D02*
G37*
G36*
X-89228Y10705D02*
Y7555D01*
X-89425Y7358D01*
X-90378D01*
Y8815D01*
X-91677D01*
Y7358D01*
X-92575D01*
X-92772Y7555D01*
Y10705D01*
X-92575Y10902D01*
X-89425D01*
X-89228Y10705D01*
D02*
G37*
G36*
Y4406D02*
Y1295D01*
X-89425Y1099D01*
X-92575D01*
X-92772Y1295D01*
Y4406D01*
X-92575Y4602D01*
X-91677D01*
Y3106D01*
X-90378D01*
Y4602D01*
X-89425D01*
X-89228Y4406D01*
D02*
G37*
G36*
X11780Y-156423D02*
X10599D01*
Y-156423D01*
X9418D01*
Y-151896D01*
X11780D01*
Y-156423D01*
D02*
G37*
G36*
X8630Y-156423D02*
X6267D01*
Y-151896D01*
X8630D01*
Y-156423D01*
D02*
G37*
G36*
X5481D02*
X4299D01*
Y-151896D01*
X5481D01*
Y-156423D01*
D02*
G37*
G36*
X3512D02*
X2331D01*
Y-151896D01*
X3512D01*
Y-156423D01*
D02*
G37*
G36*
X1544D02*
X362D01*
Y-151896D01*
X1544D01*
Y-156423D01*
D02*
G37*
G36*
X-425D02*
X-1606D01*
Y-151896D01*
X-425D01*
Y-156423D01*
D02*
G37*
G36*
X-2393D02*
X-3574D01*
Y-151896D01*
X-2393D01*
Y-156423D01*
D02*
G37*
G36*
X-4362D02*
X-5544D01*
Y-151896D01*
X-4362D01*
Y-156423D01*
D02*
G37*
G36*
X-6330D02*
X-7512D01*
Y-151896D01*
X-6330D01*
Y-156423D01*
D02*
G37*
G36*
X-8299D02*
X-9481D01*
Y-151896D01*
X-8299D01*
Y-156423D01*
D02*
G37*
G36*
X-10267D02*
X-12630D01*
Y-151896D01*
X-10267D01*
Y-156423D01*
D02*
G37*
G36*
X-13417D02*
X-15779D01*
Y-151896D01*
X-13417D01*
Y-156423D01*
D02*
G37*
G36*
X16123Y-152549D02*
X16677Y-153103D01*
X16976Y-153827D01*
Y-154218D01*
Y-158549D01*
Y-158940D01*
X16677Y-159664D01*
X16123Y-160218D01*
X15400Y-160517D01*
X14616D01*
X13893Y-160218D01*
X13339Y-159664D01*
X13039Y-158940D01*
Y-158549D01*
Y-154218D01*
Y-153827D01*
X13339Y-153103D01*
X13893Y-152549D01*
X14616Y-152250D01*
X15400D01*
X16123Y-152549D01*
D02*
G37*
G36*
X-17893D02*
X-17339Y-153103D01*
X-17040Y-153827D01*
Y-154218D01*
Y-158549D01*
Y-158940D01*
X-17339Y-159664D01*
X-17893Y-160218D01*
X-18617Y-160517D01*
X-19400D01*
X-20123Y-160218D01*
X-20677Y-159664D01*
X-20977Y-158940D01*
Y-158549D01*
Y-154218D01*
Y-153827D01*
X-20677Y-153103D01*
X-20123Y-152549D01*
X-19400Y-152250D01*
X-18617D01*
X-17893Y-152549D01*
D02*
G37*
G36*
X47772Y-161295D02*
X47772Y-164406D01*
X47575Y-164602D01*
X46677Y-164602D01*
Y-163106D01*
X45378Y-163106D01*
X45378Y-164602D01*
X44425D01*
X44228Y-164406D01*
Y-161295D01*
X44425Y-161099D01*
X47575D01*
X47772Y-161295D01*
D02*
G37*
G36*
X-45228Y-162295D02*
Y-165406D01*
X-45425Y-165602D01*
X-46323D01*
Y-164106D01*
X-47622D01*
Y-165602D01*
X-48575D01*
X-48772Y-165406D01*
Y-162295D01*
X-48575Y-162099D01*
X-45425D01*
X-45228Y-162295D01*
D02*
G37*
G36*
X-33228Y-162295D02*
Y-165445D01*
X-33425Y-165642D01*
X-34378D01*
Y-164185D01*
X-35677D01*
Y-165642D01*
X-36575D01*
X-36772Y-165445D01*
Y-162295D01*
X-36575Y-162098D01*
X-33425D01*
X-33228Y-162295D01*
D02*
G37*
G36*
X47772Y-167555D02*
X47772Y-170705D01*
X47575Y-170902D01*
X44425Y-170902D01*
X44228Y-170705D01*
X44228Y-167555D01*
X44425Y-167358D01*
X45378Y-167358D01*
X45378Y-168815D01*
X46677Y-168815D01*
Y-167358D01*
X47575D01*
X47772Y-167555D01*
D02*
G37*
G36*
X-45228Y-168555D02*
Y-171705D01*
X-45425Y-171902D01*
X-48575D01*
X-48772Y-171705D01*
Y-168555D01*
X-48575Y-168358D01*
X-47622D01*
Y-169815D01*
X-46323D01*
Y-168358D01*
X-45425D01*
X-45228Y-168555D01*
D02*
G37*
G36*
X-33228Y-168594D02*
Y-171705D01*
X-33425Y-171902D01*
X-36575D01*
X-36772Y-171705D01*
Y-168594D01*
X-36575Y-168398D01*
X-35677D01*
Y-169894D01*
X-34378D01*
Y-168398D01*
X-33425D01*
X-33228Y-168594D01*
D02*
G37*
G36*
X16123Y-169597D02*
X16677Y-170151D01*
X16976Y-170874D01*
Y-171266D01*
Y-174415D01*
Y-174807D01*
X16677Y-175530D01*
X16123Y-176084D01*
X15400Y-176384D01*
X14616D01*
X13893Y-176084D01*
X13339Y-175530D01*
X13039Y-174807D01*
Y-174415D01*
Y-171266D01*
Y-170874D01*
X13339Y-170151D01*
X13893Y-169597D01*
X14616Y-169297D01*
X15400D01*
X16123Y-169597D01*
D02*
G37*
G36*
X-17893D02*
X-17339Y-170151D01*
X-17040Y-170874D01*
Y-171266D01*
Y-174415D01*
Y-174807D01*
X-17339Y-175530D01*
X-17893Y-176084D01*
X-18617Y-176384D01*
X-19400D01*
X-20123Y-176084D01*
X-20677Y-175530D01*
X-20977Y-174807D01*
Y-174415D01*
Y-171266D01*
Y-170874D01*
X-20677Y-170151D01*
X-20123Y-169597D01*
X-19400Y-169297D01*
X-18617D01*
X-17893Y-169597D01*
D02*
G37*
D17*
X-58508Y-131763D02*
D03*
X-71492Y-147237D02*
D03*
D18*
X-18500Y-116382D02*
D03*
X-3500Y-139000D02*
D03*
X6500D02*
D03*
X1500D02*
D03*
X-13500D02*
D03*
X-8500D02*
D03*
X-18500D02*
D03*
X11500D02*
D03*
X16500D02*
D03*
X-13500Y-116382D02*
D03*
X-8500D02*
D03*
X-3500D02*
D03*
X1500D02*
D03*
X6500D02*
D03*
X11500D02*
D03*
X16500D02*
D03*
D19*
X-26335Y150561D02*
D03*
X-17279Y146821D02*
D03*
X-26335Y143081D02*
D03*
X-100274Y44547D02*
D03*
X-109329Y48287D02*
D03*
X-100274Y52027D02*
D03*
D20*
X-51307Y144197D02*
D03*
Y150102D02*
D03*
X-38307D02*
D03*
Y144197D02*
D03*
X-73802Y51569D02*
D03*
X-86802Y45663D02*
D03*
X-73802D02*
D03*
X-86802Y51569D02*
D03*
D21*
X-99205Y-41717D02*
D03*
X-74795D02*
D03*
X-99205Y-56283D02*
D03*
X-74795D02*
D03*
D22*
X-99346Y-113158D02*
D03*
D23*
X-80654Y-128842D02*
D03*
X-74834Y-121905D02*
D03*
X-86475Y-135779D02*
D03*
D24*
X-107228Y-100389D02*
D03*
X-116228Y-93389D02*
D03*
X-52772Y-121611D02*
D03*
X-61272Y-114111D02*
D03*
X-49228Y-117389D02*
D03*
X-57728Y-109889D02*
D03*
X-110771Y-104611D02*
D03*
X-119771Y-97611D02*
D03*
D25*
X-32000Y-127756D02*
D03*
Y-122244D02*
D03*
D26*
X32500Y-164169D02*
D03*
Y-172831D02*
D03*
M02*
