G04*
G04 #@! TF.GenerationSoftware,Altium Limited,Altium Designer,24.6.1 (21)*
G04*
G04 Layer_Color=32768*
%FSLAX25Y25*%
%MOIN*%
G70*
G04*
G04 #@! TF.SameCoordinates,810A1A35-3EFD-48DE-86EF-F02317520920*
G04*
G04*
G04 #@! TF.FilePolarity,Positive*
G04*
G01*
G75*
%ADD79C,0.00200*%
G36*
X-24327Y149774D02*
X-26531D01*
Y151348D01*
X-24327D01*
Y149774D01*
D02*
G37*
G36*
X-36654Y149000D02*
X-40000D01*
Y150181D01*
X-36654D01*
Y149000D01*
D02*
G37*
G36*
X-49654D02*
X-53000D01*
Y150181D01*
X-49654D01*
Y149000D01*
D02*
G37*
G36*
X18740Y150440D02*
X19172Y150261D01*
X19504Y149931D01*
X19685Y149500D01*
X19687Y149266D01*
X19685Y149032D01*
X19504Y148601D01*
X19172Y148271D01*
X18739Y148093D01*
X18271Y148093D01*
X17839Y148271D01*
X17507Y148601D01*
X17326Y149032D01*
X17324Y149267D01*
X17324Y149267D01*
X17326Y149500D01*
X17507Y149932D01*
X17839Y150261D01*
X18272Y150440D01*
X18740Y150440D01*
D02*
G37*
G36*
X-946D02*
X-513Y150261D01*
X-181Y149931D01*
X0Y149500D01*
X1Y149266D01*
X-0Y149032D01*
X-181Y148601D01*
X-513Y148271D01*
X-946Y148093D01*
X-1414Y148093D01*
X-1846Y148271D01*
X-2178Y148601D01*
X-2359Y149032D01*
X-2361Y149267D01*
X-2361Y149267D01*
X-2359Y149500D01*
X-2178Y149932D01*
X-1846Y150261D01*
X-1413Y150440D01*
X-946Y150440D01*
D02*
G37*
G36*
X-17083Y146034D02*
X-19287D01*
Y147608D01*
X-17083D01*
Y146034D01*
D02*
G37*
G36*
X-36654Y144334D02*
X-36634Y144334D01*
X-36536Y144335D01*
X-36397Y144196D01*
X-36397Y144001D01*
X-36536Y143862D01*
X-36634Y143862D01*
X-36731Y143862D01*
X-36870Y144000D01*
X-36870Y144118D01*
X-40000D01*
Y145299D01*
X-36654D01*
Y144334D01*
D02*
G37*
G36*
X-49654D02*
X-49634Y144334D01*
X-49536Y144335D01*
X-49398Y144196D01*
X-49398Y144001D01*
X-49536Y143862D01*
X-49634Y143862D01*
X-49731Y143862D01*
X-49870Y144000D01*
X-49870Y144118D01*
X-53000D01*
Y145299D01*
X-49654D01*
Y144334D01*
D02*
G37*
G36*
X-24327Y142294D02*
X-26531D01*
Y143868D01*
X-24327D01*
Y142294D01*
D02*
G37*
G36*
X-26298Y141208D02*
X-26296Y141112D01*
X-26298Y141017D01*
X-26436Y140883D01*
X-26627Y140883D01*
X-26765Y141016D01*
X-26768Y141112D01*
X-26768Y141112D01*
X-26765Y141208D01*
X-26627Y141342D01*
X-26436Y141342D01*
X-26298Y141208D01*
D02*
G37*
G36*
X-84278Y139005D02*
X-86506Y136778D01*
X-87341Y137614D01*
X-85114Y139841D01*
X-84278Y139005D01*
D02*
G37*
G36*
X-80826Y135553D02*
X-80826Y135553D01*
X-80826D01*
X-80756Y135620D01*
X-80564Y135618D01*
X-80427Y135482D01*
X-80425Y135289D01*
X-80492Y135220D01*
X-80492D01*
X-80561Y135153D01*
X-80754Y135155D01*
X-80823Y135223D01*
X-82886Y133159D01*
X-83722Y133994D01*
X-81494Y136222D01*
X-80826Y135553D01*
D02*
G37*
G36*
X26497Y131766D02*
X26636Y131628D01*
X26636Y131530D01*
X26635Y131432D01*
X26497Y131294D01*
X26301Y131294D01*
X26163Y131432D01*
X26163Y131530D01*
X26163Y131628D01*
X26301Y131766D01*
X26497Y131766D01*
D02*
G37*
G36*
X-97970Y130101D02*
X-97970Y130101D01*
D01*
X-97970Y130101D01*
D02*
G37*
G36*
X-98161Y130289D02*
X-97970Y130101D01*
X-97970Y130101D01*
X-97782Y129910D01*
X-97581Y129413D01*
X-97584Y128877D01*
X-97790Y128383D01*
X-98169Y128004D01*
X-98664Y127797D01*
X-99199Y127795D01*
X-99696Y127996D01*
X-99888Y128183D01*
X-100075Y128374D01*
X-100276Y128871D01*
X-100273Y129407D01*
X-100067Y129901D01*
X-99688Y130280D01*
X-99194Y130487D01*
X-98658Y130490D01*
X-98161Y130289D01*
D02*
G37*
G36*
X-90899Y123030D02*
X-90899Y123030D01*
D01*
X-90899Y123030D01*
D02*
G37*
G36*
X-105041D02*
X-105041Y123030D01*
D01*
X-105041Y123030D01*
D02*
G37*
G36*
X-91090Y123217D02*
X-90899Y123030D01*
X-90899Y123030D01*
X-90711Y122839D01*
X-90510Y122342D01*
X-90513Y121806D01*
X-90719Y121312D01*
X-91098Y120933D01*
X-91593Y120726D01*
X-92128Y120723D01*
X-92625Y120924D01*
X-92816Y121112D01*
X-93004Y121303D01*
X-93205Y121800D01*
X-93202Y122336D01*
X-92996Y122830D01*
X-92617Y123209D01*
X-92123Y123416D01*
X-91587Y123418D01*
X-91090Y123217D01*
D02*
G37*
G36*
X-105233D02*
X-105041Y123030D01*
Y123030D01*
X-104854Y122839D01*
X-104652Y122342D01*
X-104655Y121806D01*
X-104861Y121312D01*
X-105240Y120933D01*
X-105735Y120726D01*
X-106271Y120723D01*
X-106767Y120924D01*
X-106958Y121112D01*
X-107146Y121303D01*
X-107347Y121800D01*
X-107344Y122336D01*
X-107138Y122830D01*
X-106759Y123209D01*
X-106265Y123416D01*
X-105729Y123418D01*
X-105233Y123217D01*
D02*
G37*
G36*
X-98161Y116146D02*
X-97970Y115959D01*
X-97970D01*
X-97782Y115768D01*
X-97581Y115271D01*
X-97584Y114735D01*
X-97790Y114241D01*
X-98169Y113862D01*
X-98664Y113655D01*
X-99199Y113652D01*
X-99696Y113854D01*
X-99888Y114041D01*
X-100075Y114232D01*
X-100276Y114729D01*
X-100273Y115265D01*
X-100067Y115759D01*
X-99688Y116138D01*
X-99194Y116344D01*
X-98658Y116347D01*
X-98161Y116146D01*
D02*
G37*
G36*
X-112304D02*
X-112112Y115959D01*
X-112112D01*
X-111925Y115768D01*
X-111723Y115271D01*
X-111726Y114735D01*
X-111933Y114241D01*
X-112311Y113862D01*
X-112806Y113655D01*
X-113341Y113652D01*
X-113838Y113854D01*
X-114030Y114041D01*
X-114217Y114232D01*
X-114418Y114729D01*
X-114416Y115265D01*
X-114209Y115759D01*
X-113830Y116138D01*
X-113336Y116344D01*
X-112800Y116347D01*
X-112304Y116146D01*
D02*
G37*
G36*
X-105041Y108888D02*
X-105041Y108888D01*
D01*
X-105041Y108888D01*
D02*
G37*
G36*
X-119375Y109075D02*
X-119183Y108888D01*
X-119183Y108888D01*
Y108888D01*
X-119183D01*
D01*
X-118996Y108696D01*
X-118795Y108200D01*
X-118797Y107664D01*
X-119003Y107170D01*
X-119382Y106791D01*
X-119877Y106584D01*
X-120413Y106581D01*
X-120909Y106782D01*
X-121101Y106970D01*
X-121288Y107161D01*
X-121489Y107658D01*
X-121487Y108194D01*
X-121280Y108688D01*
X-120902Y109067D01*
X-120407Y109273D01*
X-119871Y109276D01*
X-119375Y109075D01*
D02*
G37*
G36*
X-105233D02*
X-105041Y108888D01*
Y108888D01*
X-104854Y108696D01*
X-104652Y108200D01*
X-104655Y107664D01*
X-104861Y107170D01*
X-105240Y106791D01*
X-105735Y106584D01*
X-106271Y106581D01*
X-106767Y106782D01*
X-106958Y106970D01*
X-107146Y107161D01*
X-107347Y107658D01*
X-107344Y108194D01*
X-107138Y108688D01*
X-106759Y109067D01*
X-106265Y109273D01*
X-105729Y109276D01*
X-105233Y109075D01*
D02*
G37*
G36*
X-112112Y101817D02*
X-112112D01*
X-112112Y101817D01*
Y101817D01*
D02*
G37*
G36*
X-112304Y102004D02*
X-112112Y101817D01*
D01*
X-111925Y101625D01*
X-111723Y101129D01*
X-111726Y100593D01*
X-111933Y100099D01*
X-112311Y99720D01*
X-112806Y99513D01*
X-113341Y99510D01*
X-113838Y99711D01*
X-114030Y99899D01*
X-114217Y100090D01*
X-114418Y100587D01*
X-114416Y101122D01*
X-114209Y101617D01*
X-113830Y101996D01*
X-113336Y102202D01*
X-112800Y102205D01*
X-112304Y102004D01*
D02*
G37*
G36*
X-112904Y93388D02*
Y93388D01*
X-112837Y93319D01*
X-112839Y93126D01*
X-112975Y92989D01*
X-113168Y92987D01*
X-113238Y93054D01*
Y93054D01*
X-113304Y93123D01*
X-113303Y93316D01*
X-113166Y93453D01*
X-112974Y93455D01*
X-112904Y93388D01*
D02*
G37*
G36*
X-100077Y51240D02*
X-102282D01*
Y52815D01*
X-100077D01*
Y51240D01*
D02*
G37*
G36*
X-72109Y50466D02*
X-75455D01*
Y51648D01*
X-72109D01*
Y50466D01*
D02*
G37*
G36*
X-85109D02*
X-88455D01*
Y51648D01*
X-85109D01*
Y50466D01*
D02*
G37*
G36*
X-107322Y47500D02*
X-109526D01*
Y49075D01*
X-107322D01*
Y47500D01*
D02*
G37*
G36*
X-124443Y48995D02*
X-124111Y48665D01*
X-123929Y48234D01*
X-123928Y48000D01*
X-123928Y48000D01*
X-123929Y47766D01*
X-124110Y47335D01*
X-124442Y47005D01*
X-124875Y46826D01*
X-125343Y46826D01*
X-125775Y47005D01*
X-126107Y47334D01*
X-126289Y47766D01*
X-126290Y48000D01*
X-126289Y48234D01*
X-126108Y48665D01*
X-125776Y48995D01*
X-125343Y49173D01*
X-124875Y49173D01*
X-124443Y48995D01*
D02*
G37*
G36*
X-144128D02*
X-143796Y48665D01*
X-143614Y48234D01*
X-143613Y48000D01*
X-143613Y48000D01*
X-143614Y47766D01*
X-143795Y47335D01*
X-144127Y47005D01*
X-144560Y46826D01*
X-145028Y46826D01*
X-145460Y47005D01*
X-145792Y47334D01*
X-145974Y47766D01*
X-145975Y48000D01*
X-145974Y48234D01*
X-145792Y48665D01*
X-145461Y48995D01*
X-145028Y49173D01*
X-144560Y49173D01*
X-144128Y48995D01*
D02*
G37*
G36*
X-72109Y45584D02*
X-75239D01*
X-75239Y45467D01*
X-75378Y45328D01*
X-75476Y45328D01*
X-75573Y45329D01*
X-75712Y45467D01*
X-75712Y45663D01*
X-75573Y45801D01*
X-75475Y45801D01*
X-75455Y45801D01*
Y46766D01*
X-72109D01*
Y45584D01*
D02*
G37*
G36*
X-85109D02*
X-88239D01*
X-88239Y45467D01*
X-88378Y45328D01*
X-88476Y45328D01*
X-88573Y45329D01*
X-88712Y45467D01*
X-88712Y45663D01*
X-88573Y45801D01*
X-88475Y45801D01*
X-88455Y45801D01*
Y46766D01*
X-85109D01*
Y45584D01*
D02*
G37*
G36*
X-100077Y43760D02*
X-102282D01*
Y45335D01*
X-100077D01*
Y43760D01*
D02*
G37*
G36*
X-99981Y42808D02*
X-99844Y42674D01*
X-99841Y42579D01*
X-99841Y42579D01*
X-99844Y42483D01*
X-99982Y42349D01*
X-100173Y42349D01*
X-100311Y42483D01*
X-100313Y42579D01*
X-100311Y42675D01*
X-100173Y42808D01*
X-99981Y42808D01*
D02*
G37*
G36*
X-152452Y30362D02*
X-152452Y30264D01*
X-152452Y30166D01*
X-152590Y30027D01*
X-152786Y30027D01*
X-152924Y30166D01*
X-152924Y30264D01*
X-152924Y30362D01*
X-152786Y30500D01*
X-152590Y30500D01*
X-152452Y30362D01*
D02*
G37*
G36*
X-103004Y14134D02*
X-102869Y13996D01*
X-102869Y13804D01*
X-103004Y13666D01*
X-103100Y13664D01*
Y13664D01*
X-103100D01*
X-103100D01*
D01*
X-103196Y13666D01*
X-103331Y13803D01*
X-103331Y13996D01*
X-103197Y14134D01*
X-103100Y14136D01*
X-103004Y14134D01*
D02*
G37*
G36*
X-89425Y7969D02*
X-92575D01*
Y9150D01*
X-89425D01*
Y7969D01*
D02*
G37*
G36*
X-107497Y10002D02*
X-106998Y9504D01*
X-106728Y8853D01*
X-106728Y8148D01*
X-106998Y7497D01*
X-107496Y6998D01*
X-108148Y6728D01*
X-108500Y6728D01*
X-108853Y6728D01*
X-109504Y6998D01*
X-110002Y7496D01*
X-110272Y8147D01*
X-110272Y8852D01*
X-110003Y9504D01*
X-109504Y10002D01*
X-108853Y10272D01*
X-108500Y10272D01*
X-108148Y10272D01*
X-107497Y10002D01*
D02*
G37*
G36*
X-117497D02*
X-116998Y9504D01*
X-116728Y8853D01*
X-116728Y8148D01*
X-116998Y7497D01*
X-117496Y6998D01*
X-118148Y6728D01*
X-118500Y6728D01*
X-118852Y6728D01*
X-119504Y6998D01*
X-120002Y7496D01*
X-120272Y8147D01*
X-120272Y8852D01*
X-120002Y9504D01*
X-119504Y10002D01*
X-118853Y10272D01*
X-118500Y10272D01*
X-118148Y10272D01*
X-117497Y10002D01*
D02*
G37*
G36*
X-89425Y3086D02*
X-89425D01*
X-89425Y3086D01*
X-89329Y3084D01*
X-89194Y2947D01*
X-89193Y2754D01*
X-89328Y2616D01*
X-89425Y2614D01*
X-89425Y2614D01*
X-89521Y2616D01*
X-89656Y2754D01*
X-89656Y2850D01*
X-92575D01*
Y4031D01*
X-89425D01*
Y3086D01*
D02*
G37*
G36*
X-99503Y-38530D02*
X-99368Y-38668D01*
X-99368Y-38860D01*
X-99503Y-38998D01*
X-99599Y-39000D01*
X-99599D01*
Y-39000D01*
X-99695Y-38998D01*
X-99830Y-38861D01*
X-99831Y-38668D01*
X-99696Y-38530D01*
X-99599Y-38528D01*
X-99503Y-38530D01*
D02*
G37*
G36*
X-77748Y-40732D02*
X-74402D01*
Y-42701D01*
X-77788D01*
Y-42700D01*
X-79520D01*
Y-40732D01*
X-77748D01*
Y-40732D01*
D02*
G37*
G36*
X-96212Y-40733D02*
X-94480D01*
Y-42702D01*
X-96212D01*
Y-42702D01*
X-99598D01*
Y-40733D01*
X-96212D01*
Y-40733D01*
D02*
G37*
G36*
X-77748Y-55298D02*
X-74402D01*
Y-57267D01*
X-77788D01*
Y-57267D01*
X-79520D01*
Y-55298D01*
X-77748D01*
Y-55298D01*
D02*
G37*
G36*
X-96213Y-55299D02*
X-94480D01*
Y-57268D01*
X-99598D01*
Y-55299D01*
X-96213D01*
Y-55299D01*
D02*
G37*
G36*
X-113859Y-93321D02*
X-115884Y-95734D01*
X-118598Y-93456D01*
X-116574Y-91044D01*
X-113859Y-93321D01*
D02*
G37*
G36*
X-117402Y-97544D02*
X-119427Y-99956D01*
X-122141Y-97679D01*
X-120116Y-95266D01*
X-117402Y-97544D01*
D02*
G37*
G36*
X-104859Y-100321D02*
X-106884Y-102734D01*
X-109598Y-100456D01*
X-107573Y-98044D01*
X-104859Y-100321D01*
D02*
G37*
G36*
X-108402Y-104544D02*
X-110426Y-106956D01*
X-113141Y-104679D01*
X-111116Y-102266D01*
X-108402Y-104544D01*
D02*
G37*
G36*
X-55359Y-109821D02*
X-57384Y-112234D01*
X-60098Y-109956D01*
X-58074Y-107544D01*
X-55359Y-109821D01*
D02*
G37*
G36*
X-58902Y-114044D02*
X-60927Y-116456D01*
X-63641Y-114179D01*
X-61616Y-111766D01*
X-58902Y-114044D01*
D02*
G37*
G36*
X12307Y-119167D02*
X12307D01*
Y-120053D01*
X10693Y-120053D01*
X10693Y-119167D01*
D01*
Y-119133D01*
Y-119128D01*
D01*
X10693Y-115880D01*
X12307D01*
Y-119167D01*
D02*
G37*
G36*
X-7693Y-115880D02*
X-7693Y-119167D01*
X-7693D01*
Y-120053D01*
X-9307Y-120053D01*
X-9307Y-119128D01*
X-9307D01*
X-9307Y-115880D01*
X-7693Y-115880D01*
D02*
G37*
G36*
X-12693Y-119167D02*
X-12693D01*
Y-120053D01*
X-14307Y-120053D01*
X-14307Y-119167D01*
X-14307D01*
X-14307Y-115880D01*
X-12693Y-115880D01*
X-12693Y-119167D01*
D02*
G37*
G36*
X-46859Y-117321D02*
X-48884Y-119734D01*
X-51598Y-117456D01*
X-49573Y-115044D01*
X-46859Y-117321D01*
D02*
G37*
G36*
X7307Y-119128D02*
X7307D01*
Y-120053D01*
X5693D01*
Y-119128D01*
X5693D01*
X5693Y-115880D01*
X7307Y-115880D01*
X7307Y-119128D01*
D02*
G37*
G36*
X2307Y-115880D02*
X2307Y-119128D01*
X2307D01*
X2307Y-120053D01*
X693D01*
X693Y-119128D01*
Y-115880D01*
X2307Y-115880D01*
D02*
G37*
G36*
X-17693Y-115880D02*
X-17693Y-119128D01*
X-17693D01*
X-17693Y-120053D01*
X-19307Y-120053D01*
Y-119167D01*
Y-119128D01*
Y-115880D01*
X-17693Y-115880D01*
D02*
G37*
G36*
X17307Y-119128D02*
X17307D01*
X17307Y-120053D01*
X15693D01*
Y-119167D01*
X15693D01*
X15693Y-115880D01*
X17307D01*
X17307Y-119128D01*
D02*
G37*
G36*
X-2693Y-119128D02*
X-2693D01*
X-2693Y-120053D01*
X-4307Y-120053D01*
Y-119167D01*
X-4307D01*
X-4307Y-115880D01*
X-2693Y-115880D01*
X-2693Y-119128D01*
D02*
G37*
G36*
X-91600Y-110664D02*
X-100457Y-121220D01*
X-107092Y-115652D01*
X-98235Y-105096D01*
X-91600Y-110664D01*
D02*
G37*
G36*
X-30228Y-123819D02*
X-33772D01*
Y-120669D01*
X-30228D01*
Y-123819D01*
D02*
G37*
G36*
X-50402Y-121544D02*
X-52426Y-123956D01*
X-55141Y-121679D01*
X-53116Y-119266D01*
X-50402Y-121544D01*
D02*
G37*
G36*
X-70124Y-123030D02*
X-72908Y-126348D01*
X-79543Y-120780D01*
X-76759Y-117463D01*
X-70124Y-123030D01*
D02*
G37*
G36*
X-62119Y-128104D02*
Y-128104D01*
X-62046Y-128167D01*
X-62031Y-128359D01*
X-62155Y-128507D01*
X-62347Y-128526D01*
X-62422Y-128466D01*
X-62494Y-128402D01*
X-62509Y-128210D01*
X-62385Y-128062D01*
X-62194Y-128043D01*
X-62119Y-128104D01*
D02*
G37*
G36*
X-30228Y-129331D02*
X-33772D01*
Y-126181D01*
X-30228D01*
Y-129331D01*
D02*
G37*
G36*
X-75945Y-129967D02*
X-78729Y-133284D01*
X-85364Y-127717D01*
X-82580Y-124399D01*
X-75945Y-129967D01*
D02*
G37*
G36*
X-12693Y-135329D02*
X-12693Y-136215D01*
D01*
Y-136249D01*
Y-136254D01*
D01*
X-12693Y-139502D01*
X-14307D01*
Y-136215D01*
X-14307D01*
Y-135329D01*
X-12693Y-135329D01*
D02*
G37*
G36*
X7307Y-136254D02*
X7307D01*
X7307Y-139502D01*
X5693Y-139502D01*
X5693Y-136215D01*
X5693D01*
Y-135329D01*
X7307Y-135329D01*
X7307Y-136254D01*
D02*
G37*
G36*
X12307Y-136215D02*
X12307D01*
X12307Y-139502D01*
X10693Y-139502D01*
X10693Y-136215D01*
X10693D01*
Y-135329D01*
X12307Y-135329D01*
X12307Y-136215D01*
D02*
G37*
G36*
X-56163Y-133409D02*
X-59048Y-136847D01*
X-63421Y-133178D01*
X-60536Y-129739D01*
X-56163Y-133409D01*
D02*
G37*
G36*
X17307Y-136215D02*
Y-139502D01*
X15693Y-139502D01*
X15693Y-136254D01*
X15693D01*
X15693Y-135329D01*
X17307Y-135329D01*
Y-136215D01*
D02*
G37*
G36*
X-7693Y-136254D02*
X-7693D01*
X-7693Y-139502D01*
X-9307Y-139502D01*
X-9307Y-136254D01*
X-9307D01*
Y-135329D01*
X-7693D01*
Y-136254D01*
D02*
G37*
G36*
X-17693Y-136215D02*
X-17693D01*
X-17693Y-139502D01*
X-19307D01*
X-19307Y-136254D01*
X-19307D01*
X-19307Y-135329D01*
X-17693D01*
Y-136215D01*
D02*
G37*
G36*
X2307Y-135329D02*
Y-136215D01*
X2307D01*
X2307Y-139502D01*
X693Y-139502D01*
X693Y-136254D01*
X693D01*
X693Y-135329D01*
X2307Y-135329D01*
D02*
G37*
G36*
X-2693Y-136254D02*
Y-139502D01*
X-4307Y-139502D01*
X-4307Y-136254D01*
X-4307D01*
X-4307Y-135329D01*
X-2693D01*
X-2693Y-136254D01*
D02*
G37*
G36*
X-81765Y-136904D02*
X-84549Y-140221D01*
X-91184Y-134654D01*
X-88401Y-131336D01*
X-81765Y-136904D01*
D02*
G37*
G36*
X-20589Y-139859D02*
X-20454Y-139997D01*
X-20453Y-140189D01*
X-20588Y-140327D01*
X-20685Y-140329D01*
X-20781Y-140327D01*
X-20916Y-140190D01*
X-20916Y-139997D01*
X-20781Y-139859D01*
X-20685Y-139857D01*
X-20685Y-139857D01*
X-20589Y-139859D01*
D02*
G37*
G36*
X-66579Y-145822D02*
X-69464Y-149260D01*
X-73837Y-145591D01*
X-70952Y-142153D01*
X-66579Y-145822D01*
D02*
G37*
G36*
X82515Y-148233D02*
X83074Y-148662D01*
X83427Y-149273D01*
X83519Y-149971D01*
X83337Y-150652D01*
X82907Y-151212D01*
X82602Y-151388D01*
X82297Y-151564D01*
X81598Y-151656D01*
X80917Y-151474D01*
X80358Y-151045D01*
X80005Y-150434D01*
X79913Y-149735D01*
X80096Y-149055D01*
X80525Y-148495D01*
X80830Y-148319D01*
X81135Y-148143D01*
X81834Y-148051D01*
X82515Y-148233D01*
D02*
G37*
G36*
X-19365Y-153090D02*
X-19363Y-153186D01*
X-19363Y-153186D01*
X-19365Y-153282D01*
X-19502Y-153417D01*
X-19695Y-153418D01*
X-19833Y-153283D01*
X-19835Y-153186D01*
X-19835Y-153186D01*
X-19833Y-153090D01*
X-19695Y-152955D01*
X-19503Y-152955D01*
X-19365Y-153090D01*
D02*
G37*
G36*
X11265Y-155154D02*
X10478D01*
Y-153186D01*
X11265D01*
Y-155154D01*
D02*
G37*
G36*
X10402D02*
X9614D01*
Y-153186D01*
X10402D01*
Y-155154D01*
D02*
G37*
G36*
X5284D02*
X4496D01*
Y-153186D01*
X5284D01*
Y-155154D01*
D02*
G37*
G36*
X3315D02*
X2527D01*
Y-153186D01*
X3315D01*
Y-155154D01*
D02*
G37*
G36*
X1347D02*
X559D01*
Y-153186D01*
X1347D01*
Y-155154D01*
D02*
G37*
G36*
X-622D02*
X-1410D01*
Y-153186D01*
X-622D01*
Y-155154D01*
D02*
G37*
G36*
X-2590D02*
X-3378D01*
Y-153186D01*
X-2590D01*
Y-155154D01*
D02*
G37*
G36*
X-4559D02*
X-5347D01*
Y-153186D01*
X-4559D01*
Y-155154D01*
D02*
G37*
G36*
X-6527D02*
X-7315D01*
Y-153186D01*
X-6527D01*
Y-155154D01*
D02*
G37*
G36*
X-8496D02*
X-9284D01*
Y-153186D01*
X-8496D01*
Y-155154D01*
D02*
G37*
G36*
X-10464D02*
X-11252D01*
Y-153186D01*
X-10464D01*
Y-155154D01*
D02*
G37*
G36*
X-13614D02*
X-14402D01*
Y-153186D01*
X-13614D01*
Y-155154D01*
D02*
G37*
G36*
X-14480D02*
X-15268D01*
Y-153186D01*
X-14480D01*
Y-155154D01*
D02*
G37*
G36*
X-11329Y-155155D02*
X-12117D01*
Y-153187D01*
X-11329D01*
Y-155155D01*
D02*
G37*
G36*
X8118Y-155157D02*
X7331D01*
Y-153188D01*
X8118D01*
Y-155157D01*
D02*
G37*
G36*
X7252D02*
X6464D01*
Y-153188D01*
X7252D01*
Y-155157D01*
D02*
G37*
G36*
X73855Y-153233D02*
X74414Y-153662D01*
X74767Y-154272D01*
X74859Y-154971D01*
X74676Y-155652D01*
X74247Y-156212D01*
X73942Y-156388D01*
X73637Y-156564D01*
X72938Y-156656D01*
X72257Y-156474D01*
X71698Y-156045D01*
X71345Y-155434D01*
X71253Y-154735D01*
X71435Y-154054D01*
X71864Y-153495D01*
X72170Y-153319D01*
X72475Y-153143D01*
X73174Y-153051D01*
X73855Y-153233D01*
D02*
G37*
G36*
X15599Y-158549D02*
X14417D01*
Y-154218D01*
X15599D01*
Y-158549D01*
D02*
G37*
G36*
X-18417D02*
X-19599D01*
Y-154218D01*
X-18417D01*
Y-158549D01*
D02*
G37*
G36*
X71231Y-162031D02*
X71328Y-162197D01*
X71280Y-162384D01*
X71197Y-162434D01*
X71113Y-162481D01*
X70927Y-162429D01*
X70831Y-162262D01*
X70879Y-162075D01*
X70961Y-162025D01*
X70961Y-162025D01*
X70961Y-162025D01*
X71046Y-161979D01*
X71231Y-162031D01*
D02*
G37*
G36*
X44521Y-162616D02*
X44656Y-162753D01*
X44656Y-162850D01*
X47575Y-162850D01*
Y-164032D01*
X44425D01*
X44425Y-163086D01*
X44425D01*
X44425Y-163086D01*
X44329Y-163084D01*
X44194Y-162947D01*
X44194Y-162754D01*
X44328Y-162616D01*
X44425Y-162614D01*
X44425Y-162614D01*
X44521Y-162616D01*
D02*
G37*
G36*
X-33425Y-165032D02*
X-36575D01*
Y-163850D01*
X-33425D01*
Y-165032D01*
D02*
G37*
G36*
X-48479Y-163616D02*
X-48344Y-163753D01*
X-48344Y-163850D01*
X-45425D01*
Y-165032D01*
X-48575D01*
Y-164086D01*
X-48575D01*
X-48575Y-164086D01*
X-48671Y-164084D01*
X-48806Y-163947D01*
X-48807Y-163754D01*
X-48672Y-163616D01*
X-48575Y-163614D01*
X-48575Y-163614D01*
X-48479Y-163616D01*
D02*
G37*
G36*
X34960Y-164563D02*
X34960Y-165941D01*
X30039D01*
X30039Y-164563D01*
X34960Y-164563D01*
D02*
G37*
G36*
X47575Y-169150D02*
X44425Y-169150D01*
Y-167968D01*
X47575D01*
X47575Y-169150D01*
D02*
G37*
G36*
X-45425Y-170150D02*
X-48575D01*
Y-168968D01*
X-45425D01*
Y-170150D01*
D02*
G37*
G36*
X-33425Y-169914D02*
X-33425D01*
X-33425Y-169914D01*
X-33329Y-169916D01*
X-33194Y-170053D01*
X-33193Y-170246D01*
X-33328Y-170384D01*
X-33425Y-170386D01*
X-33425Y-170386D01*
X-33521Y-170384D01*
X-33656Y-170247D01*
X-33656Y-170150D01*
X-36575D01*
Y-168968D01*
X-33425D01*
Y-169914D01*
D02*
G37*
G36*
X34960Y-172437D02*
X30270Y-172437D01*
X30270Y-172533D01*
X30136Y-172671D01*
X30039Y-172673D01*
X29943Y-172671D01*
X29808Y-172534D01*
X29808Y-172341D01*
X29943Y-172203D01*
X30039Y-172201D01*
X30039Y-171059D01*
X34960D01*
X34960Y-172437D01*
D02*
G37*
G36*
X30039Y-172673D02*
X30039D01*
X30039D01*
X30039D01*
D02*
G37*
G36*
X15599Y-174415D02*
X14417D01*
Y-171266D01*
X15599D01*
Y-174415D01*
D02*
G37*
G36*
X-18417D02*
X-19599D01*
Y-171266D01*
X-18417D01*
Y-174415D01*
D02*
G37*
D79*
X-9073Y149267D02*
G03*
X26399Y149267I17736J0D01*
G01*
D02*
G03*
X-9073Y149267I-17736J0D01*
G01*
X-152688Y48000D02*
G03*
X-117215Y48000I17736J0D01*
G01*
D02*
G03*
X-152688Y48000I-17736J0D01*
G01*
X-63606Y-129877D02*
X-55765Y-136456D01*
X-66394Y-149123D02*
X-55765Y-136456D01*
X-74235Y-142544D02*
X-66394Y-149123D01*
X-74235Y-142544D02*
X-63606Y-129877D01*
X-20488Y-135368D02*
X-20488Y-120014D01*
X18488Y-120014D01*
Y-135368D02*
Y-120014D01*
X-20488Y-135368D02*
X18488D01*
X65679Y-152877D02*
X71079Y-162230D01*
X89092Y-151830D01*
X83692Y-142477D02*
X89092Y-151830D01*
X65679Y-152877D02*
X83692Y-142477D01*
X-19598Y-183028D02*
X15599D01*
Y-154091D01*
X-19598D02*
X15599D01*
X-19598Y-183028D02*
Y-154091D01*
X-24366Y141112D02*
X-19248D01*
X-24366D02*
Y152530D01*
X-19248D01*
Y141112D02*
Y152530D01*
X-52980Y144098D02*
Y150201D01*
X-49634D01*
Y144098D02*
Y150201D01*
X-52980Y144098D02*
X-49634D01*
X-39980D02*
X-36634D01*
Y150201D01*
X-39980D02*
X-36634D01*
X-39980Y144098D02*
Y150201D01*
X-127779Y107929D02*
X-98929Y136779D01*
X-84221Y122071D01*
X-113071Y93221D02*
X-84221Y122071D01*
X-127779Y107929D02*
X-113071Y93221D01*
X-92512Y-38764D02*
X-81488D01*
X-76764Y-43488D01*
Y-54512D02*
Y-43488D01*
X-81488Y-59236D02*
X-76764Y-54512D01*
X-92512Y-59236D02*
X-81488D01*
X-97236Y-54512D02*
X-92512Y-59236D01*
X-97236Y-54512D02*
Y-43488D01*
X-92512Y-38764D01*
X-33425Y-170150D02*
Y-163850D01*
X-36575D02*
X-33425D01*
X-36575Y-170150D02*
Y-163850D01*
Y-170150D02*
X-33425D01*
X-85114Y139841D02*
X-80659Y135386D01*
X-87341Y137614D02*
X-85114Y139841D01*
X-87341Y137614D02*
X-82886Y133159D01*
X-80659Y135386D01*
X-72129Y45565D02*
Y51667D01*
X-75475D02*
X-72129D01*
X-75475Y45565D02*
Y51667D01*
Y45565D02*
X-72129D01*
X-107361Y42579D02*
Y53996D01*
X-102243D01*
Y42579D02*
Y53996D01*
X-107361Y42579D02*
X-102243D01*
X-48575Y-170150D02*
Y-163850D01*
Y-170150D02*
X-45425D01*
Y-163850D01*
X-48575D02*
X-45425D01*
X-35341Y-131006D02*
X-28729D01*
Y-119000D01*
X-35341D02*
X-28729D01*
X-35341Y-131006D02*
Y-119000D01*
X44425Y-169150D02*
Y-162850D01*
Y-169150D02*
X47575D01*
Y-162850D01*
X44425D02*
X47575D01*
X34961Y-172437D02*
Y-164563D01*
X30039D02*
X34961D01*
X30039Y-172437D02*
Y-164563D01*
Y-172437D02*
X34961D01*
X-124420Y-97953D02*
X-119355Y-102203D01*
X-111637Y-93006D01*
X-116703Y-88756D02*
X-111637Y-93006D01*
X-124420Y-97953D02*
X-116703Y-88756D01*
X-115420Y-104953D02*
X-110355Y-109203D01*
X-102637Y-100006D01*
X-107703Y-95756D02*
X-102637Y-100006D01*
X-115420Y-104953D02*
X-107703Y-95756D01*
X-58145Y-105297D02*
X-53080Y-109547D01*
X-65862Y-114494D02*
X-58145Y-105297D01*
X-65862Y-114494D02*
X-60797Y-118744D01*
X-53080Y-109547D01*
X-111969Y-121464D02*
X-93358Y-99285D01*
X-111969Y-121464D02*
X-86589Y-142760D01*
X-67979Y-120581D01*
X-93358Y-99285D02*
X-67979Y-120581D01*
X-88475Y45565D02*
X-85128D01*
X-88475D02*
Y51667D01*
X-85128D01*
Y45565D02*
Y51667D01*
X-123900Y3100D02*
X-103100D01*
X-123900D02*
Y13900D01*
X-103100D01*
Y3100D02*
Y13900D01*
X-92575Y2850D02*
X-89425D01*
X-92575D02*
Y9150D01*
X-89425D01*
Y2850D02*
Y9150D01*
X-52297Y-126244D02*
X-44580Y-117047D01*
X-57362Y-121994D02*
X-52297Y-126244D01*
X-57362Y-121994D02*
X-49645Y-112797D01*
X-44580Y-117047D01*
M02*
