M48
;Layer_Color=9474304
;FILE_FORMAT=2:5
INCH,TZ
;TYPE=PLATED
T01F00S00C0.02362
T03F00S00C0.02800
T04F00S00C0.03150
T05F00S00C0.03500
T06F00S00C0.03937
T07F00S00C0.04331
%
T01
X-144071Y-85919
X-146571Y-81589
X-149071Y-77259
X-151571Y-72929
X-165543Y-18000
Y-13000
Y-8000
Y-3000
X64045Y154464
X68375Y151964
X72705Y149464
X77036Y146964
T03
X1800Y-131200
T04
X104980Y-131291
X111927Y-124097
X118873Y-116904
X17000Y-81000
Y-71000
Y-61000
Y-51000
Y-41000
Y-31000
Y-21000
Y-11000
Y-1000
Y9000
X-43000
Y-1000
Y-11000
Y-21000
Y-31000
Y-41000
Y-51000
Y-61000
Y-71000
Y-81000
Y19000
Y29000
Y39000
Y49000
Y59000
Y69000
Y79000
Y89000
Y99000
Y109000
X17000
Y99000
Y89000
Y79000
Y69000
Y59000
Y49000
Y39000
Y29000
Y19000
T05
X-113071Y100858
X-106000Y107929
X-113071Y115000
X-98929
X-106000Y122071
X-91858
X-98929Y129142
X-120142Y107929
T06
X-144795Y48000
X-125110
X-1179Y149266
X18507
T07
X73056Y-154853
X81716Y-149853
X-108500Y8500
X-118500
M30
