G04*
G04 #@! TF.GenerationSoftware,Altium Limited,Altium Designer,24.6.1 (21)*
G04*
G04 Layer_Physical_Order=1*
G04 Layer_Color=255*
%FSLAX25Y25*%
%MOIN*%
G70*
G04*
G04 #@! TF.SameCoordinates,810A1A35-3EFD-48DE-86EF-F02317520920*
G04*
G04*
G04 #@! TF.FilePolarity,Positive*
G04*
G01*
G75*
%ADD11C,0.01000*%
G04:AMPARAMS|DCode=17|XSize=86.61mil|YSize=66.93mil|CornerRadius=0mil|HoleSize=0mil|Usage=FLASHONLY|Rotation=230.000|XOffset=0mil|YOffset=0mil|HoleType=Round|Shape=Rectangle|*
%AMROTATEDRECTD17*
4,1,4,0.00220,0.05469,0.05347,0.01167,-0.00220,-0.05469,-0.05347,-0.01167,0.00220,0.05469,0.0*
%
%ADD17ROTATEDRECTD17*%

%ADD18O,0.02205X0.06870*%
%ADD19R,0.03937X0.03150*%
%ADD20R,0.03937X0.02953*%
%ADD21R,0.07087X0.04331*%
G04:AMPARAMS|DCode=22|XSize=137.8mil|YSize=86.61mil|CornerRadius=0mil|HoleSize=0mil|Usage=FLASHONLY|Rotation=50.000|XOffset=0mil|YOffset=0mil|HoleType=Round|Shape=Rectangle|*
%AMROTATEDRECTD22*
4,1,4,-0.01111,-0.08062,-0.07746,-0.02494,0.01111,0.08062,0.07746,0.02494,-0.01111,-0.08062,0.0*
%
%ADD22ROTATEDRECTD22*%

G04:AMPARAMS|DCode=23|XSize=43.31mil|YSize=86.61mil|CornerRadius=0mil|HoleSize=0mil|Usage=FLASHONLY|Rotation=50.000|XOffset=0mil|YOffset=0mil|HoleType=Round|Shape=Rectangle|*
%AMROTATEDRECTD23*
4,1,4,0.01926,-0.04443,-0.04709,0.01125,-0.01926,0.04443,0.04709,-0.01125,0.01926,-0.04443,0.0*
%
%ADD23ROTATEDRECTD23*%

G04:AMPARAMS|DCode=24|XSize=31.5mil|YSize=35.43mil|CornerRadius=0mil|HoleSize=0mil|Usage=FLASHONLY|Rotation=50.000|XOffset=0mil|YOffset=0mil|HoleType=Round|Shape=Rectangle|*
%AMROTATEDRECTD24*
4,1,4,0.00345,-0.02345,-0.02369,-0.00068,-0.00345,0.02345,0.02369,0.00068,0.00345,-0.02345,0.0*
%
%ADD24ROTATEDRECTD24*%

%ADD25R,0.03543X0.03150*%
%ADD26R,0.04921X0.03937*%
%ADD57R,0.01181X0.04528*%
%ADD58R,0.03402X0.03175*%
G04:AMPARAMS|DCode=59|XSize=31.75mil|YSize=34.02mil|CornerRadius=0mil|HoleSize=0mil|Usage=FLASHONLY|Rotation=135.000|XOffset=0mil|YOffset=0mil|HoleType=Round|Shape=Rectangle|*
%AMROTATEDRECTD59*
4,1,4,0.02325,0.00080,-0.00080,-0.02325,-0.02325,-0.00080,0.00080,0.02325,0.02325,0.00080,0.0*
%
%ADD59ROTATEDRECTD59*%

%ADD60C,0.01800*%
G04:AMPARAMS|DCode=61|XSize=66.93mil|YSize=62mil|CornerRadius=0mil|HoleSize=0mil|Usage=FLASHONLY|Rotation=30.000|XOffset=0mil|YOffset=0mil|HoleType=Round|Shape=Rectangle|*
%AMROTATEDRECTD61*
4,1,4,-0.01348,-0.04358,-0.04448,0.01011,0.01348,0.04358,0.04448,-0.01011,-0.01348,-0.04358,0.0*
%
%ADD61ROTATEDRECTD61*%

%ADD62C,0.06693*%
%ADD63C,0.05906*%
%ADD64P,0.08352X4X91.0*%
%ADD65O,0.03937X0.08268*%
%ADD66O,0.03937X0.07087*%
%ADD67C,0.07087*%
%ADD68R,0.03937X0.03937*%
%ADD69C,0.03937*%
%ADD70P,0.05568X4X345.0*%
%ADD71P,0.05568X4X195.0*%
%ADD72P,0.08768X4X90.0*%
%ADD73C,0.06200*%
%ADD74R,0.05906X0.05906*%
%ADD75R,0.06693X0.06200*%
%ADD76C,0.05000*%
G36*
X-41276Y150602D02*
X-38307D01*
Y149602D01*
X-41276D01*
Y147626D01*
X-41276D01*
Y147226D01*
X-42383Y145726D01*
X-47231D01*
X-48338Y146673D01*
Y147626D01*
X-48338D01*
X-48338Y148173D01*
Y150863D01*
X-41276D01*
Y150602D01*
D02*
G37*
G36*
X-117852Y-91011D02*
X-120007Y-93580D01*
D01*
X-120971Y-94729D01*
X-121764Y-95674D01*
X-131577D01*
X-141103Y-86148D01*
Y-85528D01*
X-141276Y-84883D01*
X-143821Y-86352D01*
X-144321Y-85486D01*
X-141776Y-84017D01*
X-142248Y-83544D01*
X-142925Y-83153D01*
X-143668Y-82800D01*
X-143603Y-81980D01*
Y-81198D01*
X-143805Y-80443D01*
X-144196Y-79766D01*
X-144748Y-79214D01*
X-145425Y-78823D01*
X-146168Y-78470D01*
X-146103Y-77650D01*
Y-76868D01*
X-146305Y-76113D01*
X-146395Y-75958D01*
X-145761Y-74601D01*
X-145601Y-74458D01*
X-134405D01*
X-117852Y-91011D01*
D02*
G37*
G36*
X-119388Y-97933D02*
X-121043Y-99905D01*
X-119303Y-101365D01*
X-119303D01*
X-117849Y-101302D01*
X-114458Y-104693D01*
X-114550Y-104802D01*
X-113301Y-105850D01*
X-113170Y-105981D01*
X-113046Y-106064D01*
X-112709Y-106347D01*
Y-117365D01*
X-114209Y-117986D01*
X-131146Y-101048D01*
X-130525Y-99548D01*
X-122050D01*
X-120154Y-97290D01*
X-119388Y-97933D01*
D02*
G37*
G36*
X-82989Y-123332D02*
X-86772Y-127840D01*
X-82184Y-131691D01*
Y-133473D01*
X-83543Y-134106D01*
X-84057Y-133675D01*
X-86092Y-136100D01*
X-88126Y-138525D01*
X-87845Y-138761D01*
X-88358Y-140171D01*
X-108266D01*
X-112571Y-135866D01*
Y-131411D01*
X-111071Y-130790D01*
X-104712Y-137148D01*
X-104083Y-137568D01*
X-103342Y-137716D01*
X-89090D01*
X-88892Y-137882D01*
X-87179Y-135840D01*
X-90879Y-132735D01*
X-91808Y-133841D01*
X-102540D01*
X-108834Y-127547D01*
Y-117454D01*
X-107334Y-116754D01*
X-100334Y-122628D01*
X-93670Y-114687D01*
X-91633D01*
X-82989Y-123332D01*
D02*
G37*
G36*
X12042Y183718D02*
X20044Y183017D01*
X28008Y181969D01*
X35918Y180574D01*
X43761Y178835D01*
X51520Y176756D01*
X59181Y174341D01*
X66729Y171594D01*
X74150Y168520D01*
X81431Y165125D01*
X88556Y161416D01*
X95512Y157399D01*
X102287Y153083D01*
X108867Y148476D01*
X115240Y143586D01*
X121393Y138423D01*
X127316Y132996D01*
X132996Y127316D01*
X138423Y121393D01*
X143586Y115240D01*
X148476Y108867D01*
X153083Y102287D01*
X157399Y95512D01*
X161416Y88556D01*
X165125Y81431D01*
X168520Y74150D01*
X171594Y66729D01*
X174341Y59181D01*
X176756Y51520D01*
X178835Y43761D01*
X180574Y35918D01*
X181969Y28008D01*
X183017Y20044D01*
X183718Y12042D01*
X184068Y4016D01*
Y0D01*
Y-4016D01*
X183718Y-12042D01*
X183017Y-20044D01*
X181969Y-28008D01*
X180574Y-35918D01*
X178835Y-43761D01*
X176756Y-51520D01*
X174341Y-59181D01*
X171594Y-66729D01*
X168520Y-74150D01*
X165125Y-81431D01*
X161416Y-88556D01*
X157399Y-95512D01*
X153083Y-102287D01*
X148476Y-108867D01*
X143586Y-115240D01*
X138423Y-121393D01*
X132996Y-127316D01*
X127316Y-132996D01*
X121393Y-138423D01*
X115240Y-143586D01*
X108867Y-148476D01*
X102287Y-153083D01*
X95512Y-157399D01*
X88556Y-161416D01*
X81431Y-165125D01*
X74150Y-168520D01*
X66729Y-171594D01*
X59181Y-174341D01*
X51520Y-176756D01*
X43761Y-178835D01*
X35918Y-180574D01*
X28008Y-181969D01*
X20044Y-183017D01*
X12042Y-183718D01*
X4016Y-184068D01*
X-4016D01*
X-12042Y-183718D01*
X-20044Y-183017D01*
X-26789Y-182129D01*
X-26691Y-180629D01*
X-10100D01*
X-9515Y-180513D01*
X-9019Y-180181D01*
X5971Y-165191D01*
X6303Y-164695D01*
X6419Y-164110D01*
Y-159899D01*
X7490Y-159458D01*
X7883Y-159402D01*
X7924Y-159499D01*
X8283Y-159851D01*
X8382Y-159891D01*
X8457Y-159966D01*
X8923Y-160155D01*
X9029Y-160155D01*
X9127Y-160196D01*
X9630Y-160196D01*
X9728Y-160155D01*
X9834Y-160155D01*
X10300Y-159965D01*
X10375Y-159890D01*
X10474Y-159851D01*
X10695Y-159634D01*
X10831Y-159604D01*
X11774Y-159653D01*
X12346Y-159879D01*
X12415Y-160046D01*
X12891Y-160667D01*
X13071Y-160805D01*
Y-169011D01*
X12891Y-169149D01*
X12415Y-169769D01*
X12116Y-170491D01*
X12014Y-171266D01*
Y-172341D01*
X15008D01*
Y-172841D01*
X15508D01*
Y-177344D01*
X15783Y-177308D01*
X16505Y-177009D01*
X17125Y-176533D01*
X17601Y-175913D01*
X17900Y-175191D01*
X17954Y-174778D01*
X23700D01*
X23750Y-174768D01*
X29039D01*
Y-175800D01*
X32000D01*
Y-172831D01*
Y-169862D01*
X29039D01*
Y-170894D01*
X23710D01*
X23660Y-170904D01*
X17954D01*
X17900Y-170491D01*
X17601Y-169769D01*
X17125Y-169149D01*
X16945Y-169011D01*
Y-160805D01*
X17125Y-160667D01*
X17601Y-160046D01*
X17900Y-159324D01*
X18002Y-158549D01*
Y-156884D01*
X15008D01*
Y-156384D01*
X14508D01*
Y-151290D01*
X14280Y-151320D01*
X14222Y-151323D01*
X12779Y-150895D01*
Y-150895D01*
X11332D01*
X10029Y-149939D01*
Y-144545D01*
X11500Y-143476D01*
X12320Y-143313D01*
X13016Y-142848D01*
X13167Y-142622D01*
X13278Y-142584D01*
X14722D01*
X14833Y-142622D01*
X14985Y-142848D01*
X15680Y-143313D01*
X16500Y-143476D01*
X17321Y-143313D01*
X18016Y-142848D01*
X18481Y-142153D01*
X18644Y-141333D01*
Y-136667D01*
X18481Y-135847D01*
X18016Y-135152D01*
X17321Y-134687D01*
X16500Y-134524D01*
X15680Y-134687D01*
X14985Y-135152D01*
X14833Y-135378D01*
X14722Y-135416D01*
X13278D01*
X13167Y-135378D01*
X13016Y-135152D01*
X12320Y-134687D01*
X11500Y-134524D01*
X10029Y-133455D01*
Y-132500D01*
X9913Y-131915D01*
X9581Y-131419D01*
X4781Y-126619D01*
X4285Y-126287D01*
X3700Y-126171D01*
X-3623D01*
X-4023Y-126171D01*
X-4971Y-124862D01*
Y-121927D01*
X-3500Y-120858D01*
X-2680Y-120695D01*
X-1984Y-120231D01*
X-1833Y-120005D01*
X-1722Y-119966D01*
X-278D01*
X-167Y-120005D01*
X-16Y-120231D01*
X680Y-120695D01*
X1500Y-120858D01*
X2320Y-120695D01*
X3016Y-120231D01*
X3167Y-120005D01*
X3278Y-119966D01*
X4722D01*
X4833Y-120005D01*
X4984Y-120231D01*
X5680Y-120695D01*
X6500Y-120858D01*
X7320Y-120695D01*
X8016Y-120231D01*
X8167Y-120005D01*
X8278Y-119966D01*
X9722D01*
X9833Y-120005D01*
X9984Y-120231D01*
X10680Y-120695D01*
X11500Y-120858D01*
X12320Y-120695D01*
X13016Y-120231D01*
X13167Y-120005D01*
X13278Y-119966D01*
X14722D01*
X14833Y-120005D01*
X14984Y-120231D01*
X15680Y-120695D01*
X16500Y-120858D01*
X17320Y-120695D01*
X18016Y-120231D01*
X18480Y-119535D01*
X18643Y-118715D01*
Y-114049D01*
X18480Y-113229D01*
X18016Y-112534D01*
X17320Y-112069D01*
X16500Y-111906D01*
X15680Y-112069D01*
X14984Y-112534D01*
X14833Y-112760D01*
X14722Y-112798D01*
X13278D01*
X13167Y-112760D01*
X13016Y-112534D01*
X12320Y-112069D01*
X11500Y-111906D01*
X10680Y-112069D01*
X9984Y-112534D01*
X9833Y-112760D01*
X9722Y-112798D01*
X8278D01*
X8167Y-112760D01*
X8016Y-112534D01*
X7320Y-112069D01*
X6500Y-111906D01*
X5680Y-112069D01*
X4984Y-112534D01*
X4833Y-112760D01*
X4722Y-112798D01*
X3278D01*
X3167Y-112760D01*
X3016Y-112534D01*
X2320Y-112069D01*
X1500Y-111906D01*
X680Y-112069D01*
X-16Y-112534D01*
X-167Y-112760D01*
X-278Y-112798D01*
X-1722D01*
X-1833Y-112760D01*
X-1984Y-112534D01*
X-2680Y-112069D01*
X-3500Y-111906D01*
X-4971Y-110837D01*
Y-55133D01*
X15478Y-34685D01*
X16480Y-34953D01*
X17520D01*
X18522Y-34685D01*
X71526Y-87689D01*
Y-151002D01*
X67242Y-153476D01*
X70394Y-158936D01*
X69512Y-160368D01*
X69415Y-160387D01*
X68919Y-160719D01*
X62200Y-167437D01*
X49762D01*
X48701Y-166376D01*
X48701Y-164878D01*
Y-160447D01*
X43299D01*
Y-161505D01*
X39735D01*
X39150Y-161621D01*
X38654Y-161953D01*
X37966Y-162640D01*
X35961D01*
Y-161200D01*
X29039D01*
Y-167138D01*
X35961D01*
Y-165698D01*
X38600D01*
X39185Y-165582D01*
X39681Y-165250D01*
X40369Y-164563D01*
X42239D01*
X43299Y-165624D01*
X43299Y-167122D01*
Y-171554D01*
X48701D01*
Y-170495D01*
X62834D01*
X63419Y-170379D01*
X63915Y-170047D01*
X70634Y-163329D01*
X81000D01*
X81585Y-163213D01*
X82081Y-162881D01*
X87181Y-157781D01*
X87513Y-157285D01*
X87629Y-156700D01*
Y-118063D01*
X89015Y-117489D01*
X101301Y-129774D01*
X101271Y-129829D01*
X101019Y-130839D01*
X101037Y-131880D01*
X101324Y-132880D01*
X101860Y-133773D01*
X102609Y-134495D01*
X103519Y-135000D01*
X104529Y-135252D01*
X105569Y-135234D01*
X106570Y-134947D01*
X107462Y-134411D01*
X108185Y-133662D01*
X108689Y-132752D01*
X108941Y-131742D01*
X108923Y-130701D01*
X108636Y-129701D01*
X108100Y-128809D01*
X107352Y-128086D01*
X106441Y-127581D01*
X105431Y-127329D01*
X104391Y-127348D01*
X103465Y-127613D01*
X87181Y-111329D01*
X78529Y-102677D01*
Y32500D01*
Y136957D01*
X78565Y137136D01*
Y143676D01*
X81091Y148051D01*
X75949Y151019D01*
D01*
X74631Y151737D01*
X74608Y151760D01*
X73138Y149214D01*
X72272Y149714D01*
X73742Y152260D01*
X73096Y152433D01*
X72315D01*
X71495Y152367D01*
X71141Y153110D01*
X70751Y153787D01*
X70198Y154340D01*
X69521Y154731D01*
X68766Y154933D01*
X67984D01*
X67164Y154867D01*
X66811Y155610D01*
X66421Y156287D01*
X65868Y156840D01*
X65191Y157231D01*
X64436Y157433D01*
X63654D01*
X62899Y157231D01*
X62222Y156840D01*
X61670Y156287D01*
X61279Y155610D01*
X61077Y154855D01*
Y154074D01*
X61279Y153319D01*
X61670Y152642D01*
X62222Y152089D01*
X62899Y151698D01*
X63654Y151496D01*
X64436D01*
X65256Y151561D01*
X65609Y150819D01*
X66000Y150142D01*
X66553Y149589D01*
X67229Y149198D01*
X67505Y149125D01*
X67994Y147919D01*
X67997Y147496D01*
X21797Y101295D01*
X20163Y101427D01*
X19427Y102163D01*
X18526Y102683D01*
X17520Y102953D01*
X17500D01*
Y99000D01*
Y95047D01*
X17520D01*
X18526Y95317D01*
X19427Y95837D01*
X20163Y96573D01*
X20446Y97063D01*
X22241D01*
X22982Y97210D01*
X23611Y97630D01*
X71541Y145560D01*
X72981Y145878D01*
X75506Y144420D01*
Y137279D01*
X75471Y137100D01*
Y33134D01*
X26866Y-15471D01*
X20162D01*
X19763Y-14760D01*
X19619Y-13971D01*
X20163Y-13427D01*
X20683Y-12526D01*
X20953Y-11520D01*
Y-10480D01*
X20683Y-9474D01*
X20163Y-8573D01*
X19427Y-7837D01*
X18526Y-7317D01*
X17520Y-7047D01*
X16480D01*
X15474Y-7317D01*
X14573Y-7837D01*
X13837Y-8573D01*
X13317Y-9474D01*
X13047Y-10480D01*
Y-11520D01*
X13317Y-12526D01*
X13837Y-13427D01*
X14381Y-13971D01*
X14237Y-14760D01*
X13838Y-15471D01*
X13000D01*
X12415Y-15587D01*
X11919Y-15919D01*
X-19581Y-47419D01*
X-19913Y-47915D01*
X-20029Y-48500D01*
Y-112554D01*
X-20480Y-113229D01*
X-20643Y-114049D01*
Y-118715D01*
X-20480Y-119535D01*
X-20463Y-119561D01*
X-21545Y-120642D01*
X-21826Y-120454D01*
X-22568Y-120307D01*
X-29228D01*
Y-119669D01*
X-31500D01*
Y-122244D01*
X-32500D01*
Y-119669D01*
X-34772D01*
Y-120307D01*
X-37442D01*
X-41374Y-116375D01*
X-41210Y-116130D01*
X-41063Y-115389D01*
Y-84446D01*
X-40573Y-84163D01*
X-39837Y-83427D01*
X-39317Y-82526D01*
X-39047Y-81520D01*
Y-81500D01*
X-46953D01*
Y-81520D01*
X-46683Y-82526D01*
X-46163Y-83427D01*
X-45427Y-84163D01*
X-44937Y-84446D01*
Y-114586D01*
X-45802Y-115452D01*
X-46950D01*
X-48845Y-117710D01*
X-49611Y-117067D01*
X-47956Y-115095D01*
X-49697Y-113635D01*
X-49697D01*
X-50768Y-113682D01*
X-54316Y-110134D01*
X-53950Y-109698D01*
X-55690Y-108238D01*
X-57345Y-110210D01*
X-58111Y-109567D01*
X-56456Y-107595D01*
X-58197Y-106135D01*
X-59721Y-107952D01*
X-71509D01*
X-101363Y-78098D01*
Y-59448D01*
X-99705D01*
Y-56283D01*
Y-53118D01*
X-103748D01*
Y-54346D01*
X-110198D01*
X-116563Y-47981D01*
Y4600D01*
X-115831Y5022D01*
X-115022Y5831D01*
X-114450Y6822D01*
X-114347Y7208D01*
X-112847Y7010D01*
Y4400D01*
X-104154D01*
Y7190D01*
X-99295Y7437D01*
X-94762D01*
X-93701Y6376D01*
X-93701Y4878D01*
Y446D01*
X-88299D01*
Y1505D01*
X-68966D01*
X-68381Y1621D01*
X-67885Y1953D01*
X-44522Y25315D01*
X-43520Y25047D01*
X-42480D01*
X-41474Y25317D01*
X-40573Y25837D01*
X-39837Y26573D01*
X-39317Y27474D01*
X-39047Y28480D01*
Y29520D01*
X-39317Y30526D01*
X-39837Y31427D01*
X-40573Y32163D01*
X-41474Y32683D01*
X-42480Y32953D01*
X-43520D01*
X-44526Y32683D01*
X-45427Y32163D01*
X-46163Y31427D01*
X-46683Y30526D01*
X-46953Y29520D01*
Y28480D01*
X-46685Y27478D01*
X-69599Y4563D01*
X-87239D01*
X-88299Y5624D01*
X-88299Y7122D01*
Y11553D01*
X-93701D01*
Y10495D01*
X-99334D01*
X-99373Y10488D01*
X-99412Y10493D01*
X-103066Y10308D01*
X-104154Y11341D01*
Y12600D01*
X-109701D01*
X-110275Y13986D01*
X-103230Y21030D01*
X-102810Y21659D01*
X-102663Y22400D01*
Y41972D01*
X-97306D01*
Y43018D01*
X-94100D01*
X-93515Y43134D01*
X-93019Y43466D01*
X-92350Y44134D01*
X-89770D01*
Y43187D01*
X-83833D01*
Y44134D01*
X-76771D01*
Y43187D01*
X-70833D01*
Y48140D01*
X-70833D01*
Y48539D01*
X-69726Y50039D01*
X-60431D01*
X-59846Y50156D01*
X-59350Y50487D01*
X-44522Y65316D01*
X-43520Y65047D01*
X-42480D01*
X-41474Y65317D01*
X-40573Y65837D01*
X-39837Y66573D01*
X-39317Y67474D01*
X-39047Y68480D01*
Y69520D01*
X-39317Y70526D01*
X-39837Y71427D01*
X-40573Y72163D01*
X-41474Y72683D01*
X-42480Y72953D01*
X-43520D01*
X-44526Y72683D01*
X-45427Y72163D01*
X-46163Y71427D01*
X-46683Y70526D01*
X-46953Y69520D01*
Y68480D01*
X-46685Y67478D01*
X-61065Y53098D01*
X-70833D01*
Y54045D01*
X-72824D01*
X-73398Y55431D01*
X-57530Y71299D01*
X-57110Y71927D01*
X-56963Y72669D01*
Y118265D01*
X-55574Y118859D01*
X-55463Y118840D01*
X-55181Y118419D01*
X-48781Y112019D01*
X-48285Y111687D01*
X-47700Y111571D01*
X-46953D01*
Y105047D01*
X-39047D01*
Y111571D01*
X-17733D01*
X13316Y80522D01*
X13047Y79520D01*
Y78480D01*
X13317Y77474D01*
X13837Y76573D01*
X14573Y75837D01*
X15474Y75317D01*
X16480Y75047D01*
X17520D01*
X18526Y75317D01*
X19427Y75837D01*
X20163Y76573D01*
X20683Y77474D01*
X20953Y78480D01*
Y79520D01*
X20683Y80526D01*
X20163Y81427D01*
X19427Y82163D01*
X18526Y82683D01*
X17520Y82953D01*
X16480D01*
X15478Y82684D01*
X-16019Y114181D01*
X-16515Y114513D01*
X-17100Y114629D01*
X-47067D01*
X-52571Y120133D01*
Y141721D01*
X-48338D01*
Y142668D01*
X-41276D01*
Y141721D01*
X-35339D01*
Y142668D01*
X-33533D01*
X-32865Y141999D01*
X-32369Y141668D01*
X-31784Y141551D01*
X-29303D01*
Y140506D01*
X-23737D01*
Y137800D01*
X-23590Y137059D01*
X-23170Y136430D01*
X13194Y100067D01*
X13047Y99520D01*
Y99500D01*
X16500D01*
Y102953D01*
X16480D01*
X15933Y102806D01*
X14719Y104021D01*
X15474Y105317D01*
X16480Y105047D01*
X17520D01*
X18526Y105317D01*
X19427Y105837D01*
X20163Y106573D01*
X20683Y107474D01*
X20953Y108480D01*
Y109520D01*
X20683Y110526D01*
X20163Y111427D01*
X19427Y112163D01*
X18529Y112681D01*
Y128466D01*
X19588Y129525D01*
X19920Y130021D01*
X20036Y130607D01*
Y144973D01*
X20259Y145033D01*
X21295Y145631D01*
X22141Y146477D01*
X22739Y147513D01*
X23049Y148668D01*
Y149864D01*
X22739Y151020D01*
X22141Y152056D01*
X21295Y152902D01*
X20259Y153500D01*
X19104Y153810D01*
X17907D01*
X16752Y153500D01*
X15716Y152902D01*
X14870Y152056D01*
X14272Y151020D01*
X13962Y149864D01*
Y148668D01*
X14272Y147513D01*
X14870Y146477D01*
X15716Y145631D01*
X16752Y145033D01*
X16977Y144972D01*
Y131240D01*
X15919Y130181D01*
X15587Y129685D01*
X15471Y129100D01*
Y112681D01*
X14573Y112163D01*
X13837Y111427D01*
X13317Y110526D01*
X13047Y109520D01*
Y108480D01*
X13317Y107474D01*
X12021Y106719D01*
X-19863Y138602D01*
Y144246D01*
X-14311D01*
Y145292D01*
X-10500D01*
X-9915Y145408D01*
X-9419Y145740D01*
X-7421Y147737D01*
X-5473D01*
X-5413Y147513D01*
X-4815Y146477D01*
X-3969Y145631D01*
X-2933Y145033D01*
X-1778Y144723D01*
X-581D01*
X574Y145033D01*
X1610Y145631D01*
X2456Y146477D01*
X3054Y147513D01*
X3364Y148668D01*
Y149864D01*
X3054Y151020D01*
X2456Y152056D01*
X1610Y152902D01*
X574Y153500D01*
X-581Y153810D01*
X-1778D01*
X-2933Y153500D01*
X-3969Y152902D01*
X-4815Y152056D01*
X-5413Y151020D01*
X-5473Y150796D01*
X-8055D01*
X-8640Y150679D01*
X-9136Y150348D01*
X-11134Y148350D01*
X-14311D01*
Y149396D01*
X-19863D01*
Y149500D01*
X-20010Y150241D01*
X-20430Y150870D01*
X-21491Y151931D01*
X-22120Y152351D01*
X-22861Y152498D01*
X-23366D01*
Y153136D01*
X-25835D01*
Y150561D01*
Y147986D01*
X-23737D01*
Y145655D01*
X-29303D01*
Y144610D01*
X-31150D01*
X-31819Y145278D01*
X-32315Y145610D01*
X-32900Y145726D01*
X-34231D01*
X-34248Y145741D01*
X-34922Y146665D01*
X-34209Y148165D01*
X-32600D01*
X-31859Y148313D01*
X-31393Y148624D01*
X-29303D01*
Y147986D01*
X-26835D01*
Y150561D01*
Y153136D01*
X-29303D01*
Y152498D01*
X-32141D01*
X-32883Y152351D01*
X-33348Y152040D01*
X-35339D01*
Y152579D01*
X-37169D01*
X-37430Y152970D01*
X-38630Y154170D01*
X-39259Y154590D01*
X-40000Y154737D01*
X-55600D01*
X-56341Y154590D01*
X-56970Y154170D01*
X-60270Y150870D01*
X-60690Y150241D01*
X-60837Y149500D01*
Y73471D01*
X-80802Y53506D01*
X-83833D01*
Y54045D01*
X-86302D01*
Y51569D01*
X-87302D01*
Y54045D01*
X-89770D01*
Y53506D01*
X-92593D01*
X-93059Y53817D01*
X-93800Y53965D01*
X-97306D01*
Y54602D01*
X-99774D01*
Y52027D01*
Y49453D01*
X-97306D01*
Y50090D01*
X-94548D01*
X-94083Y49779D01*
X-93341Y49632D01*
X-90900D01*
X-90187Y48132D01*
X-90861Y47207D01*
X-90878Y47193D01*
X-92984D01*
X-93569Y47076D01*
X-94065Y46745D01*
X-94734Y46076D01*
X-97306D01*
Y47122D01*
X-102663D01*
Y49453D01*
X-100774D01*
Y52027D01*
Y54602D01*
X-102755D01*
X-118205Y72199D01*
Y98234D01*
X-116819Y98808D01*
X-113071Y95060D01*
X-107273Y100858D01*
X-113071Y106656D01*
X-115913Y103814D01*
X-116800Y103930D01*
X-117482Y104366D01*
X-117478Y104557D01*
X-120142Y107222D01*
X-122688Y104676D01*
X-122660Y104648D01*
X-122079Y104313D01*
Y71470D01*
X-122018Y71159D01*
X-121976Y70846D01*
X-121944Y70791D01*
X-121932Y70728D01*
X-121756Y70465D01*
X-121598Y70192D01*
X-105726Y52113D01*
X-105970Y51870D01*
X-106390Y51241D01*
X-106465Y50862D01*
X-112298D01*
Y49817D01*
X-117113D01*
X-117698Y49700D01*
X-117954Y49529D01*
X-120815D01*
X-120875Y49754D01*
X-121474Y50790D01*
X-122319Y51635D01*
X-123355Y52234D01*
X-124511Y52543D01*
X-125707D01*
X-126863Y52234D01*
X-127899Y51635D01*
X-128744Y50790D01*
X-129343Y49754D01*
X-129652Y48598D01*
Y47402D01*
X-129343Y46246D01*
X-128744Y45210D01*
X-127899Y44365D01*
X-126863Y43766D01*
X-125707Y43457D01*
X-124511D01*
X-123355Y43766D01*
X-122319Y44365D01*
X-121474Y45210D01*
X-120875Y46246D01*
X-120815Y46471D01*
X-117400D01*
X-116815Y46587D01*
X-116559Y46758D01*
X-112298D01*
Y45713D01*
X-106537D01*
Y23202D01*
X-117112Y12628D01*
X-117928Y12846D01*
X-118000D01*
Y8500D01*
X-118500D01*
Y8000D01*
X-122846D01*
Y7928D01*
X-122550Y6822D01*
X-121978Y5831D01*
X-121169Y5022D01*
X-120437Y4600D01*
Y-48783D01*
Y-63700D01*
X-120290Y-64441D01*
X-119870Y-65070D01*
X-105237Y-79702D01*
Y-96924D01*
X-106597Y-97558D01*
X-107697Y-96635D01*
X-107984Y-96978D01*
X-109483Y-97043D01*
X-112851Y-93675D01*
X-112450Y-93198D01*
X-114699Y-91311D01*
Y-90472D01*
X-114815Y-89886D01*
X-115147Y-89390D01*
X-132690Y-71847D01*
X-133186Y-71516D01*
X-133771Y-71399D01*
X-149027D01*
X-150042Y-69641D01*
Y-21972D01*
X-150158Y-21387D01*
X-150490Y-20891D01*
X-161127Y-10254D01*
X-161048Y-8211D01*
X-143714Y9123D01*
X-143382Y9619D01*
X-143266Y10205D01*
Y43706D01*
X-143040Y43766D01*
X-142004Y44365D01*
X-141158Y45210D01*
X-140560Y46246D01*
X-140251Y47402D01*
Y48598D01*
X-140560Y49754D01*
X-140677Y49955D01*
X-127219Y63414D01*
X-126887Y63910D01*
X-126771Y64495D01*
Y114666D01*
X-123467Y117971D01*
X-117822D01*
X-116926Y116634D01*
X-116922Y116471D01*
X-117171Y115540D01*
Y114460D01*
X-116892Y113417D01*
X-116352Y112483D01*
X-115588Y111719D01*
X-114654Y111179D01*
X-113611Y110900D01*
X-112531D01*
X-111488Y111179D01*
X-110554Y111719D01*
X-109790Y112483D01*
X-109250Y113417D01*
X-108971Y114460D01*
Y115540D01*
X-108334Y116371D01*
X-103666D01*
X-103029Y115540D01*
Y114460D01*
X-102750Y113417D01*
X-102210Y112483D01*
X-101446Y111719D01*
X-100512Y111179D01*
X-99469Y110900D01*
X-98389D01*
X-97347Y111179D01*
X-96412Y111719D01*
X-95648Y112483D01*
X-95108Y113417D01*
X-95094Y113471D01*
X-88000D01*
X-87415Y113587D01*
X-86919Y113919D01*
X-80821Y120016D01*
X-80490Y120512D01*
X-80373Y121097D01*
Y132273D01*
X-78163Y134483D01*
X-81823Y138142D01*
X-81823Y138142D01*
X-82883Y139203D01*
X-86017Y142337D01*
X-89837Y138517D01*
X-87627Y136307D01*
Y128465D01*
X-90228Y125864D01*
X-90275Y125892D01*
X-91318Y126171D01*
X-92398D01*
X-93440Y125892D01*
X-94375Y125352D01*
X-95139Y124589D01*
X-95678Y123653D01*
X-95693Y123600D01*
X-97729D01*
X-98314Y123484D01*
X-98810Y123152D01*
X-100400Y121563D01*
X-101900Y122184D01*
Y122611D01*
X-102179Y123653D01*
X-102719Y124589D01*
X-103482Y125352D01*
X-104418Y125892D01*
X-105460Y126171D01*
X-106540D01*
X-107582Y125892D01*
X-108518Y125352D01*
X-109281Y124589D01*
X-109821Y123653D01*
X-110100Y122611D01*
Y122039D01*
X-110474Y121624D01*
X-111131Y121136D01*
X-111508Y120991D01*
X-111700Y121029D01*
X-124100D01*
X-124685Y120913D01*
X-125181Y120581D01*
X-129381Y116381D01*
X-129713Y115885D01*
X-129829Y115300D01*
Y65129D01*
X-142840Y52118D01*
X-143040Y52234D01*
X-144196Y52543D01*
X-145392D01*
X-146548Y52234D01*
X-147584Y51635D01*
X-148430Y50790D01*
X-149028Y49754D01*
X-149337Y48598D01*
Y47402D01*
X-149028Y46246D01*
X-148430Y45210D01*
X-147584Y44365D01*
X-146548Y43766D01*
X-146325Y43707D01*
Y10838D01*
X-161189Y-4026D01*
X-162459Y-3500D01*
X-165543D01*
X-168512D01*
Y-5968D01*
X-168512Y-5968D01*
X-168474Y-7468D01*
X-168512Y-7609D01*
Y-8391D01*
X-168310Y-9146D01*
X-167919Y-9823D01*
X-167452Y-10500D01*
X-167919Y-11177D01*
X-168310Y-11854D01*
X-168512Y-12609D01*
Y-13391D01*
X-168310Y-14146D01*
X-167919Y-14823D01*
X-167452Y-15500D01*
X-167919Y-16177D01*
X-168310Y-16854D01*
X-168512Y-17609D01*
Y-18391D01*
X-168310Y-19146D01*
X-167919Y-19823D01*
X-167366Y-20375D01*
X-166689Y-20766D01*
X-165934Y-20968D01*
X-165153D01*
X-164398Y-20766D01*
X-163721Y-20375D01*
X-163168Y-19823D01*
X-162777Y-19146D01*
X-162575Y-18391D01*
Y-17609D01*
X-162777Y-16854D01*
X-163168Y-16177D01*
X-163218Y-16105D01*
X-162626Y-14820D01*
X-161127Y-14580D01*
X-153101Y-22606D01*
Y-70384D01*
X-155626Y-71842D01*
X-154536Y-73731D01*
X-156081Y-75276D01*
X-156413Y-75772D01*
X-156529Y-76358D01*
Y-79358D01*
X-156413Y-79943D01*
X-156081Y-80439D01*
X-115629Y-120891D01*
Y-136500D01*
X-115513Y-137085D01*
X-115181Y-137581D01*
X-109981Y-142781D01*
X-109485Y-143113D01*
X-108900Y-143229D01*
X-83000D01*
X-82415Y-143113D01*
X-81919Y-142781D01*
X-79573Y-140436D01*
X-79241Y-139939D01*
X-79125Y-139354D01*
Y-134936D01*
X-78605Y-134693D01*
X-78605D01*
X-74979Y-130371D01*
X-71500D01*
X-70915Y-130255D01*
X-70419Y-129923D01*
X-67225Y-126729D01*
X-61733D01*
X-61099Y-128089D01*
X-65264Y-133053D01*
X-58605Y-138640D01*
X-52890Y-131829D01*
X-29400D01*
X-28815Y-131713D01*
X-28319Y-131381D01*
X-27987Y-130885D01*
X-27871Y-130300D01*
Y-125000D01*
X-26504Y-124181D01*
X-23370D01*
X-20437Y-127114D01*
Y-135782D01*
X-20480Y-135847D01*
X-20643Y-136667D01*
Y-138500D01*
X-18500D01*
Y-139500D01*
X-20643D01*
Y-141333D01*
X-20480Y-142153D01*
X-20437Y-142218D01*
Y-147039D01*
X-20696Y-151772D01*
X-21125Y-152102D01*
X-21601Y-152722D01*
X-21900Y-153444D01*
X-22002Y-154219D01*
Y-155884D01*
X-19008D01*
Y-156884D01*
X-22002D01*
Y-158549D01*
X-21907Y-159271D01*
X-21905Y-159332D01*
X-22834Y-160766D01*
X-22842Y-160771D01*
X-30867D01*
X-45482Y-146156D01*
X-45978Y-145824D01*
X-46563Y-145708D01*
X-65022D01*
X-71395Y-140360D01*
X-78248Y-148527D01*
X-71589Y-154114D01*
X-67102Y-148766D01*
X-47196D01*
X-37378Y-158585D01*
X-37952Y-159971D01*
X-51000D01*
X-51585Y-160087D01*
X-52081Y-160419D01*
X-54581Y-162919D01*
X-54913Y-163415D01*
X-55029Y-164000D01*
Y-171400D01*
X-54913Y-171985D01*
X-54581Y-172481D01*
X-52081Y-174981D01*
X-52010Y-175029D01*
X-52666Y-176395D01*
X-59181Y-174341D01*
X-66729Y-171594D01*
X-74150Y-168520D01*
X-81431Y-165125D01*
X-88556Y-161416D01*
X-95512Y-157399D01*
X-102287Y-153083D01*
X-108867Y-148476D01*
X-115240Y-143586D01*
X-121393Y-138423D01*
X-127316Y-132996D01*
X-132996Y-127316D01*
X-138423Y-121393D01*
X-143586Y-115240D01*
X-148476Y-108867D01*
X-153083Y-102287D01*
X-157399Y-95512D01*
X-161416Y-88556D01*
X-165125Y-81431D01*
X-168520Y-74150D01*
X-171594Y-66729D01*
X-174341Y-59181D01*
X-176756Y-51520D01*
X-178835Y-43761D01*
X-180574Y-35918D01*
X-181969Y-28008D01*
X-183017Y-20044D01*
X-183718Y-12042D01*
X-184068Y-4016D01*
Y0D01*
Y4016D01*
X-183718Y12042D01*
X-183017Y20044D01*
X-181969Y28008D01*
X-180574Y35918D01*
X-178835Y43761D01*
X-176756Y51520D01*
X-174341Y59181D01*
X-171594Y66729D01*
X-168520Y74150D01*
X-165125Y81431D01*
X-161416Y88556D01*
X-157399Y95512D01*
X-153083Y102287D01*
X-148476Y108867D01*
X-143586Y115240D01*
X-138423Y121393D01*
X-132996Y127316D01*
X-127316Y132996D01*
X-121393Y138423D01*
X-115240Y143586D01*
X-108867Y148476D01*
X-102287Y153083D01*
X-95512Y157399D01*
X-88556Y161416D01*
X-81431Y165125D01*
X-74150Y168520D01*
X-66729Y171594D01*
X-59181Y174341D01*
X-51520Y176756D01*
X-43761Y178835D01*
X-35918Y180574D01*
X-28008Y181969D01*
X-20044Y183017D01*
X-12042Y183718D01*
X-4016Y184068D01*
X4016D01*
X12042Y183718D01*
D02*
G37*
G36*
X-10166Y-142622D02*
X-10016Y-142848D01*
X-9320Y-143313D01*
X-8500Y-143476D01*
X-8029Y-143862D01*
Y-146867D01*
X-11939Y-150777D01*
X-12019Y-150895D01*
X-13630D01*
Y-154159D01*
X-14508D01*
Y-150895D01*
X-14689D01*
Y-154159D01*
X-15689D01*
Y-150882D01*
X-16708Y-149806D01*
X-16566Y-147198D01*
X-16573Y-147145D01*
X-16563Y-147092D01*
Y-143233D01*
X-15063Y-142778D01*
X-15015Y-142848D01*
X-14320Y-143313D01*
X-13500Y-143476D01*
X-12679Y-143313D01*
X-11984Y-142848D01*
X-11833Y-142622D01*
X-11722Y-142584D01*
X-10278D01*
X-10166Y-142622D01*
D02*
G37*
G36*
X-9238Y-161530D02*
X-8450Y-161955D01*
Y-172667D01*
X-11654Y-175871D01*
X-14908D01*
X-16014Y-174416D01*
Y-173341D01*
X-22002D01*
Y-174416D01*
X-23108Y-175871D01*
X-32967D01*
X-34898Y-173939D01*
X-34324Y-172554D01*
X-32299D01*
Y-171903D01*
X-22002D01*
Y-172341D01*
X-16014D01*
Y-171266D01*
X-16116Y-170491D01*
X-16415Y-169769D01*
X-16891Y-169149D01*
X-17511Y-168673D01*
X-17616Y-168630D01*
X-17638Y-168596D01*
X-18267Y-168176D01*
X-19008Y-168029D01*
X-32075D01*
X-32299Y-166622D01*
X-32299Y-166621D01*
X-32299Y-166621D01*
Y-165200D01*
X-31500Y-163829D01*
X-13000D01*
X-12415Y-163713D01*
X-11919Y-163381D01*
X-9950Y-161413D01*
X-9238Y-161530D01*
D02*
G37*
%LPC*%
G36*
X-88524Y-129927D02*
X-90237Y-131969D01*
X-86536Y-135074D01*
X-84823Y-133032D01*
X-88524Y-129927D01*
D02*
G37*
G36*
X-98389Y133242D02*
X-99469D01*
X-100512Y132963D01*
X-101446Y132423D01*
X-102210Y131660D01*
X-102750Y130725D01*
X-103029Y129682D01*
Y128602D01*
X-102750Y127560D01*
X-102210Y126625D01*
X-101446Y125861D01*
X-100512Y125322D01*
X-99469Y125042D01*
X-98389D01*
X-97347Y125322D01*
X-96412Y125861D01*
X-95648Y126625D01*
X-95108Y127560D01*
X-94829Y128602D01*
Y129682D01*
X-95108Y130725D01*
X-95648Y131660D01*
X-96412Y132423D01*
X-97347Y132963D01*
X-98389Y133242D01*
D02*
G37*
G36*
X-119602Y112029D02*
X-120682D01*
X-121725Y111750D01*
X-122660Y111210D01*
X-122688Y111182D01*
X-120142Y108636D01*
X-117597Y111182D01*
X-117625Y111210D01*
X-118560Y111750D01*
X-119602Y112029D01*
D02*
G37*
G36*
X-116890Y110475D02*
X-119435Y107929D01*
X-116890Y105383D01*
X-116861Y105412D01*
X-116322Y106346D01*
X-116042Y107389D01*
Y108469D01*
X-116322Y109511D01*
X-116861Y110447D01*
X-116890Y110475D01*
D02*
G37*
G36*
X-123395D02*
X-123423Y110447D01*
X-123963Y109511D01*
X-124242Y108469D01*
Y107389D01*
X-123963Y106346D01*
X-123423Y105412D01*
X-123395Y105383D01*
X-120849Y107929D01*
X-123395Y110475D01*
D02*
G37*
G36*
X-105460Y112029D02*
X-106540D01*
X-107582Y111750D01*
X-108518Y111210D01*
X-109281Y110447D01*
X-109821Y109511D01*
X-110100Y108469D01*
Y107389D01*
X-109821Y106346D01*
X-109281Y105412D01*
X-108518Y104648D01*
X-107582Y104108D01*
X-106540Y103829D01*
X-105460D01*
X-104418Y104108D01*
X-103482Y104648D01*
X-102719Y105412D01*
X-102179Y106346D01*
X-101900Y107389D01*
Y108469D01*
X-102179Y109511D01*
X-102719Y110447D01*
X-103482Y111210D01*
X-104418Y111750D01*
X-105460Y112029D01*
D02*
G37*
G36*
X16500Y98500D02*
X13047D01*
Y98480D01*
X13317Y97474D01*
X13837Y96573D01*
X14573Y95837D01*
X15474Y95317D01*
X16480Y95047D01*
X16500D01*
Y98500D01*
D02*
G37*
G36*
X-42480Y102953D02*
X-43520D01*
X-44526Y102683D01*
X-45427Y102163D01*
X-46163Y101427D01*
X-46683Y100526D01*
X-46953Y99520D01*
Y98480D01*
X-46683Y97474D01*
X-46163Y96573D01*
X-45427Y95837D01*
X-44526Y95317D01*
X-43520Y95047D01*
X-42480D01*
X-41474Y95317D01*
X-40573Y95837D01*
X-39837Y96573D01*
X-39317Y97474D01*
X-39047Y98480D01*
Y99520D01*
X-39317Y100526D01*
X-39837Y101427D01*
X-40573Y102163D01*
X-41474Y102683D01*
X-42480Y102953D01*
D02*
G37*
G36*
X17520Y92953D02*
X16480D01*
X15474Y92683D01*
X14573Y92163D01*
X13837Y91427D01*
X13317Y90526D01*
X13047Y89520D01*
Y88480D01*
X13317Y87474D01*
X13837Y86573D01*
X14573Y85837D01*
X15474Y85317D01*
X16480Y85047D01*
X17520D01*
X18526Y85317D01*
X19427Y85837D01*
X20163Y86573D01*
X20683Y87474D01*
X20953Y88480D01*
Y89520D01*
X20683Y90526D01*
X20163Y91427D01*
X19427Y92163D01*
X18526Y92683D01*
X17520Y92953D01*
D02*
G37*
G36*
X-42480D02*
X-43520D01*
X-44526Y92683D01*
X-45427Y92163D01*
X-46163Y91427D01*
X-46683Y90526D01*
X-46953Y89520D01*
Y88480D01*
X-46683Y87474D01*
X-46163Y86573D01*
X-45427Y85837D01*
X-44526Y85317D01*
X-43520Y85047D01*
X-42480D01*
X-41474Y85317D01*
X-40573Y85837D01*
X-39837Y86573D01*
X-39317Y87474D01*
X-39047Y88480D01*
Y89520D01*
X-39317Y90526D01*
X-39837Y91427D01*
X-40573Y92163D01*
X-41474Y92683D01*
X-42480Y92953D01*
D02*
G37*
G36*
Y82953D02*
X-43520D01*
X-44526Y82683D01*
X-45427Y82163D01*
X-46163Y81427D01*
X-46683Y80526D01*
X-46953Y79520D01*
Y78480D01*
X-46683Y77474D01*
X-46163Y76573D01*
X-45427Y75837D01*
X-44526Y75317D01*
X-43520Y75047D01*
X-42480D01*
X-41474Y75317D01*
X-40573Y75837D01*
X-39837Y76573D01*
X-39317Y77474D01*
X-39047Y78480D01*
Y79520D01*
X-39317Y80526D01*
X-39837Y81427D01*
X-40573Y82163D01*
X-41474Y82683D01*
X-42480Y82953D01*
D02*
G37*
G36*
X17520Y72953D02*
X16480D01*
X15474Y72683D01*
X14573Y72163D01*
X13837Y71427D01*
X13317Y70526D01*
X13047Y69520D01*
Y68480D01*
X13317Y67474D01*
X13837Y66573D01*
X14573Y65837D01*
X15474Y65317D01*
X16480Y65047D01*
X17520D01*
X18526Y65317D01*
X19427Y65837D01*
X20163Y66573D01*
X20683Y67474D01*
X20953Y68480D01*
Y69520D01*
X20683Y70526D01*
X20163Y71427D01*
X19427Y72163D01*
X18526Y72683D01*
X17520Y72953D01*
D02*
G37*
G36*
Y62953D02*
X16480D01*
X15474Y62683D01*
X14573Y62163D01*
X13837Y61427D01*
X13317Y60526D01*
X13047Y59520D01*
Y58480D01*
X13317Y57474D01*
X13837Y56573D01*
X14573Y55837D01*
X15474Y55317D01*
X16480Y55047D01*
X17520D01*
X18526Y55317D01*
X19427Y55837D01*
X20163Y56573D01*
X20683Y57474D01*
X20953Y58480D01*
Y59520D01*
X20683Y60526D01*
X20163Y61427D01*
X19427Y62163D01*
X18526Y62683D01*
X17520Y62953D01*
D02*
G37*
G36*
X-42480D02*
X-43520D01*
X-44526Y62683D01*
X-45427Y62163D01*
X-46163Y61427D01*
X-46683Y60526D01*
X-46953Y59520D01*
Y58480D01*
X-46683Y57474D01*
X-46163Y56573D01*
X-45427Y55837D01*
X-44526Y55317D01*
X-43520Y55047D01*
X-42480D01*
X-41474Y55317D01*
X-40573Y55837D01*
X-39837Y56573D01*
X-39317Y57474D01*
X-39047Y58480D01*
Y59520D01*
X-39317Y60526D01*
X-39837Y61427D01*
X-40573Y62163D01*
X-41474Y62683D01*
X-42480Y62953D01*
D02*
G37*
G36*
X17520Y52953D02*
X16480D01*
X15474Y52683D01*
X14573Y52163D01*
X13837Y51427D01*
X13317Y50526D01*
X13047Y49520D01*
Y48480D01*
X13317Y47474D01*
X13837Y46573D01*
X14573Y45837D01*
X15474Y45317D01*
X16480Y45047D01*
X17520D01*
X18526Y45317D01*
X19427Y45837D01*
X20163Y46573D01*
X20683Y47474D01*
X20953Y48480D01*
Y49520D01*
X20683Y50526D01*
X20163Y51427D01*
X19427Y52163D01*
X18526Y52683D01*
X17520Y52953D01*
D02*
G37*
G36*
X-42480D02*
X-43520D01*
X-44526Y52683D01*
X-45427Y52163D01*
X-46163Y51427D01*
X-46683Y50526D01*
X-46953Y49520D01*
Y48480D01*
X-46683Y47474D01*
X-46163Y46573D01*
X-45427Y45837D01*
X-44526Y45317D01*
X-43520Y45047D01*
X-42480D01*
X-41474Y45317D01*
X-40573Y45837D01*
X-39837Y46573D01*
X-39317Y47474D01*
X-39047Y48480D01*
Y49520D01*
X-39317Y50526D01*
X-39837Y51427D01*
X-40573Y52163D01*
X-41474Y52683D01*
X-42480Y52953D01*
D02*
G37*
G36*
X17520Y42953D02*
X16480D01*
X15474Y42683D01*
X14573Y42163D01*
X13837Y41427D01*
X13317Y40526D01*
X13047Y39520D01*
Y38480D01*
X13317Y37474D01*
X13837Y36573D01*
X14573Y35837D01*
X15474Y35317D01*
X16480Y35047D01*
X17520D01*
X18526Y35317D01*
X19427Y35837D01*
X20163Y36573D01*
X20683Y37474D01*
X20953Y38480D01*
Y39520D01*
X20683Y40526D01*
X20163Y41427D01*
X19427Y42163D01*
X18526Y42683D01*
X17520Y42953D01*
D02*
G37*
G36*
X-42480D02*
X-43520D01*
X-44526Y42683D01*
X-45427Y42163D01*
X-46163Y41427D01*
X-46683Y40526D01*
X-46953Y39520D01*
Y38480D01*
X-46683Y37474D01*
X-46163Y36573D01*
X-45427Y35837D01*
X-44526Y35317D01*
X-43520Y35047D01*
X-42480D01*
X-41474Y35317D01*
X-40573Y35837D01*
X-39837Y36573D01*
X-39317Y37474D01*
X-39047Y38480D01*
Y39520D01*
X-39317Y40526D01*
X-39837Y41427D01*
X-40573Y42163D01*
X-41474Y42683D01*
X-42480Y42953D01*
D02*
G37*
G36*
X17520Y32953D02*
X16480D01*
X15474Y32683D01*
X14573Y32163D01*
X13837Y31427D01*
X13317Y30526D01*
X13047Y29520D01*
Y28480D01*
X13317Y27474D01*
X13837Y26573D01*
X14573Y25837D01*
X15474Y25317D01*
X16480Y25047D01*
X17520D01*
X18526Y25317D01*
X19427Y25837D01*
X20163Y26573D01*
X20683Y27474D01*
X20953Y28480D01*
Y29520D01*
X20683Y30526D01*
X20163Y31427D01*
X19427Y32163D01*
X18526Y32683D01*
X17520Y32953D01*
D02*
G37*
G36*
Y22953D02*
X16480D01*
X15474Y22683D01*
X14573Y22163D01*
X13837Y21427D01*
X13317Y20526D01*
X13047Y19520D01*
Y18480D01*
X13317Y17474D01*
X13837Y16573D01*
X14573Y15837D01*
X15474Y15317D01*
X16480Y15047D01*
X17520D01*
X18526Y15317D01*
X19427Y15837D01*
X20163Y16573D01*
X20683Y17474D01*
X20953Y18480D01*
Y19520D01*
X20683Y20526D01*
X20163Y21427D01*
X19427Y22163D01*
X18526Y22683D01*
X17520Y22953D01*
D02*
G37*
G36*
X-42480D02*
X-43520D01*
X-44526Y22683D01*
X-45427Y22163D01*
X-46163Y21427D01*
X-46683Y20526D01*
X-46953Y19520D01*
Y18480D01*
X-46683Y17474D01*
X-46163Y16573D01*
X-45427Y15837D01*
X-44526Y15317D01*
X-43520Y15047D01*
X-42480D01*
X-41474Y15317D01*
X-40573Y15837D01*
X-39837Y16573D01*
X-39317Y17474D01*
X-39047Y18480D01*
Y19520D01*
X-39317Y20526D01*
X-39837Y21427D01*
X-40573Y22163D01*
X-41474Y22683D01*
X-42480Y22953D01*
D02*
G37*
G36*
X-119000Y12846D02*
X-119072D01*
X-120178Y12550D01*
X-121169Y11978D01*
X-121978Y11169D01*
X-122550Y10178D01*
X-122846Y9072D01*
Y9000D01*
X-119000D01*
Y12846D01*
D02*
G37*
G36*
X17520Y12953D02*
X16480D01*
X15474Y12683D01*
X14573Y12163D01*
X13837Y11427D01*
X13317Y10526D01*
X13047Y9520D01*
Y8480D01*
X13317Y7474D01*
X13837Y6573D01*
X14573Y5837D01*
X15474Y5317D01*
X16480Y5047D01*
X17520D01*
X18526Y5317D01*
X19427Y5837D01*
X20163Y6573D01*
X20683Y7474D01*
X20953Y8480D01*
Y9520D01*
X20683Y10526D01*
X20163Y11427D01*
X19427Y12163D01*
X18526Y12683D01*
X17520Y12953D01*
D02*
G37*
G36*
X-42480D02*
X-43520D01*
X-44526Y12683D01*
X-45427Y12163D01*
X-46163Y11427D01*
X-46683Y10526D01*
X-46953Y9520D01*
Y8480D01*
X-46683Y7474D01*
X-46163Y6573D01*
X-45427Y5837D01*
X-44526Y5317D01*
X-43520Y5047D01*
X-42480D01*
X-41474Y5317D01*
X-40573Y5837D01*
X-39837Y6573D01*
X-39317Y7474D01*
X-39047Y8480D01*
Y9520D01*
X-39317Y10526D01*
X-39837Y11427D01*
X-40573Y12163D01*
X-41474Y12683D01*
X-42480Y12953D01*
D02*
G37*
G36*
X-162575Y-32D02*
X-165043D01*
Y-2500D01*
X-162575D01*
Y-32D01*
D02*
G37*
G36*
X-166043D02*
X-168512D01*
Y-2500D01*
X-166043D01*
Y-32D01*
D02*
G37*
G36*
X17520Y2953D02*
X16480D01*
X15474Y2683D01*
X14573Y2163D01*
X13837Y1427D01*
X13317Y526D01*
X13047Y-480D01*
Y-1520D01*
X13317Y-2526D01*
X13837Y-3427D01*
X14573Y-4163D01*
X15474Y-4683D01*
X16480Y-4953D01*
X17520D01*
X18526Y-4683D01*
X19427Y-4163D01*
X20163Y-3427D01*
X20683Y-2526D01*
X20953Y-1520D01*
Y-480D01*
X20683Y526D01*
X20163Y1427D01*
X19427Y2163D01*
X18526Y2683D01*
X17520Y2953D01*
D02*
G37*
G36*
X-42480D02*
X-43520D01*
X-44526Y2683D01*
X-45427Y2163D01*
X-46163Y1427D01*
X-46683Y526D01*
X-46953Y-480D01*
Y-1520D01*
X-46683Y-2526D01*
X-46163Y-3427D01*
X-45427Y-4163D01*
X-44526Y-4683D01*
X-43520Y-4953D01*
X-42480D01*
X-41474Y-4683D01*
X-40573Y-4163D01*
X-39837Y-3427D01*
X-39317Y-2526D01*
X-39047Y-1520D01*
Y-480D01*
X-39317Y526D01*
X-39837Y1427D01*
X-40573Y2163D01*
X-41474Y2683D01*
X-42480Y2953D01*
D02*
G37*
G36*
Y-7047D02*
X-43520D01*
X-44526Y-7317D01*
X-45427Y-7837D01*
X-46163Y-8573D01*
X-46681Y-9471D01*
X-69295D01*
X-69880Y-9587D01*
X-70376Y-9919D01*
X-75876Y-15419D01*
X-76208Y-15915D01*
X-76324Y-16500D01*
Y-38552D01*
X-79338D01*
Y-44882D01*
X-70252D01*
Y-38552D01*
X-73266D01*
Y-17133D01*
X-68661Y-12529D01*
X-46681D01*
X-46163Y-13427D01*
X-45427Y-14163D01*
X-44526Y-14683D01*
X-43520Y-14953D01*
X-42480D01*
X-41474Y-14683D01*
X-40573Y-14163D01*
X-39837Y-13427D01*
X-39317Y-12526D01*
X-39047Y-11520D01*
Y-10480D01*
X-39317Y-9474D01*
X-39837Y-8573D01*
X-40573Y-7837D01*
X-41474Y-7317D01*
X-42480Y-7047D01*
D02*
G37*
G36*
Y-17047D02*
X-43520D01*
X-44526Y-17317D01*
X-45427Y-17837D01*
X-46163Y-18573D01*
X-46683Y-19474D01*
X-46953Y-20480D01*
Y-21520D01*
X-46683Y-22526D01*
X-46163Y-23427D01*
X-45427Y-24163D01*
X-44526Y-24683D01*
X-43520Y-24953D01*
X-42480D01*
X-41474Y-24683D01*
X-40573Y-24163D01*
X-39837Y-23427D01*
X-39317Y-22526D01*
X-39047Y-21520D01*
Y-20480D01*
X-39317Y-19474D01*
X-39837Y-18573D01*
X-40573Y-17837D01*
X-41474Y-17317D01*
X-42480Y-17047D01*
D02*
G37*
G36*
Y-27047D02*
X-43520D01*
X-44526Y-27317D01*
X-45427Y-27837D01*
X-46163Y-28573D01*
X-46683Y-29474D01*
X-46953Y-30480D01*
Y-31520D01*
X-46683Y-32526D01*
X-46163Y-33427D01*
X-45427Y-34163D01*
X-44526Y-34683D01*
X-43520Y-34953D01*
X-42480D01*
X-41474Y-34683D01*
X-40573Y-34163D01*
X-39837Y-33427D01*
X-39317Y-32526D01*
X-39047Y-31520D01*
Y-30480D01*
X-39317Y-29474D01*
X-39837Y-28573D01*
X-40573Y-27837D01*
X-41474Y-27317D01*
X-42480Y-27047D01*
D02*
G37*
G36*
X-94662Y-38552D02*
X-103748D01*
Y-44882D01*
X-94662D01*
Y-38552D01*
D02*
G37*
G36*
X17520Y-37047D02*
X16480D01*
X15474Y-37317D01*
X14573Y-37837D01*
X13837Y-38573D01*
X13317Y-39474D01*
X13047Y-40480D01*
Y-41520D01*
X13317Y-42526D01*
X13837Y-43427D01*
X14573Y-44163D01*
X15474Y-44683D01*
X16480Y-44953D01*
X17520D01*
X18526Y-44683D01*
X19427Y-44163D01*
X20163Y-43427D01*
X20683Y-42526D01*
X20953Y-41520D01*
Y-40480D01*
X20683Y-39474D01*
X20163Y-38573D01*
X19427Y-37837D01*
X18526Y-37317D01*
X17520Y-37047D01*
D02*
G37*
G36*
X-42480D02*
X-43520D01*
X-44526Y-37317D01*
X-45427Y-37837D01*
X-46163Y-38573D01*
X-46683Y-39474D01*
X-46953Y-40480D01*
Y-41520D01*
X-46683Y-42526D01*
X-46163Y-43427D01*
X-45427Y-44163D01*
X-44526Y-44683D01*
X-43520Y-44953D01*
X-42480D01*
X-41474Y-44683D01*
X-40573Y-44163D01*
X-39837Y-43427D01*
X-39317Y-42526D01*
X-39047Y-41520D01*
Y-40480D01*
X-39317Y-39474D01*
X-39837Y-38573D01*
X-40573Y-37837D01*
X-41474Y-37317D01*
X-42480Y-37047D01*
D02*
G37*
G36*
X17520Y-47047D02*
X16480D01*
X15474Y-47317D01*
X14573Y-47837D01*
X13837Y-48573D01*
X13317Y-49474D01*
X13047Y-50480D01*
Y-51520D01*
X13317Y-52526D01*
X13837Y-53427D01*
X14573Y-54163D01*
X15474Y-54683D01*
X16480Y-54953D01*
X17520D01*
X18526Y-54683D01*
X19427Y-54163D01*
X20163Y-53427D01*
X20683Y-52526D01*
X20953Y-51520D01*
Y-50480D01*
X20683Y-49474D01*
X20163Y-48573D01*
X19427Y-47837D01*
X18526Y-47317D01*
X17520Y-47047D01*
D02*
G37*
G36*
X-42480D02*
X-43520D01*
X-44526Y-47317D01*
X-45427Y-47837D01*
X-46163Y-48573D01*
X-46683Y-49474D01*
X-46953Y-50480D01*
Y-51520D01*
X-46683Y-52526D01*
X-46163Y-53427D01*
X-45427Y-54163D01*
X-44526Y-54683D01*
X-43520Y-54953D01*
X-42480D01*
X-41474Y-54683D01*
X-40573Y-54163D01*
X-39837Y-53427D01*
X-39317Y-52526D01*
X-39047Y-51520D01*
Y-50480D01*
X-39317Y-49474D01*
X-39837Y-48573D01*
X-40573Y-47837D01*
X-41474Y-47317D01*
X-42480Y-47047D01*
D02*
G37*
G36*
X-94662Y-53118D02*
X-98705D01*
Y-55783D01*
X-94662D01*
Y-53118D01*
D02*
G37*
G36*
X-70252D02*
X-79338D01*
Y-59448D01*
X-70252D01*
Y-53118D01*
D02*
G37*
G36*
X-94662Y-56783D02*
X-98705D01*
Y-59448D01*
X-94662D01*
Y-56783D01*
D02*
G37*
G36*
X17520Y-57047D02*
X16480D01*
X15474Y-57317D01*
X14573Y-57837D01*
X13837Y-58573D01*
X13317Y-59474D01*
X13047Y-60480D01*
Y-61520D01*
X13317Y-62526D01*
X13837Y-63427D01*
X14573Y-64163D01*
X15474Y-64683D01*
X16480Y-64953D01*
X17520D01*
X18526Y-64683D01*
X19427Y-64163D01*
X20163Y-63427D01*
X20683Y-62526D01*
X20953Y-61520D01*
Y-60480D01*
X20683Y-59474D01*
X20163Y-58573D01*
X19427Y-57837D01*
X18526Y-57317D01*
X17520Y-57047D01*
D02*
G37*
G36*
X-42480D02*
X-43520D01*
X-44526Y-57317D01*
X-45427Y-57837D01*
X-46163Y-58573D01*
X-46683Y-59474D01*
X-46953Y-60480D01*
Y-61520D01*
X-46683Y-62526D01*
X-46163Y-63427D01*
X-45427Y-64163D01*
X-44526Y-64683D01*
X-43520Y-64953D01*
X-42480D01*
X-41474Y-64683D01*
X-40573Y-64163D01*
X-39837Y-63427D01*
X-39317Y-62526D01*
X-39047Y-61520D01*
Y-60480D01*
X-39317Y-59474D01*
X-39837Y-58573D01*
X-40573Y-57837D01*
X-41474Y-57317D01*
X-42480Y-57047D01*
D02*
G37*
G36*
Y-67047D02*
X-42500D01*
Y-70500D01*
X-39047D01*
Y-70480D01*
X-39317Y-69474D01*
X-39837Y-68573D01*
X-40573Y-67837D01*
X-41474Y-67317D01*
X-42480Y-67047D01*
D02*
G37*
G36*
X-43500D02*
X-43520D01*
X-44526Y-67317D01*
X-45427Y-67837D01*
X-46163Y-68573D01*
X-46683Y-69474D01*
X-46953Y-70480D01*
Y-70500D01*
X-43500D01*
Y-67047D01*
D02*
G37*
G36*
X17520D02*
X16480D01*
X15474Y-67317D01*
X14573Y-67837D01*
X13837Y-68573D01*
X13317Y-69474D01*
X13047Y-70480D01*
Y-71520D01*
X13317Y-72526D01*
X13837Y-73427D01*
X14573Y-74163D01*
X15474Y-74683D01*
X16480Y-74953D01*
X17520D01*
X18526Y-74683D01*
X19427Y-74163D01*
X20163Y-73427D01*
X20683Y-72526D01*
X20953Y-71520D01*
Y-70480D01*
X20683Y-69474D01*
X20163Y-68573D01*
X19427Y-67837D01*
X18526Y-67317D01*
X17520Y-67047D01*
D02*
G37*
G36*
X-39047Y-71500D02*
X-46953D01*
Y-71520D01*
X-46683Y-72526D01*
X-46163Y-73427D01*
X-45427Y-74163D01*
X-44937Y-74446D01*
Y-77554D01*
X-45427Y-77837D01*
X-46163Y-78573D01*
X-46683Y-79474D01*
X-46953Y-80480D01*
Y-80500D01*
X-39047D01*
Y-80480D01*
X-39317Y-79474D01*
X-39837Y-78573D01*
X-40573Y-77837D01*
X-41063Y-77554D01*
Y-74446D01*
X-40573Y-74163D01*
X-39837Y-73427D01*
X-39317Y-72526D01*
X-39047Y-71520D01*
Y-71500D01*
D02*
G37*
G36*
X17520Y-77047D02*
X16480D01*
X15474Y-77317D01*
X14573Y-77837D01*
X13837Y-78573D01*
X13317Y-79474D01*
X13047Y-80480D01*
Y-81520D01*
X13317Y-82526D01*
X13837Y-83427D01*
X14573Y-84163D01*
X15474Y-84683D01*
X16480Y-84953D01*
X17520D01*
X18526Y-84683D01*
X19427Y-84163D01*
X20163Y-83427D01*
X20683Y-82526D01*
X20953Y-81520D01*
Y-80480D01*
X20683Y-79474D01*
X20163Y-78573D01*
X19427Y-77837D01*
X18526Y-77317D01*
X17520Y-77047D01*
D02*
G37*
G36*
X118776Y-111315D02*
X116377Y-113798D01*
X118861Y-116197D01*
X121259Y-113713D01*
X118776Y-111315D01*
D02*
G37*
G36*
X121979Y-114408D02*
X119580Y-116892D01*
X122064Y-119290D01*
X124462Y-116806D01*
X121979Y-114408D01*
D02*
G37*
G36*
X115682Y-114518D02*
X113284Y-117002D01*
X115768Y-119400D01*
X118166Y-116916D01*
X115682Y-114518D01*
D02*
G37*
G36*
X118886Y-117611D02*
X116487Y-120095D01*
X118971Y-122493D01*
X121369Y-120010D01*
X118886Y-117611D01*
D02*
G37*
G36*
X112378Y-120136D02*
X111337Y-120154D01*
X110337Y-120441D01*
X109445Y-120977D01*
X108722Y-121726D01*
X108217Y-122636D01*
X107965Y-123646D01*
X107984Y-124687D01*
X108270Y-125687D01*
X108806Y-126579D01*
X109555Y-127302D01*
X110465Y-127807D01*
X111475Y-128059D01*
X112516Y-128041D01*
X113516Y-127754D01*
X114409Y-127218D01*
X115131Y-126469D01*
X115636Y-125559D01*
X115888Y-124549D01*
X115870Y-123508D01*
X115583Y-122508D01*
X115047Y-121616D01*
X114298Y-120893D01*
X113388Y-120388D01*
X112378Y-120136D01*
D02*
G37*
G36*
X15508Y-151290D02*
Y-155884D01*
X18002D01*
Y-154219D01*
X17900Y-153444D01*
X17601Y-152722D01*
X17125Y-152102D01*
X16505Y-151626D01*
X15783Y-151327D01*
X15508Y-151290D01*
D02*
G37*
G36*
X35961Y-169862D02*
X33000D01*
Y-172331D01*
X35961D01*
Y-169862D01*
D02*
G37*
G36*
Y-173331D02*
X33000D01*
Y-175800D01*
X35961D01*
Y-173331D01*
D02*
G37*
G36*
X14508Y-173341D02*
X12014D01*
Y-174416D01*
X12116Y-175191D01*
X12415Y-175913D01*
X12891Y-176533D01*
X13511Y-177009D01*
X14233Y-177308D01*
X14508Y-177344D01*
Y-173341D01*
D02*
G37*
%LPD*%
D11*
X17000Y-31000D02*
X73056Y-87056D01*
Y-154853D02*
Y-87056D01*
X-48100Y-166000D02*
X-47000D01*
X-1016Y-151500D02*
Y-135016D01*
X77000Y-103311D02*
Y32500D01*
X86100Y-112411D02*
X104980Y-131291D01*
X77000Y-103311D02*
X86100Y-112411D01*
X-52576Y148229D02*
Y150102D01*
X-8500Y-139000D02*
Y-128500D01*
X-6500Y-126500D01*
Y-54500D01*
X17000Y-31000D01*
Y-21000D02*
X75200Y-79200D01*
Y-143337D02*
Y-79200D01*
Y-143337D02*
X81716Y-149853D01*
X-1016Y-135016D02*
X-700Y-134700D01*
X6500D01*
Y-139000D02*
Y-134700D01*
X18507Y130607D02*
Y149266D01*
X17000Y129100D02*
X18507Y130607D01*
X17000Y109000D02*
Y129100D01*
X-86097Y127832D02*
Y138597D01*
X-91858Y122071D02*
X-86097Y127832D01*
X-1000Y-131200D02*
X1800D01*
X-3500Y-133700D02*
X-1000Y-131200D01*
X-3500Y-139000D02*
Y-133700D01*
X77036Y137136D02*
Y146964D01*
X86100Y-156700D02*
Y-112411D01*
X81000Y-161800D02*
X86100Y-156700D01*
X70000Y-161800D02*
X81000D01*
X62834Y-168966D02*
X70000Y-161800D01*
X46000Y-168966D02*
X62834D01*
X-18500Y-116382D02*
Y-48500D01*
X13000Y-17000D01*
X27500D01*
X77000Y32500D01*
Y137100D01*
X-99334Y8966D02*
X-91000D01*
X-108500Y8500D02*
X-99334Y8966D01*
X-10858Y-154159D02*
Y-151858D01*
X-6500Y-147500D01*
Y-130177D01*
X-4023Y-127700D01*
X3700D01*
X8500Y-132500D01*
Y-149939D02*
Y-132500D01*
X8039Y-150400D02*
X8500Y-149939D01*
X8039Y-154159D02*
Y-150400D01*
X-91000Y3034D02*
X-68966D01*
X-43000Y29000D01*
X-52576Y150102D02*
X-51307D01*
X-54100Y146705D02*
X-52576Y148229D01*
X-54100Y119500D02*
Y146705D01*
Y119500D02*
X-47700Y113100D01*
X-17100D01*
X17000Y79000D01*
X-71492Y-147237D02*
X-46563D01*
X-31500Y-162300D01*
X-13000D01*
X-10858Y-160158D01*
Y-154159D01*
X-151571Y-72929D02*
X-133771D01*
X-116228Y-90472D01*
Y-93389D02*
Y-90472D01*
X-155000Y-76358D02*
X-151571Y-72929D01*
X-155000Y-79358D02*
Y-76358D01*
Y-79358D02*
X-114100Y-120258D01*
Y-136500D02*
Y-120258D01*
Y-136500D02*
X-108900Y-141700D01*
X-83000D01*
X-80654Y-139354D01*
Y-128842D01*
X-97729Y122071D02*
X-91858D01*
X-101900Y117900D02*
X-97729Y122071D01*
X-110100Y117900D02*
X-101900D01*
X-111700Y119500D02*
X-110100Y117900D01*
X-124100Y119500D02*
X-111700D01*
X-128300Y115300D02*
X-124100Y119500D01*
X-128300Y64495D02*
Y115300D01*
X-144795Y48000D02*
X-128300Y64495D01*
X77000Y137100D02*
X77036Y137136D01*
X-35000Y-164034D02*
Y-161500D01*
X-51000D02*
X-35000D01*
X-53500Y-164000D02*
X-51000Y-161500D01*
X-53500Y-171400D02*
Y-164000D01*
Y-171400D02*
X-51000Y-173900D01*
X-39900D01*
X-34700Y-179100D01*
X-10100D01*
X4890Y-164110D01*
Y-154159D01*
X-47000Y-166000D02*
Y-164034D01*
X-49600Y-167500D02*
X-48100Y-166000D01*
X-49600Y-172400D02*
Y-167500D01*
Y-172400D02*
X-38600D01*
X-33600Y-177400D01*
X-11021D01*
X-6921Y-173300D01*
Y-154159D01*
X-1016D02*
Y-151500D01*
X-2816Y-149700D02*
X-1016Y-151500D01*
X-3153Y-149700D02*
X-2816D01*
X-4953Y-151500D02*
X-3153Y-149700D01*
X-4953Y-154159D02*
Y-151500D01*
X-2984Y-157300D02*
Y-154159D01*
Y-157300D02*
X953D01*
Y-154159D01*
X-69295Y-11000D02*
X-43000D01*
X-74795Y-16500D02*
X-69295Y-11000D01*
X-74795Y-41717D02*
Y-16500D01*
X-98929Y115000D02*
X-88000D01*
X-81903Y121097D01*
Y134403D01*
X-99346Y-113158D02*
X-91000D01*
X-80654Y-123504D01*
Y-128842D02*
Y-123504D01*
X-44044Y-127756D02*
X-32000D01*
X-46600Y-125200D02*
X-44044Y-127756D01*
X-67858Y-125200D02*
X-46600D01*
X-71500Y-128842D02*
X-67858Y-125200D01*
X-80654Y-128842D02*
X-71500D01*
X-74834Y-121905D02*
X-66677D01*
X-61272Y-116500D01*
Y-114111D01*
X-73802Y51569D02*
X-60431D01*
X-43000Y69000D01*
X-58508Y-131763D02*
X-57875Y-131009D01*
Y-130300D01*
X-29400D01*
Y-125000D01*
X-39200D02*
X-29400D01*
X-42589Y-121611D02*
X-39200Y-125000D01*
X-52772Y-121611D02*
X-42589D01*
X-144795Y10205D02*
Y48000D01*
X-163000Y-8000D02*
X-144795Y10205D01*
X-165543Y-8000D02*
X-163000D01*
X17000Y-25000D02*
Y-21000D01*
X-10900Y-52900D02*
X17000Y-25000D01*
X-10900Y-134100D02*
Y-52900D01*
X-13500Y-136700D02*
X-10900Y-134100D01*
X-13500Y-139000D02*
Y-136700D01*
X-165543Y-8000D02*
X-151571Y-21972D01*
Y-72929D02*
Y-21972D01*
X-8055Y149266D02*
X-1179D01*
X-10500Y146821D02*
X-8055Y149266D01*
X-17279Y146821D02*
X-10500D01*
X-31784Y143081D02*
X-26335D01*
X-32900Y144197D02*
X-31784Y143081D01*
X-38307Y144197D02*
X-32900D01*
X-51307D02*
X-38307D01*
X-53300Y-121611D02*
X-52772D01*
X-60800Y-114111D02*
X-53300Y-121611D01*
X-61272Y-114111D02*
X-60800D01*
X39735Y-163034D02*
X46000D01*
X38600Y-164169D02*
X39735Y-163034D01*
X32500Y-164169D02*
X38600D01*
X1500Y-146353D02*
Y-139000D01*
X953Y-146900D02*
X1500Y-146353D01*
X953Y-154159D02*
Y-146900D01*
X-108300Y-100389D02*
X-107228D01*
X-115300Y-93389D02*
X-108300Y-100389D01*
X-116228Y-93389D02*
X-115300D01*
X6858Y-154159D02*
X8039D01*
X-12039D02*
X-10858D01*
X-117113Y48287D02*
X-109329D01*
X-117400Y48000D02*
X-117113Y48287D01*
X-125110Y48000D02*
X-117400D01*
X-92984Y45663D02*
X-86802D01*
X-94100Y44547D02*
X-92984Y45663D01*
X-100274Y44547D02*
X-94100D01*
X-86802Y45663D02*
X-73802D01*
D17*
X-58508Y-131763D02*
D03*
X-71492Y-147237D02*
D03*
D18*
X-18500Y-116382D02*
D03*
X-3500Y-139000D02*
D03*
X6500D02*
D03*
X1500D02*
D03*
X-13500D02*
D03*
X-8500D02*
D03*
X-18500D02*
D03*
X11500D02*
D03*
X16500D02*
D03*
X-13500Y-116382D02*
D03*
X-8500D02*
D03*
X-3500D02*
D03*
X1500D02*
D03*
X6500D02*
D03*
X11500D02*
D03*
X16500D02*
D03*
D19*
X-26335Y150561D02*
D03*
X-17279Y146821D02*
D03*
X-26335Y143081D02*
D03*
X-100274Y44547D02*
D03*
X-109329Y48287D02*
D03*
X-100274Y52027D02*
D03*
D20*
X-51307Y144197D02*
D03*
Y150102D02*
D03*
X-38307D02*
D03*
Y144197D02*
D03*
X-73802Y51569D02*
D03*
X-86802Y45663D02*
D03*
X-73802D02*
D03*
X-86802Y51569D02*
D03*
D21*
X-99205Y-41717D02*
D03*
X-74795D02*
D03*
X-99205Y-56283D02*
D03*
X-74795D02*
D03*
D22*
X-99346Y-113158D02*
D03*
D23*
X-80654Y-128842D02*
D03*
X-74834Y-121905D02*
D03*
X-86475Y-135779D02*
D03*
D24*
X-107228Y-100389D02*
D03*
X-116228Y-93389D02*
D03*
X-52772Y-121611D02*
D03*
X-61272Y-114111D02*
D03*
X-49228Y-117389D02*
D03*
X-57728Y-109889D02*
D03*
X-110771Y-104611D02*
D03*
X-119771Y-97611D02*
D03*
D25*
X-32000Y-127756D02*
D03*
Y-122244D02*
D03*
D26*
X32500Y-164169D02*
D03*
Y-172831D02*
D03*
D57*
X-15189Y-154159D02*
D03*
X-14008D02*
D03*
X-12039D02*
D03*
X-10858D02*
D03*
X-8890D02*
D03*
X-6921D02*
D03*
X-4953D02*
D03*
X-2984D02*
D03*
X-1016D02*
D03*
X953D02*
D03*
X2921D02*
D03*
X4890D02*
D03*
X6858D02*
D03*
X8039D02*
D03*
X10008D02*
D03*
X11189D02*
D03*
D58*
X-35000Y-169966D02*
D03*
Y-164034D02*
D03*
X-91000Y8966D02*
D03*
Y3034D02*
D03*
X46000Y-168966D02*
D03*
Y-163034D02*
D03*
X-47000Y-164034D02*
D03*
Y-169966D02*
D03*
D59*
X-81903Y134403D02*
D03*
X-86097Y138597D02*
D03*
D60*
X-38800Y150102D02*
Y151600D01*
X-118500Y-48783D02*
Y8500D01*
Y-63700D02*
Y-48783D01*
X-103300Y-56283D02*
X-99205D01*
X-111000D02*
X-103300D01*
Y-78900D02*
Y-56283D01*
Y-102500D02*
Y-78900D01*
X-15189Y-154200D02*
Y-154159D01*
X-18889Y-154200D02*
X-18500Y-147092D01*
X-19008Y-156384D02*
X-18889Y-154200D01*
X11189Y-156384D02*
Y-154159D01*
Y-156384D02*
X15008D01*
X-18889Y-154200D02*
X-15189D01*
X-19008D02*
X-18889D01*
X-35000Y-169966D02*
X-19008D01*
X-103300Y-78900D02*
X-72311Y-109889D01*
X-118500Y-63700D02*
X-103300Y-78900D01*
X-45000Y-117389D02*
X-43100D01*
X-120142Y71470D02*
X-103073Y52027D01*
X-120142Y71470D02*
Y107929D01*
X-118500Y8500D02*
X-104600Y22400D01*
Y50500D01*
X-103073Y52027D01*
X-100274D01*
X-43000Y-115389D02*
Y-81000D01*
X-45000Y-117389D02*
X-43000Y-115389D01*
X-49228Y-117389D02*
X-45000D01*
X-18500Y-147092D02*
Y-139000D01*
X-38800Y150102D02*
X-38307D01*
X-40000Y152800D02*
X-38800Y151600D01*
X-55600Y152800D02*
X-40000D01*
X-58900Y149500D02*
X-55600Y152800D01*
X-58900Y72669D02*
Y149500D01*
X-80000Y51569D02*
X-58900Y72669D01*
X-86802Y51569D02*
X-80000D01*
X-32000Y-122244D02*
X-22568D01*
X-18500Y-126312D01*
Y-139000D02*
Y-126312D01*
X-19008Y-156384D02*
Y-154200D01*
X-72311Y-109889D02*
X-57728D01*
X22241Y99000D02*
X72705Y149464D01*
X17000Y99000D02*
X22241D01*
X-21800Y137800D02*
X17000Y99000D01*
X-21800Y137800D02*
Y149500D01*
X-22861Y150561D02*
X-21800Y149500D01*
X-26335Y150561D02*
X-22861D01*
X-103342Y-135779D02*
X-86475D01*
X-110771Y-128349D02*
X-103342Y-135779D01*
X-110771Y-128349D02*
Y-104611D01*
X-132379Y-97611D02*
X-119771D01*
X-144071Y-85919D02*
X-132379Y-97611D01*
X-118500Y-48783D02*
X-111000Y-56283D01*
X-105411Y-104611D02*
X-103300Y-102500D01*
X-110771Y-104611D02*
X-105411D01*
X-19008Y-172841D02*
Y-169966D01*
X-32141Y150561D02*
X-26335D01*
X-32600Y150102D02*
X-32141Y150561D01*
X-38307Y150102D02*
X-32600D01*
X-93341Y51569D02*
X-86802D01*
X-93800Y52027D02*
X-93341Y51569D01*
X-100274Y52027D02*
X-93800D01*
X-111800Y-104611D02*
X-110771D01*
X-118800Y-97611D02*
X-111800Y-104611D01*
X-119771Y-97611D02*
X-118800D01*
X-43000Y-81000D02*
Y-71000D01*
X-38245Y-122244D02*
X-32000D01*
X-43100Y-117389D02*
X-38245Y-122244D01*
X-49800Y-117389D02*
X-49228D01*
X-57300Y-109889D02*
X-49800Y-117389D01*
X-57728Y-109889D02*
X-57300D01*
X23710Y-172831D02*
X32500D01*
X23700Y-172841D02*
X23710Y-172831D01*
X15008Y-172841D02*
X23700D01*
X15008D02*
Y-156384D01*
X10008Y-154159D02*
X11189D01*
X-47000Y-169966D02*
X-35000D01*
X-15189Y-154159D02*
X-14008D01*
D61*
X73056Y-154853D02*
D03*
D62*
X81716Y-149853D02*
D03*
X-118500Y8500D02*
D03*
D63*
X111927Y-124097D02*
D03*
X104980Y-131291D02*
D03*
X-43000Y-41000D02*
D03*
Y-31000D02*
D03*
X17000Y69000D02*
D03*
Y-41000D02*
D03*
X-43000Y-1000D02*
D03*
Y19000D02*
D03*
Y39000D02*
D03*
Y49000D02*
D03*
Y59000D02*
D03*
X17000Y79000D02*
D03*
X-43000Y69000D02*
D03*
X17000Y109000D02*
D03*
Y-21000D02*
D03*
Y-31000D02*
D03*
Y99000D02*
D03*
Y89000D02*
D03*
Y59000D02*
D03*
Y49000D02*
D03*
Y39000D02*
D03*
Y29000D02*
D03*
Y19000D02*
D03*
Y9000D02*
D03*
Y-1000D02*
D03*
Y-11000D02*
D03*
Y-51000D02*
D03*
Y-61000D02*
D03*
Y-71000D02*
D03*
Y-81000D02*
D03*
X-43000D02*
D03*
Y-71000D02*
D03*
Y-61000D02*
D03*
Y-51000D02*
D03*
Y-21000D02*
D03*
Y-11000D02*
D03*
Y9000D02*
D03*
Y29000D02*
D03*
Y79000D02*
D03*
Y89000D02*
D03*
Y99000D02*
D03*
D64*
X118873Y-116904D02*
D03*
D65*
X-19008Y-156384D02*
D03*
X15008D02*
D03*
D66*
X-19008Y-172841D02*
D03*
X15008D02*
D03*
D67*
X-1180Y149266D02*
D03*
X18505D02*
D03*
X-125109Y48000D02*
D03*
X-144794D02*
D03*
D68*
X-165543Y-3000D02*
D03*
D69*
Y-8000D02*
D03*
Y-13000D02*
D03*
Y-18000D02*
D03*
X-149071Y-77259D02*
D03*
X-146571Y-81589D02*
D03*
X-144071Y-85919D02*
D03*
X72705Y149464D02*
D03*
X68375Y151964D02*
D03*
X64045Y154464D02*
D03*
D70*
X-151571Y-72929D02*
D03*
D71*
X77036Y146964D02*
D03*
D72*
X-113071Y100858D02*
D03*
D73*
X-120142Y107929D02*
D03*
X-106000D02*
D03*
X-113071Y115000D02*
D03*
X-98929D02*
D03*
X-106000Y122071D02*
D03*
X-91858D02*
D03*
X-98929Y129142D02*
D03*
D74*
X-43000Y109000D02*
D03*
D75*
X-108500Y8500D02*
D03*
D76*
X1800Y-131200D02*
D03*
M02*
