G04*
G04 #@! TF.GenerationSoftware,Altium Limited,Altium Designer,24.6.1 (21)*
G04*
G04 Layer_Color=8388736*
%FSLAX25Y25*%
%MOIN*%
G70*
G04*
G04 #@! TF.SameCoordinates,810A1A35-3EFD-48DE-86EF-F02317520920*
G04*
G04*
G04 #@! TF.FilePolarity,Positive*
G04*
G01*
G75*
%ADD10C,0.01181*%
%ADD78C,0.00984*%
G36*
X11779Y-181217D02*
X9811D01*
Y-165469D01*
X-13811D01*
Y-181217D01*
X-15779D01*
Y-163500D01*
X11779D01*
Y-181217D01*
D02*
G37*
G36*
X32871Y-163776D02*
X35256D01*
X35256Y-164563D01*
X32871D01*
Y-166001D01*
X32280D01*
Y-164563D01*
X29744D01*
X29744Y-163776D01*
X32280D01*
Y-162064D01*
X32871D01*
Y-163776D01*
D02*
G37*
G36*
X32500Y-170862D02*
X32500Y-174799D01*
X31909Y-174799D01*
X31909Y-170862D01*
X32500Y-170862D01*
D02*
G37*
G36*
X19893Y156266D02*
X21163D01*
Y155266D01*
X19893D01*
Y153630D01*
X18893D01*
Y154130D01*
Y155266D01*
X17163D01*
Y156266D01*
X18893D01*
Y157630D01*
X19893D01*
Y156266D01*
D02*
G37*
G36*
X-145182Y55000D02*
X-143451D01*
Y54000D01*
X-145182D01*
Y52863D01*
Y52363D01*
X-146182D01*
Y54000D01*
X-147451D01*
Y55000D01*
X-146182D01*
Y56363D01*
X-145182D01*
Y55000D01*
D02*
G37*
G36*
X-58555Y-132410D02*
X-60509Y-134740D01*
X-61092Y-134251D01*
X-59137Y-131921D01*
X-58555Y-132410D01*
D02*
G37*
G36*
X-70224Y-145134D02*
X-69491Y-144260D01*
X-68908Y-144749D01*
X-69641Y-145623D01*
X-67991Y-147007D01*
X-68480Y-147590D01*
X-70130Y-146205D01*
X-70863Y-147079D01*
X-71446Y-146590D01*
X-70712Y-145716D01*
X-72363Y-144332D01*
X-71874Y-143749D01*
X-70224Y-145134D01*
D02*
G37*
D10*
X-17909Y-141667D02*
G03*
X-17909Y-141667I-591J0D01*
G01*
X-28116Y143121D02*
G03*
X-28116Y143121I-591J0D01*
G01*
X-97311Y44587D02*
G03*
X-97311Y44587I-591J0D01*
G01*
D78*
X9870Y-158351D02*
G03*
X9870Y-158351I-492J0D01*
G01*
X-12886D02*
G03*
X-12886Y-158351I-492J0D01*
G01*
M02*
