G04*
G04 #@! TF.GenerationSoftware,Altium Limited,Altium Designer,24.6.1 (21)*
G04*
G04 Layer_Color=8421504*
%FSLAX25Y25*%
%MOIN*%
G70*
G04*
G04 #@! TF.SameCoordinates,EDD53237-EAC9-4869-82B0-0CFB14AF029E*
G04*
G04*
G04 #@! TF.FilePolarity,Positive*
G04*
G01*
G75*
%ADD18R,0.07087X0.04331*%
%ADD19O,0.06870X0.02205*%
%ADD20R,0.03937X0.02953*%
%ADD21R,0.03937X0.03150*%
%ADD22R,0.08661X0.06693*%
%ADD23R,0.08661X0.13780*%
%ADD24R,0.08661X0.04331*%
%ADD25R,0.03543X0.03150*%
%ADD26R,0.04921X0.03937*%
G36*
X147272Y378705D02*
Y375594D01*
X147075Y375398D01*
X146177D01*
Y376894D01*
X144878D01*
Y375398D01*
X143925D01*
X143728Y375594D01*
Y378705D01*
X143925Y378902D01*
X147075D01*
X147272Y378705D01*
D02*
G37*
G36*
Y372445D02*
Y369295D01*
X147075Y369098D01*
X143925D01*
X143728Y369295D01*
Y372445D01*
X143925Y372642D01*
X144878D01*
Y371185D01*
X146177D01*
Y372642D01*
X147075D01*
X147272Y372445D01*
D02*
G37*
G36*
X161272Y311705D02*
Y308555D01*
X161075Y308358D01*
X160122D01*
Y309815D01*
X158823D01*
Y308358D01*
X157925D01*
X157728Y308555D01*
Y311705D01*
X157925Y311902D01*
X161075D01*
X161272Y311705D01*
D02*
G37*
G36*
Y305406D02*
Y302295D01*
X161075Y302098D01*
X157925D01*
X157728Y302295D01*
Y305406D01*
X157925Y305602D01*
X158823D01*
Y304106D01*
X160122D01*
Y305602D01*
X161075D01*
X161272Y305406D01*
D02*
G37*
G36*
X369772Y150205D02*
Y147094D01*
X369575Y146898D01*
X368677D01*
Y148394D01*
X367378D01*
Y146898D01*
X366425D01*
X366228Y147094D01*
Y150205D01*
X366425Y150401D01*
X369575D01*
X369772Y150205D01*
D02*
G37*
G36*
Y143945D02*
Y140795D01*
X369575Y140598D01*
X366425D01*
X366228Y140795D01*
Y143945D01*
X366425Y144142D01*
X367378D01*
Y142685D01*
X368677D01*
Y144142D01*
X369575D01*
X369772Y143945D01*
D02*
G37*
G36*
X253280Y127577D02*
X252099D01*
Y127577D01*
X250918D01*
Y132104D01*
X253280D01*
Y127577D01*
D02*
G37*
G36*
X250130Y127577D02*
X247767D01*
Y132104D01*
X250130D01*
Y127577D01*
D02*
G37*
G36*
X246981D02*
X245799D01*
Y132104D01*
X246981D01*
Y127577D01*
D02*
G37*
G36*
X245012D02*
X243830D01*
Y132104D01*
X245012D01*
Y127577D01*
D02*
G37*
G36*
X243044D02*
X241863D01*
Y132104D01*
X243044D01*
Y127577D01*
D02*
G37*
G36*
X241075D02*
X239894D01*
Y132104D01*
X241075D01*
Y127577D01*
D02*
G37*
G36*
X239107D02*
X237926D01*
Y132104D01*
X239107D01*
Y127577D01*
D02*
G37*
G36*
X237138D02*
X235957D01*
Y132104D01*
X237138D01*
Y127577D01*
D02*
G37*
G36*
X235170D02*
X233988D01*
Y132104D01*
X235170D01*
Y127577D01*
D02*
G37*
G36*
X233201D02*
X232019D01*
Y132104D01*
X233201D01*
Y127577D01*
D02*
G37*
G36*
X231233D02*
X228871D01*
Y132104D01*
X231233D01*
Y127577D01*
D02*
G37*
G36*
X228083D02*
X225721D01*
Y132104D01*
X228083D01*
Y127577D01*
D02*
G37*
G36*
X257623Y131451D02*
X258177Y130897D01*
X258476Y130173D01*
Y129782D01*
Y125451D01*
Y125059D01*
X258177Y124336D01*
X257623Y123782D01*
X256899Y123483D01*
X256116D01*
X255393Y123782D01*
X254839Y124336D01*
X254539Y125059D01*
Y125451D01*
Y129782D01*
Y130173D01*
X254839Y130897D01*
X255393Y131451D01*
X256116Y131750D01*
X256899D01*
X257623Y131451D01*
D02*
G37*
G36*
X223607D02*
X224161Y130897D01*
X224461Y130173D01*
Y129782D01*
Y125451D01*
Y125059D01*
X224161Y124336D01*
X223607Y123782D01*
X222884Y123483D01*
X222100D01*
X221377Y123782D01*
X220823Y124336D01*
X220524Y125059D01*
Y125451D01*
Y129782D01*
Y130173D01*
X220823Y130897D01*
X221377Y131451D01*
X222100Y131750D01*
X222884D01*
X223607Y131451D01*
D02*
G37*
G36*
X199772Y112739D02*
Y109628D01*
X199575Y109432D01*
X198677D01*
Y110928D01*
X197378D01*
Y109432D01*
X196425D01*
X196228Y109628D01*
Y112739D01*
X196425Y112935D01*
X199575D01*
X199772Y112739D01*
D02*
G37*
G36*
X209272Y112739D02*
Y109589D01*
X209075Y109392D01*
X208122D01*
Y110849D01*
X206823D01*
Y109392D01*
X205925D01*
X205728Y109589D01*
Y112739D01*
X205925Y112936D01*
X209075D01*
X209272Y112739D01*
D02*
G37*
G36*
X257623Y114403D02*
X258177Y113849D01*
X258476Y113126D01*
Y112734D01*
Y109585D01*
Y109193D01*
X258177Y108470D01*
X257623Y107916D01*
X256899Y107616D01*
X256116D01*
X255393Y107916D01*
X254839Y108470D01*
X254539Y109193D01*
Y109585D01*
Y112734D01*
Y113126D01*
X254839Y113849D01*
X255393Y114403D01*
X256116Y114703D01*
X256899D01*
X257623Y114403D01*
D02*
G37*
G36*
X223607D02*
X224161Y113849D01*
X224461Y113126D01*
Y112734D01*
Y109585D01*
Y109193D01*
X224161Y108470D01*
X223607Y107916D01*
X222884Y107616D01*
X222100D01*
X221377Y107916D01*
X220823Y108470D01*
X220524Y109193D01*
Y109585D01*
Y112734D01*
Y113126D01*
X220823Y113849D01*
X221377Y114403D01*
X222100Y114703D01*
X222884D01*
X223607Y114403D01*
D02*
G37*
G36*
X199772Y106479D02*
Y103329D01*
X199575Y103132D01*
X196425D01*
X196228Y103329D01*
Y106479D01*
X196425Y106676D01*
X197378D01*
Y105219D01*
X198677D01*
Y106676D01*
X199575D01*
X199772Y106479D01*
D02*
G37*
G36*
X209272Y106440D02*
Y103329D01*
X209075Y103132D01*
X205925D01*
X205728Y103329D01*
Y106440D01*
X205925Y106636D01*
X206823D01*
Y105140D01*
X208122D01*
Y106636D01*
X209075D01*
X209272Y106440D01*
D02*
G37*
D18*
X154295Y243783D02*
D03*
X178705D02*
D03*
X154295Y229217D02*
D03*
X178705D02*
D03*
D19*
X313691Y185000D02*
D03*
Y180000D02*
D03*
Y175000D02*
D03*
Y170000D02*
D03*
Y165000D02*
D03*
Y160000D02*
D03*
Y155000D02*
D03*
X336309Y185000D02*
D03*
Y180000D02*
D03*
Y150000D02*
D03*
Y160000D02*
D03*
Y155000D02*
D03*
Y170000D02*
D03*
Y175000D02*
D03*
Y165000D02*
D03*
X313691Y150000D02*
D03*
D20*
X187000Y268453D02*
D03*
X185500Y207953D02*
D03*
X172500Y202047D02*
D03*
X185500D02*
D03*
X174000Y262547D02*
D03*
X187000D02*
D03*
X172500Y207953D02*
D03*
X174000Y268453D02*
D03*
D21*
X159028Y200931D02*
D03*
X149972Y204671D02*
D03*
X162028Y261431D02*
D03*
X152972Y265171D02*
D03*
X162028Y268911D02*
D03*
X159028Y208411D02*
D03*
D22*
X271900Y112000D02*
D03*
X292100D02*
D03*
D23*
X331700Y116500D02*
D03*
D24*
X307300D02*
D03*
Y107445D02*
D03*
Y125555D02*
D03*
D25*
X349500Y116256D02*
D03*
X364000D02*
D03*
X293500Y140000D02*
D03*
X281000Y134488D02*
D03*
X268000D02*
D03*
X281000Y140000D02*
D03*
X268000D02*
D03*
X349500Y110744D02*
D03*
X364000D02*
D03*
X293500Y134488D02*
D03*
D26*
X386000Y149831D02*
D03*
Y141169D02*
D03*
M02*
