G04*
G04 #@! TF.GenerationSoftware,Altium Limited,Altium Designer,24.6.1 (21)*
G04*
G04 Layer_Color=255*
%FSLAX25Y25*%
%MOIN*%
G70*
G04*
G04 #@! TF.SameCoordinates,EDD53237-EAC9-4869-82B0-0CFB14AF029E*
G04*
G04*
G04 #@! TF.FilePolarity,Positive*
G04*
G01*
G75*
%ADD18R,0.07087X0.04331*%
%ADD19O,0.06870X0.02205*%
%ADD20R,0.03937X0.02953*%
%ADD21R,0.03937X0.03150*%
%ADD22R,0.08661X0.06693*%
%ADD23R,0.08661X0.13780*%
%ADD24R,0.08661X0.04331*%
%ADD25R,0.03543X0.03150*%
%ADD26R,0.04921X0.03937*%
%ADD53R,0.03402X0.03175*%
%ADD54R,0.01181X0.04528*%
%ADD59C,0.06000*%
%ADD60R,0.05906X0.05906*%
%ADD61C,0.05906*%
%ADD62O,0.03937X0.07087*%
%ADD63O,0.03937X0.08268*%
%ADD64R,0.06693X0.06200*%
%ADD65C,0.06693*%
%ADD66C,0.07087*%
%ADD67R,0.06000X0.06000*%
D18*
X154295Y243783D02*
D03*
X178705D02*
D03*
X154295Y229217D02*
D03*
X178705D02*
D03*
D19*
X313691Y185000D02*
D03*
Y180000D02*
D03*
Y175000D02*
D03*
Y170000D02*
D03*
Y165000D02*
D03*
Y160000D02*
D03*
Y155000D02*
D03*
X336309Y185000D02*
D03*
Y180000D02*
D03*
Y150000D02*
D03*
Y160000D02*
D03*
Y155000D02*
D03*
Y170000D02*
D03*
Y175000D02*
D03*
Y165000D02*
D03*
X313691Y150000D02*
D03*
D20*
X187000Y268453D02*
D03*
X185500Y207953D02*
D03*
X172500Y202047D02*
D03*
X185500D02*
D03*
X174000Y262547D02*
D03*
X187000D02*
D03*
X172500Y207953D02*
D03*
X174000Y268453D02*
D03*
D21*
X159028Y200931D02*
D03*
X149972Y204671D02*
D03*
X162028Y261431D02*
D03*
X152972Y265171D02*
D03*
X162028Y268911D02*
D03*
X159028Y208411D02*
D03*
D22*
X271900Y112000D02*
D03*
X292100D02*
D03*
D23*
X331700Y116500D02*
D03*
D24*
X307300D02*
D03*
Y107445D02*
D03*
Y125555D02*
D03*
D25*
X349500Y116256D02*
D03*
X364000D02*
D03*
X293500Y140000D02*
D03*
X281000Y134488D02*
D03*
X268000D02*
D03*
X281000Y140000D02*
D03*
X268000D02*
D03*
X349500Y110744D02*
D03*
X364000D02*
D03*
X293500Y134488D02*
D03*
D26*
X386000Y149831D02*
D03*
Y141169D02*
D03*
D53*
X207500Y105068D02*
D03*
Y111000D02*
D03*
X145500Y376966D02*
D03*
Y371034D02*
D03*
X159500Y309966D02*
D03*
Y304034D02*
D03*
X368000Y142534D02*
D03*
Y148466D02*
D03*
X198000Y111000D02*
D03*
Y105068D02*
D03*
D54*
X252689Y129841D02*
D03*
X251508D02*
D03*
X249539D02*
D03*
X248358D02*
D03*
X246390D02*
D03*
X244421D02*
D03*
X242453D02*
D03*
X240484D02*
D03*
X238516D02*
D03*
X236547D02*
D03*
X234579D02*
D03*
X232610D02*
D03*
X230642D02*
D03*
X229461D02*
D03*
X227492D02*
D03*
X226311D02*
D03*
D59*
X133000Y343100D02*
D03*
X363000Y343500D02*
D03*
X333000D02*
D03*
X343000D02*
D03*
X353000D02*
D03*
X349157Y486000D02*
D03*
X378685D02*
D03*
X368843D02*
D03*
X359000D02*
D03*
X126500Y492500D02*
D03*
X146500D02*
D03*
X116500Y482500D02*
D03*
Y492500D02*
D03*
X136500Y482500D02*
D03*
Y492500D02*
D03*
X126500Y482500D02*
D03*
D60*
X386000Y181500D02*
D03*
X211000Y359000D02*
D03*
D61*
X366000Y181500D02*
D03*
X376000D02*
D03*
X211000Y349000D02*
D03*
Y339000D02*
D03*
Y329000D02*
D03*
Y279000D02*
D03*
Y259000D02*
D03*
Y239000D02*
D03*
Y229000D02*
D03*
Y199000D02*
D03*
Y189000D02*
D03*
Y179000D02*
D03*
Y169000D02*
D03*
X271000D02*
D03*
Y179000D02*
D03*
Y189000D02*
D03*
Y199000D02*
D03*
Y239000D02*
D03*
Y249000D02*
D03*
Y259000D02*
D03*
Y269000D02*
D03*
Y279000D02*
D03*
Y289000D02*
D03*
Y299000D02*
D03*
Y309000D02*
D03*
Y339000D02*
D03*
Y349000D02*
D03*
Y219000D02*
D03*
Y229000D02*
D03*
Y359000D02*
D03*
X211000Y319000D02*
D03*
X271000Y329000D02*
D03*
X211000Y309000D02*
D03*
Y299000D02*
D03*
Y289000D02*
D03*
Y269000D02*
D03*
Y249000D02*
D03*
X271000Y209000D02*
D03*
Y319000D02*
D03*
X211000Y219000D02*
D03*
Y209000D02*
D03*
D62*
X256508Y111159D02*
D03*
X222492D02*
D03*
D63*
X256508Y127616D02*
D03*
X222492D02*
D03*
D64*
X131500Y307500D02*
D03*
X394500Y112500D02*
D03*
D65*
X238500Y492500D02*
D03*
X228500D02*
D03*
X218500D02*
D03*
X384500Y112500D02*
D03*
X141500Y307500D02*
D03*
X208500Y492500D02*
D03*
D66*
X137843Y204000D02*
D03*
X116316Y265500D02*
D03*
X118157Y204000D02*
D03*
X136001Y265500D02*
D03*
D67*
X146500Y482500D02*
D03*
M02*
