G04*
G04 #@! TF.GenerationSoftware,Altium Limited,Altium Designer,24.6.1 (21)*
G04*
G04 Layer_Color=2752767*
%FSLAX25Y25*%
%MOIN*%
G70*
G04*
G04 #@! TF.SameCoordinates,EDD53237-EAC9-4869-82B0-0CFB14AF029E*
G04*
G04*
G04 #@! TF.FilePolarity,Positive*
G04*
G01*
G75*
%ADD14C,0.00500*%
%ADD75C,0.00667*%
%ADD76C,0.00400*%
D14*
X386000Y179500D02*
X384000Y183500D01*
X388000D01*
X386000Y179500D01*
X366000D02*
X364000Y183500D01*
X368000D01*
X366000Y179500D01*
X376000D02*
X374000Y183500D01*
X378000D01*
X376000Y179500D01*
X347157Y484000D02*
Y488000D01*
X351157D01*
Y484000D01*
X347157D01*
X376685D02*
Y488000D01*
X380685D01*
Y484000D01*
X376685D01*
X366843D02*
Y488000D01*
X370843D01*
Y484000D01*
X366843D01*
X357000D02*
Y488000D01*
X361000D01*
Y484000D01*
X357000D01*
X211000Y357000D02*
X209000Y361000D01*
X213000D01*
X211000Y357000D01*
Y347000D02*
X209000Y351000D01*
X213000D01*
X211000Y347000D01*
Y337000D02*
X209000Y341000D01*
X213000D01*
X211000Y337000D01*
Y327000D02*
X209000Y331000D01*
X213000D01*
X211000Y327000D01*
Y277000D02*
X209000Y281000D01*
X213000D01*
X211000Y277000D01*
Y257000D02*
X209000Y261000D01*
X213000D01*
X211000Y257000D01*
Y237000D02*
X209000Y241000D01*
X213000D01*
X211000Y237000D01*
Y227000D02*
X209000Y231000D01*
X213000D01*
X211000Y227000D01*
Y197000D02*
X209000Y201000D01*
X213000D01*
X211000Y197000D01*
Y187000D02*
X209000Y191000D01*
X213000D01*
X211000Y187000D01*
Y177000D02*
X209000Y181000D01*
X213000D01*
X211000Y177000D01*
Y167000D02*
X209000Y171000D01*
X213000D01*
X211000Y167000D01*
X271000D02*
X269000Y171000D01*
X273000D01*
X271000Y167000D01*
Y177000D02*
X269000Y181000D01*
X273000D01*
X271000Y177000D01*
Y187000D02*
X269000Y191000D01*
X273000D01*
X271000Y187000D01*
Y197000D02*
X269000Y201000D01*
X273000D01*
X271000Y197000D01*
Y237000D02*
X269000Y241000D01*
X273000D01*
X271000Y237000D01*
Y247000D02*
X269000Y251000D01*
X273000D01*
X271000Y247000D01*
Y257000D02*
X269000Y261000D01*
X273000D01*
X271000Y257000D01*
Y267000D02*
X269000Y271000D01*
X273000D01*
X271000Y267000D01*
Y277000D02*
X269000Y281000D01*
X273000D01*
X271000Y277000D01*
Y287000D02*
X269000Y291000D01*
X273000D01*
X271000Y287000D01*
Y297000D02*
X269000Y301000D01*
X273000D01*
X271000Y297000D01*
Y307000D02*
X269000Y311000D01*
X273000D01*
X271000Y307000D01*
Y337000D02*
X269000Y341000D01*
X273000D01*
X271000Y337000D01*
Y347000D02*
X269000Y351000D01*
X273000D01*
X271000Y347000D01*
Y217000D02*
X269000Y221000D01*
X273000D01*
X271000Y217000D01*
Y227000D02*
X269000Y231000D01*
X273000D01*
X271000Y227000D01*
Y357000D02*
X269000Y361000D01*
X273000D01*
X271000Y357000D01*
X211000Y317000D02*
X209000Y321000D01*
X213000D01*
X211000Y317000D01*
X271000Y327000D02*
X269000Y331000D01*
X273000D01*
X271000Y327000D01*
X211000Y307000D02*
X209000Y311000D01*
X213000D01*
X211000Y307000D01*
Y297000D02*
X209000Y301000D01*
X213000D01*
X211000Y297000D01*
Y287000D02*
X209000Y291000D01*
X213000D01*
X211000Y287000D01*
Y267000D02*
X209000Y271000D01*
X213000D01*
X211000Y267000D01*
Y247000D02*
X209000Y251000D01*
X213000D01*
X211000Y247000D01*
X271000Y207000D02*
X269000Y211000D01*
X273000D01*
X271000Y207000D01*
Y317000D02*
X269000Y321000D01*
X273000D01*
X271000Y317000D01*
X211000Y217000D02*
X209000Y221000D01*
X213000D01*
X211000Y217000D01*
Y207000D02*
X209000Y211000D01*
X213000D01*
X211000Y207000D01*
X254508Y111159D02*
X256508Y113159D01*
X258508Y111159D01*
X256508Y109159D01*
X254508Y111159D01*
Y125616D02*
Y129616D01*
X258508D01*
Y125616D01*
X254508D01*
X255308Y126416D02*
Y128816D01*
X257708D01*
Y126416D01*
X255308D01*
X220492Y111159D02*
X222492Y113159D01*
X224492Y111159D01*
X222492Y109159D01*
X220492Y111159D01*
Y125616D02*
Y129616D01*
X224492D01*
Y125616D01*
X220492D01*
X221292Y126416D02*
Y128816D01*
X223692D01*
Y126416D01*
X221292D01*
X129500Y305500D02*
X130500Y307500D01*
X129500Y309500D01*
X131500Y308500D01*
X133500Y309500D01*
X132500Y307500D01*
X133500Y305500D01*
X131500Y306500D01*
X129500Y305500D01*
X124500Y490500D02*
Y494500D01*
X128500D01*
Y490500D01*
X124500D01*
X236500Y490500D02*
X237500Y492500D01*
X236500Y494500D01*
X238500Y493500D01*
X240500Y494500D01*
X239500Y492500D01*
X240500Y490500D01*
X238500Y491500D01*
X236500Y490500D01*
X226500D02*
X227500Y492500D01*
X226500Y494500D01*
X228500Y493500D01*
X230500Y494500D01*
X229500Y492500D01*
X230500Y490500D01*
X228500Y491500D01*
X226500Y490500D01*
X144500Y490500D02*
Y494500D01*
X148500D01*
Y490500D01*
X144500D01*
X114500Y480500D02*
Y484500D01*
X118500D01*
Y480500D01*
X114500D01*
Y490500D02*
Y494500D01*
X118500D01*
Y490500D01*
X114500D01*
X216500Y490500D02*
X217500Y492500D01*
X216500Y494500D01*
X218500Y493500D01*
X220500Y494500D01*
X219500Y492500D01*
X220500Y490500D01*
X218500Y491500D01*
X216500Y490500D01*
X382500Y110500D02*
X383500Y112500D01*
X382500Y114500D01*
X384500Y113500D01*
X386500Y114500D01*
X385500Y112500D01*
X386500Y110500D01*
X384500Y111500D01*
X382500Y110500D01*
X392500D02*
X393500Y112500D01*
X392500Y114500D01*
X394500Y113500D01*
X396500Y114500D01*
X395500Y112500D01*
X396500Y110500D01*
X394500Y111500D01*
X392500Y110500D01*
X139500Y305500D02*
X140500Y307500D01*
X139500Y309500D01*
X141500Y308500D01*
X143500Y309500D01*
X142500Y307500D01*
X143500Y305500D01*
X141500Y306500D01*
X139500Y305500D01*
X144500Y480500D02*
Y484500D01*
X148500D01*
Y480500D01*
X144500D01*
X206500Y490500D02*
X207500Y492500D01*
X206500Y494500D01*
X208500Y493500D01*
X210500Y494500D01*
X209500Y492500D01*
X210500Y490500D01*
X208500Y491500D01*
X206500Y490500D01*
X134500Y480500D02*
Y484500D01*
X138500D01*
Y480500D01*
X134500D01*
Y490500D02*
Y494500D01*
X138500D01*
Y490500D01*
X134500D01*
X124500Y480500D02*
Y484500D01*
X128500D01*
Y480500D01*
X124500D01*
X166500Y281500D02*
X167500Y282500D01*
X168500D01*
X167500Y283500D01*
X168500Y284500D01*
X167500D01*
X166500Y285500D01*
X165500Y284500D01*
X164500D01*
X165500Y283500D01*
X164500Y282500D01*
X165500D01*
X166500Y281500D01*
X184800Y282000D02*
X185800Y283000D01*
X186800D01*
X185800Y284000D01*
X186800Y285000D01*
X185800D01*
X184800Y286000D01*
X183800Y285000D01*
X182800D01*
X183800Y284000D01*
X182800Y283000D01*
X183800D01*
X184800Y282000D01*
X184000Y233000D02*
X185000Y234000D01*
X186000D01*
X185000Y235000D01*
X186000Y236000D01*
X185000D01*
X184000Y237000D01*
X183000Y236000D01*
X182000D01*
X183000Y235000D01*
X182000Y234000D01*
X183000D01*
X184000Y233000D01*
X165300Y331000D02*
X166300Y332000D01*
X167300D01*
X166300Y333000D01*
X167300Y334000D01*
X166300D01*
X165300Y335000D01*
X164300Y334000D01*
X163300D01*
X164300Y333000D01*
X163300Y332000D01*
X164300D01*
X165300Y331000D01*
X200000Y121000D02*
X201000Y122000D01*
X202000D01*
X201000Y123000D01*
X202000Y124000D01*
X201000D01*
X200000Y125000D01*
X199000Y124000D01*
X198000D01*
X199000Y123000D01*
X198000Y122000D01*
X199000D01*
X200000Y121000D01*
X187000Y113500D02*
X188000Y114500D01*
X189000D01*
X188000Y115500D01*
X189000Y116500D01*
X188000D01*
X187000Y117500D01*
X186000Y116500D01*
X185000D01*
X186000Y115500D01*
X185000Y114500D01*
X186000D01*
X187000Y113500D01*
X132100Y327500D02*
X133100Y328500D01*
X134100D01*
X133100Y329500D01*
X134100Y330500D01*
X133100D01*
X132100Y331500D01*
X131100Y330500D01*
X130100D01*
X131100Y329500D01*
X130100Y328500D01*
X131100D01*
X132100Y327500D01*
X115000D02*
X116000Y328500D01*
X117000D01*
X116000Y329500D01*
X117000Y330500D01*
X116000D01*
X115000Y331500D01*
X114000Y330500D01*
X113000D01*
X114000Y329500D01*
X113000Y328500D01*
X114000D01*
X115000Y327500D01*
Y342000D02*
X116000Y343000D01*
X117000D01*
X116000Y344000D01*
X117000Y345000D01*
X116000D01*
X115000Y346000D01*
X114000Y345000D01*
X113000D01*
X114000Y344000D01*
X113000Y343000D01*
X114000D01*
X115000Y342000D01*
Y355500D02*
X116000Y356500D01*
X117000D01*
X116000Y357500D01*
X117000Y358500D01*
X116000D01*
X115000Y359500D01*
X114000Y358500D01*
X113000D01*
X114000Y357500D01*
X113000Y356500D01*
X114000D01*
X115000Y355500D01*
X105500Y182000D02*
X106500Y183000D01*
X107500D01*
X106500Y184000D01*
X107500Y185000D01*
X106500D01*
X105500Y186000D01*
X104500Y185000D01*
X103500D01*
X104500Y184000D01*
X103500Y183000D01*
X104500D01*
X105500Y182000D01*
X180500Y165000D02*
X181500Y166000D01*
X182500D01*
X181500Y167000D01*
X182500Y168000D01*
X181500D01*
X180500Y169000D01*
X179500Y168000D01*
X178500D01*
X179500Y167000D01*
X178500Y166000D01*
X179500D01*
X180500Y165000D01*
X132100Y355500D02*
X133100Y356500D01*
X134100D01*
X133100Y357500D01*
X134100Y358500D01*
X133100D01*
X132100Y359500D01*
X131100Y358500D01*
X130100D01*
X131100Y357500D01*
X130100Y356500D01*
X131100D01*
X132100Y355500D01*
X105500Y228000D02*
X106500Y229000D01*
X107500D01*
X106500Y230000D01*
X107500Y231000D01*
X106500D01*
X105500Y232000D01*
X104500Y231000D01*
X103500D01*
X104500Y230000D01*
X103500Y229000D01*
X104500D01*
X105500Y228000D01*
Y239000D02*
X106500Y240000D01*
X107500D01*
X106500Y241000D01*
X107500Y242000D01*
X106500D01*
X105500Y243000D01*
X104500Y242000D01*
X103500D01*
X104500Y241000D01*
X103500Y240000D01*
X104500D01*
X105500Y239000D01*
Y250500D02*
X106500Y251500D01*
X107500D01*
X106500Y252500D01*
X107500Y253500D01*
X106500D01*
X105500Y254500D01*
X104500Y253500D01*
X103500D01*
X104500Y252500D01*
X103500Y251500D01*
X104500D01*
X105500Y250500D01*
Y198500D02*
X106500Y199500D01*
X107500D01*
X106500Y200500D01*
X107500Y201500D01*
X106500D01*
X105500Y202500D01*
X104500Y201500D01*
X103500D01*
X104500Y200500D01*
X103500Y199500D01*
X104500D01*
X105500Y198500D01*
X208500Y149500D02*
X209500Y150500D01*
X210500D01*
X209500Y151500D01*
X210500Y152500D01*
X209500D01*
X208500Y153500D01*
X207500Y152500D01*
X206500D01*
X207500Y151500D01*
X206500Y150500D01*
X207500D01*
X208500Y149500D01*
X246000Y154000D02*
X247000Y155000D01*
X248000D01*
X247000Y156000D01*
X248000Y157000D01*
X247000D01*
X246000Y158000D01*
X245000Y157000D01*
X244000D01*
X245000Y156000D01*
X244000Y155000D01*
X245000D01*
X246000Y154000D01*
X395500Y197000D02*
X396500Y198000D01*
X397500D01*
X396500Y199000D01*
X397500Y200000D01*
X396500D01*
X395500Y201000D01*
X394500Y200000D01*
X393500D01*
X394500Y199000D01*
X393500Y198000D01*
X394500D01*
X395500Y197000D01*
X302000Y189500D02*
X303000Y190500D01*
X304000D01*
X303000Y191500D01*
X304000Y192500D01*
X303000D01*
X302000Y193500D01*
X301000Y192500D01*
X300000D01*
X301000Y191500D01*
X300000Y190500D01*
X301000D01*
X302000Y189500D01*
X167500Y485500D02*
X168500Y486500D01*
X169500D01*
X168500Y487500D01*
X169500Y488500D01*
X168500D01*
X167500Y489500D01*
X166500Y488500D01*
X165500D01*
X166500Y487500D01*
X165500Y486500D01*
X166500D01*
X167500Y485500D01*
X285500Y490000D02*
X286500Y491000D01*
X287500D01*
X286500Y492000D01*
X287500Y493000D01*
X286500D01*
X285500Y494000D01*
X284500Y493000D01*
X283500D01*
X284500Y492000D01*
X283500Y491000D01*
X284500D01*
X285500Y490000D01*
X298000D02*
X299000Y491000D01*
X300000D01*
X299000Y492000D01*
X300000Y493000D01*
X299000D01*
X298000Y494000D01*
X297000Y493000D01*
X296000D01*
X297000Y492000D01*
X296000Y491000D01*
X297000D01*
X298000Y490000D01*
X311000D02*
X312000Y491000D01*
X313000D01*
X312000Y492000D01*
X313000Y493000D01*
X312000D01*
X311000Y494000D01*
X310000Y493000D01*
X309000D01*
X310000Y492000D01*
X309000Y491000D01*
X310000D01*
X311000Y490000D01*
X395500Y354000D02*
X396500Y355000D01*
X397500D01*
X396500Y356000D01*
X397500Y357000D01*
X396500D01*
X395500Y358000D01*
X394500Y357000D01*
X393500D01*
X394500Y356000D01*
X393500Y355000D01*
X394500D01*
X395500Y354000D01*
X216000Y108000D02*
X217000Y109000D01*
X218000D01*
X217000Y110000D01*
X218000Y111000D01*
X217000D01*
X216000Y112000D01*
X215000Y111000D01*
X214000D01*
X215000Y110000D01*
X214000Y109000D01*
X215000D01*
X216000Y108000D01*
X216500Y118500D02*
X217500Y119500D01*
X218500D01*
X217500Y120500D01*
X218500Y121500D01*
X217500D01*
X216500Y122500D01*
X215500Y121500D01*
X214500D01*
X215500Y120500D01*
X214500Y119500D01*
X215500D01*
X216500Y118500D01*
X327484Y160255D02*
X328484Y161255D01*
X329484D01*
X328484Y162255D01*
X329484Y163255D01*
X328484D01*
X327484Y164255D01*
X326484Y163255D01*
X325484D01*
X326484Y162255D01*
X325484Y161255D01*
X326484D01*
X327484Y160255D01*
X238500Y134000D02*
X239500Y135000D01*
X240500D01*
X239500Y136000D01*
X240500Y137000D01*
X239500D01*
X238500Y138000D01*
X237500Y137000D01*
X236500D01*
X237500Y136000D01*
X236500Y135000D01*
X237500D01*
X238500Y134000D01*
X353000Y231700D02*
X354000Y232700D01*
X355000D01*
X354000Y233700D01*
X355000Y234700D01*
X354000D01*
X353000Y235700D01*
X352000Y234700D01*
X351000D01*
X352000Y233700D01*
X351000Y232700D01*
X352000D01*
X353000Y231700D01*
X173400Y323600D02*
X174400Y324600D01*
X175400D01*
X174400Y325600D01*
X175400Y326600D01*
X174400D01*
X173400Y327600D01*
X172400Y326600D01*
X171400D01*
X172400Y325600D01*
X171400Y324600D01*
X172400D01*
X173400Y323600D01*
X176000Y297000D02*
X177000Y298000D01*
X178000D01*
X177000Y299000D01*
X178000Y300000D01*
X177000D01*
X176000Y301000D01*
X175000Y300000D01*
X174000D01*
X175000Y299000D01*
X174000Y298000D01*
X175000D01*
X176000Y297000D01*
X336000Y188300D02*
X337000Y189300D01*
X338000D01*
X337000Y190300D01*
X338000Y191300D01*
X337000D01*
X336000Y192300D01*
X335000Y191300D01*
X334000D01*
X335000Y190300D01*
X334000Y189300D01*
X335000D01*
X336000Y188300D01*
X340800Y193700D02*
X341800Y194700D01*
X342800D01*
X341800Y195700D01*
X342800Y196700D01*
X341800D01*
X340800Y197700D01*
X339800Y196700D01*
X338800D01*
X339800Y195700D01*
X338800Y194700D01*
X339800D01*
X340800Y193700D01*
X207600Y130500D02*
X208600Y131500D01*
X209600D01*
X208600Y132500D01*
X209600Y133500D01*
X208600D01*
X207600Y134500D01*
X206600Y133500D01*
X205600D01*
X206600Y132500D01*
X205600Y131500D01*
X206600D01*
X207600Y130500D01*
X182146Y489531D02*
Y488531D01*
X184146D01*
Y489531D01*
X185146D01*
Y491531D01*
X184146D01*
Y492531D01*
X182146D01*
Y491531D01*
X181146D01*
Y489531D01*
X182146D01*
X262854D02*
Y488531D01*
X264854D01*
Y489531D01*
X265854D01*
Y491531D01*
X264854D01*
Y492531D01*
X262854D01*
Y491531D01*
X261854D01*
Y489531D01*
X262854D01*
X182146Y398980D02*
Y397980D01*
X184146D01*
Y398980D01*
X185146D01*
Y400980D01*
X184146D01*
Y401980D01*
X182146D01*
Y400980D01*
X181146D01*
Y398980D01*
X182146D01*
X262854D02*
Y397980D01*
X264854D01*
Y398980D01*
X265854D01*
Y400980D01*
X264854D01*
Y401980D01*
X262854D01*
Y400980D01*
X261854D01*
Y398980D01*
X262854D01*
D75*
X135000Y343100D02*
G03*
X135000Y343100I-2000J0D01*
G01*
X365000Y343500D02*
G03*
X365000Y343500I-2000J0D01*
G01*
X335000D02*
G03*
X335000Y343500I-2000J0D01*
G01*
X345000D02*
G03*
X345000Y343500I-2000J0D01*
G01*
X355000D02*
G03*
X355000Y343500I-2000J0D01*
G01*
X139842Y204000D02*
G03*
X139842Y204000I-2000J0D01*
G01*
X118315Y265500D02*
G03*
X118315Y265500I-2000J0D01*
G01*
X120156Y204000D02*
G03*
X120156Y204000I-2000J0D01*
G01*
X138000Y265500D02*
G03*
X138000Y265500I-2000J0D01*
G01*
D76*
X134200Y343100D02*
G03*
X134200Y343100I-1200J0D01*
G01*
M02*
