G04*
G04 #@! TF.GenerationSoftware,Altium Limited,Altium Designer,24.6.1 (21)*
G04*
G04 Layer_Color=65535*
%FSLAX25Y25*%
%MOIN*%
G70*
G04*
G04 #@! TF.SameCoordinates,EDD53237-EAC9-4869-82B0-0CFB14AF029E*
G04*
G04*
G04 #@! TF.FilePolarity,Positive*
G04*
G01*
G75*
%ADD10C,0.01000*%
%ADD11C,0.01181*%
%ADD12C,0.00600*%
%ADD13C,0.00787*%
%ADD14C,0.00500*%
%ADD15C,0.01968*%
%ADD16C,0.00799*%
%ADD17C,0.00800*%
G36*
X292335Y106331D02*
Y108211D01*
X294135D01*
Y106331D01*
X292335D01*
D01*
D02*
G37*
G36*
Y117669D02*
Y115789D01*
X294135D01*
Y117669D01*
X292335D01*
D01*
D02*
G37*
G36*
X345125Y461494D02*
X344306D01*
Y466856D01*
X342438Y461494D01*
X341675D01*
X339819Y466950D01*
Y461494D01*
X339000D01*
Y467900D01*
X340275D01*
X341794Y463363D01*
Y463356D01*
X341806Y463338D01*
X341812Y463300D01*
X341831Y463256D01*
X341844Y463206D01*
X341869Y463144D01*
X341887Y463075D01*
X341913Y463006D01*
X341963Y462850D01*
X342013Y462694D01*
X342062Y462544D01*
X342081Y462475D01*
X342100Y462413D01*
Y462419D01*
X342106Y462431D01*
X342112Y462450D01*
X342119Y462475D01*
X342131Y462512D01*
X342150Y462556D01*
X342162Y462612D01*
X342188Y462675D01*
X342206Y462738D01*
X342231Y462819D01*
X342263Y462900D01*
X342294Y462994D01*
X342325Y463094D01*
X342362Y463200D01*
X342400Y463312D01*
X342444Y463438D01*
X343981Y467900D01*
X345125D01*
Y461494D01*
D02*
G37*
G36*
X355338Y467919D02*
X355406D01*
X355481Y467912D01*
X355569Y467900D01*
X355669Y467881D01*
X355781Y467863D01*
X355894Y467831D01*
X356013Y467800D01*
X356137Y467756D01*
X356256Y467706D01*
X356381Y467650D01*
X356494Y467581D01*
X356606Y467500D01*
X356713Y467413D01*
X356719Y467406D01*
X356737Y467387D01*
X356763Y467362D01*
X356794Y467319D01*
X356838Y467269D01*
X356881Y467212D01*
X356931Y467144D01*
X356981Y467063D01*
X357031Y466975D01*
X357081Y466875D01*
X357125Y466775D01*
X357169Y466663D01*
X357200Y466544D01*
X357225Y466412D01*
X357244Y466281D01*
X357250Y466144D01*
Y466138D01*
Y466125D01*
Y466106D01*
Y466081D01*
X357244Y466044D01*
Y466006D01*
X357231Y465906D01*
X357212Y465794D01*
X357181Y465662D01*
X357144Y465525D01*
X357087Y465387D01*
Y465381D01*
X357081Y465369D01*
X357069Y465350D01*
X357056Y465325D01*
X357037Y465287D01*
X357019Y465250D01*
X356962Y465150D01*
X356894Y465037D01*
X356800Y464900D01*
X356694Y464756D01*
X356562Y464606D01*
X356556Y464600D01*
X356544Y464587D01*
X356525Y464563D01*
X356494Y464531D01*
X356450Y464488D01*
X356406Y464437D01*
X356344Y464381D01*
X356275Y464313D01*
X356200Y464237D01*
X356106Y464150D01*
X356013Y464056D01*
X355900Y463956D01*
X355781Y463850D01*
X355650Y463731D01*
X355506Y463613D01*
X355356Y463481D01*
X355350Y463475D01*
X355325Y463456D01*
X355288Y463425D01*
X355244Y463387D01*
X355188Y463338D01*
X355125Y463281D01*
X354975Y463156D01*
X354825Y463025D01*
X354675Y462894D01*
X354606Y462831D01*
X354544Y462769D01*
X354487Y462719D01*
X354444Y462675D01*
X354437Y462669D01*
X354413Y462638D01*
X354375Y462594D01*
X354325Y462544D01*
X354275Y462475D01*
X354219Y462406D01*
X354163Y462331D01*
X354113Y462250D01*
X357256D01*
Y461494D01*
X353025D01*
Y461500D01*
Y461506D01*
Y461544D01*
Y461594D01*
X353031Y461669D01*
X353044Y461750D01*
X353056Y461844D01*
X353081Y461938D01*
X353113Y462038D01*
Y462044D01*
X353119Y462056D01*
X353131Y462081D01*
X353144Y462113D01*
X353163Y462150D01*
X353181Y462194D01*
X353238Y462306D01*
X353312Y462437D01*
X353400Y462581D01*
X353506Y462731D01*
X353631Y462887D01*
X353638Y462894D01*
X353650Y462906D01*
X353669Y462931D01*
X353700Y462962D01*
X353737Y463000D01*
X353781Y463050D01*
X353831Y463106D01*
X353894Y463169D01*
X353962Y463231D01*
X354037Y463306D01*
X354125Y463387D01*
X354212Y463475D01*
X354312Y463562D01*
X354419Y463656D01*
X354538Y463756D01*
X354656Y463856D01*
X354669Y463869D01*
X354700Y463894D01*
X354756Y463938D01*
X354825Y464000D01*
X354912Y464069D01*
X355006Y464156D01*
X355113Y464250D01*
X355225Y464350D01*
X355463Y464569D01*
X355694Y464794D01*
X355800Y464906D01*
X355900Y465019D01*
X355994Y465119D01*
X356069Y465219D01*
X356075Y465225D01*
X356087Y465244D01*
X356106Y465269D01*
X356125Y465306D01*
X356156Y465350D01*
X356188Y465400D01*
X356219Y465462D01*
X356256Y465525D01*
X356325Y465669D01*
X356387Y465825D01*
X356406Y465912D01*
X356425Y465994D01*
X356437Y466081D01*
X356444Y466162D01*
Y466169D01*
Y466181D01*
Y466206D01*
X356437Y466244D01*
X356431Y466281D01*
X356425Y466325D01*
X356400Y466437D01*
X356363Y466563D01*
X356300Y466694D01*
X356262Y466756D01*
X356219Y466825D01*
X356169Y466888D01*
X356106Y466950D01*
X356100Y466956D01*
X356094Y466962D01*
X356069Y466981D01*
X356044Y467000D01*
X356013Y467025D01*
X355969Y467050D01*
X355925Y467081D01*
X355869Y467112D01*
X355813Y467144D01*
X355744Y467175D01*
X355594Y467225D01*
X355425Y467263D01*
X355331Y467269D01*
X355231Y467275D01*
X355175D01*
X355137Y467269D01*
X355087Y467263D01*
X355031Y467256D01*
X354969Y467244D01*
X354906Y467231D01*
X354756Y467194D01*
X354606Y467131D01*
X354531Y467094D01*
X354456Y467044D01*
X354387Y466994D01*
X354319Y466931D01*
X354312Y466925D01*
X354306Y466919D01*
X354288Y466894D01*
X354269Y466869D01*
X354244Y466838D01*
X354212Y466794D01*
X354181Y466744D01*
X354150Y466687D01*
X354119Y466625D01*
X354087Y466556D01*
X354063Y466475D01*
X354031Y466394D01*
X354012Y466306D01*
X353994Y466206D01*
X353988Y466106D01*
X353981Y465994D01*
X353175Y466075D01*
Y466087D01*
X353181Y466113D01*
X353187Y466162D01*
X353194Y466225D01*
X353212Y466300D01*
X353231Y466388D01*
X353256Y466481D01*
X353281Y466587D01*
X353319Y466694D01*
X353362Y466806D01*
X353413Y466919D01*
X353469Y467037D01*
X353538Y467150D01*
X353612Y467256D01*
X353700Y467356D01*
X353794Y467450D01*
X353800Y467456D01*
X353819Y467469D01*
X353850Y467494D01*
X353894Y467525D01*
X353950Y467562D01*
X354012Y467600D01*
X354094Y467644D01*
X354181Y467688D01*
X354281Y467731D01*
X354387Y467775D01*
X354506Y467812D01*
X354638Y467850D01*
X354775Y467881D01*
X354925Y467906D01*
X355081Y467919D01*
X355250Y467925D01*
X355294D01*
X355338Y467919D01*
D02*
G37*
G36*
X349394Y468006D02*
X349469Y468000D01*
X349563Y467987D01*
X349662Y467975D01*
X349775Y467963D01*
X349900Y467938D01*
X350025Y467906D01*
X350156Y467875D01*
X350294Y467831D01*
X350431Y467788D01*
X350569Y467725D01*
X350706Y467662D01*
X350844Y467588D01*
X350850Y467581D01*
X350875Y467569D01*
X350912Y467544D01*
X350962Y467513D01*
X351019Y467469D01*
X351087Y467413D01*
X351163Y467356D01*
X351250Y467281D01*
X351331Y467206D01*
X351425Y467112D01*
X351513Y467019D01*
X351606Y466913D01*
X351694Y466800D01*
X351775Y466675D01*
X351856Y466544D01*
X351931Y466406D01*
X351938Y466400D01*
X351950Y466375D01*
X351969Y466331D01*
X351988Y466275D01*
X352019Y466200D01*
X352050Y466119D01*
X352081Y466019D01*
X352119Y465912D01*
X352156Y465788D01*
X352187Y465656D01*
X352219Y465519D01*
X352250Y465369D01*
X352269Y465212D01*
X352288Y465044D01*
X352300Y464875D01*
X352306Y464700D01*
Y464694D01*
Y464663D01*
Y464625D01*
X352300Y464569D01*
Y464494D01*
X352294Y464419D01*
X352288Y464325D01*
X352275Y464225D01*
X352262Y464119D01*
X352250Y464006D01*
X352206Y463763D01*
X352144Y463519D01*
X352063Y463275D01*
Y463269D01*
X352050Y463250D01*
X352038Y463212D01*
X352019Y463169D01*
X351994Y463112D01*
X351962Y463050D01*
X351925Y462981D01*
X351881Y462900D01*
X351781Y462731D01*
X351656Y462550D01*
X351506Y462362D01*
X351338Y462181D01*
X351344Y462175D01*
X351362Y462162D01*
X351394Y462144D01*
X351437Y462113D01*
X351494Y462081D01*
X351550Y462044D01*
X351619Y462000D01*
X351700Y461956D01*
X351869Y461856D01*
X352050Y461763D01*
X352244Y461669D01*
X352431Y461587D01*
X352175Y461000D01*
X352169Y461006D01*
X352144Y461013D01*
X352106Y461025D01*
X352056Y461050D01*
X351994Y461075D01*
X351919Y461106D01*
X351837Y461144D01*
X351744Y461194D01*
X351644Y461244D01*
X351537Y461300D01*
X351425Y461363D01*
X351306Y461438D01*
X351181Y461513D01*
X351056Y461594D01*
X350931Y461688D01*
X350800Y461781D01*
X350794Y461775D01*
X350769Y461763D01*
X350731Y461744D01*
X350675Y461719D01*
X350606Y461688D01*
X350531Y461656D01*
X350437Y461619D01*
X350338Y461587D01*
X350225Y461550D01*
X350100Y461513D01*
X349975Y461481D01*
X349837Y461450D01*
X349694Y461425D01*
X349537Y461406D01*
X349388Y461394D01*
X349225Y461387D01*
X349137D01*
X349081Y461394D01*
X349000Y461400D01*
X348913Y461412D01*
X348813Y461425D01*
X348700Y461438D01*
X348581Y461462D01*
X348456Y461487D01*
X348331Y461525D01*
X348194Y461562D01*
X348056Y461613D01*
X347919Y461669D01*
X347781Y461731D01*
X347650Y461806D01*
X347644Y461812D01*
X347619Y461825D01*
X347581Y461850D01*
X347531Y461881D01*
X347475Y461925D01*
X347406Y461981D01*
X347331Y462038D01*
X347250Y462113D01*
X347163Y462187D01*
X347075Y462275D01*
X346981Y462375D01*
X346894Y462481D01*
X346806Y462594D01*
X346719Y462712D01*
X346638Y462844D01*
X346563Y462981D01*
X346556Y462988D01*
X346544Y463019D01*
X346525Y463056D01*
X346506Y463112D01*
X346475Y463188D01*
X346444Y463275D01*
X346406Y463369D01*
X346375Y463481D01*
X346338Y463600D01*
X346300Y463737D01*
X346269Y463875D01*
X346244Y464025D01*
X346219Y464181D01*
X346200Y464350D01*
X346187Y464519D01*
X346181Y464694D01*
Y464706D01*
Y464738D01*
Y464787D01*
X346187Y464856D01*
X346194Y464937D01*
X346200Y465037D01*
X346213Y465144D01*
X346231Y465269D01*
X346250Y465394D01*
X346275Y465531D01*
X346306Y465675D01*
X346344Y465825D01*
X346388Y465975D01*
X346438Y466125D01*
X346494Y466269D01*
X346563Y466419D01*
X346569Y466425D01*
X346581Y466456D01*
X346600Y466494D01*
X346631Y466550D01*
X346675Y466612D01*
X346725Y466687D01*
X346781Y466769D01*
X346844Y466862D01*
X346919Y466956D01*
X347000Y467050D01*
X347088Y467150D01*
X347187Y467250D01*
X347294Y467344D01*
X347406Y467438D01*
X347525Y467525D01*
X347656Y467606D01*
X347662Y467613D01*
X347688Y467625D01*
X347725Y467644D01*
X347781Y467669D01*
X347850Y467700D01*
X347925Y467737D01*
X348019Y467769D01*
X348125Y467812D01*
X348237Y467850D01*
X348356Y467881D01*
X348487Y467919D01*
X348625Y467950D01*
X348775Y467975D01*
X348925Y467994D01*
X349081Y468006D01*
X349244Y468013D01*
X349331D01*
X349394Y468006D01*
D02*
G37*
%LPC*%
G36*
X349250Y467281D02*
X349206D01*
X349156Y467275D01*
X349094Y467269D01*
X349012Y467263D01*
X348919Y467250D01*
X348813Y467225D01*
X348700Y467200D01*
X348575Y467169D01*
X348450Y467125D01*
X348319Y467069D01*
X348187Y467006D01*
X348050Y466931D01*
X347925Y466844D01*
X347794Y466744D01*
X347675Y466631D01*
X347669Y466625D01*
X347650Y466600D01*
X347619Y466563D01*
X347581Y466512D01*
X347531Y466444D01*
X347481Y466356D01*
X347425Y466256D01*
X347369Y466144D01*
X347306Y466019D01*
X347250Y465875D01*
X347200Y465712D01*
X347156Y465538D01*
X347112Y465350D01*
X347081Y465144D01*
X347062Y464925D01*
X347056Y464694D01*
Y464687D01*
Y464681D01*
Y464663D01*
Y464638D01*
X347062Y464575D01*
X347069Y464488D01*
X347075Y464381D01*
X347088Y464262D01*
X347106Y464131D01*
X347131Y463987D01*
X347163Y463831D01*
X347206Y463675D01*
X347256Y463519D01*
X347312Y463356D01*
X347388Y463200D01*
X347469Y463050D01*
X347563Y462906D01*
X347669Y462775D01*
X347675Y462769D01*
X347700Y462744D01*
X347731Y462712D01*
X347781Y462669D01*
X347844Y462619D01*
X347913Y462563D01*
X348000Y462506D01*
X348100Y462444D01*
X348206Y462381D01*
X348325Y462325D01*
X348456Y462269D01*
X348600Y462219D01*
X348744Y462175D01*
X348906Y462144D01*
X349075Y462119D01*
X349250Y462113D01*
X349325D01*
X349369Y462119D01*
X349419D01*
X349531Y462131D01*
X349662Y462156D01*
X349806Y462181D01*
X349956Y462225D01*
X350106Y462281D01*
X350100D01*
X350087Y462294D01*
X350069Y462306D01*
X350038Y462325D01*
X350000Y462344D01*
X349956Y462369D01*
X349850Y462425D01*
X349725Y462481D01*
X349587Y462544D01*
X349431Y462600D01*
X349269Y462644D01*
X349475Y463263D01*
X349481D01*
X349506Y463250D01*
X349544Y463244D01*
X349600Y463225D01*
X349656Y463200D01*
X349731Y463175D01*
X349813Y463144D01*
X349900Y463106D01*
X350094Y463025D01*
X350294Y462919D01*
X350494Y462794D01*
X350681Y462650D01*
X350688Y462656D01*
X350712Y462681D01*
X350750Y462725D01*
X350800Y462775D01*
X350856Y462850D01*
X350919Y462937D01*
X350988Y463044D01*
X351056Y463163D01*
X351125Y463300D01*
X351194Y463450D01*
X351256Y463619D01*
X351312Y463800D01*
X351362Y464000D01*
X351400Y464219D01*
X351425Y464450D01*
X351431Y464700D01*
Y464706D01*
Y464738D01*
Y464775D01*
X351425Y464831D01*
Y464900D01*
X351419Y464975D01*
X351406Y465063D01*
X351400Y465163D01*
X351381Y465263D01*
X351369Y465375D01*
X351319Y465600D01*
X351250Y465831D01*
X351213Y465944D01*
X351163Y466056D01*
Y466062D01*
X351150Y466081D01*
X351137Y466113D01*
X351113Y466150D01*
X351087Y466200D01*
X351050Y466256D01*
X350969Y466388D01*
X350856Y466531D01*
X350725Y466681D01*
X350569Y466825D01*
X350388Y466956D01*
X350381Y466962D01*
X350362Y466969D01*
X350338Y466988D01*
X350300Y467006D01*
X350250Y467031D01*
X350194Y467056D01*
X350131Y467088D01*
X350056Y467119D01*
X349975Y467150D01*
X349887Y467181D01*
X349794Y467206D01*
X349694Y467231D01*
X349481Y467269D01*
X349369Y467275D01*
X349250Y467281D01*
D02*
G37*
%LPD*%
D10*
X171525Y236499D02*
G03*
X171525Y236499I-5025J0D01*
G01*
X299814Y353343D02*
G03*
X299814Y353343I-1420J0D01*
G01*
X290729Y132964D02*
G03*
X291949Y131744I1220J0D01*
G01*
X295098D02*
G03*
X296318Y132964I0J1220D01*
G01*
X291972Y142750D02*
G03*
X290752Y141530I0J-1220D01*
G01*
X296341D02*
G03*
X295121Y142750I-1220J0D01*
G01*
X366771Y117780D02*
G03*
X365551Y119000I-1220J0D01*
G01*
X362402D02*
G03*
X361182Y117780I0J-1220D01*
G01*
X365528Y107994D02*
G03*
X366748Y109214I0J1220D01*
G01*
X361159D02*
G03*
X362379Y107994I1220J0D01*
G01*
X352271Y117780D02*
G03*
X351051Y119000I-1220J0D01*
G01*
X347902D02*
G03*
X346682Y117780I0J-1220D01*
G01*
X351028Y107994D02*
G03*
X352248Y109214I0J1220D01*
G01*
X346659D02*
G03*
X347879Y107994I1220J0D01*
G01*
X265229Y132964D02*
G03*
X266449Y131744I1220J0D01*
G01*
X269598D02*
G03*
X270818Y132964I0J1220D01*
G01*
X266472Y142750D02*
G03*
X265252Y141530I0J-1220D01*
G01*
X270841D02*
G03*
X269621Y142750I-1220J0D01*
G01*
X130951Y204000D02*
G03*
X130951Y204000I-2953J0D01*
G01*
X146108D02*
G03*
X146108Y204000I-18110J0D01*
G01*
X283841Y141530D02*
G03*
X282621Y142750I-1220J0D01*
G01*
X279472D02*
G03*
X278252Y141530I0J-1220D01*
G01*
X282598Y131744D02*
G03*
X283818Y132964I0J1220D01*
G01*
X278229D02*
G03*
X279449Y131744I1220J0D01*
G01*
X144267Y265500D02*
G03*
X144267Y265500I-18110J0D01*
G01*
X129110D02*
G03*
X129110Y265500I-2953J0D01*
G01*
X158285Y246736D02*
X174715D01*
X176736Y232292D02*
Y240708D01*
X158285Y226264D02*
X174716D01*
X156264Y232292D02*
Y240708D01*
X296425Y208461D02*
Y350193D01*
X398787D01*
Y208461D02*
Y350193D01*
X296425Y208461D02*
X398787D01*
X399185Y361500D02*
Y494000D01*
X327685Y361500D02*
X399185D01*
X327685D02*
Y494000D01*
X399185D01*
X196200Y369350D02*
X286200D01*
Y159550D02*
Y369350D01*
X196250Y159550D02*
Y369350D01*
X256450Y159550D02*
X286200D01*
X251000Y165000D02*
X256450Y159550D01*
X231000Y165000D02*
X251000D01*
X225550Y159550D02*
X231000Y165000D01*
X196250Y159550D02*
X225550D01*
X257099Y115551D02*
Y122634D01*
Y100925D02*
Y106768D01*
X221902Y115551D02*
Y122634D01*
Y100925D02*
Y106768D01*
Y100925D02*
X257099D01*
X151744Y207175D02*
Y210577D01*
X155681D01*
X157256Y203435D02*
Y205907D01*
X151744Y198766D02*
Y202167D01*
Y198766D02*
X155681D01*
X154744Y267675D02*
Y271077D01*
X158681D01*
X160256Y263935D02*
Y266407D01*
X154744Y259266D02*
Y262667D01*
Y259266D02*
X158681D01*
X291949Y131744D02*
X295098D01*
X296318Y132964D02*
Y136113D01*
X290729Y132964D02*
Y136113D01*
X296341Y138381D02*
Y141530D01*
X291972Y142750D02*
X295121D01*
X290752Y138381D02*
Y141530D01*
X223500Y498406D02*
X272122D01*
X174878D02*
X223500D01*
X174878Y392106D02*
Y498406D01*
X272122Y392106D02*
Y498406D01*
X174878Y392106D02*
X194563D01*
X252437D02*
X272122D01*
X194563D02*
Y399980D01*
X252437Y392106D02*
Y399980D01*
X194563D02*
X252437D01*
X103000Y498405D02*
X160000D01*
Y400905D02*
Y498405D01*
X103000Y400905D02*
X160000D01*
X103000D02*
Y498405D01*
X386020Y144713D02*
Y146681D01*
X384032D02*
X387969D01*
X383638Y137232D02*
X388362D01*
X389740Y138610D02*
Y143531D01*
X382260Y138610D02*
Y143531D01*
X382260Y138610D02*
X383638Y137232D01*
X382260Y138610D02*
X382260D01*
X388362Y137232D02*
X389740Y138610D01*
X389740D01*
X382221Y153295D02*
X389701D01*
X389701Y148020D02*
Y153295D01*
X382221D02*
X382260Y147468D01*
X362402Y119000D02*
X365551D01*
X361182Y114631D02*
Y117780D01*
X366771Y114631D02*
Y117780D01*
X361159Y109214D02*
Y112364D01*
X362379Y107994D02*
X365528D01*
X366748Y109214D02*
Y112364D01*
X347902Y119000D02*
X351051D01*
X346682Y114631D02*
Y117780D01*
X352271Y114631D02*
Y117780D01*
X346659Y109214D02*
Y112364D01*
X347879Y107994D02*
X351028D01*
X352248Y109214D02*
Y112364D01*
X266449Y131744D02*
X269598D01*
X270818Y132964D02*
Y136113D01*
X265229Y132964D02*
Y136113D01*
X270841Y138381D02*
Y141530D01*
X266472Y142750D02*
X269621D01*
X265252Y138381D02*
Y141530D01*
X312413Y128175D02*
Y130476D01*
Y119120D02*
Y122936D01*
Y110065D02*
Y113880D01*
Y102524D02*
Y104825D01*
X326587Y123844D02*
Y130476D01*
Y102524D02*
Y109156D01*
X312413Y102524D02*
X326587D01*
X312413Y130476D02*
X326587D01*
X117499Y209000D02*
Y212500D01*
X115999Y210500D02*
X119000D01*
X278252Y138381D02*
Y141530D01*
X279472Y142750D02*
X282621D01*
X283841Y138381D02*
Y141530D01*
X278229Y132964D02*
Y136113D01*
X283818Y132964D02*
Y136113D01*
X279449Y131744D02*
X282598D01*
X114158Y272000D02*
X117158D01*
X115658Y270500D02*
Y274000D01*
X177500Y251500D02*
Y253999D01*
X178750D01*
X179166Y253583D01*
Y252750D01*
X178750Y252333D01*
X177500D01*
X179999Y253999D02*
Y251500D01*
X181249D01*
X181665Y251917D01*
Y252333D01*
X181249Y252750D01*
X179999D01*
X181249D01*
X181665Y253166D01*
Y253583D01*
X181249Y253999D01*
X179999D01*
X182498Y253583D02*
X182915Y253999D01*
X183748D01*
X184165Y253583D01*
Y251917D01*
X183748Y251500D01*
X182915D01*
X182498Y251917D01*
Y253583D01*
X142666Y229083D02*
X142250Y229499D01*
X141417D01*
X141000Y229083D01*
Y227416D01*
X141417Y227000D01*
X142250D01*
X142666Y227416D01*
Y228250D01*
X141833D01*
X143499Y227000D02*
Y229499D01*
X145165Y227000D01*
Y229499D01*
X145998D02*
Y227000D01*
X147248D01*
X147664Y227416D01*
Y229083D01*
X147248Y229499D01*
X145998D01*
X110000Y108899D02*
X112599D01*
Y108249D01*
X110000Y105650D01*
Y105000D01*
X112599D01*
X113899Y108899D02*
Y108249D01*
X115198Y106949D01*
X116498Y108249D01*
Y108899D01*
X115198Y106949D02*
Y105000D01*
X117798D02*
Y108899D01*
X119747D01*
X120397Y108249D01*
Y106949D01*
X119747Y106300D01*
X117798D01*
X121696Y106949D02*
X124295D01*
X128194Y108249D02*
X127544Y108899D01*
X126245D01*
X125595Y108249D01*
Y105650D01*
X126245Y105000D01*
X127544D01*
X128194Y105650D01*
X132093D02*
Y108249D01*
X131443Y108899D01*
X130143D01*
X129494Y108249D01*
Y105650D01*
X130143Y105000D01*
X131443D01*
X130793Y106300D02*
X132093Y105000D01*
X131443D02*
X132093Y105650D01*
X133392Y108899D02*
Y105650D01*
X134042Y105000D01*
X135342D01*
X135992Y105650D01*
Y108899D01*
X137291Y105000D02*
Y108899D01*
X139241D01*
X139890Y108249D01*
Y106949D01*
X139241Y106300D01*
X137291D01*
X141190Y108899D02*
X143789D01*
X142490D01*
Y105000D01*
X145089Y106949D02*
X147688D01*
X148987Y105000D02*
Y107599D01*
X150287Y108899D01*
X151587Y107599D01*
Y105000D01*
Y106949D01*
X148987D01*
X152886Y107599D02*
Y105650D01*
X153536Y105000D01*
X155485D01*
Y107599D01*
X157435Y108249D02*
Y107599D01*
X156785D01*
X158084D01*
X157435D01*
Y105650D01*
X158084Y105000D01*
X160684D02*
X161983D01*
X162633Y105650D01*
Y106949D01*
X161983Y107599D01*
X160684D01*
X160034Y106949D01*
Y105650D01*
X160684Y105000D01*
X163933Y106949D02*
X166532D01*
X167831Y108899D02*
X169131D01*
X168481D01*
Y105000D01*
X167831D01*
X169131D01*
X171730D02*
X173030D01*
X173679Y105650D01*
Y106949D01*
X173030Y107599D01*
X171730D01*
X171080Y106949D01*
Y105650D01*
X171730Y105000D01*
X174979Y108899D02*
X177578D01*
X176279D01*
Y105000D01*
X364000Y171998D02*
Y166000D01*
X366999D01*
X367999Y167000D01*
Y170998D01*
X366999Y171998D01*
X364000D01*
X369998D02*
Y166000D01*
Y168999D01*
X373997D01*
Y171998D01*
Y166000D01*
X375996Y171998D02*
X379995D01*
X377995D01*
Y166000D01*
X381994D02*
X383994D01*
X382994D01*
Y171998D01*
X381994Y170998D01*
X386993Y166000D02*
X388992D01*
X387992D01*
Y171998D01*
X386993Y170998D01*
X119499Y450498D02*
X115500D01*
Y444500D01*
X119499D01*
X115500Y447499D02*
X117499D01*
X125497Y449498D02*
X124497Y450498D01*
X122498D01*
X121498Y449498D01*
Y448499D01*
X122498Y447499D01*
X124497D01*
X125497Y446499D01*
Y445500D01*
X124497Y444500D01*
X122498D01*
X121498Y445500D01*
X127496Y444500D02*
Y450498D01*
X130495D01*
X131495Y449498D01*
Y447499D01*
X130495Y446499D01*
X127496D01*
X133494Y447499D02*
X137493D01*
X139492Y449498D02*
X140492Y450498D01*
X142491D01*
X143491Y449498D01*
Y445500D01*
X142491Y444500D01*
X140492D01*
X139492Y445500D01*
Y449498D01*
X145490Y444500D02*
X147490D01*
X146490D01*
Y450498D01*
X145490Y449498D01*
X154487D02*
X153488Y450498D01*
X151488D01*
X150489Y449498D01*
Y448499D01*
X151488Y447499D01*
X153488D01*
X154487Y446499D01*
Y445500D01*
X153488Y444500D01*
X151488D01*
X150489Y445500D01*
X370499Y315998D02*
X369499Y316998D01*
X367500D01*
X366500Y315998D01*
Y312000D01*
X367500Y311000D01*
X369499D01*
X370499Y312000D01*
Y313999D01*
X368499D01*
X372498Y311000D02*
Y316998D01*
X375497D01*
X376497Y315998D01*
Y313999D01*
X375497Y312999D01*
X372498D01*
X382495Y315998D02*
X381495Y316998D01*
X379496D01*
X378496Y315998D01*
Y314999D01*
X379496Y313999D01*
X381495D01*
X382495Y312999D01*
Y312000D01*
X381495Y311000D01*
X379496D01*
X378496Y312000D01*
X191499Y452998D02*
X189500D01*
X188500Y451998D01*
Y448000D01*
X189500Y447000D01*
X191499D01*
X192499Y448000D01*
Y451998D01*
X191499Y452998D01*
X194498D02*
Y447000D01*
X198497D01*
X204495Y452998D02*
X200496D01*
Y447000D01*
X204495D01*
X200496Y449999D02*
X202496D01*
X206494Y452998D02*
Y447000D01*
X209493D01*
X210493Y448000D01*
Y451998D01*
X209493Y452998D01*
X206494D01*
X137001Y240499D02*
X136001Y241499D01*
X134002D01*
X133002Y240499D01*
Y239500D01*
X134002Y238500D01*
X136001D01*
X137001Y237500D01*
Y236501D01*
X136001Y235501D01*
X134002D01*
X133002Y236501D01*
X139000Y241499D02*
Y235501D01*
X141000Y237500D01*
X142999Y235501D01*
Y241499D01*
X144998Y235501D02*
X146998D01*
X145998D01*
Y241499D01*
X144998Y240499D01*
X150799Y214571D02*
Y216570D01*
X150300Y217070D01*
X149300D01*
X148800Y216570D01*
Y214571D01*
X149300Y214071D01*
X150300D01*
X149800Y215071D02*
X150799Y214071D01*
X150300D02*
X150799Y214571D01*
X153798Y214071D02*
X151799D01*
X153798Y216071D01*
Y216570D01*
X153299Y217070D01*
X152299D01*
X151799Y216570D01*
X153799Y275100D02*
Y277099D01*
X153299Y277599D01*
X152300D01*
X151800Y277099D01*
Y275100D01*
X152300Y274600D01*
X153299D01*
X152800Y275600D02*
X153799Y274600D01*
X153299D02*
X153799Y275100D01*
X154799Y274600D02*
X155799D01*
X155299D01*
Y277599D01*
X154799Y277099D01*
X268400Y123699D02*
Y120700D01*
X269900D01*
X270399Y121200D01*
Y123199D01*
X269900Y123699D01*
X268400D01*
X271399Y120700D02*
X272399D01*
X271899D01*
Y123699D01*
X271399Y123199D01*
X236501Y375500D02*
Y373000D01*
X237001Y372500D01*
X238000D01*
X238500Y373000D01*
Y375500D01*
X241499D02*
X240499Y375000D01*
X239500Y374000D01*
Y373000D01*
X240000Y372500D01*
X240999D01*
X241499Y373000D01*
Y373500D01*
X240999Y374000D01*
X239500D01*
X157600Y315800D02*
Y318799D01*
X159099D01*
X159599Y318299D01*
Y317300D01*
X159099Y316800D01*
X157600D01*
X158600D02*
X159599Y315800D01*
X160599Y316300D02*
X161099Y315800D01*
X162099D01*
X162598Y316300D01*
Y318299D01*
X162099Y318799D01*
X161099D01*
X160599Y318299D01*
Y317799D01*
X161099Y317300D01*
X162598D01*
X128899Y318999D02*
X127900D01*
X128400D01*
Y316500D01*
X127900Y316000D01*
X127400D01*
X126900Y316500D01*
X131898Y316000D02*
X129899D01*
X131898Y317999D01*
Y318499D01*
X131399Y318999D01*
X130399D01*
X129899Y318499D01*
X374001Y193500D02*
Y191000D01*
X374501Y190500D01*
X375500D01*
X376000Y191000D01*
Y193500D01*
X377000Y193000D02*
X377500Y193500D01*
X378499D01*
X378999Y193000D01*
Y192500D01*
X378499Y192000D01*
X377999D01*
X378499D01*
X378999Y191500D01*
Y191000D01*
X378499Y190500D01*
X377500D01*
X377000Y191000D01*
X144001Y383000D02*
Y385999D01*
X145500D01*
X146000Y385500D01*
Y384500D01*
X145500Y384000D01*
X144001D01*
X145001D02*
X146000Y383000D01*
X148999Y385999D02*
X147000D01*
Y384500D01*
X148000Y385000D01*
X148499D01*
X148999Y384500D01*
Y383500D01*
X148499Y383000D01*
X147500D01*
X147000Y383500D01*
X169501Y215500D02*
Y218499D01*
X171000D01*
X171500Y218000D01*
Y217000D01*
X171000Y216500D01*
X169501D01*
X170501D02*
X171500Y215500D01*
X173999D02*
Y218499D01*
X172500Y217000D01*
X174499D01*
X184501Y215453D02*
Y218452D01*
X186000D01*
X186500Y217952D01*
Y216953D01*
X186000Y216453D01*
X184501D01*
X185500D02*
X186500Y215453D01*
X189499D02*
X187500D01*
X189499Y217453D01*
Y217952D01*
X188999Y218452D01*
X188000D01*
X187500Y217952D01*
X110342Y228599D02*
Y225600D01*
X111841D01*
X112341Y226100D01*
Y226600D01*
X111841Y227099D01*
X110342D01*
X111841D01*
X112341Y227599D01*
Y228099D01*
X111841Y228599D01*
X110342D01*
X113341D02*
Y226100D01*
X113841Y225600D01*
X114840D01*
X115340Y226100D01*
Y228599D01*
X116340D02*
X118339D01*
Y228099D01*
X116340Y226100D01*
Y225600D01*
X118339D01*
X121338D02*
X119339D01*
X121338Y227599D01*
Y228099D01*
X120838Y228599D01*
X119839D01*
X119339Y228099D01*
X234002Y144500D02*
Y142000D01*
X234502Y141500D01*
X235501D01*
X236001Y142000D01*
Y144500D01*
X239000Y144000D02*
X238500Y144500D01*
X237501D01*
X237001Y144000D01*
Y143500D01*
X237501Y143000D01*
X238500D01*
X239000Y142500D01*
Y142000D01*
X238500Y141500D01*
X237501D01*
X237001Y142000D01*
X240000Y144500D02*
Y141500D01*
X241499D01*
X241999Y142000D01*
Y142500D01*
X241499Y143000D01*
X240000D01*
X241499D01*
X241999Y143500D01*
Y144000D01*
X241499Y144500D01*
X240000D01*
X242999Y141500D02*
X243998D01*
X243498D01*
Y144500D01*
X242999Y144000D01*
X321501Y194000D02*
Y191500D01*
X322001Y191000D01*
X323000D01*
X323500Y191500D01*
Y194000D01*
X326499D02*
X324500D01*
Y192500D01*
X325500Y193000D01*
X325999D01*
X326499Y192500D01*
Y191500D01*
X325999Y191000D01*
X325000D01*
X324500Y191500D01*
X315001Y138499D02*
Y136000D01*
X315501Y135501D01*
X316500D01*
X317000Y136000D01*
Y138499D01*
X319499Y135501D02*
Y138499D01*
X318000Y137000D01*
X319999D01*
X206501Y123501D02*
Y126499D01*
X208000D01*
X208500Y126000D01*
Y125000D01*
X208000Y124500D01*
X206501D01*
X207501D02*
X208500Y123501D01*
X209500Y126000D02*
X210000Y126499D01*
X210999D01*
X211499Y126000D01*
Y125500D01*
X210999Y125000D01*
X211499Y124500D01*
Y124000D01*
X210999Y123501D01*
X210000D01*
X209500Y124000D01*
Y124500D01*
X210000Y125000D01*
X209500Y125500D01*
Y126000D01*
X210000Y125000D02*
X210999D01*
X364914Y155415D02*
Y158414D01*
X366413D01*
X366913Y157914D01*
Y156915D01*
X366413Y156415D01*
X364914D01*
X365914D02*
X366913Y155415D01*
X367913Y158414D02*
X369912D01*
Y157914D01*
X367913Y155915D01*
Y155415D01*
X185001Y108501D02*
Y111500D01*
X186500D01*
X187000Y111000D01*
Y110000D01*
X186500Y109500D01*
X185001D01*
X186001D02*
X187000Y108501D01*
X189999Y111500D02*
X188999Y111000D01*
X188000Y110000D01*
Y109000D01*
X188500Y108501D01*
X189499D01*
X189999Y109000D01*
Y109500D01*
X189499Y110000D01*
X188000D01*
X380502Y160000D02*
Y157001D01*
X382501D01*
X385500Y160000D02*
X383501D01*
Y157001D01*
X385500D01*
X383501Y158500D02*
X384500D01*
X386500Y160000D02*
Y157001D01*
X387999D01*
X388499Y157500D01*
Y159500D01*
X387999Y160000D01*
X386500D01*
X389499Y157001D02*
X390498D01*
X389999D01*
Y160000D01*
X389499Y159500D01*
X381999Y124099D02*
X381000D01*
X381500D01*
Y121600D01*
X381000Y121100D01*
X380500D01*
X380000Y121600D01*
X382999Y121100D02*
X383999D01*
X383499D01*
Y124099D01*
X382999Y123599D01*
X294500Y150000D02*
X294000Y150499D01*
X293001D01*
X292501Y150000D01*
Y148000D01*
X293001Y147501D01*
X294000D01*
X294500Y148000D01*
X295500Y147501D02*
X296499D01*
X296000D01*
Y150499D01*
X295500Y150000D01*
X363500Y126744D02*
X363000Y127243D01*
X362001D01*
X361501Y126744D01*
Y124744D01*
X362001Y124244D01*
X363000D01*
X363500Y124744D01*
X366499Y127243D02*
X364500D01*
Y125744D01*
X365499Y126244D01*
X365999D01*
X366499Y125744D01*
Y124744D01*
X365999Y124244D01*
X365000D01*
X364500Y124744D01*
X349000Y126500D02*
X348500Y126999D01*
X347501D01*
X347001Y126500D01*
Y124500D01*
X347501Y124001D01*
X348500D01*
X349000Y124500D01*
X351499Y124001D02*
Y126999D01*
X350000Y125500D01*
X351999D01*
X280000Y150244D02*
X279500Y150743D01*
X278501D01*
X278001Y150244D01*
Y148244D01*
X278501Y147745D01*
X279500D01*
X280000Y148244D01*
X281000Y150244D02*
X281500Y150743D01*
X282499D01*
X282999Y150244D01*
Y149744D01*
X282499Y149244D01*
X281999D01*
X282499D01*
X282999Y148744D01*
Y148244D01*
X282499Y147745D01*
X281500D01*
X281000Y148244D01*
X267500Y149988D02*
X267000Y150487D01*
X266001D01*
X265501Y149988D01*
Y147988D01*
X266001Y147488D01*
X267000D01*
X267500Y147988D01*
X270499Y147488D02*
X268500D01*
X270499Y149488D01*
Y149988D01*
X269999Y150487D01*
X269000D01*
X268500Y149988D01*
X170501Y275001D02*
Y277999D01*
X172000D01*
X172500Y277500D01*
Y276500D01*
X172000Y276000D01*
X170501D01*
X171501D02*
X172500Y275001D01*
X173500Y277500D02*
X174000Y277999D01*
X174999D01*
X175499Y277500D01*
Y277000D01*
X174999Y276500D01*
X174499D01*
X174999D01*
X175499Y276000D01*
Y275500D01*
X174999Y275001D01*
X174000D01*
X173500Y275500D01*
X185501Y275001D02*
Y277999D01*
X187000D01*
X187500Y277500D01*
Y276500D01*
X187000Y276000D01*
X185501D01*
X186500D02*
X187500Y275001D01*
X188500D02*
X189499D01*
X189000D01*
Y277999D01*
X188500Y277500D01*
X108500Y290099D02*
Y287100D01*
X110000D01*
X110499Y287600D01*
Y288100D01*
X110000Y288599D01*
X108500D01*
X110000D01*
X110499Y289099D01*
Y289599D01*
X110000Y290099D01*
X108500D01*
X111499D02*
Y287600D01*
X111999Y287100D01*
X112999D01*
X113498Y287600D01*
Y290099D01*
X114498D02*
X116497D01*
Y289599D01*
X114498Y287600D01*
Y287100D01*
X116497D01*
X117497D02*
X118497D01*
X117997D01*
Y290099D01*
X117497Y289599D01*
X127001Y392000D02*
Y389500D01*
X127501Y389001D01*
X128500D01*
X129000Y389500D01*
Y392000D01*
X131999Y389001D02*
X130000D01*
X131999Y391000D01*
Y391500D01*
X131499Y392000D01*
X130500D01*
X130000Y391500D01*
X352501Y205500D02*
Y203000D01*
X353001Y202501D01*
X354000D01*
X354500Y203000D01*
Y205500D01*
X355500D02*
X357499D01*
Y205000D01*
X355500Y203000D01*
Y202501D01*
X364500Y355501D02*
X365500D01*
X365000D01*
Y358500D01*
X364500Y358000D01*
X222001Y392499D02*
Y390000D01*
X222500Y389500D01*
X223500D01*
X224000Y390000D01*
Y392499D01*
X225000Y389500D02*
X225999D01*
X225500D01*
Y392499D01*
X225000Y392000D01*
D11*
X336900Y147117D02*
G03*
X336900Y147117I-591J0D01*
G01*
X329603Y150000D02*
G03*
X329603Y150000I-591J0D01*
G01*
D12*
X331974Y147515D02*
Y187485D01*
X318026D02*
X331974D01*
X318026Y147515D02*
Y187485D01*
Y147515D02*
X331974D01*
X204899Y102581D02*
Y106356D01*
Y102581D02*
X210101D01*
Y106356D01*
X204899Y109712D02*
Y113487D01*
X210101D01*
Y109712D02*
Y113487D01*
X148101Y375678D02*
Y379453D01*
X142899D02*
X148101D01*
X142899Y375678D02*
Y379453D01*
X148101Y368547D02*
Y372322D01*
X142899Y368547D02*
X148101D01*
X142899D02*
Y372322D01*
X271366Y115989D02*
Y117369D01*
Y106631D02*
Y108011D01*
Y117369D02*
X292635D01*
X271366Y106631D02*
X292635D01*
X286772D02*
Y117369D01*
X200601Y109712D02*
Y113487D01*
X195399D02*
X200601D01*
X195399Y109712D02*
Y113487D01*
X200601Y102581D02*
Y106356D01*
X195399Y102581D02*
X200601D01*
X195399D02*
Y106356D01*
X370601Y147178D02*
Y150953D01*
X365399D02*
X370601D01*
X365399Y147178D02*
Y150953D01*
X370601Y140047D02*
Y143822D01*
X365399Y140047D02*
X370601D01*
X365399D02*
Y143822D01*
X162101Y308678D02*
Y312453D01*
X156899D02*
X162101D01*
X156899Y308678D02*
Y312453D01*
X162101Y301547D02*
Y305322D01*
X156899Y301547D02*
X162101D01*
X156899D02*
Y305322D01*
D13*
X381000Y176500D02*
Y186500D01*
X361000Y176500D02*
X391000D01*
X361000D02*
Y186500D01*
X391000D01*
Y176500D02*
Y186500D01*
D14*
X182547Y199173D02*
X188453D01*
Y210827D01*
X182547D02*
X188453D01*
X182547Y199173D02*
Y210827D01*
X184047Y259673D02*
Y271327D01*
X189953D01*
Y259673D02*
Y271327D01*
X184047Y259673D02*
X189953D01*
X171047D02*
X176953D01*
Y271327D01*
X171047D02*
X176953D01*
X171047Y259673D02*
Y271327D01*
X169547Y199173D02*
Y210827D01*
X175453D01*
Y199173D02*
Y210827D01*
X169547Y199173D02*
X175453D01*
D15*
X107000Y405405D02*
X121500D01*
Y421405D01*
X127000D01*
Y405405D02*
Y421405D01*
Y405405D02*
X131500D01*
Y421405D01*
X137000D01*
Y405405D02*
Y421405D01*
Y405405D02*
X141500D01*
Y421405D01*
X146500D01*
Y405405D02*
Y421405D01*
Y405405D02*
X151500D01*
Y428405D01*
X121500D02*
X151500D01*
Y431405D01*
D16*
X134000Y312500D02*
X146500D01*
X379500Y107500D02*
X392000D01*
D17*
X146500Y302500D02*
Y312500D01*
X126500Y302500D02*
X146500D01*
X126500D02*
Y312500D01*
X134000D01*
X379500Y107500D02*
Y117500D01*
X399500D01*
Y107500D02*
Y117500D01*
X392000Y107500D02*
X399500D01*
X243499Y309001D02*
X243999Y309501D01*
Y310500D01*
X243499Y311000D01*
X242999D01*
X242499Y310500D01*
Y309501D01*
X242000Y309001D01*
X241500D01*
X241000Y309501D01*
Y310500D01*
X241500Y311000D01*
X243999Y308001D02*
Y306002D01*
Y307001D01*
X241000D01*
Y305002D02*
X243999D01*
X242999Y304002D01*
X243999Y303003D01*
X241000D01*
X243499Y302003D02*
X243999Y301503D01*
Y300503D01*
X243499Y300004D01*
X242999D01*
X242499Y300503D01*
Y301003D01*
Y300503D01*
X242000Y300004D01*
X241500D01*
X241000Y300503D01*
Y301503D01*
X241500Y302003D01*
X241000Y297005D02*
Y299004D01*
X242999Y297005D01*
X243499D01*
X243999Y297504D01*
Y298504D01*
X243499Y299004D01*
X243999Y294005D02*
Y296005D01*
X242499D01*
Y295005D01*
Y296005D01*
X241000D01*
Y293006D02*
Y292006D01*
Y292506D01*
X243999D01*
X243499Y293006D01*
Y290507D02*
X243999Y290007D01*
Y289007D01*
X243499Y288507D01*
X241500D01*
X241000Y289007D01*
Y290007D01*
X241500Y290507D01*
X243499D01*
Y287508D02*
X243999Y287008D01*
Y286008D01*
X243499Y285508D01*
X242999D01*
X242499Y286008D01*
Y286508D01*
Y286008D01*
X242000Y285508D01*
X241500D01*
X241000Y286008D01*
Y287008D01*
X241500Y287508D01*
X243499Y282509D02*
X243999Y283009D01*
Y284009D01*
X243499Y284509D01*
X241500D01*
X241000Y284009D01*
Y283009D01*
X241500Y282509D01*
X243499Y281509D02*
X243999Y281010D01*
Y280010D01*
X243499Y279510D01*
X242999D01*
X242499Y280010D01*
X242000Y279510D01*
X241500D01*
X241000Y280010D01*
Y281010D01*
X241500Y281509D01*
X242000D01*
X242499Y281010D01*
X242999Y281509D01*
X243499D01*
X242499Y281010D02*
Y280010D01*
X243999Y278510D02*
Y276511D01*
Y277511D01*
X241000D01*
X243999Y273512D02*
X243499Y274512D01*
X242499Y275512D01*
X241500D01*
X241000Y275012D01*
Y274012D01*
X241500Y273512D01*
X242000D01*
X242499Y274012D01*
Y275512D01*
X254300Y167300D02*
Y170299D01*
X255800D01*
X256299Y169799D01*
Y168799D01*
X255800Y168300D01*
X254300D01*
X257299Y170299D02*
Y167300D01*
X258799D01*
X259298Y167800D01*
Y168300D01*
X258799Y168799D01*
X257299D01*
X258799D01*
X259298Y169299D01*
Y169799D01*
X258799Y170299D01*
X257299D01*
X260298Y167300D02*
X261298D01*
X260798D01*
Y170299D01*
X260298Y169799D01*
X264797Y167300D02*
X262797D01*
X264797Y169299D01*
Y169799D01*
X264297Y170299D01*
X263297D01*
X262797Y169799D01*
X254300Y176800D02*
Y179799D01*
X255800D01*
X256299Y179299D01*
Y178299D01*
X255800Y177800D01*
X254300D01*
X257299Y179799D02*
Y176800D01*
X258799D01*
X259298Y177300D01*
Y177800D01*
X258799Y178299D01*
X257299D01*
X258799D01*
X259298Y178799D01*
Y179299D01*
X258799Y179799D01*
X257299D01*
X260298Y176800D02*
X261298D01*
X260798D01*
Y179799D01*
X260298Y179299D01*
X262797D02*
X263297Y179799D01*
X264297D01*
X264797Y179299D01*
Y178799D01*
X264297Y178299D01*
X263797D01*
X264297D01*
X264797Y177800D01*
Y177300D01*
X264297Y176800D01*
X263297D01*
X262797Y177300D01*
X254300Y186800D02*
Y189799D01*
X255800D01*
X256299Y189299D01*
Y188300D01*
X255800Y187800D01*
X254300D01*
X257299Y189799D02*
Y186800D01*
X258799D01*
X259298Y187300D01*
Y187800D01*
X258799Y188300D01*
X257299D01*
X258799D01*
X259298Y188799D01*
Y189299D01*
X258799Y189799D01*
X257299D01*
X260298Y186800D02*
X261298D01*
X260798D01*
Y189799D01*
X260298Y189299D01*
X264297Y186800D02*
Y189799D01*
X262797Y188300D01*
X264797D01*
X254300Y197300D02*
Y200299D01*
X255800D01*
X256299Y199799D01*
Y198800D01*
X255800Y198300D01*
X254300D01*
X257299Y200299D02*
Y197300D01*
X258799D01*
X259298Y197800D01*
Y198300D01*
X258799Y198800D01*
X257299D01*
X258799D01*
X259298Y199299D01*
Y199799D01*
X258799Y200299D01*
X257299D01*
X260298Y197300D02*
X261298D01*
X260798D01*
Y200299D01*
X260298Y199799D01*
X264797Y200299D02*
X262797D01*
Y198800D01*
X263797Y199299D01*
X264297D01*
X264797Y198800D01*
Y197800D01*
X264297Y197300D01*
X263297D01*
X262797Y197800D01*
X257500Y206600D02*
Y209599D01*
X258999D01*
X259499Y209099D01*
Y208100D01*
X258999Y207600D01*
X257500D01*
X260499Y206600D02*
Y208599D01*
X261499Y209599D01*
X262498Y208599D01*
Y206600D01*
Y208100D01*
X260499D01*
X263498Y209099D02*
X263998Y209599D01*
X264998D01*
X265497Y209099D01*
Y208599D01*
X264998Y208100D01*
X265497Y207600D01*
Y207100D01*
X264998Y206600D01*
X263998D01*
X263498Y207100D01*
Y207600D01*
X263998Y208100D01*
X263498Y208599D01*
Y209099D01*
X263998Y208100D02*
X264998D01*
X257660Y216700D02*
Y219699D01*
X259159D01*
X259659Y219199D01*
Y218199D01*
X259159Y217700D01*
X257660D01*
X260659Y216700D02*
Y218699D01*
X261659Y219699D01*
X262658Y218699D01*
Y216700D01*
Y218199D01*
X260659D01*
X263658Y217200D02*
X264158Y216700D01*
X265158D01*
X265657Y217200D01*
Y219199D01*
X265158Y219699D01*
X264158D01*
X263658Y219199D01*
Y218699D01*
X264158Y218199D01*
X265657D01*
X254800Y226800D02*
Y229799D01*
X256299D01*
X256799Y229299D01*
Y228299D01*
X256299Y227800D01*
X254800D01*
X257799Y226800D02*
Y228799D01*
X258799Y229799D01*
X259798Y228799D01*
Y226800D01*
Y228299D01*
X257799D01*
X260798Y226800D02*
X261798D01*
X261298D01*
Y229799D01*
X260798Y229299D01*
X263297D02*
X263797Y229799D01*
X264797D01*
X265297Y229299D01*
Y227300D01*
X264797Y226800D01*
X263797D01*
X263297Y227300D01*
Y229299D01*
X255800Y236800D02*
Y239799D01*
X257299D01*
X257799Y239299D01*
Y238299D01*
X257299Y237800D01*
X255800D01*
X258799Y236800D02*
Y238799D01*
X259799Y239799D01*
X260798Y238799D01*
Y236800D01*
Y238299D01*
X258799D01*
X261798Y236800D02*
X262798D01*
X262298D01*
Y239799D01*
X261798Y239299D01*
X264297Y236800D02*
X265297D01*
X264797D01*
Y239799D01*
X264297Y239299D01*
X254800Y246800D02*
Y249799D01*
X256299D01*
X256799Y249299D01*
Y248300D01*
X256299Y247800D01*
X254800D01*
X257799Y246800D02*
Y248799D01*
X258799Y249799D01*
X259798Y248799D01*
Y246800D01*
Y248300D01*
X257799D01*
X260798Y246800D02*
X261798D01*
X261298D01*
Y249799D01*
X260798Y249299D01*
X265297Y246800D02*
X263297D01*
X265297Y248799D01*
Y249299D01*
X264797Y249799D01*
X263797D01*
X263297Y249299D01*
X254300Y256800D02*
Y259799D01*
X255800D01*
X256299Y259299D01*
Y258299D01*
X255800Y257800D01*
X254300D01*
X257299Y256800D02*
Y258799D01*
X258299Y259799D01*
X259298Y258799D01*
Y256800D01*
Y258299D01*
X257299D01*
X260298Y256800D02*
X261298D01*
X260798D01*
Y259799D01*
X260298Y259299D01*
X264797Y259799D02*
X262797D01*
Y258299D01*
X263797Y258799D01*
X264297D01*
X264797Y258299D01*
Y257300D01*
X264297Y256800D01*
X263297D01*
X262797Y257300D01*
X257300Y266800D02*
Y269799D01*
X258800D01*
X259299Y269299D01*
Y268300D01*
X258800Y267800D01*
X257300D01*
X260299Y269799D02*
Y266800D01*
X261799D01*
X262298Y267300D01*
Y267800D01*
X261799Y268300D01*
X260299D01*
X261799D01*
X262298Y268799D01*
Y269299D01*
X261799Y269799D01*
X260299D01*
X263298Y269299D02*
X263798Y269799D01*
X264798D01*
X265297Y269299D01*
Y268799D01*
X264798Y268300D01*
X264298D01*
X264798D01*
X265297Y267800D01*
Y267300D01*
X264798Y266800D01*
X263798D01*
X263298Y267300D01*
X257660Y276500D02*
Y279499D01*
X259159D01*
X259659Y278999D01*
Y277999D01*
X259159Y277500D01*
X257660D01*
X260659Y279499D02*
Y276500D01*
X262159D01*
X262658Y277000D01*
Y277500D01*
X262159Y277999D01*
X260659D01*
X262159D01*
X262658Y278499D01*
Y278999D01*
X262159Y279499D01*
X260659D01*
X265158Y276500D02*
Y279499D01*
X263658Y277999D01*
X265657D01*
X257300Y286800D02*
Y289799D01*
X258800D01*
X259299Y289299D01*
Y288299D01*
X258800Y287800D01*
X257300D01*
X260299Y289799D02*
Y286800D01*
X261799D01*
X262298Y287300D01*
Y287800D01*
X261799Y288299D01*
X260299D01*
X261799D01*
X262298Y288799D01*
Y289299D01*
X261799Y289799D01*
X260299D01*
X265297D02*
X263298D01*
Y288299D01*
X264298Y288799D01*
X264798D01*
X265297Y288299D01*
Y287300D01*
X264798Y286800D01*
X263798D01*
X263298Y287300D01*
X257300Y296800D02*
Y299799D01*
X258800D01*
X259299Y299299D01*
Y298300D01*
X258800Y297800D01*
X257300D01*
X260299Y299799D02*
Y296800D01*
X261799D01*
X262298Y297300D01*
Y297800D01*
X261799Y298300D01*
X260299D01*
X261799D01*
X262298Y298799D01*
Y299299D01*
X261799Y299799D01*
X260299D01*
X265297D02*
X264298Y299299D01*
X263298Y298300D01*
Y297300D01*
X263798Y296800D01*
X264798D01*
X265297Y297300D01*
Y297800D01*
X264798Y298300D01*
X263298D01*
X257800Y306800D02*
Y309799D01*
X259299D01*
X259799Y309299D01*
Y308299D01*
X259299Y307800D01*
X257800D01*
X260799Y309799D02*
Y306800D01*
X262298D01*
X262798Y307300D01*
Y307800D01*
X262298Y308299D01*
X260799D01*
X262298D01*
X262798Y308799D01*
Y309299D01*
X262298Y309799D01*
X260799D01*
X263798D02*
X265797D01*
Y309299D01*
X263798Y307300D01*
Y306800D01*
X257800Y317300D02*
Y320299D01*
X259299D01*
X259799Y319799D01*
Y318799D01*
X259299Y318300D01*
X257800D01*
X260799Y320299D02*
Y317300D01*
X262298D01*
X262798Y317800D01*
Y318300D01*
X262298Y318799D01*
X260799D01*
X262298D01*
X262798Y319299D01*
Y319799D01*
X262298Y320299D01*
X260799D01*
X263798Y319799D02*
X264298Y320299D01*
X265298D01*
X265797Y319799D01*
Y319299D01*
X265298Y318799D01*
X265797Y318300D01*
Y317800D01*
X265298Y317300D01*
X264298D01*
X263798Y317800D01*
Y318300D01*
X264298Y318799D01*
X263798Y319299D01*
Y319799D01*
X264298Y318799D02*
X265298D01*
X257800Y327300D02*
Y330299D01*
X259299D01*
X259799Y329799D01*
Y328800D01*
X259299Y328300D01*
X257800D01*
X260799Y330299D02*
Y327300D01*
X262298D01*
X262798Y327800D01*
Y328300D01*
X262298Y328800D01*
X260799D01*
X262298D01*
X262798Y329299D01*
Y329799D01*
X262298Y330299D01*
X260799D01*
X263798Y327800D02*
X264298Y327300D01*
X265298D01*
X265797Y327800D01*
Y329799D01*
X265298Y330299D01*
X264298D01*
X263798Y329799D01*
Y329299D01*
X264298Y328800D01*
X265797D01*
X262779Y340299D02*
X260780D01*
Y338800D01*
X261780Y339299D01*
X262280D01*
X262779Y338800D01*
Y337800D01*
X262280Y337300D01*
X261280D01*
X260780Y337800D01*
X263779Y340299D02*
Y338300D01*
X264779Y337300D01*
X265778Y338300D01*
Y340299D01*
X259659Y349599D02*
X259159Y350099D01*
X258160D01*
X257660Y349599D01*
Y347600D01*
X258160Y347100D01*
X259159D01*
X259659Y347600D01*
Y348600D01*
X258660D01*
X260659Y347100D02*
Y350099D01*
X262658Y347100D01*
Y350099D01*
X263658D02*
Y347100D01*
X265158D01*
X265657Y347600D01*
Y349599D01*
X265158Y350099D01*
X263658D01*
X257500Y359499D02*
X258000Y359999D01*
X258999D01*
X259499Y359499D01*
Y358999D01*
X258999Y358500D01*
X258500D01*
X258999D01*
X259499Y358000D01*
Y357500D01*
X258999Y357000D01*
X258000D01*
X257500Y357500D01*
X260499Y359999D02*
Y358000D01*
X261499Y357000D01*
X262498Y358000D01*
Y359999D01*
X263498Y359499D02*
X263998Y359999D01*
X264998D01*
X265497Y359499D01*
Y358999D01*
X264998Y358500D01*
X264498D01*
X264998D01*
X265497Y358000D01*
Y357500D01*
X264998Y357000D01*
X263998D01*
X263498Y357500D01*
X217899Y169399D02*
X217400Y169899D01*
X216400D01*
X215900Y169399D01*
Y167400D01*
X216400Y166900D01*
X217400D01*
X217899Y167400D01*
Y168400D01*
X216900D01*
X218899Y166900D02*
Y169899D01*
X220898Y166900D01*
Y169899D01*
X221898D02*
Y166900D01*
X223398D01*
X223897Y167400D01*
Y169399D01*
X223398Y169899D01*
X221898D01*
X217899Y179499D02*
X217400Y179999D01*
X216400D01*
X215900Y179499D01*
Y177500D01*
X216400Y177000D01*
X217400D01*
X217899Y177500D01*
Y178499D01*
X216900D01*
X218899Y177000D02*
Y179999D01*
X220898Y177000D01*
Y179999D01*
X221898D02*
Y177000D01*
X223398D01*
X223897Y177500D01*
Y179499D01*
X223398Y179999D01*
X221898D01*
X215900Y189299D02*
X216400Y189799D01*
X217400D01*
X217899Y189299D01*
Y188799D01*
X217400Y188300D01*
X216900D01*
X217400D01*
X217899Y187800D01*
Y187300D01*
X217400Y186800D01*
X216400D01*
X215900Y187300D01*
X218899Y189799D02*
Y187800D01*
X219899Y186800D01*
X220898Y187800D01*
Y189799D01*
X221898Y189299D02*
X222398Y189799D01*
X223398D01*
X223897Y189299D01*
Y188799D01*
X223398Y188300D01*
X222898D01*
X223398D01*
X223897Y187800D01*
Y187300D01*
X223398Y186800D01*
X222398D01*
X221898Y187300D01*
X215900Y196500D02*
Y199499D01*
X217400D01*
X217899Y198999D01*
Y198000D01*
X217400Y197500D01*
X215900D01*
X216900D02*
X217899Y196500D01*
X220898Y198999D02*
X220398Y199499D01*
X219399D01*
X218899Y198999D01*
Y198499D01*
X219399Y198000D01*
X220398D01*
X220898Y197500D01*
Y197000D01*
X220398Y196500D01*
X219399D01*
X218899Y197000D01*
X221898Y199499D02*
X223897D01*
X222898D01*
Y196500D01*
X215900Y206600D02*
Y209599D01*
X217400D01*
X217899Y209099D01*
Y208100D01*
X217400Y207600D01*
X215900D01*
X218899Y209599D02*
Y206600D01*
X220398D01*
X220898Y207100D01*
Y207600D01*
X220398Y208100D01*
X218899D01*
X220398D01*
X220898Y208599D01*
Y209099D01*
X220398Y209599D01*
X218899D01*
X221898Y206600D02*
X222898D01*
X222398D01*
Y209599D01*
X221898Y209099D01*
X224397Y206600D02*
X225397D01*
X224897D01*
Y209599D01*
X224397Y209099D01*
X215900Y216700D02*
Y219699D01*
X217400D01*
X217899Y219199D01*
Y218199D01*
X217400Y217700D01*
X215900D01*
X218899Y219699D02*
Y216700D01*
X220398D01*
X220898Y217200D01*
Y217700D01*
X220398Y218199D01*
X218899D01*
X220398D01*
X220898Y218699D01*
Y219199D01*
X220398Y219699D01*
X218899D01*
X221898Y216700D02*
X222898D01*
X222398D01*
Y219699D01*
X221898Y219199D01*
X224397D02*
X224897Y219699D01*
X225897D01*
X226397Y219199D01*
Y217200D01*
X225897Y216700D01*
X224897D01*
X224397Y217200D01*
Y219199D01*
X215900Y226500D02*
Y229499D01*
X217400D01*
X217899Y228999D01*
Y227999D01*
X217400Y227500D01*
X215900D01*
X218899Y229499D02*
Y226500D01*
X220398D01*
X220898Y227000D01*
Y227500D01*
X220398Y227999D01*
X218899D01*
X220398D01*
X220898Y228499D01*
Y228999D01*
X220398Y229499D01*
X218899D01*
X221898Y226500D02*
X222898D01*
X222398D01*
Y229499D01*
X221898Y228999D01*
X215900Y236500D02*
Y239499D01*
X217400D01*
X217899Y238999D01*
Y238000D01*
X217400Y237500D01*
X215900D01*
X218899Y239499D02*
Y236500D01*
X220398D01*
X220898Y237000D01*
Y237500D01*
X220398Y238000D01*
X218899D01*
X220398D01*
X220898Y238499D01*
Y238999D01*
X220398Y239499D01*
X218899D01*
X221898Y238999D02*
X222398Y239499D01*
X223398D01*
X223897Y238999D01*
Y237000D01*
X223398Y236500D01*
X222398D01*
X221898Y237000D01*
Y238999D01*
X215900Y246600D02*
Y249599D01*
X217400D01*
X217899Y249099D01*
Y248099D01*
X217400Y247600D01*
X215900D01*
X218899Y246600D02*
Y248599D01*
X219899Y249599D01*
X220898Y248599D01*
Y246600D01*
Y248099D01*
X218899D01*
X221898Y249599D02*
X223897D01*
Y249099D01*
X221898Y247100D01*
Y246600D01*
X215900Y256700D02*
Y259699D01*
X217400D01*
X217899Y259199D01*
Y258200D01*
X217400Y257700D01*
X215900D01*
X218899Y256700D02*
Y258699D01*
X219899Y259699D01*
X220898Y258699D01*
Y256700D01*
Y258200D01*
X218899D01*
X223897Y259699D02*
X222898Y259199D01*
X221898Y258200D01*
Y257200D01*
X222398Y256700D01*
X223398D01*
X223897Y257200D01*
Y257700D01*
X223398Y258200D01*
X221898D01*
X215900Y266500D02*
Y269499D01*
X217400D01*
X217899Y268999D01*
Y268000D01*
X217400Y267500D01*
X215900D01*
X218899Y266500D02*
Y268499D01*
X219899Y269499D01*
X220898Y268499D01*
Y266500D01*
Y268000D01*
X218899D01*
X223897Y269499D02*
X221898D01*
Y268000D01*
X222898Y268499D01*
X223398D01*
X223897Y268000D01*
Y267000D01*
X223398Y266500D01*
X222398D01*
X221898Y267000D01*
X215900Y276500D02*
Y279499D01*
X217400D01*
X217899Y278999D01*
Y277999D01*
X217400Y277500D01*
X215900D01*
X218899Y276500D02*
Y278499D01*
X219899Y279499D01*
X220898Y278499D01*
Y276500D01*
Y277999D01*
X218899D01*
X223398Y276500D02*
Y279499D01*
X221898Y277999D01*
X223897D01*
X215900Y286600D02*
Y289599D01*
X217400D01*
X217899Y289099D01*
Y288100D01*
X217400Y287600D01*
X215900D01*
X218899Y286600D02*
Y288599D01*
X219899Y289599D01*
X220898Y288599D01*
Y286600D01*
Y288100D01*
X218899D01*
X221898Y289099D02*
X222398Y289599D01*
X223398D01*
X223897Y289099D01*
Y288599D01*
X223398Y288100D01*
X222898D01*
X223398D01*
X223897Y287600D01*
Y287100D01*
X223398Y286600D01*
X222398D01*
X221898Y287100D01*
X215900Y296700D02*
Y299699D01*
X217400D01*
X217899Y299199D01*
Y298200D01*
X217400Y297700D01*
X215900D01*
X218899Y296700D02*
Y298699D01*
X219899Y299699D01*
X220898Y298699D01*
Y296700D01*
Y298200D01*
X218899D01*
X223897Y296700D02*
X221898D01*
X223897Y298699D01*
Y299199D01*
X223398Y299699D01*
X222398D01*
X221898Y299199D01*
X215900Y306500D02*
Y309499D01*
X217400D01*
X217899Y308999D01*
Y307999D01*
X217400Y307500D01*
X215900D01*
X218899Y306500D02*
Y308499D01*
X219899Y309499D01*
X220898Y308499D01*
Y306500D01*
Y307999D01*
X218899D01*
X221898Y306500D02*
X222898D01*
X222398D01*
Y309499D01*
X221898Y308999D01*
X215900Y317100D02*
Y320099D01*
X217400D01*
X217899Y319599D01*
Y318600D01*
X217400Y318100D01*
X215900D01*
X218899Y317100D02*
Y319099D01*
X219899Y320099D01*
X220898Y319099D01*
Y317100D01*
Y318600D01*
X218899D01*
X221898Y319599D02*
X222398Y320099D01*
X223398D01*
X223897Y319599D01*
Y317600D01*
X223398Y317100D01*
X222398D01*
X221898Y317600D01*
Y319599D01*
X215900Y327200D02*
Y330199D01*
X217400D01*
X217899Y329699D01*
Y328699D01*
X217400Y328200D01*
X215900D01*
X220898Y329699D02*
X220398Y330199D01*
X219399D01*
X218899Y329699D01*
Y327700D01*
X219399Y327200D01*
X220398D01*
X220898Y327700D01*
X221898Y327200D02*
X222898D01*
X222398D01*
Y330199D01*
X221898Y329699D01*
X226397Y330199D02*
X224397D01*
Y328699D01*
X225397Y329199D01*
X225897D01*
X226397Y328699D01*
Y327700D01*
X225897Y327200D01*
X224897D01*
X224397Y327700D01*
X215900Y337300D02*
Y340299D01*
X217400D01*
X217899Y339799D01*
Y338800D01*
X217400Y338300D01*
X215900D01*
X220898Y339799D02*
X220398Y340299D01*
X219399D01*
X218899Y339799D01*
Y337800D01*
X219399Y337300D01*
X220398D01*
X220898Y337800D01*
X221898Y337300D02*
X222898D01*
X222398D01*
Y340299D01*
X221898Y339799D01*
X225897Y337300D02*
Y340299D01*
X224397Y338800D01*
X226397D01*
X215900Y347100D02*
Y350099D01*
X217400D01*
X217899Y349599D01*
Y348600D01*
X217400Y348100D01*
X215900D01*
X220898Y349599D02*
X220398Y350099D01*
X219399D01*
X218899Y349599D01*
Y347600D01*
X219399Y347100D01*
X220398D01*
X220898Y347600D01*
X221898Y347100D02*
X222898D01*
X222398D01*
Y350099D01*
X221898Y349599D01*
X224397D02*
X224897Y350099D01*
X225897D01*
X226397Y349599D01*
Y349099D01*
X225897Y348600D01*
X225397D01*
X225897D01*
X226397Y348100D01*
Y347600D01*
X225897Y347100D01*
X224897D01*
X224397Y347600D01*
X215900Y359999D02*
Y358000D01*
X216900Y357000D01*
X217899Y358000D01*
Y359999D01*
X218899D02*
Y357000D01*
X220398D01*
X220898Y357500D01*
Y358000D01*
X220398Y358500D01*
X218899D01*
X220398D01*
X220898Y358999D01*
Y359499D01*
X220398Y359999D01*
X218899D01*
X221898Y357000D02*
Y358999D01*
X222898Y359999D01*
X223897Y358999D01*
Y357000D01*
Y358500D01*
X221898D01*
X224897Y359999D02*
X226896D01*
X225897D01*
Y357000D01*
M02*
