G04*
G04 #@! TF.GenerationSoftware,Altium Limited,Altium Designer,24.6.1 (21)*
G04*
G04 Layer_Color=128*
%FSLAX25Y25*%
%MOIN*%
G70*
G04*
G04 #@! TF.SameCoordinates,EDD53237-EAC9-4869-82B0-0CFB14AF029E*
G04*
G04*
G04 #@! TF.FilePolarity,Positive*
G04*
G01*
G75*
%ADD14C,0.00500*%
D14*
X130500Y343100D02*
X135500D01*
X133000Y340600D02*
Y345600D01*
X384425Y181500D02*
X387575D01*
X386000Y179925D02*
Y183075D01*
X364425Y181500D02*
X367575D01*
X366000Y179925D02*
Y183075D01*
X374425Y181500D02*
X377575D01*
X376000Y179925D02*
Y183075D01*
X361032Y343500D02*
X364968D01*
X363000Y341531D02*
Y345468D01*
X331031Y343500D02*
X334968D01*
X333000Y341531D02*
Y345468D01*
X341032Y343500D02*
X344969D01*
X343000Y341531D02*
Y345468D01*
X351031Y343500D02*
X354969D01*
X353000Y341531D02*
Y345468D01*
X347357Y486000D02*
X350957D01*
X349157Y484200D02*
Y487800D01*
X376885Y486000D02*
X380485D01*
X378685Y484200D02*
Y487800D01*
X367043Y486000D02*
X370643D01*
X368843Y484200D02*
Y487800D01*
X357200Y486000D02*
X360800D01*
X359000Y484200D02*
Y487800D01*
X209425Y359000D02*
X212575D01*
X211000Y357425D02*
Y360575D01*
X209425Y349000D02*
X212575D01*
X211000Y347425D02*
Y350575D01*
X209425Y339000D02*
X212575D01*
X211000Y337425D02*
Y340575D01*
X209425Y329000D02*
X212575D01*
X211000Y327425D02*
Y330575D01*
X209425Y279000D02*
X212575D01*
X211000Y277425D02*
Y280575D01*
X209425Y259000D02*
X212575D01*
X211000Y257425D02*
Y260575D01*
X209425Y239000D02*
X212575D01*
X211000Y237425D02*
Y240575D01*
X209425Y229000D02*
X212575D01*
X211000Y227425D02*
Y230575D01*
X209425Y199000D02*
X212575D01*
X211000Y197425D02*
Y200575D01*
X209425Y189000D02*
X212575D01*
X211000Y187425D02*
Y190575D01*
X209425Y179000D02*
X212575D01*
X211000Y177425D02*
Y180575D01*
X209425Y169000D02*
X212575D01*
X211000Y167425D02*
Y170575D01*
X269425Y169000D02*
X272575D01*
X271000Y167425D02*
Y170575D01*
X269425Y179000D02*
X272575D01*
X271000Y177425D02*
Y180575D01*
X269425Y189000D02*
X272575D01*
X271000Y187425D02*
Y190575D01*
X269425Y199000D02*
X272575D01*
X271000Y197425D02*
Y200575D01*
X269425Y239000D02*
X272575D01*
X271000Y237425D02*
Y240575D01*
X269425Y249000D02*
X272575D01*
X271000Y247425D02*
Y250575D01*
X269425Y259000D02*
X272575D01*
X271000Y257425D02*
Y260575D01*
X269425Y269000D02*
X272575D01*
X271000Y267425D02*
Y270575D01*
X269425Y279000D02*
X272575D01*
X271000Y277425D02*
Y280575D01*
X269425Y289000D02*
X272575D01*
X271000Y287425D02*
Y290575D01*
X269425Y299000D02*
X272575D01*
X271000Y297425D02*
Y300575D01*
X269425Y309000D02*
X272575D01*
X271000Y307425D02*
Y310575D01*
X269425Y339000D02*
X272575D01*
X271000Y337425D02*
Y340575D01*
X269425Y349000D02*
X272575D01*
X271000Y347425D02*
Y350575D01*
X269425Y219000D02*
X272575D01*
X271000Y217425D02*
Y220575D01*
X269425Y229000D02*
X272575D01*
X271000Y227425D02*
Y230575D01*
X269425Y359000D02*
X272575D01*
X271000Y357425D02*
Y360575D01*
X209425Y319000D02*
X212575D01*
X211000Y317425D02*
Y320575D01*
X269425Y329000D02*
X272575D01*
X271000Y327425D02*
Y330575D01*
X209425Y309000D02*
X212575D01*
X211000Y307425D02*
Y310575D01*
X209425Y299000D02*
X212575D01*
X211000Y297425D02*
Y300575D01*
X209425Y289000D02*
X212575D01*
X211000Y287425D02*
Y290575D01*
X209425Y269000D02*
X212575D01*
X211000Y267425D02*
Y270575D01*
X209425Y249000D02*
X212575D01*
X211000Y247425D02*
Y250575D01*
X269425Y209000D02*
X272575D01*
X271000Y207425D02*
Y210575D01*
X269425Y319000D02*
X272575D01*
X271000Y317425D02*
Y320575D01*
X209425Y219000D02*
X212575D01*
X211000Y217425D02*
Y220575D01*
X209425Y209000D02*
X212575D01*
X211000Y207425D02*
Y210575D01*
X255327Y111159D02*
X257689D01*
X256508Y109978D02*
Y112340D01*
X255327Y127616D02*
X257689D01*
X256508Y126435D02*
Y128797D01*
X221311Y111159D02*
X223673D01*
X222492Y109978D02*
Y112340D01*
X221311Y127616D02*
X223673D01*
X222492Y126435D02*
Y128797D01*
X129335Y307500D02*
X133665D01*
X131500Y305335D02*
Y309665D01*
X124700Y492500D02*
X128300D01*
X126500Y490700D02*
Y494300D01*
X236335Y492500D02*
X240665D01*
X238500Y490335D02*
Y494665D01*
X226335Y492500D02*
X230665D01*
X228500Y490335D02*
Y494665D01*
X144700Y492500D02*
X148300D01*
X146500Y490700D02*
Y494300D01*
X114700Y482500D02*
X118300D01*
X116500Y480700D02*
Y484300D01*
X135873Y204000D02*
X139810D01*
X137842Y202031D02*
Y205968D01*
X114346Y265500D02*
X118283D01*
X116315Y263531D02*
Y267469D01*
X116188Y204000D02*
X120125D01*
X118156Y202031D02*
Y205968D01*
X114700Y492500D02*
X118300D01*
X116500Y490700D02*
Y494300D01*
X216335Y492500D02*
X220665D01*
X218500Y490335D02*
Y494665D01*
X382335Y112500D02*
X386665D01*
X384500Y110335D02*
Y114665D01*
X392335Y112500D02*
X396665D01*
X394500Y110335D02*
Y114665D01*
X134031Y265500D02*
X137969D01*
X136000Y263531D02*
Y267469D01*
X139335Y307500D02*
X143665D01*
X141500Y305335D02*
Y309665D01*
X144700Y482500D02*
X148300D01*
X146500Y480700D02*
Y484300D01*
X206335Y492500D02*
X210665D01*
X208500Y490335D02*
Y494665D01*
X134700Y482500D02*
X138300D01*
X136500Y480700D02*
Y484300D01*
X134700Y492500D02*
X138300D01*
X136500Y490700D02*
Y494300D01*
X124700Y482500D02*
X128300D01*
X126500Y480700D02*
Y484300D01*
X165100Y283500D02*
X167900D01*
X166500Y282100D02*
Y284900D01*
X183400Y284000D02*
X186200D01*
X184800Y282600D02*
Y285400D01*
X182600Y235000D02*
X185400D01*
X184000Y233600D02*
Y236400D01*
X163900Y333000D02*
X166700D01*
X165300Y331600D02*
Y334400D01*
X198600Y123000D02*
X201400D01*
X200000Y121600D02*
Y124400D01*
X185600Y115500D02*
X188400D01*
X187000Y114100D02*
Y116900D01*
X130700Y329500D02*
X133500D01*
X132100Y328100D02*
Y330900D01*
X113600Y329500D02*
X116400D01*
X115000Y328100D02*
Y330900D01*
X113600Y344000D02*
X116400D01*
X115000Y342600D02*
Y345400D01*
X113600Y357500D02*
X116400D01*
X115000Y356100D02*
Y358900D01*
X104100Y184000D02*
X106900D01*
X105500Y182600D02*
Y185400D01*
X179100Y167000D02*
X181900D01*
X180500Y165600D02*
Y168400D01*
X130700Y357500D02*
X133500D01*
X132100Y356100D02*
Y358900D01*
X104100Y230000D02*
X106900D01*
X105500Y228600D02*
Y231400D01*
X104100Y241000D02*
X106900D01*
X105500Y239600D02*
Y242400D01*
X104100Y252500D02*
X106900D01*
X105500Y251100D02*
Y253900D01*
X104100Y200500D02*
X106900D01*
X105500Y199100D02*
Y201900D01*
X207100Y151500D02*
X209900D01*
X208500Y150100D02*
Y152900D01*
X244600Y156000D02*
X247400D01*
X246000Y154600D02*
Y157400D01*
X394100Y199000D02*
X396900D01*
X395500Y197600D02*
Y200400D01*
X300600Y191500D02*
X303400D01*
X302000Y190100D02*
Y192900D01*
X166100Y487500D02*
X168900D01*
X167500Y486100D02*
Y488900D01*
X284100Y492000D02*
X286900D01*
X285500Y490600D02*
Y493400D01*
X296600Y492000D02*
X299400D01*
X298000Y490600D02*
Y493400D01*
X309600Y492000D02*
X312400D01*
X311000Y490600D02*
Y493400D01*
X394100Y356000D02*
X396900D01*
X395500Y354600D02*
Y357400D01*
X214600Y110000D02*
X217400D01*
X216000Y108600D02*
Y111400D01*
X215100Y120500D02*
X217900D01*
X216500Y119100D02*
Y121900D01*
X326084Y162255D02*
X328884D01*
X327484Y160855D02*
Y163655D01*
X237100Y136000D02*
X239900D01*
X238500Y134600D02*
Y137400D01*
X351600Y233700D02*
X354400D01*
X353000Y232300D02*
Y235100D01*
X172000Y325600D02*
X174800D01*
X173400Y324200D02*
Y327000D01*
X174600Y299000D02*
X177400D01*
X176000Y297600D02*
Y300400D01*
X334600Y190300D02*
X337400D01*
X336000Y188900D02*
Y191700D01*
X339400Y195700D02*
X342200D01*
X340800Y194300D02*
Y197100D01*
X206200Y132500D02*
X209000D01*
X207600Y131100D02*
Y133900D01*
X177240Y490531D02*
X189051D01*
X183146Y484626D02*
Y496437D01*
X257949Y490531D02*
X269760D01*
X263854Y484626D02*
Y496437D01*
X177240Y399980D02*
X189051D01*
X183146Y394075D02*
Y405886D01*
X257949Y399980D02*
X269760D01*
X263854Y394075D02*
Y405886D01*
M02*
