G04*
G04 #@! TF.GenerationSoftware,Altium Limited,Altium Designer,24.6.1 (21)*
G04*
G04 Layer_Color=16711935*
%FSLAX25Y25*%
%MOIN*%
G70*
G04*
G04 #@! TF.SameCoordinates,EDD53237-EAC9-4869-82B0-0CFB14AF029E*
G04*
G04*
G04 #@! TF.FilePolarity,Negative*
G04*
G01*
G75*
%ADD38C,0.06800*%
%ADD39R,0.06706X0.06706*%
%ADD40C,0.06706*%
%ADD41C,0.06394*%
%ADD42R,0.06307X0.06307*%
%ADD43C,0.06307*%
%ADD44O,0.04331X0.07480*%
%ADD45O,0.04331X0.08662*%
%ADD46R,0.07093X0.06600*%
%ADD47C,0.07493*%
%ADD48C,0.07887*%
%ADD49C,0.07093*%
%ADD50R,0.06394X0.06394*%
%ADD51C,0.05800*%
%ADD52C,0.13792*%
D38*
X133000Y343100D02*
D03*
X349157Y486000D02*
D03*
X378685D02*
D03*
X368843D02*
D03*
X359000D02*
D03*
D39*
X386000Y181500D02*
D03*
D40*
X366000D02*
D03*
X376000D02*
D03*
D41*
X363000Y343500D02*
D03*
X333000D02*
D03*
X343000D02*
D03*
X353000D02*
D03*
X126500Y492500D02*
D03*
X146500D02*
D03*
X116500Y482500D02*
D03*
Y492500D02*
D03*
X136500Y482500D02*
D03*
Y492500D02*
D03*
X126500Y482500D02*
D03*
D42*
X211000Y359000D02*
D03*
D43*
Y349000D02*
D03*
Y339000D02*
D03*
Y329000D02*
D03*
Y279000D02*
D03*
Y259000D02*
D03*
Y239000D02*
D03*
Y229000D02*
D03*
Y199000D02*
D03*
Y189000D02*
D03*
Y179000D02*
D03*
Y169000D02*
D03*
X271000D02*
D03*
Y179000D02*
D03*
Y189000D02*
D03*
Y199000D02*
D03*
Y239000D02*
D03*
Y249000D02*
D03*
Y259000D02*
D03*
Y269000D02*
D03*
Y279000D02*
D03*
Y289000D02*
D03*
Y299000D02*
D03*
Y309000D02*
D03*
Y339000D02*
D03*
Y349000D02*
D03*
Y219000D02*
D03*
Y229000D02*
D03*
Y359000D02*
D03*
X211000Y319000D02*
D03*
X271000Y329000D02*
D03*
X211000Y309000D02*
D03*
Y299000D02*
D03*
Y289000D02*
D03*
Y269000D02*
D03*
Y249000D02*
D03*
X271000Y209000D02*
D03*
Y319000D02*
D03*
X211000Y219000D02*
D03*
Y209000D02*
D03*
D44*
X256508Y111159D02*
D03*
X222492D02*
D03*
D45*
X256508Y127616D02*
D03*
X222492D02*
D03*
D46*
X131500Y307500D02*
D03*
X394500Y112500D02*
D03*
D47*
X238500Y492500D02*
D03*
X228500D02*
D03*
X218500D02*
D03*
X208500D02*
D03*
D48*
X137843Y204000D02*
D03*
X116316Y265500D02*
D03*
X118157Y204000D02*
D03*
X136001Y265500D02*
D03*
D49*
X384500Y112500D02*
D03*
X141500Y307500D02*
D03*
D50*
X146500Y482500D02*
D03*
D51*
X166500Y283500D02*
D03*
X184800Y284000D02*
D03*
X184000Y235000D02*
D03*
X165300Y333000D02*
D03*
X200000Y123000D02*
D03*
X187000Y115500D02*
D03*
X132100Y329500D02*
D03*
X115000D02*
D03*
Y344000D02*
D03*
Y357500D02*
D03*
X105500Y184000D02*
D03*
X180500Y167000D02*
D03*
X132100Y357500D02*
D03*
X105500Y230000D02*
D03*
Y241000D02*
D03*
Y252500D02*
D03*
Y200500D02*
D03*
X208500Y151500D02*
D03*
X246000Y156000D02*
D03*
X395500Y199000D02*
D03*
X302000Y191500D02*
D03*
X167500Y487500D02*
D03*
X285500Y492000D02*
D03*
X298000D02*
D03*
X311000D02*
D03*
X395500Y356000D02*
D03*
X216000Y110000D02*
D03*
X216500Y120500D02*
D03*
X327484Y162255D02*
D03*
X238500Y136000D02*
D03*
X353000Y233700D02*
D03*
X173400Y325600D02*
D03*
X176000Y299000D02*
D03*
X336000Y190300D02*
D03*
X340800Y195700D02*
D03*
X207600Y132500D02*
D03*
D52*
X183146Y490531D02*
D03*
X263854D02*
D03*
X183146Y399980D02*
D03*
X263854D02*
D03*
M02*
